%
M48
M72
T01C0.0236
T02C0.0394
T03C0.0402
T04C0.0512
T05C0.0630
T06C0.0709
T07C0.0780
T08C0.1181
T09C0.1340
%
T01
X4830Y5880
X5430Y6480
X3730Y6480
X6230Y9930
X9030Y7480
X11030Y7480
X10880Y5530
X14205Y10755
X17280Y8005
X20280Y8005
X20780Y5530
X26030Y9130
X24995Y11120
X28855Y13655
X29630Y15755
X27405Y19155
X28030Y22255
X28855Y22930
X24705Y24755
X23705Y23655
X22555Y24755
X20855Y25005
X19130Y24580
X20105Y23330
X19130Y26130
X16730Y26705
X15405Y25005
X14605Y26705
X14130Y27330
X11405Y26705
X10480Y25780
X8005Y25780
X4780Y27805
X5105Y19155
X6230Y14380
X14230Y22305
X17280Y16005
X23705Y21905
T02
X10880Y1580
X9880Y1580
X5880Y1580
X4880Y1580
T03
X25880Y21580
X25880Y22580
X25880Y23580
X26880Y23580
X26880Y22580
X26880Y21580
T04
X21823Y21180
X21823Y22400
X17137Y23188
X17137Y21180
T05
X27229Y8080
T06
X29001Y8080
T07
X23980Y3830
X14780Y3830
T08
X8380Y13380
X10380Y14380
X8380Y15380
X8380Y17380
X10380Y16380
T09
X1880Y1880
X1880Y28880
X28880Y28880
X28880Y1880
M30
