G75*
%MOIN*%
%OFA0B0*%
%FSLAX25Y25*%
%IPPOS*%
%LPD*%
%AMOC8*
5,1,8,0,0,1.08239X$1,22.5*
%
%ADD10C,0.00000*%
%ADD11R,0.05906X0.05118*%
%ADD12R,0.05118X0.05906*%
%ADD13R,0.05906X0.09449*%
%ADD14R,0.03543X0.04724*%
%ADD15R,0.03800X0.13800*%
%ADD16R,0.42200X0.40800*%
%ADD17R,0.06300X0.03300*%
%ADD18R,0.06300X0.12200*%
%ADD19C,0.15811*%
%ADD20C,0.11700*%
%ADD21R,0.07800X0.02200*%
%ADD22R,0.06024X0.06024*%
%ADD23C,0.06024*%
%ADD24C,0.07677*%
%ADD25C,0.05937*%
%ADD26C,0.01600*%
%ADD27C,0.03200*%
%ADD28C,0.03962*%
%ADD29C,0.05000*%
%ADD30C,0.02400*%
%ADD31C,0.04000*%
%ADD32C,0.01000*%
D10*
X0003800Y0003800D02*
X0003800Y0303800D01*
X0303800Y0303800D01*
X0303800Y0003800D01*
X0003800Y0003800D01*
X0012100Y0018800D02*
X0012102Y0018964D01*
X0012108Y0019129D01*
X0012118Y0019293D01*
X0012132Y0019457D01*
X0012150Y0019620D01*
X0012173Y0019783D01*
X0012199Y0019945D01*
X0012229Y0020107D01*
X0012263Y0020268D01*
X0012301Y0020428D01*
X0012343Y0020587D01*
X0012388Y0020745D01*
X0012438Y0020902D01*
X0012492Y0021057D01*
X0012549Y0021211D01*
X0012610Y0021364D01*
X0012675Y0021515D01*
X0012743Y0021665D01*
X0012815Y0021812D01*
X0012891Y0021958D01*
X0012970Y0022102D01*
X0013053Y0022244D01*
X0013139Y0022384D01*
X0013229Y0022522D01*
X0013322Y0022658D01*
X0013419Y0022791D01*
X0013518Y0022922D01*
X0013621Y0023050D01*
X0013727Y0023176D01*
X0013836Y0023299D01*
X0013948Y0023420D01*
X0014062Y0023538D01*
X0014180Y0023652D01*
X0014301Y0023764D01*
X0014424Y0023873D01*
X0014550Y0023979D01*
X0014678Y0024082D01*
X0014809Y0024181D01*
X0014942Y0024278D01*
X0015078Y0024371D01*
X0015216Y0024461D01*
X0015356Y0024547D01*
X0015498Y0024630D01*
X0015642Y0024709D01*
X0015788Y0024785D01*
X0015935Y0024857D01*
X0016085Y0024925D01*
X0016236Y0024990D01*
X0016389Y0025051D01*
X0016543Y0025108D01*
X0016698Y0025162D01*
X0016855Y0025212D01*
X0017013Y0025257D01*
X0017172Y0025299D01*
X0017332Y0025337D01*
X0017493Y0025371D01*
X0017655Y0025401D01*
X0017817Y0025427D01*
X0017980Y0025450D01*
X0018143Y0025468D01*
X0018307Y0025482D01*
X0018471Y0025492D01*
X0018636Y0025498D01*
X0018800Y0025500D01*
X0018964Y0025498D01*
X0019129Y0025492D01*
X0019293Y0025482D01*
X0019457Y0025468D01*
X0019620Y0025450D01*
X0019783Y0025427D01*
X0019945Y0025401D01*
X0020107Y0025371D01*
X0020268Y0025337D01*
X0020428Y0025299D01*
X0020587Y0025257D01*
X0020745Y0025212D01*
X0020902Y0025162D01*
X0021057Y0025108D01*
X0021211Y0025051D01*
X0021364Y0024990D01*
X0021515Y0024925D01*
X0021665Y0024857D01*
X0021812Y0024785D01*
X0021958Y0024709D01*
X0022102Y0024630D01*
X0022244Y0024547D01*
X0022384Y0024461D01*
X0022522Y0024371D01*
X0022658Y0024278D01*
X0022791Y0024181D01*
X0022922Y0024082D01*
X0023050Y0023979D01*
X0023176Y0023873D01*
X0023299Y0023764D01*
X0023420Y0023652D01*
X0023538Y0023538D01*
X0023652Y0023420D01*
X0023764Y0023299D01*
X0023873Y0023176D01*
X0023979Y0023050D01*
X0024082Y0022922D01*
X0024181Y0022791D01*
X0024278Y0022658D01*
X0024371Y0022522D01*
X0024461Y0022384D01*
X0024547Y0022244D01*
X0024630Y0022102D01*
X0024709Y0021958D01*
X0024785Y0021812D01*
X0024857Y0021665D01*
X0024925Y0021515D01*
X0024990Y0021364D01*
X0025051Y0021211D01*
X0025108Y0021057D01*
X0025162Y0020902D01*
X0025212Y0020745D01*
X0025257Y0020587D01*
X0025299Y0020428D01*
X0025337Y0020268D01*
X0025371Y0020107D01*
X0025401Y0019945D01*
X0025427Y0019783D01*
X0025450Y0019620D01*
X0025468Y0019457D01*
X0025482Y0019293D01*
X0025492Y0019129D01*
X0025498Y0018964D01*
X0025500Y0018800D01*
X0025498Y0018636D01*
X0025492Y0018471D01*
X0025482Y0018307D01*
X0025468Y0018143D01*
X0025450Y0017980D01*
X0025427Y0017817D01*
X0025401Y0017655D01*
X0025371Y0017493D01*
X0025337Y0017332D01*
X0025299Y0017172D01*
X0025257Y0017013D01*
X0025212Y0016855D01*
X0025162Y0016698D01*
X0025108Y0016543D01*
X0025051Y0016389D01*
X0024990Y0016236D01*
X0024925Y0016085D01*
X0024857Y0015935D01*
X0024785Y0015788D01*
X0024709Y0015642D01*
X0024630Y0015498D01*
X0024547Y0015356D01*
X0024461Y0015216D01*
X0024371Y0015078D01*
X0024278Y0014942D01*
X0024181Y0014809D01*
X0024082Y0014678D01*
X0023979Y0014550D01*
X0023873Y0014424D01*
X0023764Y0014301D01*
X0023652Y0014180D01*
X0023538Y0014062D01*
X0023420Y0013948D01*
X0023299Y0013836D01*
X0023176Y0013727D01*
X0023050Y0013621D01*
X0022922Y0013518D01*
X0022791Y0013419D01*
X0022658Y0013322D01*
X0022522Y0013229D01*
X0022384Y0013139D01*
X0022244Y0013053D01*
X0022102Y0012970D01*
X0021958Y0012891D01*
X0021812Y0012815D01*
X0021665Y0012743D01*
X0021515Y0012675D01*
X0021364Y0012610D01*
X0021211Y0012549D01*
X0021057Y0012492D01*
X0020902Y0012438D01*
X0020745Y0012388D01*
X0020587Y0012343D01*
X0020428Y0012301D01*
X0020268Y0012263D01*
X0020107Y0012229D01*
X0019945Y0012199D01*
X0019783Y0012173D01*
X0019620Y0012150D01*
X0019457Y0012132D01*
X0019293Y0012118D01*
X0019129Y0012108D01*
X0018964Y0012102D01*
X0018800Y0012100D01*
X0018636Y0012102D01*
X0018471Y0012108D01*
X0018307Y0012118D01*
X0018143Y0012132D01*
X0017980Y0012150D01*
X0017817Y0012173D01*
X0017655Y0012199D01*
X0017493Y0012229D01*
X0017332Y0012263D01*
X0017172Y0012301D01*
X0017013Y0012343D01*
X0016855Y0012388D01*
X0016698Y0012438D01*
X0016543Y0012492D01*
X0016389Y0012549D01*
X0016236Y0012610D01*
X0016085Y0012675D01*
X0015935Y0012743D01*
X0015788Y0012815D01*
X0015642Y0012891D01*
X0015498Y0012970D01*
X0015356Y0013053D01*
X0015216Y0013139D01*
X0015078Y0013229D01*
X0014942Y0013322D01*
X0014809Y0013419D01*
X0014678Y0013518D01*
X0014550Y0013621D01*
X0014424Y0013727D01*
X0014301Y0013836D01*
X0014180Y0013948D01*
X0014062Y0014062D01*
X0013948Y0014180D01*
X0013836Y0014301D01*
X0013727Y0014424D01*
X0013621Y0014550D01*
X0013518Y0014678D01*
X0013419Y0014809D01*
X0013322Y0014942D01*
X0013229Y0015078D01*
X0013139Y0015216D01*
X0013053Y0015356D01*
X0012970Y0015498D01*
X0012891Y0015642D01*
X0012815Y0015788D01*
X0012743Y0015935D01*
X0012675Y0016085D01*
X0012610Y0016236D01*
X0012549Y0016389D01*
X0012492Y0016543D01*
X0012438Y0016698D01*
X0012388Y0016855D01*
X0012343Y0017013D01*
X0012301Y0017172D01*
X0012263Y0017332D01*
X0012229Y0017493D01*
X0012199Y0017655D01*
X0012173Y0017817D01*
X0012150Y0017980D01*
X0012132Y0018143D01*
X0012118Y0018307D01*
X0012108Y0018471D01*
X0012102Y0018636D01*
X0012100Y0018800D01*
X0269142Y0080800D02*
X0269144Y0080912D01*
X0269150Y0081023D01*
X0269160Y0081135D01*
X0269174Y0081246D01*
X0269191Y0081356D01*
X0269213Y0081466D01*
X0269239Y0081575D01*
X0269268Y0081683D01*
X0269301Y0081789D01*
X0269338Y0081895D01*
X0269379Y0081999D01*
X0269424Y0082102D01*
X0269472Y0082203D01*
X0269523Y0082302D01*
X0269578Y0082399D01*
X0269637Y0082494D01*
X0269698Y0082588D01*
X0269763Y0082679D01*
X0269832Y0082767D01*
X0269903Y0082853D01*
X0269977Y0082937D01*
X0270055Y0083017D01*
X0270135Y0083095D01*
X0270218Y0083171D01*
X0270303Y0083243D01*
X0270391Y0083312D01*
X0270481Y0083378D01*
X0270574Y0083440D01*
X0270669Y0083500D01*
X0270766Y0083556D01*
X0270864Y0083608D01*
X0270965Y0083657D01*
X0271067Y0083702D01*
X0271171Y0083744D01*
X0271276Y0083782D01*
X0271383Y0083816D01*
X0271490Y0083846D01*
X0271599Y0083873D01*
X0271708Y0083895D01*
X0271819Y0083914D01*
X0271929Y0083929D01*
X0272041Y0083940D01*
X0272152Y0083947D01*
X0272264Y0083950D01*
X0272376Y0083949D01*
X0272488Y0083944D01*
X0272599Y0083935D01*
X0272710Y0083922D01*
X0272821Y0083905D01*
X0272931Y0083885D01*
X0273040Y0083860D01*
X0273148Y0083832D01*
X0273255Y0083799D01*
X0273361Y0083763D01*
X0273465Y0083723D01*
X0273568Y0083680D01*
X0273670Y0083633D01*
X0273769Y0083582D01*
X0273867Y0083528D01*
X0273963Y0083470D01*
X0274057Y0083409D01*
X0274148Y0083345D01*
X0274237Y0083278D01*
X0274324Y0083207D01*
X0274408Y0083133D01*
X0274490Y0083057D01*
X0274568Y0082977D01*
X0274644Y0082895D01*
X0274717Y0082810D01*
X0274787Y0082723D01*
X0274853Y0082633D01*
X0274917Y0082541D01*
X0274977Y0082447D01*
X0275034Y0082351D01*
X0275087Y0082252D01*
X0275137Y0082152D01*
X0275183Y0082051D01*
X0275226Y0081947D01*
X0275265Y0081842D01*
X0275300Y0081736D01*
X0275331Y0081629D01*
X0275359Y0081520D01*
X0275382Y0081411D01*
X0275402Y0081301D01*
X0275418Y0081190D01*
X0275430Y0081079D01*
X0275438Y0080968D01*
X0275442Y0080856D01*
X0275442Y0080744D01*
X0275438Y0080632D01*
X0275430Y0080521D01*
X0275418Y0080410D01*
X0275402Y0080299D01*
X0275382Y0080189D01*
X0275359Y0080080D01*
X0275331Y0079971D01*
X0275300Y0079864D01*
X0275265Y0079758D01*
X0275226Y0079653D01*
X0275183Y0079549D01*
X0275137Y0079448D01*
X0275087Y0079348D01*
X0275034Y0079249D01*
X0274977Y0079153D01*
X0274917Y0079059D01*
X0274853Y0078967D01*
X0274787Y0078877D01*
X0274717Y0078790D01*
X0274644Y0078705D01*
X0274568Y0078623D01*
X0274490Y0078543D01*
X0274408Y0078467D01*
X0274324Y0078393D01*
X0274237Y0078322D01*
X0274148Y0078255D01*
X0274057Y0078191D01*
X0273963Y0078130D01*
X0273867Y0078072D01*
X0273769Y0078018D01*
X0273670Y0077967D01*
X0273568Y0077920D01*
X0273465Y0077877D01*
X0273361Y0077837D01*
X0273255Y0077801D01*
X0273148Y0077768D01*
X0273040Y0077740D01*
X0272931Y0077715D01*
X0272821Y0077695D01*
X0272710Y0077678D01*
X0272599Y0077665D01*
X0272488Y0077656D01*
X0272376Y0077651D01*
X0272264Y0077650D01*
X0272152Y0077653D01*
X0272041Y0077660D01*
X0271929Y0077671D01*
X0271819Y0077686D01*
X0271708Y0077705D01*
X0271599Y0077727D01*
X0271490Y0077754D01*
X0271383Y0077784D01*
X0271276Y0077818D01*
X0271171Y0077856D01*
X0271067Y0077898D01*
X0270965Y0077943D01*
X0270864Y0077992D01*
X0270766Y0078044D01*
X0270669Y0078100D01*
X0270574Y0078160D01*
X0270481Y0078222D01*
X0270391Y0078288D01*
X0270303Y0078357D01*
X0270218Y0078429D01*
X0270135Y0078505D01*
X0270055Y0078583D01*
X0269977Y0078663D01*
X0269903Y0078747D01*
X0269832Y0078833D01*
X0269763Y0078921D01*
X0269698Y0079012D01*
X0269637Y0079106D01*
X0269578Y0079201D01*
X0269523Y0079298D01*
X0269472Y0079397D01*
X0269424Y0079498D01*
X0269379Y0079601D01*
X0269338Y0079705D01*
X0269301Y0079811D01*
X0269268Y0079917D01*
X0269239Y0080025D01*
X0269213Y0080134D01*
X0269191Y0080244D01*
X0269174Y0080354D01*
X0269160Y0080465D01*
X0269150Y0080577D01*
X0269144Y0080688D01*
X0269142Y0080800D01*
X0286466Y0080800D02*
X0286468Y0080918D01*
X0286474Y0081037D01*
X0286484Y0081155D01*
X0286498Y0081272D01*
X0286515Y0081389D01*
X0286537Y0081506D01*
X0286563Y0081621D01*
X0286592Y0081736D01*
X0286625Y0081850D01*
X0286662Y0081962D01*
X0286703Y0082073D01*
X0286747Y0082183D01*
X0286795Y0082291D01*
X0286847Y0082398D01*
X0286902Y0082503D01*
X0286961Y0082606D01*
X0287023Y0082706D01*
X0287088Y0082805D01*
X0287157Y0082902D01*
X0287228Y0082996D01*
X0287303Y0083087D01*
X0287381Y0083177D01*
X0287462Y0083263D01*
X0287546Y0083347D01*
X0287632Y0083428D01*
X0287722Y0083506D01*
X0287813Y0083581D01*
X0287907Y0083652D01*
X0288004Y0083721D01*
X0288103Y0083786D01*
X0288203Y0083848D01*
X0288306Y0083907D01*
X0288411Y0083962D01*
X0288518Y0084014D01*
X0288626Y0084062D01*
X0288736Y0084106D01*
X0288847Y0084147D01*
X0288959Y0084184D01*
X0289073Y0084217D01*
X0289188Y0084246D01*
X0289303Y0084272D01*
X0289420Y0084294D01*
X0289537Y0084311D01*
X0289654Y0084325D01*
X0289772Y0084335D01*
X0289891Y0084341D01*
X0290009Y0084343D01*
X0290127Y0084341D01*
X0290246Y0084335D01*
X0290364Y0084325D01*
X0290481Y0084311D01*
X0290598Y0084294D01*
X0290715Y0084272D01*
X0290830Y0084246D01*
X0290945Y0084217D01*
X0291059Y0084184D01*
X0291171Y0084147D01*
X0291282Y0084106D01*
X0291392Y0084062D01*
X0291500Y0084014D01*
X0291607Y0083962D01*
X0291712Y0083907D01*
X0291815Y0083848D01*
X0291915Y0083786D01*
X0292014Y0083721D01*
X0292111Y0083652D01*
X0292205Y0083581D01*
X0292296Y0083506D01*
X0292386Y0083428D01*
X0292472Y0083347D01*
X0292556Y0083263D01*
X0292637Y0083177D01*
X0292715Y0083087D01*
X0292790Y0082996D01*
X0292861Y0082902D01*
X0292930Y0082805D01*
X0292995Y0082706D01*
X0293057Y0082606D01*
X0293116Y0082503D01*
X0293171Y0082398D01*
X0293223Y0082291D01*
X0293271Y0082183D01*
X0293315Y0082073D01*
X0293356Y0081962D01*
X0293393Y0081850D01*
X0293426Y0081736D01*
X0293455Y0081621D01*
X0293481Y0081506D01*
X0293503Y0081389D01*
X0293520Y0081272D01*
X0293534Y0081155D01*
X0293544Y0081037D01*
X0293550Y0080918D01*
X0293552Y0080800D01*
X0293550Y0080682D01*
X0293544Y0080563D01*
X0293534Y0080445D01*
X0293520Y0080328D01*
X0293503Y0080211D01*
X0293481Y0080094D01*
X0293455Y0079979D01*
X0293426Y0079864D01*
X0293393Y0079750D01*
X0293356Y0079638D01*
X0293315Y0079527D01*
X0293271Y0079417D01*
X0293223Y0079309D01*
X0293171Y0079202D01*
X0293116Y0079097D01*
X0293057Y0078994D01*
X0292995Y0078894D01*
X0292930Y0078795D01*
X0292861Y0078698D01*
X0292790Y0078604D01*
X0292715Y0078513D01*
X0292637Y0078423D01*
X0292556Y0078337D01*
X0292472Y0078253D01*
X0292386Y0078172D01*
X0292296Y0078094D01*
X0292205Y0078019D01*
X0292111Y0077948D01*
X0292014Y0077879D01*
X0291915Y0077814D01*
X0291815Y0077752D01*
X0291712Y0077693D01*
X0291607Y0077638D01*
X0291500Y0077586D01*
X0291392Y0077538D01*
X0291282Y0077494D01*
X0291171Y0077453D01*
X0291059Y0077416D01*
X0290945Y0077383D01*
X0290830Y0077354D01*
X0290715Y0077328D01*
X0290598Y0077306D01*
X0290481Y0077289D01*
X0290364Y0077275D01*
X0290246Y0077265D01*
X0290127Y0077259D01*
X0290009Y0077257D01*
X0289891Y0077259D01*
X0289772Y0077265D01*
X0289654Y0077275D01*
X0289537Y0077289D01*
X0289420Y0077306D01*
X0289303Y0077328D01*
X0289188Y0077354D01*
X0289073Y0077383D01*
X0288959Y0077416D01*
X0288847Y0077453D01*
X0288736Y0077494D01*
X0288626Y0077538D01*
X0288518Y0077586D01*
X0288411Y0077638D01*
X0288306Y0077693D01*
X0288203Y0077752D01*
X0288103Y0077814D01*
X0288004Y0077879D01*
X0287907Y0077948D01*
X0287813Y0078019D01*
X0287722Y0078094D01*
X0287632Y0078172D01*
X0287546Y0078253D01*
X0287462Y0078337D01*
X0287381Y0078423D01*
X0287303Y0078513D01*
X0287228Y0078604D01*
X0287157Y0078698D01*
X0287088Y0078795D01*
X0287023Y0078894D01*
X0286961Y0078994D01*
X0286902Y0079097D01*
X0286847Y0079202D01*
X0286795Y0079309D01*
X0286747Y0079417D01*
X0286703Y0079527D01*
X0286662Y0079638D01*
X0286625Y0079750D01*
X0286592Y0079864D01*
X0286563Y0079979D01*
X0286537Y0080094D01*
X0286515Y0080211D01*
X0286498Y0080328D01*
X0286484Y0080445D01*
X0286474Y0080563D01*
X0286468Y0080682D01*
X0286466Y0080800D01*
X0282100Y0018800D02*
X0282102Y0018964D01*
X0282108Y0019129D01*
X0282118Y0019293D01*
X0282132Y0019457D01*
X0282150Y0019620D01*
X0282173Y0019783D01*
X0282199Y0019945D01*
X0282229Y0020107D01*
X0282263Y0020268D01*
X0282301Y0020428D01*
X0282343Y0020587D01*
X0282388Y0020745D01*
X0282438Y0020902D01*
X0282492Y0021057D01*
X0282549Y0021211D01*
X0282610Y0021364D01*
X0282675Y0021515D01*
X0282743Y0021665D01*
X0282815Y0021812D01*
X0282891Y0021958D01*
X0282970Y0022102D01*
X0283053Y0022244D01*
X0283139Y0022384D01*
X0283229Y0022522D01*
X0283322Y0022658D01*
X0283419Y0022791D01*
X0283518Y0022922D01*
X0283621Y0023050D01*
X0283727Y0023176D01*
X0283836Y0023299D01*
X0283948Y0023420D01*
X0284062Y0023538D01*
X0284180Y0023652D01*
X0284301Y0023764D01*
X0284424Y0023873D01*
X0284550Y0023979D01*
X0284678Y0024082D01*
X0284809Y0024181D01*
X0284942Y0024278D01*
X0285078Y0024371D01*
X0285216Y0024461D01*
X0285356Y0024547D01*
X0285498Y0024630D01*
X0285642Y0024709D01*
X0285788Y0024785D01*
X0285935Y0024857D01*
X0286085Y0024925D01*
X0286236Y0024990D01*
X0286389Y0025051D01*
X0286543Y0025108D01*
X0286698Y0025162D01*
X0286855Y0025212D01*
X0287013Y0025257D01*
X0287172Y0025299D01*
X0287332Y0025337D01*
X0287493Y0025371D01*
X0287655Y0025401D01*
X0287817Y0025427D01*
X0287980Y0025450D01*
X0288143Y0025468D01*
X0288307Y0025482D01*
X0288471Y0025492D01*
X0288636Y0025498D01*
X0288800Y0025500D01*
X0288964Y0025498D01*
X0289129Y0025492D01*
X0289293Y0025482D01*
X0289457Y0025468D01*
X0289620Y0025450D01*
X0289783Y0025427D01*
X0289945Y0025401D01*
X0290107Y0025371D01*
X0290268Y0025337D01*
X0290428Y0025299D01*
X0290587Y0025257D01*
X0290745Y0025212D01*
X0290902Y0025162D01*
X0291057Y0025108D01*
X0291211Y0025051D01*
X0291364Y0024990D01*
X0291515Y0024925D01*
X0291665Y0024857D01*
X0291812Y0024785D01*
X0291958Y0024709D01*
X0292102Y0024630D01*
X0292244Y0024547D01*
X0292384Y0024461D01*
X0292522Y0024371D01*
X0292658Y0024278D01*
X0292791Y0024181D01*
X0292922Y0024082D01*
X0293050Y0023979D01*
X0293176Y0023873D01*
X0293299Y0023764D01*
X0293420Y0023652D01*
X0293538Y0023538D01*
X0293652Y0023420D01*
X0293764Y0023299D01*
X0293873Y0023176D01*
X0293979Y0023050D01*
X0294082Y0022922D01*
X0294181Y0022791D01*
X0294278Y0022658D01*
X0294371Y0022522D01*
X0294461Y0022384D01*
X0294547Y0022244D01*
X0294630Y0022102D01*
X0294709Y0021958D01*
X0294785Y0021812D01*
X0294857Y0021665D01*
X0294925Y0021515D01*
X0294990Y0021364D01*
X0295051Y0021211D01*
X0295108Y0021057D01*
X0295162Y0020902D01*
X0295212Y0020745D01*
X0295257Y0020587D01*
X0295299Y0020428D01*
X0295337Y0020268D01*
X0295371Y0020107D01*
X0295401Y0019945D01*
X0295427Y0019783D01*
X0295450Y0019620D01*
X0295468Y0019457D01*
X0295482Y0019293D01*
X0295492Y0019129D01*
X0295498Y0018964D01*
X0295500Y0018800D01*
X0295498Y0018636D01*
X0295492Y0018471D01*
X0295482Y0018307D01*
X0295468Y0018143D01*
X0295450Y0017980D01*
X0295427Y0017817D01*
X0295401Y0017655D01*
X0295371Y0017493D01*
X0295337Y0017332D01*
X0295299Y0017172D01*
X0295257Y0017013D01*
X0295212Y0016855D01*
X0295162Y0016698D01*
X0295108Y0016543D01*
X0295051Y0016389D01*
X0294990Y0016236D01*
X0294925Y0016085D01*
X0294857Y0015935D01*
X0294785Y0015788D01*
X0294709Y0015642D01*
X0294630Y0015498D01*
X0294547Y0015356D01*
X0294461Y0015216D01*
X0294371Y0015078D01*
X0294278Y0014942D01*
X0294181Y0014809D01*
X0294082Y0014678D01*
X0293979Y0014550D01*
X0293873Y0014424D01*
X0293764Y0014301D01*
X0293652Y0014180D01*
X0293538Y0014062D01*
X0293420Y0013948D01*
X0293299Y0013836D01*
X0293176Y0013727D01*
X0293050Y0013621D01*
X0292922Y0013518D01*
X0292791Y0013419D01*
X0292658Y0013322D01*
X0292522Y0013229D01*
X0292384Y0013139D01*
X0292244Y0013053D01*
X0292102Y0012970D01*
X0291958Y0012891D01*
X0291812Y0012815D01*
X0291665Y0012743D01*
X0291515Y0012675D01*
X0291364Y0012610D01*
X0291211Y0012549D01*
X0291057Y0012492D01*
X0290902Y0012438D01*
X0290745Y0012388D01*
X0290587Y0012343D01*
X0290428Y0012301D01*
X0290268Y0012263D01*
X0290107Y0012229D01*
X0289945Y0012199D01*
X0289783Y0012173D01*
X0289620Y0012150D01*
X0289457Y0012132D01*
X0289293Y0012118D01*
X0289129Y0012108D01*
X0288964Y0012102D01*
X0288800Y0012100D01*
X0288636Y0012102D01*
X0288471Y0012108D01*
X0288307Y0012118D01*
X0288143Y0012132D01*
X0287980Y0012150D01*
X0287817Y0012173D01*
X0287655Y0012199D01*
X0287493Y0012229D01*
X0287332Y0012263D01*
X0287172Y0012301D01*
X0287013Y0012343D01*
X0286855Y0012388D01*
X0286698Y0012438D01*
X0286543Y0012492D01*
X0286389Y0012549D01*
X0286236Y0012610D01*
X0286085Y0012675D01*
X0285935Y0012743D01*
X0285788Y0012815D01*
X0285642Y0012891D01*
X0285498Y0012970D01*
X0285356Y0013053D01*
X0285216Y0013139D01*
X0285078Y0013229D01*
X0284942Y0013322D01*
X0284809Y0013419D01*
X0284678Y0013518D01*
X0284550Y0013621D01*
X0284424Y0013727D01*
X0284301Y0013836D01*
X0284180Y0013948D01*
X0284062Y0014062D01*
X0283948Y0014180D01*
X0283836Y0014301D01*
X0283727Y0014424D01*
X0283621Y0014550D01*
X0283518Y0014678D01*
X0283419Y0014809D01*
X0283322Y0014942D01*
X0283229Y0015078D01*
X0283139Y0015216D01*
X0283053Y0015356D01*
X0282970Y0015498D01*
X0282891Y0015642D01*
X0282815Y0015788D01*
X0282743Y0015935D01*
X0282675Y0016085D01*
X0282610Y0016236D01*
X0282549Y0016389D01*
X0282492Y0016543D01*
X0282438Y0016698D01*
X0282388Y0016855D01*
X0282343Y0017013D01*
X0282301Y0017172D01*
X0282263Y0017332D01*
X0282229Y0017493D01*
X0282199Y0017655D01*
X0282173Y0017817D01*
X0282150Y0017980D01*
X0282132Y0018143D01*
X0282118Y0018307D01*
X0282108Y0018471D01*
X0282102Y0018636D01*
X0282100Y0018800D01*
X0282100Y0288800D02*
X0282102Y0288964D01*
X0282108Y0289129D01*
X0282118Y0289293D01*
X0282132Y0289457D01*
X0282150Y0289620D01*
X0282173Y0289783D01*
X0282199Y0289945D01*
X0282229Y0290107D01*
X0282263Y0290268D01*
X0282301Y0290428D01*
X0282343Y0290587D01*
X0282388Y0290745D01*
X0282438Y0290902D01*
X0282492Y0291057D01*
X0282549Y0291211D01*
X0282610Y0291364D01*
X0282675Y0291515D01*
X0282743Y0291665D01*
X0282815Y0291812D01*
X0282891Y0291958D01*
X0282970Y0292102D01*
X0283053Y0292244D01*
X0283139Y0292384D01*
X0283229Y0292522D01*
X0283322Y0292658D01*
X0283419Y0292791D01*
X0283518Y0292922D01*
X0283621Y0293050D01*
X0283727Y0293176D01*
X0283836Y0293299D01*
X0283948Y0293420D01*
X0284062Y0293538D01*
X0284180Y0293652D01*
X0284301Y0293764D01*
X0284424Y0293873D01*
X0284550Y0293979D01*
X0284678Y0294082D01*
X0284809Y0294181D01*
X0284942Y0294278D01*
X0285078Y0294371D01*
X0285216Y0294461D01*
X0285356Y0294547D01*
X0285498Y0294630D01*
X0285642Y0294709D01*
X0285788Y0294785D01*
X0285935Y0294857D01*
X0286085Y0294925D01*
X0286236Y0294990D01*
X0286389Y0295051D01*
X0286543Y0295108D01*
X0286698Y0295162D01*
X0286855Y0295212D01*
X0287013Y0295257D01*
X0287172Y0295299D01*
X0287332Y0295337D01*
X0287493Y0295371D01*
X0287655Y0295401D01*
X0287817Y0295427D01*
X0287980Y0295450D01*
X0288143Y0295468D01*
X0288307Y0295482D01*
X0288471Y0295492D01*
X0288636Y0295498D01*
X0288800Y0295500D01*
X0288964Y0295498D01*
X0289129Y0295492D01*
X0289293Y0295482D01*
X0289457Y0295468D01*
X0289620Y0295450D01*
X0289783Y0295427D01*
X0289945Y0295401D01*
X0290107Y0295371D01*
X0290268Y0295337D01*
X0290428Y0295299D01*
X0290587Y0295257D01*
X0290745Y0295212D01*
X0290902Y0295162D01*
X0291057Y0295108D01*
X0291211Y0295051D01*
X0291364Y0294990D01*
X0291515Y0294925D01*
X0291665Y0294857D01*
X0291812Y0294785D01*
X0291958Y0294709D01*
X0292102Y0294630D01*
X0292244Y0294547D01*
X0292384Y0294461D01*
X0292522Y0294371D01*
X0292658Y0294278D01*
X0292791Y0294181D01*
X0292922Y0294082D01*
X0293050Y0293979D01*
X0293176Y0293873D01*
X0293299Y0293764D01*
X0293420Y0293652D01*
X0293538Y0293538D01*
X0293652Y0293420D01*
X0293764Y0293299D01*
X0293873Y0293176D01*
X0293979Y0293050D01*
X0294082Y0292922D01*
X0294181Y0292791D01*
X0294278Y0292658D01*
X0294371Y0292522D01*
X0294461Y0292384D01*
X0294547Y0292244D01*
X0294630Y0292102D01*
X0294709Y0291958D01*
X0294785Y0291812D01*
X0294857Y0291665D01*
X0294925Y0291515D01*
X0294990Y0291364D01*
X0295051Y0291211D01*
X0295108Y0291057D01*
X0295162Y0290902D01*
X0295212Y0290745D01*
X0295257Y0290587D01*
X0295299Y0290428D01*
X0295337Y0290268D01*
X0295371Y0290107D01*
X0295401Y0289945D01*
X0295427Y0289783D01*
X0295450Y0289620D01*
X0295468Y0289457D01*
X0295482Y0289293D01*
X0295492Y0289129D01*
X0295498Y0288964D01*
X0295500Y0288800D01*
X0295498Y0288636D01*
X0295492Y0288471D01*
X0295482Y0288307D01*
X0295468Y0288143D01*
X0295450Y0287980D01*
X0295427Y0287817D01*
X0295401Y0287655D01*
X0295371Y0287493D01*
X0295337Y0287332D01*
X0295299Y0287172D01*
X0295257Y0287013D01*
X0295212Y0286855D01*
X0295162Y0286698D01*
X0295108Y0286543D01*
X0295051Y0286389D01*
X0294990Y0286236D01*
X0294925Y0286085D01*
X0294857Y0285935D01*
X0294785Y0285788D01*
X0294709Y0285642D01*
X0294630Y0285498D01*
X0294547Y0285356D01*
X0294461Y0285216D01*
X0294371Y0285078D01*
X0294278Y0284942D01*
X0294181Y0284809D01*
X0294082Y0284678D01*
X0293979Y0284550D01*
X0293873Y0284424D01*
X0293764Y0284301D01*
X0293652Y0284180D01*
X0293538Y0284062D01*
X0293420Y0283948D01*
X0293299Y0283836D01*
X0293176Y0283727D01*
X0293050Y0283621D01*
X0292922Y0283518D01*
X0292791Y0283419D01*
X0292658Y0283322D01*
X0292522Y0283229D01*
X0292384Y0283139D01*
X0292244Y0283053D01*
X0292102Y0282970D01*
X0291958Y0282891D01*
X0291812Y0282815D01*
X0291665Y0282743D01*
X0291515Y0282675D01*
X0291364Y0282610D01*
X0291211Y0282549D01*
X0291057Y0282492D01*
X0290902Y0282438D01*
X0290745Y0282388D01*
X0290587Y0282343D01*
X0290428Y0282301D01*
X0290268Y0282263D01*
X0290107Y0282229D01*
X0289945Y0282199D01*
X0289783Y0282173D01*
X0289620Y0282150D01*
X0289457Y0282132D01*
X0289293Y0282118D01*
X0289129Y0282108D01*
X0288964Y0282102D01*
X0288800Y0282100D01*
X0288636Y0282102D01*
X0288471Y0282108D01*
X0288307Y0282118D01*
X0288143Y0282132D01*
X0287980Y0282150D01*
X0287817Y0282173D01*
X0287655Y0282199D01*
X0287493Y0282229D01*
X0287332Y0282263D01*
X0287172Y0282301D01*
X0287013Y0282343D01*
X0286855Y0282388D01*
X0286698Y0282438D01*
X0286543Y0282492D01*
X0286389Y0282549D01*
X0286236Y0282610D01*
X0286085Y0282675D01*
X0285935Y0282743D01*
X0285788Y0282815D01*
X0285642Y0282891D01*
X0285498Y0282970D01*
X0285356Y0283053D01*
X0285216Y0283139D01*
X0285078Y0283229D01*
X0284942Y0283322D01*
X0284809Y0283419D01*
X0284678Y0283518D01*
X0284550Y0283621D01*
X0284424Y0283727D01*
X0284301Y0283836D01*
X0284180Y0283948D01*
X0284062Y0284062D01*
X0283948Y0284180D01*
X0283836Y0284301D01*
X0283727Y0284424D01*
X0283621Y0284550D01*
X0283518Y0284678D01*
X0283419Y0284809D01*
X0283322Y0284942D01*
X0283229Y0285078D01*
X0283139Y0285216D01*
X0283053Y0285356D01*
X0282970Y0285498D01*
X0282891Y0285642D01*
X0282815Y0285788D01*
X0282743Y0285935D01*
X0282675Y0286085D01*
X0282610Y0286236D01*
X0282549Y0286389D01*
X0282492Y0286543D01*
X0282438Y0286698D01*
X0282388Y0286855D01*
X0282343Y0287013D01*
X0282301Y0287172D01*
X0282263Y0287332D01*
X0282229Y0287493D01*
X0282199Y0287655D01*
X0282173Y0287817D01*
X0282150Y0287980D01*
X0282132Y0288143D01*
X0282118Y0288307D01*
X0282108Y0288471D01*
X0282102Y0288636D01*
X0282100Y0288800D01*
X0012100Y0288800D02*
X0012102Y0288964D01*
X0012108Y0289129D01*
X0012118Y0289293D01*
X0012132Y0289457D01*
X0012150Y0289620D01*
X0012173Y0289783D01*
X0012199Y0289945D01*
X0012229Y0290107D01*
X0012263Y0290268D01*
X0012301Y0290428D01*
X0012343Y0290587D01*
X0012388Y0290745D01*
X0012438Y0290902D01*
X0012492Y0291057D01*
X0012549Y0291211D01*
X0012610Y0291364D01*
X0012675Y0291515D01*
X0012743Y0291665D01*
X0012815Y0291812D01*
X0012891Y0291958D01*
X0012970Y0292102D01*
X0013053Y0292244D01*
X0013139Y0292384D01*
X0013229Y0292522D01*
X0013322Y0292658D01*
X0013419Y0292791D01*
X0013518Y0292922D01*
X0013621Y0293050D01*
X0013727Y0293176D01*
X0013836Y0293299D01*
X0013948Y0293420D01*
X0014062Y0293538D01*
X0014180Y0293652D01*
X0014301Y0293764D01*
X0014424Y0293873D01*
X0014550Y0293979D01*
X0014678Y0294082D01*
X0014809Y0294181D01*
X0014942Y0294278D01*
X0015078Y0294371D01*
X0015216Y0294461D01*
X0015356Y0294547D01*
X0015498Y0294630D01*
X0015642Y0294709D01*
X0015788Y0294785D01*
X0015935Y0294857D01*
X0016085Y0294925D01*
X0016236Y0294990D01*
X0016389Y0295051D01*
X0016543Y0295108D01*
X0016698Y0295162D01*
X0016855Y0295212D01*
X0017013Y0295257D01*
X0017172Y0295299D01*
X0017332Y0295337D01*
X0017493Y0295371D01*
X0017655Y0295401D01*
X0017817Y0295427D01*
X0017980Y0295450D01*
X0018143Y0295468D01*
X0018307Y0295482D01*
X0018471Y0295492D01*
X0018636Y0295498D01*
X0018800Y0295500D01*
X0018964Y0295498D01*
X0019129Y0295492D01*
X0019293Y0295482D01*
X0019457Y0295468D01*
X0019620Y0295450D01*
X0019783Y0295427D01*
X0019945Y0295401D01*
X0020107Y0295371D01*
X0020268Y0295337D01*
X0020428Y0295299D01*
X0020587Y0295257D01*
X0020745Y0295212D01*
X0020902Y0295162D01*
X0021057Y0295108D01*
X0021211Y0295051D01*
X0021364Y0294990D01*
X0021515Y0294925D01*
X0021665Y0294857D01*
X0021812Y0294785D01*
X0021958Y0294709D01*
X0022102Y0294630D01*
X0022244Y0294547D01*
X0022384Y0294461D01*
X0022522Y0294371D01*
X0022658Y0294278D01*
X0022791Y0294181D01*
X0022922Y0294082D01*
X0023050Y0293979D01*
X0023176Y0293873D01*
X0023299Y0293764D01*
X0023420Y0293652D01*
X0023538Y0293538D01*
X0023652Y0293420D01*
X0023764Y0293299D01*
X0023873Y0293176D01*
X0023979Y0293050D01*
X0024082Y0292922D01*
X0024181Y0292791D01*
X0024278Y0292658D01*
X0024371Y0292522D01*
X0024461Y0292384D01*
X0024547Y0292244D01*
X0024630Y0292102D01*
X0024709Y0291958D01*
X0024785Y0291812D01*
X0024857Y0291665D01*
X0024925Y0291515D01*
X0024990Y0291364D01*
X0025051Y0291211D01*
X0025108Y0291057D01*
X0025162Y0290902D01*
X0025212Y0290745D01*
X0025257Y0290587D01*
X0025299Y0290428D01*
X0025337Y0290268D01*
X0025371Y0290107D01*
X0025401Y0289945D01*
X0025427Y0289783D01*
X0025450Y0289620D01*
X0025468Y0289457D01*
X0025482Y0289293D01*
X0025492Y0289129D01*
X0025498Y0288964D01*
X0025500Y0288800D01*
X0025498Y0288636D01*
X0025492Y0288471D01*
X0025482Y0288307D01*
X0025468Y0288143D01*
X0025450Y0287980D01*
X0025427Y0287817D01*
X0025401Y0287655D01*
X0025371Y0287493D01*
X0025337Y0287332D01*
X0025299Y0287172D01*
X0025257Y0287013D01*
X0025212Y0286855D01*
X0025162Y0286698D01*
X0025108Y0286543D01*
X0025051Y0286389D01*
X0024990Y0286236D01*
X0024925Y0286085D01*
X0024857Y0285935D01*
X0024785Y0285788D01*
X0024709Y0285642D01*
X0024630Y0285498D01*
X0024547Y0285356D01*
X0024461Y0285216D01*
X0024371Y0285078D01*
X0024278Y0284942D01*
X0024181Y0284809D01*
X0024082Y0284678D01*
X0023979Y0284550D01*
X0023873Y0284424D01*
X0023764Y0284301D01*
X0023652Y0284180D01*
X0023538Y0284062D01*
X0023420Y0283948D01*
X0023299Y0283836D01*
X0023176Y0283727D01*
X0023050Y0283621D01*
X0022922Y0283518D01*
X0022791Y0283419D01*
X0022658Y0283322D01*
X0022522Y0283229D01*
X0022384Y0283139D01*
X0022244Y0283053D01*
X0022102Y0282970D01*
X0021958Y0282891D01*
X0021812Y0282815D01*
X0021665Y0282743D01*
X0021515Y0282675D01*
X0021364Y0282610D01*
X0021211Y0282549D01*
X0021057Y0282492D01*
X0020902Y0282438D01*
X0020745Y0282388D01*
X0020587Y0282343D01*
X0020428Y0282301D01*
X0020268Y0282263D01*
X0020107Y0282229D01*
X0019945Y0282199D01*
X0019783Y0282173D01*
X0019620Y0282150D01*
X0019457Y0282132D01*
X0019293Y0282118D01*
X0019129Y0282108D01*
X0018964Y0282102D01*
X0018800Y0282100D01*
X0018636Y0282102D01*
X0018471Y0282108D01*
X0018307Y0282118D01*
X0018143Y0282132D01*
X0017980Y0282150D01*
X0017817Y0282173D01*
X0017655Y0282199D01*
X0017493Y0282229D01*
X0017332Y0282263D01*
X0017172Y0282301D01*
X0017013Y0282343D01*
X0016855Y0282388D01*
X0016698Y0282438D01*
X0016543Y0282492D01*
X0016389Y0282549D01*
X0016236Y0282610D01*
X0016085Y0282675D01*
X0015935Y0282743D01*
X0015788Y0282815D01*
X0015642Y0282891D01*
X0015498Y0282970D01*
X0015356Y0283053D01*
X0015216Y0283139D01*
X0015078Y0283229D01*
X0014942Y0283322D01*
X0014809Y0283419D01*
X0014678Y0283518D01*
X0014550Y0283621D01*
X0014424Y0283727D01*
X0014301Y0283836D01*
X0014180Y0283948D01*
X0014062Y0284062D01*
X0013948Y0284180D01*
X0013836Y0284301D01*
X0013727Y0284424D01*
X0013621Y0284550D01*
X0013518Y0284678D01*
X0013419Y0284809D01*
X0013322Y0284942D01*
X0013229Y0285078D01*
X0013139Y0285216D01*
X0013053Y0285356D01*
X0012970Y0285498D01*
X0012891Y0285642D01*
X0012815Y0285788D01*
X0012743Y0285935D01*
X0012675Y0286085D01*
X0012610Y0286236D01*
X0012549Y0286389D01*
X0012492Y0286543D01*
X0012438Y0286698D01*
X0012388Y0286855D01*
X0012343Y0287013D01*
X0012301Y0287172D01*
X0012263Y0287332D01*
X0012229Y0287493D01*
X0012199Y0287655D01*
X0012173Y0287817D01*
X0012150Y0287980D01*
X0012132Y0288143D01*
X0012118Y0288307D01*
X0012108Y0288471D01*
X0012102Y0288636D01*
X0012100Y0288800D01*
D11*
X0104800Y0283790D03*
X0104800Y0276310D03*
X0104800Y0245540D03*
X0104800Y0238060D03*
X0191300Y0275060D03*
X0191300Y0282540D03*
X0211300Y0282540D03*
X0211300Y0275060D03*
X0231300Y0275060D03*
X0231300Y0282540D03*
X0251300Y0282540D03*
X0251300Y0275060D03*
X0172800Y0151040D03*
X0172800Y0143560D03*
X0194050Y0071540D03*
X0194050Y0064060D03*
X0029800Y0064560D03*
X0029800Y0072040D03*
D12*
X0118560Y0074800D03*
X0126040Y0074800D03*
X0219810Y0088800D03*
X0227290Y0088800D03*
D13*
X0272292Y0103241D03*
X0296308Y0103241D03*
X0296308Y0058359D03*
X0272292Y0058359D03*
D14*
X0142300Y0250076D03*
X0138560Y0259524D03*
X0146040Y0259524D03*
D15*
X0207300Y0111200D03*
X0217300Y0111200D03*
X0227300Y0111200D03*
D16*
X0217300Y0149300D03*
D17*
X0068400Y0248745D03*
X0068400Y0257800D03*
X0068400Y0266855D03*
D18*
X0043200Y0257800D03*
D19*
X0083800Y0173800D03*
X0083800Y0153800D03*
X0103800Y0143800D03*
X0083800Y0133800D03*
X0103800Y0163800D03*
D20*
X0147800Y0038300D03*
X0239800Y0038300D03*
D21*
X0081000Y0064800D03*
X0081000Y0069800D03*
X0081000Y0074800D03*
X0081000Y0079800D03*
X0061600Y0079800D03*
X0061600Y0074800D03*
X0061600Y0069800D03*
X0061600Y0064800D03*
D22*
X0258800Y0235800D03*
D23*
X0258800Y0225800D03*
X0258800Y0215800D03*
X0268800Y0215800D03*
X0268800Y0225800D03*
X0268800Y0235800D03*
D24*
X0218225Y0224005D03*
X0218225Y0211800D03*
X0171375Y0211800D03*
X0171375Y0231879D03*
D25*
X0108800Y0018769D02*
X0108800Y0012831D01*
X0098800Y0012831D02*
X0098800Y0018769D01*
X0058800Y0018769D02*
X0058800Y0012831D01*
X0048800Y0012831D02*
X0048800Y0018769D01*
D26*
X0048616Y0018187D02*
X0048984Y0018187D01*
X0048984Y0019785D02*
X0048616Y0019785D01*
X0048616Y0021384D02*
X0048984Y0021384D01*
X0048984Y0022982D02*
X0048616Y0022982D01*
X0048616Y0023537D02*
X0048425Y0023537D01*
X0047683Y0023420D01*
X0046970Y0023188D01*
X0046301Y0022847D01*
X0045694Y0022406D01*
X0045163Y0021875D01*
X0044722Y0021268D01*
X0044381Y0020599D01*
X0044149Y0019885D01*
X0044031Y0019144D01*
X0044031Y0015984D01*
X0048616Y0015984D01*
X0048616Y0015616D01*
X0044031Y0015616D01*
X0044031Y0012456D01*
X0044149Y0011715D01*
X0044381Y0011001D01*
X0044722Y0010332D01*
X0045163Y0009725D01*
X0045694Y0009194D01*
X0046301Y0008753D01*
X0046601Y0008600D01*
X0024133Y0008600D01*
X0025861Y0009598D01*
X0028002Y0011739D01*
X0029516Y0014361D01*
X0030300Y0017286D01*
X0030300Y0020314D01*
X0029516Y0023239D01*
X0028002Y0025861D01*
X0025861Y0028002D01*
X0023239Y0029516D01*
X0020314Y0030300D01*
X0017286Y0030300D01*
X0014361Y0029516D01*
X0011739Y0028002D01*
X0009598Y0025861D01*
X0008600Y0024133D01*
X0008600Y0283467D01*
X0009598Y0281739D01*
X0011739Y0279598D01*
X0014361Y0278084D01*
X0017286Y0277300D01*
X0020314Y0277300D01*
X0023239Y0278084D01*
X0025861Y0279598D01*
X0028002Y0281739D01*
X0029516Y0284361D01*
X0030300Y0287286D01*
X0030300Y0290314D01*
X0029516Y0293239D01*
X0028002Y0295861D01*
X0025861Y0298002D01*
X0024133Y0299000D01*
X0283467Y0299000D01*
X0281739Y0298002D01*
X0279598Y0295861D01*
X0278084Y0293239D01*
X0277300Y0290314D01*
X0277300Y0287286D01*
X0278084Y0284361D01*
X0279598Y0281739D01*
X0281739Y0279598D01*
X0284361Y0278084D01*
X0287286Y0277300D01*
X0290314Y0277300D01*
X0293239Y0278084D01*
X0295861Y0279598D01*
X0298002Y0281739D01*
X0299000Y0283467D01*
X0299000Y0159914D01*
X0298700Y0160214D01*
X0298700Y0256027D01*
X0298335Y0256909D01*
X0297659Y0257585D01*
X0271335Y0283909D01*
X0271335Y0283909D01*
X0270659Y0284585D01*
X0269777Y0284950D01*
X0255853Y0284950D01*
X0255853Y0285762D01*
X0254915Y0286699D01*
X0247684Y0286699D01*
X0246747Y0285762D01*
X0246747Y0284940D01*
X0235853Y0284940D01*
X0235853Y0285762D01*
X0234915Y0286699D01*
X0227684Y0286699D01*
X0226747Y0285762D01*
X0226747Y0284940D01*
X0215853Y0284940D01*
X0215853Y0285762D01*
X0214915Y0286699D01*
X0207684Y0286699D01*
X0206747Y0285762D01*
X0206747Y0279318D01*
X0207266Y0278800D01*
X0206747Y0278282D01*
X0206747Y0271838D01*
X0207684Y0270901D01*
X0208900Y0270901D01*
X0208900Y0253794D01*
X0208737Y0253631D01*
X0207838Y0253631D01*
X0206521Y0253086D01*
X0205514Y0252079D01*
X0204969Y0250762D01*
X0204969Y0249338D01*
X0205514Y0248021D01*
X0206521Y0247014D01*
X0207838Y0246469D01*
X0209262Y0246469D01*
X0210579Y0247014D01*
X0211586Y0248021D01*
X0212131Y0249338D01*
X0212131Y0250237D01*
X0213335Y0251441D01*
X0213700Y0252323D01*
X0213700Y0270901D01*
X0214915Y0270901D01*
X0215853Y0271838D01*
X0215853Y0272660D01*
X0226747Y0272660D01*
X0226747Y0271838D01*
X0227684Y0270901D01*
X0234915Y0270901D01*
X0235853Y0271838D01*
X0235853Y0278282D01*
X0235334Y0278800D01*
X0235853Y0279318D01*
X0235853Y0280140D01*
X0246747Y0280140D01*
X0246747Y0279318D01*
X0247266Y0278800D01*
X0246747Y0278282D01*
X0246747Y0271838D01*
X0247684Y0270901D01*
X0248900Y0270901D01*
X0248900Y0252794D01*
X0247237Y0251131D01*
X0246338Y0251131D01*
X0245021Y0250586D01*
X0244014Y0249579D01*
X0243469Y0248262D01*
X0243469Y0246838D01*
X0244014Y0245521D01*
X0245021Y0244514D01*
X0246338Y0243969D01*
X0247762Y0243969D01*
X0249079Y0244514D01*
X0250086Y0245521D01*
X0250631Y0246838D01*
X0250631Y0247737D01*
X0253335Y0250441D01*
X0253700Y0251323D01*
X0253700Y0270901D01*
X0254915Y0270901D01*
X0255853Y0271838D01*
X0255853Y0278282D01*
X0255334Y0278800D01*
X0255853Y0279318D01*
X0255853Y0280150D01*
X0268306Y0280150D01*
X0293900Y0254556D01*
X0293900Y0160214D01*
X0293264Y0159579D01*
X0292719Y0158262D01*
X0292719Y0156838D01*
X0293264Y0155521D01*
X0294271Y0154514D01*
X0295588Y0153969D01*
X0297012Y0153969D01*
X0298329Y0154514D01*
X0299000Y0155186D01*
X0299000Y0109565D01*
X0292692Y0109565D01*
X0291755Y0108628D01*
X0291755Y0107341D01*
X0276845Y0107341D01*
X0276845Y0108628D01*
X0275908Y0109565D01*
X0268677Y0109565D01*
X0267739Y0108628D01*
X0267739Y0104486D01*
X0258065Y0094812D01*
X0257978Y0094776D01*
X0256824Y0093622D01*
X0256200Y0092116D01*
X0256200Y0090484D01*
X0256824Y0088978D01*
X0257978Y0087824D01*
X0259484Y0087200D01*
X0261167Y0087200D01*
X0262674Y0087824D01*
X0271766Y0096917D01*
X0275908Y0096917D01*
X0276845Y0097854D01*
X0276845Y0099141D01*
X0291755Y0099141D01*
X0291755Y0097854D01*
X0292692Y0096917D01*
X0299000Y0096917D01*
X0299000Y0064883D01*
X0296984Y0064883D01*
X0296984Y0059036D01*
X0295631Y0059036D01*
X0295631Y0064883D01*
X0293118Y0064883D01*
X0292660Y0064761D01*
X0292250Y0064524D01*
X0291915Y0064189D01*
X0291678Y0063778D01*
X0291555Y0063320D01*
X0291555Y0059035D01*
X0295631Y0059035D01*
X0295631Y0057683D01*
X0291555Y0057683D01*
X0291555Y0053398D01*
X0291678Y0052940D01*
X0291915Y0052529D01*
X0292250Y0052194D01*
X0292660Y0051957D01*
X0293118Y0051835D01*
X0295631Y0051835D01*
X0295631Y0057683D01*
X0296984Y0057683D01*
X0296984Y0051835D01*
X0299000Y0051835D01*
X0299000Y0024133D01*
X0298002Y0025861D01*
X0295861Y0028002D01*
X0293239Y0029516D01*
X0290314Y0030300D01*
X0287286Y0030300D01*
X0284361Y0029516D01*
X0281739Y0028002D01*
X0279598Y0025861D01*
X0278084Y0023239D01*
X0277300Y0020314D01*
X0277300Y0017286D01*
X0278084Y0014361D01*
X0279598Y0011739D01*
X0281739Y0009598D01*
X0283467Y0008600D01*
X0110522Y0008600D01*
X0111388Y0008959D01*
X0112673Y0010244D01*
X0113368Y0011923D01*
X0113368Y0019677D01*
X0112900Y0020808D01*
X0112900Y0056116D01*
X0112276Y0057622D01*
X0111122Y0058776D01*
X0109616Y0059400D01*
X0107984Y0059400D01*
X0106478Y0058776D01*
X0105324Y0057622D01*
X0104700Y0056116D01*
X0104700Y0020808D01*
X0104231Y0019677D01*
X0104231Y0011923D01*
X0104927Y0010244D01*
X0106212Y0008959D01*
X0107078Y0008600D01*
X0100999Y0008600D01*
X0101299Y0008753D01*
X0101906Y0009194D01*
X0102437Y0009725D01*
X0102878Y0010332D01*
X0103219Y0011001D01*
X0103451Y0011715D01*
X0103568Y0012456D01*
X0103568Y0015616D01*
X0098984Y0015616D01*
X0098984Y0015984D01*
X0098616Y0015984D01*
X0098616Y0015616D01*
X0094031Y0015616D01*
X0094031Y0012456D01*
X0094149Y0011715D01*
X0094381Y0011001D01*
X0094722Y0010332D01*
X0095163Y0009725D01*
X0095694Y0009194D01*
X0096301Y0008753D01*
X0096601Y0008600D01*
X0060522Y0008600D01*
X0061388Y0008959D01*
X0062673Y0010244D01*
X0063368Y0011923D01*
X0063368Y0014570D01*
X0092622Y0043824D01*
X0093776Y0044978D01*
X0094400Y0046484D01*
X0094400Y0075616D01*
X0093776Y0077122D01*
X0092622Y0078276D01*
X0091116Y0078900D01*
X0090160Y0078900D01*
X0086886Y0082174D01*
X0085857Y0082600D01*
X0084743Y0082600D01*
X0080443Y0082600D01*
X0080202Y0082500D01*
X0076437Y0082500D01*
X0075500Y0081563D01*
X0075500Y0078037D01*
X0076237Y0077300D01*
X0075500Y0076563D01*
X0075500Y0073037D01*
X0076237Y0072300D01*
X0075500Y0071563D01*
X0075500Y0068037D01*
X0076237Y0067300D01*
X0075500Y0066563D01*
X0075500Y0063037D01*
X0076437Y0062100D01*
X0085563Y0062100D01*
X0086200Y0062737D01*
X0086200Y0048998D01*
X0060296Y0023094D01*
X0059709Y0023337D01*
X0057891Y0023337D01*
X0056212Y0022641D01*
X0054927Y0021356D01*
X0054231Y0019677D01*
X0054231Y0011923D01*
X0054927Y0010244D01*
X0056212Y0008959D01*
X0057078Y0008600D01*
X0050999Y0008600D01*
X0051299Y0008753D01*
X0051906Y0009194D01*
X0052437Y0009725D01*
X0052878Y0010332D01*
X0053219Y0011001D01*
X0053451Y0011715D01*
X0053568Y0012456D01*
X0053568Y0015616D01*
X0048984Y0015616D01*
X0048984Y0015984D01*
X0048616Y0015984D01*
X0048616Y0023537D01*
X0048984Y0023537D02*
X0048984Y0015984D01*
X0053568Y0015984D01*
X0053568Y0019144D01*
X0053451Y0019885D01*
X0053219Y0020599D01*
X0052878Y0021268D01*
X0052437Y0021875D01*
X0051906Y0022406D01*
X0051299Y0022847D01*
X0050630Y0023188D01*
X0049917Y0023420D01*
X0049175Y0023537D01*
X0048984Y0023537D01*
X0051034Y0022982D02*
X0057035Y0022982D01*
X0054954Y0021384D02*
X0052794Y0021384D01*
X0053467Y0019785D02*
X0054276Y0019785D01*
X0054231Y0018187D02*
X0053568Y0018187D01*
X0053568Y0016588D02*
X0054231Y0016588D01*
X0054231Y0014990D02*
X0053568Y0014990D01*
X0053568Y0013391D02*
X0054231Y0013391D01*
X0054285Y0011793D02*
X0053463Y0011793D01*
X0052778Y0010194D02*
X0054977Y0010194D01*
X0048984Y0016588D02*
X0048616Y0016588D01*
X0044031Y0016588D02*
X0030113Y0016588D01*
X0030300Y0018187D02*
X0044031Y0018187D01*
X0044133Y0019785D02*
X0030300Y0019785D01*
X0030013Y0021384D02*
X0044806Y0021384D01*
X0046566Y0022982D02*
X0029585Y0022982D01*
X0028742Y0024581D02*
X0061782Y0024581D01*
X0063381Y0026179D02*
X0027684Y0026179D01*
X0026086Y0027778D02*
X0064979Y0027778D01*
X0066578Y0029376D02*
X0023481Y0029376D01*
X0014119Y0029376D02*
X0008600Y0029376D01*
X0008600Y0027778D02*
X0011514Y0027778D01*
X0009916Y0026179D02*
X0008600Y0026179D01*
X0008600Y0024581D02*
X0008858Y0024581D01*
X0008600Y0030975D02*
X0068176Y0030975D01*
X0069775Y0032573D02*
X0008600Y0032573D01*
X0008600Y0034172D02*
X0071373Y0034172D01*
X0072972Y0035770D02*
X0008600Y0035770D01*
X0008600Y0037369D02*
X0074570Y0037369D01*
X0076169Y0038967D02*
X0008600Y0038967D01*
X0008600Y0040566D02*
X0077768Y0040566D01*
X0079366Y0042164D02*
X0008600Y0042164D01*
X0008600Y0043763D02*
X0080965Y0043763D01*
X0082563Y0045361D02*
X0008600Y0045361D01*
X0008600Y0046960D02*
X0084162Y0046960D01*
X0085760Y0048558D02*
X0008600Y0048558D01*
X0008600Y0050157D02*
X0086200Y0050157D01*
X0086200Y0051755D02*
X0008600Y0051755D01*
X0008600Y0053354D02*
X0086200Y0053354D01*
X0086200Y0054952D02*
X0049725Y0054952D01*
X0049116Y0054700D02*
X0050622Y0055324D01*
X0051776Y0056478D01*
X0052400Y0057984D01*
X0052400Y0061711D01*
X0053588Y0061219D01*
X0055012Y0061219D01*
X0056329Y0061764D01*
X0056851Y0062286D01*
X0057037Y0062100D01*
X0066163Y0062100D01*
X0067100Y0063037D01*
X0067100Y0066563D01*
X0066363Y0067300D01*
X0067100Y0068037D01*
X0067100Y0071563D01*
X0066363Y0072300D01*
X0067100Y0073037D01*
X0067100Y0076563D01*
X0066477Y0077186D01*
X0066605Y0077260D01*
X0066940Y0077595D01*
X0067177Y0078005D01*
X0067300Y0078463D01*
X0067300Y0079800D01*
X0067300Y0081137D01*
X0067177Y0081595D01*
X0066940Y0082005D01*
X0066605Y0082340D01*
X0066195Y0082577D01*
X0065737Y0082700D01*
X0061600Y0082700D01*
X0061600Y0079800D01*
X0061600Y0079800D01*
X0067300Y0079800D01*
X0061600Y0079800D01*
X0061600Y0079800D01*
X0061600Y0079800D01*
X0055900Y0079800D01*
X0055900Y0081137D01*
X0056023Y0081595D01*
X0056260Y0082005D01*
X0056595Y0082340D01*
X0057005Y0082577D01*
X0057463Y0082700D01*
X0061600Y0082700D01*
X0061600Y0079800D01*
X0055900Y0079800D01*
X0055900Y0078463D01*
X0056023Y0078005D01*
X0056257Y0077600D01*
X0052743Y0077600D01*
X0051714Y0077174D01*
X0048440Y0073900D01*
X0047484Y0073900D01*
X0045978Y0073276D01*
X0044824Y0072122D01*
X0044200Y0070616D01*
X0044200Y0057984D01*
X0044824Y0056478D01*
X0045978Y0055324D01*
X0047484Y0054700D01*
X0049116Y0054700D01*
X0046875Y0054952D02*
X0008600Y0054952D01*
X0008600Y0056551D02*
X0044794Y0056551D01*
X0044200Y0058149D02*
X0008600Y0058149D01*
X0008600Y0059748D02*
X0044200Y0059748D01*
X0044200Y0061346D02*
X0038320Y0061346D01*
X0038012Y0061219D02*
X0039329Y0061764D01*
X0040336Y0062771D01*
X0040881Y0064088D01*
X0040881Y0065512D01*
X0040336Y0066829D01*
X0039400Y0067764D01*
X0039400Y0081180D01*
X0044420Y0086200D01*
X0045650Y0087430D01*
X0045650Y0183180D01*
X0050439Y0187969D01*
X0051762Y0187969D01*
X0053079Y0188514D01*
X0054086Y0189521D01*
X0054631Y0190838D01*
X0054631Y0192262D01*
X0054086Y0193579D01*
X0053079Y0194586D01*
X0051762Y0195131D01*
X0050338Y0195131D01*
X0049021Y0194586D01*
X0048014Y0193579D01*
X0047469Y0192262D01*
X0047469Y0190939D01*
X0041450Y0184920D01*
X0041450Y0089170D01*
X0035200Y0082920D01*
X0035200Y0067764D01*
X0034353Y0066917D01*
X0034353Y0067782D01*
X0033834Y0068300D01*
X0034353Y0068818D01*
X0034353Y0075262D01*
X0033415Y0076199D01*
X0032200Y0076199D01*
X0032200Y0186806D01*
X0081409Y0236015D01*
X0082085Y0236691D01*
X0082450Y0237573D01*
X0082450Y0255136D01*
X0083086Y0255771D01*
X0083631Y0257088D01*
X0083631Y0258512D01*
X0083086Y0259829D01*
X0082079Y0260836D01*
X0080762Y0261381D01*
X0079338Y0261381D01*
X0078418Y0261000D01*
X0072263Y0261000D01*
X0072213Y0261050D01*
X0064587Y0261050D01*
X0063650Y0260113D01*
X0063650Y0255487D01*
X0064587Y0254550D01*
X0072213Y0254550D01*
X0072263Y0254600D01*
X0077650Y0254600D01*
X0077650Y0239044D01*
X0028441Y0189835D01*
X0028441Y0189835D01*
X0027765Y0189159D01*
X0027400Y0188277D01*
X0027400Y0076199D01*
X0026184Y0076199D01*
X0025247Y0075262D01*
X0025247Y0068818D01*
X0025766Y0068300D01*
X0025247Y0067782D01*
X0025247Y0061338D01*
X0026184Y0060401D01*
X0033415Y0060401D01*
X0034353Y0061338D01*
X0034353Y0062683D01*
X0035271Y0061764D01*
X0036588Y0061219D01*
X0038012Y0061219D01*
X0036280Y0061346D02*
X0034353Y0061346D01*
X0040408Y0062945D02*
X0044200Y0062945D01*
X0044200Y0064543D02*
X0040881Y0064543D01*
X0040620Y0066142D02*
X0044200Y0066142D01*
X0044200Y0067740D02*
X0039424Y0067740D01*
X0039400Y0069339D02*
X0044200Y0069339D01*
X0044333Y0070937D02*
X0039400Y0070937D01*
X0039400Y0072536D02*
X0045238Y0072536D01*
X0048675Y0074134D02*
X0039400Y0074134D01*
X0039400Y0075733D02*
X0050273Y0075733D01*
X0052095Y0077332D02*
X0039400Y0077332D01*
X0039400Y0078930D02*
X0055900Y0078930D01*
X0055900Y0080529D02*
X0039400Y0080529D01*
X0040347Y0082127D02*
X0056381Y0082127D01*
X0061600Y0082127D02*
X0061600Y0082127D01*
X0061600Y0080529D02*
X0061600Y0080529D01*
X0066819Y0082127D02*
X0076064Y0082127D01*
X0075500Y0080529D02*
X0067300Y0080529D01*
X0067300Y0078930D02*
X0075500Y0078930D01*
X0076206Y0077332D02*
X0066677Y0077332D01*
X0067100Y0075733D02*
X0075500Y0075733D01*
X0075500Y0074134D02*
X0067100Y0074134D01*
X0066599Y0072536D02*
X0076001Y0072536D01*
X0075500Y0070937D02*
X0067100Y0070937D01*
X0067100Y0069339D02*
X0075500Y0069339D01*
X0075797Y0067740D02*
X0066803Y0067740D01*
X0067100Y0066142D02*
X0075500Y0066142D01*
X0075500Y0064543D02*
X0067100Y0064543D01*
X0067008Y0062945D02*
X0075592Y0062945D01*
X0086200Y0061346D02*
X0055320Y0061346D01*
X0053280Y0061346D02*
X0052400Y0061346D01*
X0052400Y0059748D02*
X0086200Y0059748D01*
X0086200Y0058149D02*
X0052400Y0058149D01*
X0051806Y0056551D02*
X0086200Y0056551D01*
X0094400Y0056551D02*
X0104880Y0056551D01*
X0104700Y0054952D02*
X0094400Y0054952D01*
X0094400Y0053354D02*
X0104700Y0053354D01*
X0104700Y0051755D02*
X0094400Y0051755D01*
X0094400Y0050157D02*
X0104700Y0050157D01*
X0104700Y0048558D02*
X0094400Y0048558D01*
X0094400Y0046960D02*
X0104700Y0046960D01*
X0104700Y0045361D02*
X0093935Y0045361D01*
X0092561Y0043763D02*
X0104700Y0043763D01*
X0104700Y0042164D02*
X0090963Y0042164D01*
X0089364Y0040566D02*
X0104700Y0040566D01*
X0104700Y0038967D02*
X0087766Y0038967D01*
X0086167Y0037369D02*
X0104700Y0037369D01*
X0104700Y0035770D02*
X0084568Y0035770D01*
X0082970Y0034172D02*
X0104700Y0034172D01*
X0104700Y0032573D02*
X0081371Y0032573D01*
X0079773Y0030975D02*
X0104700Y0030975D01*
X0104700Y0029376D02*
X0078174Y0029376D01*
X0076576Y0027778D02*
X0104700Y0027778D01*
X0104700Y0026179D02*
X0074977Y0026179D01*
X0073379Y0024581D02*
X0104700Y0024581D01*
X0104700Y0022982D02*
X0101034Y0022982D01*
X0101299Y0022847D02*
X0100630Y0023188D01*
X0099917Y0023420D01*
X0099175Y0023537D01*
X0098984Y0023537D01*
X0098984Y0015984D01*
X0103568Y0015984D01*
X0103568Y0019144D01*
X0103451Y0019885D01*
X0103219Y0020599D01*
X0102878Y0021268D01*
X0102437Y0021875D01*
X0101906Y0022406D01*
X0101299Y0022847D01*
X0102794Y0021384D02*
X0104700Y0021384D01*
X0104276Y0019785D02*
X0103467Y0019785D01*
X0103568Y0018187D02*
X0104231Y0018187D01*
X0104231Y0016588D02*
X0103568Y0016588D01*
X0103568Y0014990D02*
X0104231Y0014990D01*
X0104231Y0013391D02*
X0103568Y0013391D01*
X0103463Y0011793D02*
X0104285Y0011793D01*
X0104977Y0010194D02*
X0102778Y0010194D01*
X0098616Y0015984D02*
X0094031Y0015984D01*
X0094031Y0019144D01*
X0094149Y0019885D01*
X0094381Y0020599D01*
X0094722Y0021268D01*
X0095163Y0021875D01*
X0095694Y0022406D01*
X0096301Y0022847D01*
X0096970Y0023188D01*
X0097683Y0023420D01*
X0098425Y0023537D01*
X0098616Y0023537D01*
X0098616Y0015984D01*
X0098616Y0016588D02*
X0098984Y0016588D01*
X0098984Y0018187D02*
X0098616Y0018187D01*
X0098616Y0019785D02*
X0098984Y0019785D01*
X0098984Y0021384D02*
X0098616Y0021384D01*
X0098616Y0022982D02*
X0098984Y0022982D01*
X0096566Y0022982D02*
X0071780Y0022982D01*
X0070182Y0021384D02*
X0094806Y0021384D01*
X0094133Y0019785D02*
X0068583Y0019785D01*
X0066985Y0018187D02*
X0094031Y0018187D01*
X0094031Y0016588D02*
X0065386Y0016588D01*
X0063788Y0014990D02*
X0094031Y0014990D01*
X0094031Y0013391D02*
X0063368Y0013391D01*
X0063315Y0011793D02*
X0094137Y0011793D01*
X0094822Y0010194D02*
X0062623Y0010194D01*
X0044822Y0010194D02*
X0026457Y0010194D01*
X0028033Y0011793D02*
X0044137Y0011793D01*
X0044031Y0013391D02*
X0028956Y0013391D01*
X0029685Y0014990D02*
X0044031Y0014990D01*
X0025247Y0061346D02*
X0008600Y0061346D01*
X0008600Y0062945D02*
X0025247Y0062945D01*
X0025247Y0064543D02*
X0008600Y0064543D01*
X0008600Y0066142D02*
X0025247Y0066142D01*
X0025247Y0067740D02*
X0008600Y0067740D01*
X0008600Y0069339D02*
X0025247Y0069339D01*
X0025247Y0070937D02*
X0008600Y0070937D01*
X0008600Y0072536D02*
X0025247Y0072536D01*
X0025247Y0074134D02*
X0008600Y0074134D01*
X0008600Y0075733D02*
X0025718Y0075733D01*
X0027400Y0077332D02*
X0008600Y0077332D01*
X0008600Y0078930D02*
X0027400Y0078930D01*
X0027400Y0080529D02*
X0008600Y0080529D01*
X0008600Y0082127D02*
X0027400Y0082127D01*
X0027400Y0083726D02*
X0008600Y0083726D01*
X0008600Y0085324D02*
X0027400Y0085324D01*
X0027400Y0086923D02*
X0008600Y0086923D01*
X0008600Y0088521D02*
X0027400Y0088521D01*
X0027400Y0090120D02*
X0008600Y0090120D01*
X0008600Y0091718D02*
X0027400Y0091718D01*
X0027400Y0093317D02*
X0008600Y0093317D01*
X0008600Y0094915D02*
X0027400Y0094915D01*
X0027400Y0096514D02*
X0008600Y0096514D01*
X0008600Y0098112D02*
X0027400Y0098112D01*
X0027400Y0099711D02*
X0008600Y0099711D01*
X0008600Y0101309D02*
X0027400Y0101309D01*
X0027400Y0102908D02*
X0008600Y0102908D01*
X0008600Y0104506D02*
X0027400Y0104506D01*
X0027400Y0106105D02*
X0008600Y0106105D01*
X0008600Y0107703D02*
X0027400Y0107703D01*
X0027400Y0109302D02*
X0008600Y0109302D01*
X0008600Y0110900D02*
X0027400Y0110900D01*
X0027400Y0112499D02*
X0008600Y0112499D01*
X0008600Y0114097D02*
X0027400Y0114097D01*
X0027400Y0115696D02*
X0008600Y0115696D01*
X0008600Y0117294D02*
X0027400Y0117294D01*
X0027400Y0118893D02*
X0008600Y0118893D01*
X0008600Y0120491D02*
X0027400Y0120491D01*
X0027400Y0122090D02*
X0008600Y0122090D01*
X0008600Y0123688D02*
X0027400Y0123688D01*
X0027400Y0125287D02*
X0008600Y0125287D01*
X0008600Y0126885D02*
X0027400Y0126885D01*
X0027400Y0128484D02*
X0008600Y0128484D01*
X0008600Y0130082D02*
X0027400Y0130082D01*
X0027400Y0131681D02*
X0008600Y0131681D01*
X0008600Y0133279D02*
X0027400Y0133279D01*
X0027400Y0134878D02*
X0008600Y0134878D01*
X0008600Y0136476D02*
X0027400Y0136476D01*
X0027400Y0138075D02*
X0008600Y0138075D01*
X0008600Y0139673D02*
X0027400Y0139673D01*
X0027400Y0141272D02*
X0008600Y0141272D01*
X0008600Y0142870D02*
X0027400Y0142870D01*
X0027400Y0144469D02*
X0008600Y0144469D01*
X0008600Y0146068D02*
X0027400Y0146068D01*
X0027400Y0147666D02*
X0008600Y0147666D01*
X0008600Y0149265D02*
X0027400Y0149265D01*
X0027400Y0150863D02*
X0008600Y0150863D01*
X0008600Y0152462D02*
X0027400Y0152462D01*
X0027400Y0154060D02*
X0008600Y0154060D01*
X0008600Y0155659D02*
X0027400Y0155659D01*
X0027400Y0157257D02*
X0008600Y0157257D01*
X0008600Y0158856D02*
X0027400Y0158856D01*
X0027400Y0160454D02*
X0008600Y0160454D01*
X0008600Y0162053D02*
X0027400Y0162053D01*
X0027400Y0163651D02*
X0008600Y0163651D01*
X0008600Y0165250D02*
X0027400Y0165250D01*
X0027400Y0166848D02*
X0008600Y0166848D01*
X0008600Y0168447D02*
X0027400Y0168447D01*
X0027400Y0170045D02*
X0008600Y0170045D01*
X0008600Y0171644D02*
X0027400Y0171644D01*
X0027400Y0173242D02*
X0008600Y0173242D01*
X0008600Y0174841D02*
X0027400Y0174841D01*
X0027400Y0176439D02*
X0008600Y0176439D01*
X0008600Y0178038D02*
X0027400Y0178038D01*
X0027400Y0179636D02*
X0008600Y0179636D01*
X0008600Y0181235D02*
X0027400Y0181235D01*
X0027400Y0182833D02*
X0008600Y0182833D01*
X0008600Y0184432D02*
X0027400Y0184432D01*
X0027400Y0186030D02*
X0008600Y0186030D01*
X0008600Y0187629D02*
X0027400Y0187629D01*
X0027833Y0189227D02*
X0008600Y0189227D01*
X0008600Y0190826D02*
X0029432Y0190826D01*
X0031030Y0192424D02*
X0008600Y0192424D01*
X0008600Y0194023D02*
X0032629Y0194023D01*
X0034227Y0195621D02*
X0008600Y0195621D01*
X0008600Y0197220D02*
X0035826Y0197220D01*
X0037424Y0198818D02*
X0008600Y0198818D01*
X0008600Y0200417D02*
X0039023Y0200417D01*
X0040621Y0202015D02*
X0008600Y0202015D01*
X0008600Y0203614D02*
X0042220Y0203614D01*
X0043818Y0205212D02*
X0008600Y0205212D01*
X0008600Y0206811D02*
X0045417Y0206811D01*
X0047015Y0208409D02*
X0008600Y0208409D01*
X0008600Y0210008D02*
X0048614Y0210008D01*
X0050212Y0211606D02*
X0008600Y0211606D01*
X0008600Y0213205D02*
X0051811Y0213205D01*
X0053409Y0214803D02*
X0008600Y0214803D01*
X0008600Y0216402D02*
X0055008Y0216402D01*
X0056606Y0218001D02*
X0008600Y0218001D01*
X0008600Y0219599D02*
X0058205Y0219599D01*
X0059803Y0221198D02*
X0008600Y0221198D01*
X0008600Y0222796D02*
X0061402Y0222796D01*
X0063000Y0224395D02*
X0008600Y0224395D01*
X0008600Y0225993D02*
X0064599Y0225993D01*
X0066197Y0227592D02*
X0008600Y0227592D01*
X0008600Y0229190D02*
X0067796Y0229190D01*
X0069395Y0230789D02*
X0008600Y0230789D01*
X0008600Y0232387D02*
X0070993Y0232387D01*
X0072592Y0233986D02*
X0008600Y0233986D01*
X0008600Y0235584D02*
X0074190Y0235584D01*
X0075789Y0237183D02*
X0008600Y0237183D01*
X0008600Y0238781D02*
X0077387Y0238781D01*
X0077650Y0240380D02*
X0008600Y0240380D01*
X0008600Y0241978D02*
X0077650Y0241978D01*
X0077650Y0243577D02*
X0008600Y0243577D01*
X0008600Y0245175D02*
X0077650Y0245175D01*
X0077650Y0246774D02*
X0073327Y0246774D01*
X0073350Y0246858D02*
X0073350Y0248720D01*
X0068425Y0248720D01*
X0068425Y0248770D01*
X0068375Y0248770D01*
X0068375Y0252195D01*
X0065013Y0252195D01*
X0064555Y0252072D01*
X0064145Y0251835D01*
X0063810Y0251500D01*
X0063573Y0251090D01*
X0063450Y0250632D01*
X0063450Y0248770D01*
X0068375Y0248770D01*
X0068375Y0248720D01*
X0063450Y0248720D01*
X0063450Y0246858D01*
X0063573Y0246400D01*
X0063810Y0245990D01*
X0064145Y0245655D01*
X0064555Y0245418D01*
X0065013Y0245295D01*
X0068375Y0245295D01*
X0068375Y0248720D01*
X0068425Y0248720D01*
X0068425Y0245295D01*
X0071787Y0245295D01*
X0072245Y0245418D01*
X0072655Y0245655D01*
X0072990Y0245990D01*
X0073227Y0246400D01*
X0073350Y0246858D01*
X0073350Y0248372D02*
X0077650Y0248372D01*
X0077650Y0249971D02*
X0073350Y0249971D01*
X0073350Y0250632D02*
X0073227Y0251090D01*
X0072990Y0251500D01*
X0072655Y0251835D01*
X0072245Y0252072D01*
X0071787Y0252195D01*
X0068425Y0252195D01*
X0068425Y0248770D01*
X0073350Y0248770D01*
X0073350Y0250632D01*
X0072921Y0251569D02*
X0077650Y0251569D01*
X0077650Y0253168D02*
X0047950Y0253168D01*
X0047950Y0254766D02*
X0064371Y0254766D01*
X0063650Y0256365D02*
X0047950Y0256365D01*
X0047950Y0257963D02*
X0063650Y0257963D01*
X0063650Y0259562D02*
X0047950Y0259562D01*
X0047950Y0261160D02*
X0078805Y0261160D01*
X0081295Y0261160D02*
X0087450Y0261160D01*
X0087450Y0262625D02*
X0087450Y0230998D01*
X0058824Y0202372D01*
X0058200Y0200866D01*
X0058200Y0098484D01*
X0058824Y0096978D01*
X0059978Y0095824D01*
X0061484Y0095200D01*
X0063116Y0095200D01*
X0064622Y0095824D01*
X0065776Y0096978D01*
X0066400Y0098484D01*
X0066400Y0198352D01*
X0093872Y0225824D01*
X0095026Y0226978D01*
X0095650Y0228484D01*
X0095650Y0261362D01*
X0106439Y0272151D01*
X0108415Y0272151D01*
X0109353Y0273088D01*
X0109353Y0279532D01*
X0108976Y0279909D01*
X0109193Y0280126D01*
X0109430Y0280536D01*
X0109553Y0280994D01*
X0109553Y0283311D01*
X0105280Y0283311D01*
X0105280Y0284270D01*
X0109553Y0284270D01*
X0109553Y0286586D01*
X0109430Y0287044D01*
X0109193Y0287454D01*
X0108858Y0287790D01*
X0108448Y0288027D01*
X0107990Y0288149D01*
X0105280Y0288149D01*
X0105280Y0284270D01*
X0104320Y0284270D01*
X0104320Y0283311D01*
X0100047Y0283311D01*
X0100047Y0280994D01*
X0100170Y0280536D01*
X0100407Y0280126D01*
X0100624Y0279909D01*
X0100247Y0279532D01*
X0100247Y0277555D01*
X0090909Y0268217D01*
X0089558Y0269568D01*
X0088381Y0270055D01*
X0072263Y0270055D01*
X0072213Y0270105D01*
X0064587Y0270105D01*
X0063650Y0269168D01*
X0063650Y0264542D01*
X0064587Y0263605D01*
X0072213Y0263605D01*
X0072263Y0263655D01*
X0086419Y0263655D01*
X0087450Y0262625D01*
X0087316Y0262759D02*
X0047950Y0262759D01*
X0047950Y0264357D02*
X0063835Y0264357D01*
X0063650Y0265956D02*
X0046400Y0265956D01*
X0046400Y0265500D02*
X0046400Y0272125D01*
X0048908Y0274633D01*
X0049829Y0275014D01*
X0050836Y0276021D01*
X0051381Y0277338D01*
X0051381Y0278762D01*
X0050836Y0280079D01*
X0049829Y0281086D01*
X0048512Y0281631D01*
X0047088Y0281631D01*
X0045771Y0281086D01*
X0044764Y0280079D01*
X0044383Y0279158D01*
X0040487Y0275263D01*
X0040000Y0274087D01*
X0040000Y0265500D01*
X0039387Y0265500D01*
X0038450Y0264563D01*
X0038450Y0251037D01*
X0039387Y0250100D01*
X0047013Y0250100D01*
X0047950Y0251037D01*
X0047950Y0264563D01*
X0047013Y0265500D01*
X0046400Y0265500D01*
X0046400Y0267554D02*
X0063650Y0267554D01*
X0063650Y0269153D02*
X0046400Y0269153D01*
X0046400Y0270751D02*
X0093443Y0270751D01*
X0091845Y0269153D02*
X0089973Y0269153D01*
X0095042Y0272350D02*
X0046625Y0272350D01*
X0048224Y0273948D02*
X0096640Y0273948D01*
X0098239Y0275547D02*
X0050361Y0275547D01*
X0051301Y0277145D02*
X0099837Y0277145D01*
X0100247Y0278744D02*
X0051381Y0278744D01*
X0050572Y0280342D02*
X0100282Y0280342D01*
X0100047Y0281941D02*
X0028119Y0281941D01*
X0029042Y0283539D02*
X0104320Y0283539D01*
X0104320Y0284270D02*
X0100047Y0284270D01*
X0100047Y0286586D01*
X0100170Y0287044D01*
X0100407Y0287454D01*
X0100742Y0287790D01*
X0101152Y0288027D01*
X0101610Y0288149D01*
X0104320Y0288149D01*
X0104320Y0284270D01*
X0104320Y0285138D02*
X0105280Y0285138D01*
X0105280Y0286737D02*
X0104320Y0286737D01*
X0105280Y0283539D02*
X0179264Y0283539D01*
X0180087Y0284363D02*
X0166192Y0270467D01*
X0165271Y0270086D01*
X0164264Y0269079D01*
X0163719Y0267762D01*
X0163719Y0266338D01*
X0164264Y0265021D01*
X0165271Y0264014D01*
X0166588Y0263469D01*
X0168012Y0263469D01*
X0169329Y0264014D01*
X0170336Y0265021D01*
X0170717Y0265942D01*
X0184125Y0279350D01*
X0186747Y0279350D01*
X0186747Y0279318D01*
X0187266Y0278800D01*
X0186747Y0278282D01*
X0186747Y0271838D01*
X0187684Y0270901D01*
X0189200Y0270901D01*
X0189200Y0264264D01*
X0188264Y0263329D01*
X0187719Y0262012D01*
X0187719Y0260588D01*
X0188264Y0259271D01*
X0189200Y0258336D01*
X0189200Y0248764D01*
X0188264Y0247829D01*
X0187719Y0246512D01*
X0187719Y0245088D01*
X0188264Y0243771D01*
X0189271Y0242764D01*
X0190588Y0242219D01*
X0192012Y0242219D01*
X0193329Y0242764D01*
X0194336Y0243771D01*
X0194881Y0245088D01*
X0194881Y0246512D01*
X0194336Y0247829D01*
X0193400Y0248764D01*
X0193400Y0258336D01*
X0194336Y0259271D01*
X0194881Y0260588D01*
X0194881Y0262012D01*
X0194336Y0263329D01*
X0193400Y0264264D01*
X0193400Y0270901D01*
X0194915Y0270901D01*
X0195853Y0271838D01*
X0195853Y0278282D01*
X0195334Y0278800D01*
X0195853Y0279318D01*
X0195853Y0279340D01*
X0196734Y0279340D01*
X0197850Y0278225D01*
X0197850Y0234932D01*
X0197469Y0234012D01*
X0197469Y0232588D01*
X0198014Y0231271D01*
X0199021Y0230264D01*
X0200338Y0229719D01*
X0201762Y0229719D01*
X0203079Y0230264D01*
X0204086Y0231271D01*
X0204631Y0232588D01*
X0204631Y0234012D01*
X0204250Y0234932D01*
X0204250Y0280187D01*
X0203763Y0281363D01*
X0202863Y0282263D01*
X0202863Y0282263D01*
X0199872Y0285253D01*
X0198696Y0285740D01*
X0195853Y0285740D01*
X0195853Y0285762D01*
X0194915Y0286699D01*
X0187684Y0286699D01*
X0186747Y0285762D01*
X0186747Y0285750D01*
X0182163Y0285750D01*
X0180987Y0285263D01*
X0180087Y0284363D01*
X0180863Y0285138D02*
X0109553Y0285138D01*
X0109512Y0286737D02*
X0277447Y0286737D01*
X0277300Y0288335D02*
X0030300Y0288335D01*
X0030300Y0289934D02*
X0277300Y0289934D01*
X0277626Y0291532D02*
X0029974Y0291532D01*
X0029545Y0293131D02*
X0278055Y0293131D01*
X0278944Y0294729D02*
X0028656Y0294729D01*
X0027536Y0296328D02*
X0280064Y0296328D01*
X0281663Y0297926D02*
X0025937Y0297926D01*
X0030153Y0286737D02*
X0100088Y0286737D01*
X0100047Y0285138D02*
X0029724Y0285138D01*
X0026606Y0280342D02*
X0045028Y0280342D01*
X0043968Y0278744D02*
X0024382Y0278744D01*
X0013218Y0278744D02*
X0008600Y0278744D01*
X0008600Y0280342D02*
X0010994Y0280342D01*
X0009481Y0281941D02*
X0008600Y0281941D01*
X0008600Y0277145D02*
X0042370Y0277145D01*
X0040771Y0275547D02*
X0008600Y0275547D01*
X0008600Y0273948D02*
X0040000Y0273948D01*
X0040000Y0272350D02*
X0008600Y0272350D01*
X0008600Y0270751D02*
X0040000Y0270751D01*
X0040000Y0269153D02*
X0008600Y0269153D01*
X0008600Y0267554D02*
X0040000Y0267554D01*
X0040000Y0265956D02*
X0008600Y0265956D01*
X0008600Y0264357D02*
X0038450Y0264357D01*
X0038450Y0262759D02*
X0008600Y0262759D01*
X0008600Y0261160D02*
X0038450Y0261160D01*
X0038450Y0259562D02*
X0008600Y0259562D01*
X0008600Y0257963D02*
X0038450Y0257963D01*
X0038450Y0256365D02*
X0008600Y0256365D01*
X0008600Y0254766D02*
X0038450Y0254766D01*
X0038450Y0253168D02*
X0008600Y0253168D01*
X0008600Y0251569D02*
X0038450Y0251569D01*
X0047950Y0251569D02*
X0063879Y0251569D01*
X0063450Y0249971D02*
X0008600Y0249971D01*
X0008600Y0248372D02*
X0063450Y0248372D01*
X0063473Y0246774D02*
X0008600Y0246774D01*
X0050607Y0205212D02*
X0061664Y0205212D01*
X0060066Y0203614D02*
X0049008Y0203614D01*
X0047409Y0202015D02*
X0058676Y0202015D01*
X0058200Y0200417D02*
X0045811Y0200417D01*
X0044212Y0198818D02*
X0058200Y0198818D01*
X0058200Y0197220D02*
X0042614Y0197220D01*
X0041015Y0195621D02*
X0058200Y0195621D01*
X0058200Y0194023D02*
X0053642Y0194023D01*
X0054564Y0192424D02*
X0058200Y0192424D01*
X0058200Y0190826D02*
X0054626Y0190826D01*
X0053792Y0189227D02*
X0058200Y0189227D01*
X0058200Y0187629D02*
X0050099Y0187629D01*
X0048500Y0186030D02*
X0058200Y0186030D01*
X0058200Y0184432D02*
X0046902Y0184432D01*
X0045650Y0182833D02*
X0058200Y0182833D01*
X0058200Y0181235D02*
X0045650Y0181235D01*
X0045650Y0179636D02*
X0058200Y0179636D01*
X0058200Y0178038D02*
X0045650Y0178038D01*
X0045650Y0176439D02*
X0058200Y0176439D01*
X0058200Y0174841D02*
X0045650Y0174841D01*
X0045650Y0173242D02*
X0058200Y0173242D01*
X0058200Y0171644D02*
X0045650Y0171644D01*
X0045650Y0170045D02*
X0058200Y0170045D01*
X0058200Y0168447D02*
X0045650Y0168447D01*
X0045650Y0166848D02*
X0058200Y0166848D01*
X0058200Y0165250D02*
X0045650Y0165250D01*
X0045650Y0163651D02*
X0058200Y0163651D01*
X0058200Y0162053D02*
X0045650Y0162053D01*
X0045650Y0160454D02*
X0058200Y0160454D01*
X0058200Y0158856D02*
X0045650Y0158856D01*
X0045650Y0157257D02*
X0058200Y0157257D01*
X0058200Y0155659D02*
X0045650Y0155659D01*
X0045650Y0154060D02*
X0058200Y0154060D01*
X0058200Y0152462D02*
X0045650Y0152462D01*
X0045650Y0150863D02*
X0058200Y0150863D01*
X0058200Y0149265D02*
X0045650Y0149265D01*
X0045650Y0147666D02*
X0058200Y0147666D01*
X0058200Y0146068D02*
X0045650Y0146068D01*
X0045650Y0144469D02*
X0058200Y0144469D01*
X0058200Y0142870D02*
X0045650Y0142870D01*
X0045650Y0141272D02*
X0058200Y0141272D01*
X0058200Y0139673D02*
X0045650Y0139673D01*
X0045650Y0138075D02*
X0058200Y0138075D01*
X0058200Y0136476D02*
X0045650Y0136476D01*
X0045650Y0134878D02*
X0058200Y0134878D01*
X0058200Y0133279D02*
X0045650Y0133279D01*
X0045650Y0131681D02*
X0058200Y0131681D01*
X0058200Y0130082D02*
X0045650Y0130082D01*
X0045650Y0128484D02*
X0058200Y0128484D01*
X0058200Y0126885D02*
X0045650Y0126885D01*
X0045650Y0125287D02*
X0058200Y0125287D01*
X0058200Y0123688D02*
X0045650Y0123688D01*
X0045650Y0122090D02*
X0058200Y0122090D01*
X0058200Y0120491D02*
X0045650Y0120491D01*
X0045650Y0118893D02*
X0058200Y0118893D01*
X0058200Y0117294D02*
X0045650Y0117294D01*
X0045650Y0115696D02*
X0058200Y0115696D01*
X0058200Y0114097D02*
X0045650Y0114097D01*
X0045650Y0112499D02*
X0058200Y0112499D01*
X0058200Y0110900D02*
X0045650Y0110900D01*
X0045650Y0109302D02*
X0058200Y0109302D01*
X0058200Y0107703D02*
X0045650Y0107703D01*
X0045650Y0106105D02*
X0058200Y0106105D01*
X0058200Y0104506D02*
X0045650Y0104506D01*
X0045650Y0102908D02*
X0058200Y0102908D01*
X0058200Y0101309D02*
X0045650Y0101309D01*
X0045650Y0099711D02*
X0058200Y0099711D01*
X0058354Y0098112D02*
X0045650Y0098112D01*
X0045650Y0096514D02*
X0059288Y0096514D01*
X0065312Y0096514D02*
X0143700Y0096514D01*
X0143700Y0098112D02*
X0066246Y0098112D01*
X0066400Y0099711D02*
X0143700Y0099711D01*
X0143700Y0100102D02*
X0143700Y0044666D01*
X0143580Y0044616D01*
X0141484Y0042520D01*
X0140350Y0039782D01*
X0140350Y0036818D01*
X0141484Y0034080D01*
X0143580Y0031984D01*
X0146318Y0030850D01*
X0149282Y0030850D01*
X0152020Y0031984D01*
X0154116Y0034080D01*
X0155250Y0036818D01*
X0155250Y0039782D01*
X0154116Y0042520D01*
X0152020Y0044616D01*
X0151900Y0044666D01*
X0151900Y0102616D01*
X0151276Y0104122D01*
X0144372Y0111026D01*
X0142866Y0111650D01*
X0141234Y0111650D01*
X0139728Y0111026D01*
X0138574Y0109872D01*
X0137950Y0108366D01*
X0137950Y0106734D01*
X0138574Y0105228D01*
X0143700Y0100102D01*
X0142493Y0101309D02*
X0066400Y0101309D01*
X0066400Y0102908D02*
X0140894Y0102908D01*
X0139296Y0104506D02*
X0066400Y0104506D01*
X0066400Y0106105D02*
X0138211Y0106105D01*
X0137950Y0107703D02*
X0066400Y0107703D01*
X0066400Y0109302D02*
X0138338Y0109302D01*
X0139602Y0110900D02*
X0066400Y0110900D01*
X0066400Y0112499D02*
X0168700Y0112499D01*
X0168700Y0114097D02*
X0066400Y0114097D01*
X0066400Y0115696D02*
X0168700Y0115696D01*
X0168700Y0117294D02*
X0066400Y0117294D01*
X0066400Y0118893D02*
X0168700Y0118893D01*
X0168700Y0120491D02*
X0066400Y0120491D01*
X0066400Y0122090D02*
X0168700Y0122090D01*
X0168700Y0123688D02*
X0066400Y0123688D01*
X0066400Y0125287D02*
X0079513Y0125287D01*
X0078416Y0125742D02*
X0081909Y0124294D01*
X0085691Y0124294D01*
X0089184Y0125742D01*
X0091858Y0128416D01*
X0093305Y0131909D01*
X0093305Y0135691D01*
X0091858Y0139184D01*
X0089184Y0141858D01*
X0085691Y0143305D01*
X0081909Y0143305D01*
X0078416Y0141858D01*
X0075742Y0139184D01*
X0074294Y0135691D01*
X0074294Y0131909D01*
X0075742Y0128416D01*
X0078416Y0125742D01*
X0077272Y0126885D02*
X0066400Y0126885D01*
X0066400Y0128484D02*
X0075713Y0128484D01*
X0075051Y0130082D02*
X0066400Y0130082D01*
X0066400Y0131681D02*
X0074389Y0131681D01*
X0074294Y0133279D02*
X0066400Y0133279D01*
X0066400Y0134878D02*
X0074294Y0134878D01*
X0074620Y0136476D02*
X0066400Y0136476D01*
X0066400Y0138075D02*
X0075282Y0138075D01*
X0076231Y0139673D02*
X0066400Y0139673D01*
X0066400Y0141272D02*
X0077829Y0141272D01*
X0080859Y0142870D02*
X0066400Y0142870D01*
X0066400Y0144469D02*
X0081488Y0144469D01*
X0081909Y0144294D02*
X0085691Y0144294D01*
X0089184Y0145742D01*
X0091858Y0148416D01*
X0093305Y0151909D01*
X0093305Y0155691D01*
X0091858Y0159184D01*
X0089184Y0161858D01*
X0085691Y0163305D01*
X0081909Y0163305D01*
X0078416Y0161858D01*
X0075742Y0159184D01*
X0074294Y0155691D01*
X0074294Y0151909D01*
X0075742Y0148416D01*
X0078416Y0145742D01*
X0081909Y0144294D01*
X0086112Y0144469D02*
X0103000Y0144469D01*
X0103000Y0144600D02*
X0103000Y0143000D01*
X0104600Y0143000D01*
X0104600Y0144600D01*
X0113477Y0144600D01*
X0113383Y0145428D01*
X0113141Y0146491D01*
X0112781Y0147520D01*
X0112308Y0148502D01*
X0111728Y0149425D01*
X0111048Y0150277D01*
X0110277Y0151048D01*
X0109425Y0151728D01*
X0108502Y0152308D01*
X0107520Y0152781D01*
X0106491Y0153141D01*
X0105428Y0153383D01*
X0104600Y0153477D01*
X0104600Y0144600D01*
X0103000Y0144600D01*
X0103000Y0153477D01*
X0102172Y0153383D01*
X0101109Y0153141D01*
X0100080Y0152781D01*
X0099098Y0152308D01*
X0098175Y0151728D01*
X0097323Y0151048D01*
X0096552Y0150277D01*
X0095872Y0149425D01*
X0095292Y0148502D01*
X0094819Y0147520D01*
X0094459Y0146491D01*
X0094217Y0145428D01*
X0094123Y0144600D01*
X0103000Y0144600D01*
X0103000Y0146068D02*
X0104600Y0146068D01*
X0104600Y0147666D02*
X0103000Y0147666D01*
X0103000Y0149265D02*
X0104600Y0149265D01*
X0104600Y0150863D02*
X0103000Y0150863D01*
X0103000Y0152462D02*
X0104600Y0152462D01*
X0105691Y0154294D02*
X0101909Y0154294D01*
X0098416Y0155742D01*
X0095742Y0158416D01*
X0094294Y0161909D01*
X0094294Y0165691D01*
X0095742Y0169184D01*
X0098416Y0171858D01*
X0101909Y0173305D01*
X0105691Y0173305D01*
X0109184Y0171858D01*
X0111858Y0169184D01*
X0113305Y0165691D01*
X0113305Y0161909D01*
X0111858Y0158416D01*
X0109184Y0155742D01*
X0105691Y0154294D01*
X0108183Y0152462D02*
X0168247Y0152462D01*
X0168247Y0154060D02*
X0093305Y0154060D01*
X0093305Y0152462D02*
X0099417Y0152462D01*
X0097137Y0150863D02*
X0092872Y0150863D01*
X0092210Y0149265D02*
X0095771Y0149265D01*
X0094889Y0147666D02*
X0091109Y0147666D01*
X0089510Y0146068D02*
X0094362Y0146068D01*
X0094123Y0143000D02*
X0094217Y0142172D01*
X0094459Y0141109D01*
X0094819Y0140080D01*
X0095292Y0139098D01*
X0095872Y0138175D01*
X0096552Y0137323D01*
X0097323Y0136552D01*
X0098175Y0135872D01*
X0099098Y0135292D01*
X0100080Y0134819D01*
X0101109Y0134459D01*
X0102172Y0134217D01*
X0103000Y0134123D01*
X0103000Y0143000D01*
X0094123Y0143000D01*
X0094138Y0142870D02*
X0086741Y0142870D01*
X0089771Y0141272D02*
X0094422Y0141272D01*
X0095015Y0139673D02*
X0091369Y0139673D01*
X0092318Y0138075D02*
X0095952Y0138075D01*
X0097417Y0136476D02*
X0092980Y0136476D01*
X0093305Y0134878D02*
X0099958Y0134878D01*
X0103000Y0134878D02*
X0104600Y0134878D01*
X0104600Y0134123D02*
X0105428Y0134217D01*
X0106491Y0134459D01*
X0107520Y0134819D01*
X0108502Y0135292D01*
X0109425Y0135872D01*
X0110277Y0136552D01*
X0111048Y0137323D01*
X0111728Y0138175D01*
X0112308Y0139098D01*
X0112781Y0140080D01*
X0113141Y0141109D01*
X0113383Y0142172D01*
X0113477Y0143000D01*
X0104600Y0143000D01*
X0104600Y0134123D01*
X0104600Y0136476D02*
X0103000Y0136476D01*
X0103000Y0138075D02*
X0104600Y0138075D01*
X0104600Y0139673D02*
X0103000Y0139673D01*
X0103000Y0141272D02*
X0104600Y0141272D01*
X0104600Y0142870D02*
X0103000Y0142870D01*
X0104600Y0144469D02*
X0168247Y0144469D01*
X0168247Y0142870D02*
X0113462Y0142870D01*
X0113178Y0141272D02*
X0168247Y0141272D01*
X0168247Y0140338D02*
X0168700Y0139885D01*
X0168700Y0079234D01*
X0169324Y0077728D01*
X0170478Y0076574D01*
X0171984Y0075950D01*
X0173616Y0075950D01*
X0175122Y0076574D01*
X0176276Y0077728D01*
X0176900Y0079234D01*
X0176900Y0139885D01*
X0177353Y0140338D01*
X0177353Y0146782D01*
X0176834Y0147300D01*
X0177353Y0147818D01*
X0177353Y0154262D01*
X0176900Y0154715D01*
X0176900Y0160866D01*
X0176276Y0162372D01*
X0175122Y0163526D01*
X0173616Y0164150D01*
X0171984Y0164150D01*
X0170478Y0163526D01*
X0169324Y0162372D01*
X0168700Y0160866D01*
X0168700Y0154715D01*
X0168247Y0154262D01*
X0168247Y0147818D01*
X0168766Y0147300D01*
X0168247Y0146782D01*
X0168247Y0140338D01*
X0168700Y0139673D02*
X0112585Y0139673D01*
X0111648Y0138075D02*
X0168700Y0138075D01*
X0168700Y0136476D02*
X0110183Y0136476D01*
X0107642Y0134878D02*
X0168700Y0134878D01*
X0168700Y0133279D02*
X0093305Y0133279D01*
X0093211Y0131681D02*
X0168700Y0131681D01*
X0168700Y0130082D02*
X0092549Y0130082D01*
X0091887Y0128484D02*
X0168700Y0128484D01*
X0168700Y0126885D02*
X0090328Y0126885D01*
X0088087Y0125287D02*
X0168700Y0125287D01*
X0176900Y0125287D02*
X0299000Y0125287D01*
X0299000Y0126885D02*
X0176900Y0126885D01*
X0176900Y0128484D02*
X0194448Y0128484D01*
X0194400Y0128663D02*
X0194523Y0128205D01*
X0194760Y0127795D01*
X0195095Y0127460D01*
X0195505Y0127223D01*
X0195963Y0127100D01*
X0216500Y0127100D01*
X0216500Y0148500D01*
X0218100Y0148500D01*
X0218100Y0150100D01*
X0240200Y0150100D01*
X0240200Y0169937D01*
X0240077Y0170395D01*
X0239840Y0170805D01*
X0239505Y0171140D01*
X0239095Y0171377D01*
X0238637Y0171500D01*
X0218100Y0171500D01*
X0218100Y0150100D01*
X0216500Y0150100D01*
X0216500Y0171500D01*
X0195963Y0171500D01*
X0195505Y0171377D01*
X0195095Y0171140D01*
X0194760Y0170805D01*
X0194523Y0170395D01*
X0194400Y0169937D01*
X0194400Y0150100D01*
X0216500Y0150100D01*
X0216500Y0148500D01*
X0194400Y0148500D01*
X0194400Y0128663D01*
X0194400Y0130082D02*
X0176900Y0130082D01*
X0176900Y0131681D02*
X0194400Y0131681D01*
X0194400Y0133279D02*
X0176900Y0133279D01*
X0176900Y0134878D02*
X0194400Y0134878D01*
X0194400Y0136476D02*
X0176900Y0136476D01*
X0176900Y0138075D02*
X0194400Y0138075D01*
X0194400Y0139673D02*
X0176900Y0139673D01*
X0177353Y0141272D02*
X0194400Y0141272D01*
X0194400Y0142870D02*
X0177353Y0142870D01*
X0177353Y0144469D02*
X0194400Y0144469D01*
X0194400Y0146068D02*
X0177353Y0146068D01*
X0177200Y0147666D02*
X0194400Y0147666D01*
X0194400Y0150863D02*
X0177353Y0150863D01*
X0177353Y0149265D02*
X0216500Y0149265D01*
X0216500Y0150863D02*
X0218100Y0150863D01*
X0218100Y0149265D02*
X0284450Y0149265D01*
X0284450Y0150863D02*
X0240200Y0150863D01*
X0240200Y0152462D02*
X0284450Y0152462D01*
X0284450Y0154060D02*
X0240200Y0154060D01*
X0240200Y0155659D02*
X0284450Y0155659D01*
X0284450Y0157257D02*
X0240200Y0157257D01*
X0240200Y0158856D02*
X0284450Y0158856D01*
X0284450Y0160454D02*
X0240200Y0160454D01*
X0240200Y0162053D02*
X0284450Y0162053D01*
X0284450Y0163651D02*
X0240200Y0163651D01*
X0240200Y0165250D02*
X0284450Y0165250D01*
X0284450Y0166848D02*
X0240200Y0166848D01*
X0240200Y0168447D02*
X0284450Y0168447D01*
X0284450Y0170045D02*
X0240171Y0170045D01*
X0240200Y0148500D02*
X0218100Y0148500D01*
X0218100Y0127100D01*
X0238637Y0127100D01*
X0239095Y0127223D01*
X0239505Y0127460D01*
X0239840Y0127795D01*
X0240077Y0128205D01*
X0240200Y0128663D01*
X0240200Y0148500D01*
X0240200Y0147666D02*
X0284450Y0147666D01*
X0284450Y0146068D02*
X0240200Y0146068D01*
X0240200Y0144469D02*
X0284450Y0144469D01*
X0284450Y0142870D02*
X0240200Y0142870D01*
X0240200Y0141272D02*
X0284450Y0141272D01*
X0284450Y0139673D02*
X0240200Y0139673D01*
X0240200Y0138075D02*
X0284450Y0138075D01*
X0284450Y0136476D02*
X0240200Y0136476D01*
X0240200Y0134878D02*
X0284805Y0134878D01*
X0285074Y0134228D02*
X0286228Y0133074D01*
X0287734Y0132450D01*
X0289366Y0132450D01*
X0290872Y0133074D01*
X0292026Y0134228D01*
X0292650Y0135734D01*
X0292650Y0230116D01*
X0292026Y0231622D01*
X0290872Y0232776D01*
X0289366Y0233400D01*
X0287734Y0233400D01*
X0286228Y0232776D01*
X0285074Y0231622D01*
X0284450Y0230116D01*
X0284450Y0135734D01*
X0285074Y0134228D01*
X0286022Y0133279D02*
X0240200Y0133279D01*
X0240200Y0131681D02*
X0299000Y0131681D01*
X0299000Y0133279D02*
X0291078Y0133279D01*
X0292295Y0134878D02*
X0299000Y0134878D01*
X0299000Y0136476D02*
X0292650Y0136476D01*
X0292650Y0138075D02*
X0299000Y0138075D01*
X0299000Y0139673D02*
X0292650Y0139673D01*
X0292650Y0141272D02*
X0299000Y0141272D01*
X0299000Y0142870D02*
X0292650Y0142870D01*
X0292650Y0144469D02*
X0299000Y0144469D01*
X0299000Y0146068D02*
X0292650Y0146068D01*
X0292650Y0147666D02*
X0299000Y0147666D01*
X0299000Y0149265D02*
X0292650Y0149265D01*
X0292650Y0150863D02*
X0299000Y0150863D01*
X0299000Y0152462D02*
X0292650Y0152462D01*
X0292650Y0154060D02*
X0295368Y0154060D01*
X0297232Y0154060D02*
X0299000Y0154060D01*
X0296300Y0157550D02*
X0296300Y0255550D01*
X0269300Y0282550D01*
X0251310Y0282550D01*
X0251300Y0282540D01*
X0231300Y0282540D01*
X0211300Y0282540D01*
X0206747Y0281941D02*
X0203184Y0281941D01*
X0204185Y0280342D02*
X0206747Y0280342D01*
X0207210Y0278744D02*
X0204250Y0278744D01*
X0204250Y0277145D02*
X0206747Y0277145D01*
X0206747Y0275547D02*
X0204250Y0275547D01*
X0204250Y0273948D02*
X0206747Y0273948D01*
X0206747Y0272350D02*
X0204250Y0272350D01*
X0204250Y0270751D02*
X0208900Y0270751D01*
X0208900Y0269153D02*
X0204250Y0269153D01*
X0204250Y0267554D02*
X0208900Y0267554D01*
X0208900Y0265956D02*
X0204250Y0265956D01*
X0204250Y0264357D02*
X0208900Y0264357D01*
X0208900Y0262759D02*
X0204250Y0262759D01*
X0204250Y0261160D02*
X0208900Y0261160D01*
X0208900Y0259562D02*
X0204250Y0259562D01*
X0204250Y0257963D02*
X0208900Y0257963D01*
X0208900Y0256365D02*
X0204250Y0256365D01*
X0204250Y0254766D02*
X0208900Y0254766D01*
X0206719Y0253168D02*
X0204250Y0253168D01*
X0204250Y0251569D02*
X0205303Y0251569D01*
X0204969Y0249971D02*
X0204250Y0249971D01*
X0204250Y0248372D02*
X0205369Y0248372D01*
X0204250Y0246774D02*
X0207102Y0246774D01*
X0209998Y0246774D02*
X0221380Y0246774D01*
X0221969Y0247363D02*
X0216191Y0241585D01*
X0215825Y0240703D01*
X0215825Y0228897D01*
X0215144Y0228615D01*
X0213615Y0227085D01*
X0212787Y0225087D01*
X0212787Y0222923D01*
X0213615Y0220924D01*
X0215144Y0219394D01*
X0217143Y0218566D01*
X0219307Y0218566D01*
X0221306Y0219394D01*
X0222836Y0220924D01*
X0223664Y0222923D01*
X0223664Y0225087D01*
X0222836Y0227085D01*
X0221306Y0228615D01*
X0220625Y0228897D01*
X0220625Y0239231D01*
X0225363Y0243969D01*
X0226262Y0243969D01*
X0227579Y0244514D01*
X0228586Y0245521D01*
X0229131Y0246838D01*
X0229131Y0248262D01*
X0228586Y0249579D01*
X0227579Y0250586D01*
X0226262Y0251131D01*
X0224838Y0251131D01*
X0223521Y0250586D01*
X0222514Y0249579D01*
X0221969Y0248262D01*
X0221969Y0247363D01*
X0222014Y0248372D02*
X0211731Y0248372D01*
X0212131Y0249971D02*
X0222906Y0249971D01*
X0225550Y0247550D02*
X0218225Y0240225D01*
X0218225Y0224005D01*
X0213162Y0225993D02*
X0144700Y0225993D01*
X0144700Y0225714D02*
X0144700Y0246113D01*
X0144734Y0246113D01*
X0145672Y0247051D01*
X0145672Y0247676D01*
X0151360Y0247676D01*
X0152021Y0247014D01*
X0153338Y0246469D01*
X0154762Y0246469D01*
X0156079Y0247014D01*
X0157086Y0248021D01*
X0157631Y0249338D01*
X0157631Y0250762D01*
X0157086Y0252079D01*
X0156079Y0253086D01*
X0154762Y0253631D01*
X0153338Y0253631D01*
X0152021Y0253086D01*
X0151411Y0252476D01*
X0145672Y0252476D01*
X0145672Y0253101D01*
X0144734Y0254038D01*
X0139866Y0254038D01*
X0138928Y0253101D01*
X0138928Y0247051D01*
X0139866Y0246113D01*
X0139900Y0246113D01*
X0139900Y0225714D01*
X0139264Y0225079D01*
X0138719Y0223762D01*
X0138719Y0222338D01*
X0139264Y0221021D01*
X0140271Y0220014D01*
X0141588Y0219469D01*
X0143012Y0219469D01*
X0144329Y0220014D01*
X0145336Y0221021D01*
X0145881Y0222338D01*
X0145881Y0223762D01*
X0145336Y0225079D01*
X0144700Y0225714D01*
X0145619Y0224395D02*
X0212787Y0224395D01*
X0212839Y0222796D02*
X0145881Y0222796D01*
X0145409Y0221198D02*
X0213501Y0221198D01*
X0214940Y0219599D02*
X0143326Y0219599D01*
X0141273Y0219599D02*
X0087647Y0219599D01*
X0086049Y0218001D02*
X0233609Y0218001D01*
X0233469Y0218338D02*
X0234014Y0217021D01*
X0235021Y0216014D01*
X0236338Y0215469D01*
X0237762Y0215469D01*
X0239079Y0216014D01*
X0240086Y0217021D01*
X0240631Y0218338D01*
X0240631Y0219762D01*
X0240086Y0221079D01*
X0239150Y0222014D01*
X0239150Y0233586D01*
X0240086Y0234521D01*
X0240631Y0235838D01*
X0240631Y0237262D01*
X0240086Y0238579D01*
X0239079Y0239586D01*
X0237762Y0240131D01*
X0236338Y0240131D01*
X0235021Y0239586D01*
X0234014Y0238579D01*
X0233469Y0237262D01*
X0233469Y0235838D01*
X0234014Y0234521D01*
X0234950Y0233586D01*
X0234950Y0222014D01*
X0234014Y0221079D01*
X0233469Y0219762D01*
X0233469Y0218338D01*
X0233469Y0219599D02*
X0221511Y0219599D01*
X0222949Y0221198D02*
X0234133Y0221198D01*
X0234950Y0222796D02*
X0223611Y0222796D01*
X0223664Y0224395D02*
X0234950Y0224395D01*
X0234950Y0225993D02*
X0223288Y0225993D01*
X0222330Y0227592D02*
X0234950Y0227592D01*
X0234950Y0229190D02*
X0220625Y0229190D01*
X0220625Y0230789D02*
X0234950Y0230789D01*
X0234950Y0232387D02*
X0220625Y0232387D01*
X0220625Y0233986D02*
X0234550Y0233986D01*
X0233574Y0235584D02*
X0220625Y0235584D01*
X0220625Y0237183D02*
X0233469Y0237183D01*
X0234217Y0238781D02*
X0220625Y0238781D01*
X0221774Y0240380D02*
X0254904Y0240380D01*
X0255093Y0240489D02*
X0254683Y0240252D01*
X0254348Y0239917D01*
X0254111Y0239507D01*
X0253988Y0239049D01*
X0253988Y0236004D01*
X0258596Y0236004D01*
X0258596Y0240612D01*
X0255551Y0240612D01*
X0255093Y0240489D01*
X0253988Y0238781D02*
X0239883Y0238781D01*
X0240631Y0237183D02*
X0253988Y0237183D01*
X0253988Y0235596D02*
X0253988Y0232551D01*
X0254111Y0232093D01*
X0254348Y0231683D01*
X0254683Y0231348D01*
X0255093Y0231111D01*
X0255551Y0230988D01*
X0258596Y0230988D01*
X0258596Y0235596D01*
X0259004Y0235596D01*
X0259004Y0236004D01*
X0258596Y0236004D01*
X0258596Y0235596D01*
X0253988Y0235596D01*
X0253988Y0235584D02*
X0240526Y0235584D01*
X0239550Y0233986D02*
X0253988Y0233986D01*
X0254032Y0232387D02*
X0239150Y0232387D01*
X0239150Y0230789D02*
X0284729Y0230789D01*
X0284450Y0229190D02*
X0271932Y0229190D01*
X0271412Y0229710D02*
X0269717Y0230412D01*
X0267883Y0230412D01*
X0266188Y0229710D01*
X0264890Y0228412D01*
X0264188Y0226717D01*
X0264188Y0224883D01*
X0264890Y0223188D01*
X0266188Y0221890D01*
X0267883Y0221188D01*
X0269717Y0221188D01*
X0271412Y0221890D01*
X0272710Y0223188D01*
X0273412Y0224883D01*
X0273412Y0226717D01*
X0272710Y0228412D01*
X0271412Y0229710D01*
X0271412Y0231890D02*
X0269717Y0231188D01*
X0267883Y0231188D01*
X0266188Y0231890D01*
X0264890Y0233188D01*
X0264188Y0234883D01*
X0264188Y0236717D01*
X0264890Y0238412D01*
X0266188Y0239710D01*
X0267883Y0240412D01*
X0269717Y0240412D01*
X0271412Y0239710D01*
X0272710Y0238412D01*
X0273412Y0236717D01*
X0273412Y0234883D01*
X0272710Y0233188D01*
X0271412Y0231890D01*
X0271909Y0232387D02*
X0285839Y0232387D01*
X0284450Y0227592D02*
X0273050Y0227592D01*
X0273412Y0225993D02*
X0279254Y0225993D01*
X0279588Y0226131D02*
X0278271Y0225586D01*
X0277264Y0224579D01*
X0276719Y0223262D01*
X0276719Y0221838D01*
X0277264Y0220521D01*
X0278200Y0219586D01*
X0278200Y0198670D01*
X0274661Y0195131D01*
X0273338Y0195131D01*
X0272021Y0194586D01*
X0271014Y0193579D01*
X0270469Y0192262D01*
X0270469Y0190838D01*
X0271014Y0189521D01*
X0272021Y0188514D01*
X0273338Y0187969D01*
X0274762Y0187969D01*
X0276079Y0188514D01*
X0277086Y0189521D01*
X0277631Y0190838D01*
X0277631Y0192161D01*
X0281170Y0195700D01*
X0282400Y0196930D01*
X0282400Y0219586D01*
X0283336Y0220521D01*
X0283881Y0221838D01*
X0283881Y0223262D01*
X0283336Y0224579D01*
X0282329Y0225586D01*
X0281012Y0226131D01*
X0279588Y0226131D01*
X0281346Y0225993D02*
X0284450Y0225993D01*
X0284450Y0224395D02*
X0283412Y0224395D01*
X0283881Y0222796D02*
X0284450Y0222796D01*
X0284450Y0221198D02*
X0283616Y0221198D01*
X0284450Y0219599D02*
X0282413Y0219599D01*
X0282400Y0218001D02*
X0284450Y0218001D01*
X0284450Y0216402D02*
X0282400Y0216402D01*
X0282400Y0214803D02*
X0284450Y0214803D01*
X0284450Y0213205D02*
X0282400Y0213205D01*
X0282400Y0211606D02*
X0284450Y0211606D01*
X0284450Y0210008D02*
X0282400Y0210008D01*
X0282400Y0208409D02*
X0284450Y0208409D01*
X0284450Y0206811D02*
X0282400Y0206811D01*
X0282400Y0205212D02*
X0284450Y0205212D01*
X0284450Y0203614D02*
X0282400Y0203614D01*
X0282400Y0202015D02*
X0284450Y0202015D01*
X0284450Y0200417D02*
X0282400Y0200417D01*
X0282400Y0198818D02*
X0284450Y0198818D01*
X0284450Y0197220D02*
X0282400Y0197220D01*
X0281091Y0195621D02*
X0284450Y0195621D01*
X0284450Y0194023D02*
X0279493Y0194023D01*
X0277894Y0192424D02*
X0284450Y0192424D01*
X0284450Y0190826D02*
X0277626Y0190826D01*
X0276792Y0189227D02*
X0284450Y0189227D01*
X0284450Y0187629D02*
X0066400Y0187629D01*
X0066400Y0189227D02*
X0271308Y0189227D01*
X0270474Y0190826D02*
X0066400Y0190826D01*
X0066400Y0192424D02*
X0270536Y0192424D01*
X0271458Y0194023D02*
X0066400Y0194023D01*
X0066400Y0195621D02*
X0275152Y0195621D01*
X0276750Y0197220D02*
X0066400Y0197220D01*
X0066867Y0198818D02*
X0278200Y0198818D01*
X0278200Y0200417D02*
X0068465Y0200417D01*
X0070064Y0202015D02*
X0278200Y0202015D01*
X0278200Y0203614D02*
X0071662Y0203614D01*
X0073261Y0205212D02*
X0278200Y0205212D01*
X0278200Y0206811D02*
X0220854Y0206811D01*
X0221180Y0206977D02*
X0221898Y0207499D01*
X0222526Y0208127D01*
X0223048Y0208845D01*
X0223451Y0209636D01*
X0223725Y0210480D01*
X0223858Y0211320D01*
X0218705Y0211320D01*
X0218705Y0206167D01*
X0219546Y0206300D01*
X0220390Y0206575D01*
X0221180Y0206977D01*
X0222731Y0208409D02*
X0278200Y0208409D01*
X0278200Y0210008D02*
X0223572Y0210008D01*
X0223858Y0212280D02*
X0218705Y0212280D01*
X0217746Y0212280D01*
X0217746Y0217433D01*
X0216905Y0217300D01*
X0216061Y0217025D01*
X0215270Y0216623D01*
X0214552Y0216101D01*
X0213924Y0215473D01*
X0213403Y0214755D01*
X0213000Y0213964D01*
X0212725Y0213120D01*
X0212592Y0212280D01*
X0217746Y0212280D01*
X0217746Y0211320D01*
X0218705Y0211320D01*
X0218705Y0212280D01*
X0218705Y0217433D01*
X0219546Y0217300D01*
X0220390Y0217025D01*
X0221180Y0216623D01*
X0221898Y0216101D01*
X0222526Y0215473D01*
X0223048Y0214755D01*
X0223451Y0213964D01*
X0223725Y0213120D01*
X0223858Y0212280D01*
X0223697Y0213205D02*
X0254883Y0213205D01*
X0254890Y0213188D02*
X0256188Y0211890D01*
X0257883Y0211188D01*
X0259717Y0211188D01*
X0261412Y0211890D01*
X0262710Y0213188D01*
X0263412Y0214883D01*
X0263412Y0216717D01*
X0262710Y0218412D01*
X0261412Y0219710D01*
X0259717Y0220412D01*
X0257883Y0220412D01*
X0256188Y0219710D01*
X0254890Y0218412D01*
X0254188Y0216717D01*
X0254188Y0214883D01*
X0254890Y0213188D01*
X0254221Y0214803D02*
X0223013Y0214803D01*
X0221484Y0216402D02*
X0234634Y0216402D01*
X0239466Y0216402D02*
X0254188Y0216402D01*
X0254720Y0218001D02*
X0240491Y0218001D01*
X0240631Y0219599D02*
X0256077Y0219599D01*
X0256188Y0221890D02*
X0257883Y0221188D01*
X0259717Y0221188D01*
X0261412Y0221890D01*
X0262710Y0223188D01*
X0263412Y0224883D01*
X0263412Y0226717D01*
X0262710Y0228412D01*
X0261412Y0229710D01*
X0259717Y0230412D01*
X0257883Y0230412D01*
X0256188Y0229710D01*
X0254890Y0228412D01*
X0254188Y0226717D01*
X0254188Y0224883D01*
X0254890Y0223188D01*
X0256188Y0221890D01*
X0255282Y0222796D02*
X0239150Y0222796D01*
X0239150Y0224395D02*
X0254390Y0224395D01*
X0254188Y0225993D02*
X0239150Y0225993D01*
X0239150Y0227592D02*
X0254550Y0227592D01*
X0255668Y0229190D02*
X0239150Y0229190D01*
X0239967Y0221198D02*
X0257860Y0221198D01*
X0259740Y0221198D02*
X0267860Y0221198D01*
X0267883Y0220412D02*
X0266188Y0219710D01*
X0264890Y0218412D01*
X0264188Y0216717D01*
X0264188Y0214883D01*
X0264890Y0213188D01*
X0266188Y0211890D01*
X0267883Y0211188D01*
X0269717Y0211188D01*
X0271412Y0211890D01*
X0272710Y0213188D01*
X0273412Y0214883D01*
X0273412Y0216717D01*
X0272710Y0218412D01*
X0271412Y0219710D01*
X0269717Y0220412D01*
X0267883Y0220412D01*
X0266077Y0219599D02*
X0261523Y0219599D01*
X0262880Y0218001D02*
X0264720Y0218001D01*
X0264188Y0216402D02*
X0263412Y0216402D01*
X0263379Y0214803D02*
X0264221Y0214803D01*
X0264883Y0213205D02*
X0262717Y0213205D01*
X0260727Y0211606D02*
X0266873Y0211606D01*
X0270727Y0211606D02*
X0278200Y0211606D01*
X0278200Y0213205D02*
X0272717Y0213205D01*
X0273379Y0214803D02*
X0278200Y0214803D01*
X0278200Y0216402D02*
X0273412Y0216402D01*
X0272880Y0218001D02*
X0278200Y0218001D01*
X0278187Y0219599D02*
X0271523Y0219599D01*
X0269740Y0221198D02*
X0276984Y0221198D01*
X0276719Y0222796D02*
X0272318Y0222796D01*
X0273210Y0224395D02*
X0277188Y0224395D01*
X0273040Y0233986D02*
X0293900Y0233986D01*
X0293900Y0235584D02*
X0273412Y0235584D01*
X0273219Y0237183D02*
X0293900Y0237183D01*
X0293900Y0238781D02*
X0272341Y0238781D01*
X0269795Y0240380D02*
X0293900Y0240380D01*
X0293900Y0241978D02*
X0223372Y0241978D01*
X0224971Y0243577D02*
X0293900Y0243577D01*
X0293900Y0245175D02*
X0249740Y0245175D01*
X0250605Y0246774D02*
X0293900Y0246774D01*
X0293900Y0248372D02*
X0251266Y0248372D01*
X0252865Y0249971D02*
X0293900Y0249971D01*
X0293900Y0251569D02*
X0253700Y0251569D01*
X0253700Y0253168D02*
X0293900Y0253168D01*
X0293690Y0254766D02*
X0253700Y0254766D01*
X0253700Y0256365D02*
X0292091Y0256365D01*
X0290493Y0257963D02*
X0253700Y0257963D01*
X0253700Y0259562D02*
X0288894Y0259562D01*
X0287296Y0261160D02*
X0253700Y0261160D01*
X0253700Y0262759D02*
X0285697Y0262759D01*
X0284099Y0264357D02*
X0253700Y0264357D01*
X0253700Y0265956D02*
X0282500Y0265956D01*
X0280902Y0267554D02*
X0253700Y0267554D01*
X0253700Y0269153D02*
X0279303Y0269153D01*
X0277705Y0270751D02*
X0253700Y0270751D01*
X0255853Y0272350D02*
X0276106Y0272350D01*
X0274507Y0273948D02*
X0255853Y0273948D01*
X0255853Y0275547D02*
X0272909Y0275547D01*
X0271310Y0277145D02*
X0255853Y0277145D01*
X0255390Y0278744D02*
X0269712Y0278744D01*
X0273303Y0281941D02*
X0279481Y0281941D01*
X0278558Y0283539D02*
X0271705Y0283539D01*
X0274902Y0280342D02*
X0280994Y0280342D01*
X0283218Y0278744D02*
X0276500Y0278744D01*
X0278099Y0277145D02*
X0299000Y0277145D01*
X0299000Y0275547D02*
X0279697Y0275547D01*
X0281296Y0273948D02*
X0299000Y0273948D01*
X0299000Y0272350D02*
X0282894Y0272350D01*
X0284493Y0270751D02*
X0299000Y0270751D01*
X0299000Y0269153D02*
X0286091Y0269153D01*
X0287690Y0267554D02*
X0299000Y0267554D01*
X0299000Y0265956D02*
X0289288Y0265956D01*
X0290887Y0264357D02*
X0299000Y0264357D01*
X0299000Y0262759D02*
X0292485Y0262759D01*
X0294084Y0261160D02*
X0299000Y0261160D01*
X0299000Y0259562D02*
X0295682Y0259562D01*
X0297281Y0257963D02*
X0299000Y0257963D01*
X0297659Y0257585D02*
X0297659Y0257585D01*
X0298560Y0256365D02*
X0299000Y0256365D01*
X0299000Y0254766D02*
X0298700Y0254766D01*
X0298700Y0253168D02*
X0299000Y0253168D01*
X0299000Y0251569D02*
X0298700Y0251569D01*
X0298700Y0249971D02*
X0299000Y0249971D01*
X0299000Y0248372D02*
X0298700Y0248372D01*
X0298700Y0246774D02*
X0299000Y0246774D01*
X0299000Y0245175D02*
X0298700Y0245175D01*
X0298700Y0243577D02*
X0299000Y0243577D01*
X0299000Y0241978D02*
X0298700Y0241978D01*
X0298700Y0240380D02*
X0299000Y0240380D01*
X0299000Y0238781D02*
X0298700Y0238781D01*
X0298700Y0237183D02*
X0299000Y0237183D01*
X0299000Y0235584D02*
X0298700Y0235584D01*
X0298700Y0233986D02*
X0299000Y0233986D01*
X0299000Y0232387D02*
X0298700Y0232387D01*
X0298700Y0230789D02*
X0299000Y0230789D01*
X0299000Y0229190D02*
X0298700Y0229190D01*
X0298700Y0227592D02*
X0299000Y0227592D01*
X0299000Y0225993D02*
X0298700Y0225993D01*
X0298700Y0224395D02*
X0299000Y0224395D01*
X0299000Y0222796D02*
X0298700Y0222796D01*
X0298700Y0221198D02*
X0299000Y0221198D01*
X0299000Y0219599D02*
X0298700Y0219599D01*
X0298700Y0218001D02*
X0299000Y0218001D01*
X0299000Y0216402D02*
X0298700Y0216402D01*
X0298700Y0214803D02*
X0299000Y0214803D01*
X0299000Y0213205D02*
X0298700Y0213205D01*
X0298700Y0211606D02*
X0299000Y0211606D01*
X0299000Y0210008D02*
X0298700Y0210008D01*
X0298700Y0208409D02*
X0299000Y0208409D01*
X0299000Y0206811D02*
X0298700Y0206811D01*
X0298700Y0205212D02*
X0299000Y0205212D01*
X0299000Y0203614D02*
X0298700Y0203614D01*
X0298700Y0202015D02*
X0299000Y0202015D01*
X0299000Y0200417D02*
X0298700Y0200417D01*
X0298700Y0198818D02*
X0299000Y0198818D01*
X0299000Y0197220D02*
X0298700Y0197220D01*
X0298700Y0195621D02*
X0299000Y0195621D01*
X0299000Y0194023D02*
X0298700Y0194023D01*
X0298700Y0192424D02*
X0299000Y0192424D01*
X0299000Y0190826D02*
X0298700Y0190826D01*
X0298700Y0189227D02*
X0299000Y0189227D01*
X0299000Y0187629D02*
X0298700Y0187629D01*
X0298700Y0186030D02*
X0299000Y0186030D01*
X0299000Y0184432D02*
X0298700Y0184432D01*
X0298700Y0182833D02*
X0299000Y0182833D01*
X0299000Y0181235D02*
X0298700Y0181235D01*
X0298700Y0179636D02*
X0299000Y0179636D01*
X0299000Y0178038D02*
X0298700Y0178038D01*
X0298700Y0176439D02*
X0299000Y0176439D01*
X0299000Y0174841D02*
X0298700Y0174841D01*
X0298700Y0173242D02*
X0299000Y0173242D01*
X0299000Y0171644D02*
X0298700Y0171644D01*
X0298700Y0170045D02*
X0299000Y0170045D01*
X0299000Y0168447D02*
X0298700Y0168447D01*
X0298700Y0166848D02*
X0299000Y0166848D01*
X0299000Y0165250D02*
X0298700Y0165250D01*
X0298700Y0163651D02*
X0299000Y0163651D01*
X0299000Y0162053D02*
X0298700Y0162053D01*
X0298700Y0160454D02*
X0299000Y0160454D01*
X0293900Y0160454D02*
X0292650Y0160454D01*
X0292650Y0158856D02*
X0292965Y0158856D01*
X0292719Y0157257D02*
X0292650Y0157257D01*
X0292650Y0155659D02*
X0293207Y0155659D01*
X0292650Y0162053D02*
X0293900Y0162053D01*
X0293900Y0163651D02*
X0292650Y0163651D01*
X0292650Y0165250D02*
X0293900Y0165250D01*
X0293900Y0166848D02*
X0292650Y0166848D01*
X0292650Y0168447D02*
X0293900Y0168447D01*
X0293900Y0170045D02*
X0292650Y0170045D01*
X0292650Y0171644D02*
X0293900Y0171644D01*
X0293900Y0173242D02*
X0292650Y0173242D01*
X0292650Y0174841D02*
X0293900Y0174841D01*
X0293900Y0176439D02*
X0292650Y0176439D01*
X0292650Y0178038D02*
X0293900Y0178038D01*
X0293900Y0179636D02*
X0292650Y0179636D01*
X0292650Y0181235D02*
X0293900Y0181235D01*
X0293900Y0182833D02*
X0292650Y0182833D01*
X0292650Y0184432D02*
X0293900Y0184432D01*
X0293900Y0186030D02*
X0292650Y0186030D01*
X0292650Y0187629D02*
X0293900Y0187629D01*
X0293900Y0189227D02*
X0292650Y0189227D01*
X0292650Y0190826D02*
X0293900Y0190826D01*
X0293900Y0192424D02*
X0292650Y0192424D01*
X0292650Y0194023D02*
X0293900Y0194023D01*
X0293900Y0195621D02*
X0292650Y0195621D01*
X0292650Y0197220D02*
X0293900Y0197220D01*
X0293900Y0198818D02*
X0292650Y0198818D01*
X0292650Y0200417D02*
X0293900Y0200417D01*
X0293900Y0202015D02*
X0292650Y0202015D01*
X0292650Y0203614D02*
X0293900Y0203614D01*
X0293900Y0205212D02*
X0292650Y0205212D01*
X0292650Y0206811D02*
X0293900Y0206811D01*
X0293900Y0208409D02*
X0292650Y0208409D01*
X0292650Y0210008D02*
X0293900Y0210008D01*
X0293900Y0211606D02*
X0292650Y0211606D01*
X0292650Y0213205D02*
X0293900Y0213205D01*
X0293900Y0214803D02*
X0292650Y0214803D01*
X0292650Y0216402D02*
X0293900Y0216402D01*
X0293900Y0218001D02*
X0292650Y0218001D01*
X0292650Y0219599D02*
X0293900Y0219599D01*
X0293900Y0221198D02*
X0292650Y0221198D01*
X0292650Y0222796D02*
X0293900Y0222796D01*
X0293900Y0224395D02*
X0292650Y0224395D01*
X0292650Y0225993D02*
X0293900Y0225993D01*
X0293900Y0227592D02*
X0292650Y0227592D01*
X0292650Y0229190D02*
X0293900Y0229190D01*
X0293900Y0230789D02*
X0292371Y0230789D01*
X0291261Y0232387D02*
X0293900Y0232387D01*
X0267805Y0240380D02*
X0262696Y0240380D01*
X0262507Y0240489D02*
X0262049Y0240612D01*
X0259004Y0240612D01*
X0259004Y0236004D01*
X0263612Y0236004D01*
X0263612Y0239049D01*
X0263489Y0239507D01*
X0263252Y0239917D01*
X0262917Y0240252D01*
X0262507Y0240489D01*
X0263612Y0238781D02*
X0265259Y0238781D01*
X0264381Y0237183D02*
X0263612Y0237183D01*
X0263612Y0235596D02*
X0259004Y0235596D01*
X0259004Y0230988D01*
X0262049Y0230988D01*
X0262507Y0231111D01*
X0262917Y0231348D01*
X0263252Y0231683D01*
X0263489Y0232093D01*
X0263612Y0232551D01*
X0263612Y0235596D01*
X0263612Y0235584D02*
X0264188Y0235584D01*
X0264560Y0233986D02*
X0263612Y0233986D01*
X0263568Y0232387D02*
X0265691Y0232387D01*
X0265668Y0229190D02*
X0261932Y0229190D01*
X0263050Y0227592D02*
X0264550Y0227592D01*
X0264188Y0225993D02*
X0263412Y0225993D01*
X0263210Y0224395D02*
X0264390Y0224395D01*
X0265282Y0222796D02*
X0262318Y0222796D01*
X0259004Y0232387D02*
X0258596Y0232387D01*
X0258596Y0233986D02*
X0259004Y0233986D01*
X0259004Y0235584D02*
X0258596Y0235584D01*
X0258596Y0237183D02*
X0259004Y0237183D01*
X0259004Y0238781D02*
X0258596Y0238781D01*
X0258596Y0240380D02*
X0259004Y0240380D01*
X0251300Y0251800D02*
X0247050Y0247550D01*
X0244406Y0249971D02*
X0228194Y0249971D01*
X0229086Y0248372D02*
X0243514Y0248372D01*
X0243495Y0246774D02*
X0229105Y0246774D01*
X0228240Y0245175D02*
X0244360Y0245175D01*
X0247675Y0251569D02*
X0213388Y0251569D01*
X0213700Y0253168D02*
X0248900Y0253168D01*
X0248900Y0254766D02*
X0213700Y0254766D01*
X0213700Y0256365D02*
X0248900Y0256365D01*
X0248900Y0257963D02*
X0213700Y0257963D01*
X0213700Y0259562D02*
X0248900Y0259562D01*
X0248900Y0261160D02*
X0213700Y0261160D01*
X0213700Y0262759D02*
X0248900Y0262759D01*
X0248900Y0264357D02*
X0213700Y0264357D01*
X0213700Y0265956D02*
X0248900Y0265956D01*
X0248900Y0267554D02*
X0213700Y0267554D01*
X0213700Y0269153D02*
X0248900Y0269153D01*
X0248900Y0270751D02*
X0213700Y0270751D01*
X0215853Y0272350D02*
X0226747Y0272350D01*
X0231300Y0275060D02*
X0211300Y0275060D01*
X0211300Y0252800D01*
X0208550Y0250050D01*
X0204250Y0245175D02*
X0219781Y0245175D01*
X0218183Y0243577D02*
X0204250Y0243577D01*
X0204250Y0241978D02*
X0216584Y0241978D01*
X0215825Y0240380D02*
X0204250Y0240380D01*
X0204250Y0238781D02*
X0215825Y0238781D01*
X0215825Y0237183D02*
X0204250Y0237183D01*
X0204250Y0235584D02*
X0215825Y0235584D01*
X0215825Y0233986D02*
X0204631Y0233986D01*
X0204548Y0232387D02*
X0215825Y0232387D01*
X0215825Y0230789D02*
X0203603Y0230789D01*
X0198497Y0230789D02*
X0176911Y0230789D01*
X0176875Y0230558D02*
X0177008Y0231399D01*
X0171854Y0231399D01*
X0171854Y0226246D01*
X0172695Y0226379D01*
X0173539Y0226653D01*
X0174330Y0227056D01*
X0175048Y0227578D01*
X0175676Y0228205D01*
X0176197Y0228923D01*
X0176600Y0229714D01*
X0176875Y0230558D01*
X0176333Y0229190D02*
X0215825Y0229190D01*
X0214121Y0227592D02*
X0175062Y0227592D01*
X0171854Y0227592D02*
X0170895Y0227592D01*
X0170895Y0226246D02*
X0170895Y0231399D01*
X0165742Y0231399D01*
X0165875Y0230558D01*
X0166149Y0229714D01*
X0166552Y0228923D01*
X0167074Y0228205D01*
X0167702Y0227578D01*
X0168420Y0227056D01*
X0169210Y0226653D01*
X0170054Y0226379D01*
X0170895Y0226246D01*
X0170895Y0229190D02*
X0171854Y0229190D01*
X0171854Y0230789D02*
X0170895Y0230789D01*
X0170895Y0231399D02*
X0171854Y0231399D01*
X0171854Y0232358D01*
X0170895Y0232358D01*
X0170895Y0231399D01*
X0170895Y0232358D02*
X0165742Y0232358D01*
X0165875Y0233199D01*
X0166149Y0234043D01*
X0166552Y0234834D01*
X0167074Y0235552D01*
X0167702Y0236180D01*
X0168420Y0236701D01*
X0169210Y0237104D01*
X0170054Y0237378D01*
X0170895Y0237512D01*
X0170895Y0232358D01*
X0170895Y0232387D02*
X0171854Y0232387D01*
X0171854Y0232358D02*
X0171854Y0237512D01*
X0172695Y0237378D01*
X0173539Y0237104D01*
X0174330Y0236701D01*
X0175048Y0236180D01*
X0175676Y0235552D01*
X0176197Y0234834D01*
X0176600Y0234043D01*
X0176875Y0233199D01*
X0177008Y0232358D01*
X0171854Y0232358D01*
X0171854Y0233986D02*
X0170895Y0233986D01*
X0170895Y0235584D02*
X0171854Y0235584D01*
X0171854Y0237183D02*
X0170895Y0237183D01*
X0169452Y0237183D02*
X0144700Y0237183D01*
X0144700Y0238781D02*
X0197850Y0238781D01*
X0197850Y0237183D02*
X0173298Y0237183D01*
X0175644Y0235584D02*
X0197850Y0235584D01*
X0197469Y0233986D02*
X0176619Y0233986D01*
X0177003Y0232387D02*
X0197552Y0232387D01*
X0197850Y0240380D02*
X0144700Y0240380D01*
X0144700Y0241978D02*
X0197850Y0241978D01*
X0197850Y0243577D02*
X0194141Y0243577D01*
X0194881Y0245175D02*
X0197850Y0245175D01*
X0197850Y0246774D02*
X0194773Y0246774D01*
X0193792Y0248372D02*
X0197850Y0248372D01*
X0197850Y0249971D02*
X0193400Y0249971D01*
X0193400Y0251569D02*
X0197850Y0251569D01*
X0197850Y0253168D02*
X0193400Y0253168D01*
X0193400Y0254766D02*
X0197850Y0254766D01*
X0197850Y0256365D02*
X0193400Y0256365D01*
X0193400Y0257963D02*
X0197850Y0257963D01*
X0197850Y0259562D02*
X0194456Y0259562D01*
X0194881Y0261160D02*
X0197850Y0261160D01*
X0197850Y0262759D02*
X0194572Y0262759D01*
X0193400Y0264357D02*
X0197850Y0264357D01*
X0197850Y0265956D02*
X0193400Y0265956D01*
X0193400Y0267554D02*
X0197850Y0267554D01*
X0197850Y0269153D02*
X0193400Y0269153D01*
X0193400Y0270751D02*
X0197850Y0270751D01*
X0197850Y0272350D02*
X0195853Y0272350D01*
X0195853Y0273948D02*
X0197850Y0273948D01*
X0197850Y0275547D02*
X0195853Y0275547D01*
X0195853Y0277145D02*
X0197850Y0277145D01*
X0197331Y0278744D02*
X0195390Y0278744D01*
X0201586Y0283539D02*
X0206747Y0283539D01*
X0206747Y0285138D02*
X0199987Y0285138D01*
X0189200Y0270751D02*
X0175527Y0270751D01*
X0173928Y0269153D02*
X0189200Y0269153D01*
X0189200Y0267554D02*
X0172330Y0267554D01*
X0170731Y0265956D02*
X0189200Y0265956D01*
X0189200Y0264357D02*
X0169672Y0264357D01*
X0164928Y0264357D02*
X0149240Y0264357D01*
X0149240Y0265394D02*
X0149240Y0262721D01*
X0149412Y0262549D01*
X0149412Y0256499D01*
X0148475Y0255562D01*
X0143606Y0255562D01*
X0142669Y0256499D01*
X0142669Y0262549D01*
X0142840Y0262721D01*
X0142840Y0265441D01*
X0142469Y0266338D01*
X0142469Y0267762D01*
X0143014Y0269079D01*
X0144021Y0270086D01*
X0145338Y0270631D01*
X0146762Y0270631D01*
X0148079Y0270086D01*
X0149086Y0269079D01*
X0149631Y0267762D01*
X0149631Y0266338D01*
X0149240Y0265394D01*
X0149473Y0265956D02*
X0163877Y0265956D01*
X0163719Y0267554D02*
X0149631Y0267554D01*
X0149012Y0269153D02*
X0164338Y0269153D01*
X0166476Y0270751D02*
X0143816Y0270751D01*
X0143329Y0270264D02*
X0144336Y0271271D01*
X0144881Y0272588D01*
X0144881Y0274012D01*
X0144336Y0275329D01*
X0143329Y0276336D01*
X0142012Y0276881D01*
X0140588Y0276881D01*
X0139271Y0276336D01*
X0138264Y0275329D01*
X0137719Y0274012D01*
X0137719Y0272689D01*
X0136450Y0271420D01*
X0136450Y0266180D01*
X0136460Y0266170D01*
X0136460Y0263487D01*
X0136125Y0263487D01*
X0135188Y0262549D01*
X0135188Y0256499D01*
X0136125Y0255562D01*
X0140994Y0255562D01*
X0141931Y0256499D01*
X0141931Y0262549D01*
X0140994Y0263487D01*
X0140660Y0263487D01*
X0140660Y0267910D01*
X0140650Y0267920D01*
X0140650Y0269680D01*
X0140689Y0269719D01*
X0142012Y0269719D01*
X0143329Y0270264D01*
X0143088Y0269153D02*
X0140650Y0269153D01*
X0140660Y0267554D02*
X0142469Y0267554D01*
X0142627Y0265956D02*
X0140660Y0265956D01*
X0140660Y0264357D02*
X0142840Y0264357D01*
X0142840Y0262759D02*
X0141722Y0262759D01*
X0141931Y0261160D02*
X0142669Y0261160D01*
X0142669Y0259562D02*
X0141931Y0259562D01*
X0141931Y0257963D02*
X0142669Y0257963D01*
X0142803Y0256365D02*
X0141797Y0256365D01*
X0138996Y0253168D02*
X0108000Y0253168D01*
X0108000Y0254766D02*
X0189200Y0254766D01*
X0189200Y0253168D02*
X0155881Y0253168D01*
X0157297Y0251569D02*
X0189200Y0251569D01*
X0189200Y0249971D02*
X0157631Y0249971D01*
X0157231Y0248372D02*
X0188808Y0248372D01*
X0187827Y0246774D02*
X0155498Y0246774D01*
X0152602Y0246774D02*
X0145395Y0246774D01*
X0144700Y0245175D02*
X0187719Y0245175D01*
X0188459Y0243577D02*
X0144700Y0243577D01*
X0139900Y0243577D02*
X0109353Y0243577D01*
X0109353Y0242318D02*
X0109353Y0248762D01*
X0108415Y0249699D01*
X0108000Y0249699D01*
X0108000Y0256168D01*
X0108217Y0256692D01*
X0115158Y0263633D01*
X0116079Y0264014D01*
X0117086Y0265021D01*
X0117631Y0266338D01*
X0117631Y0267762D01*
X0117086Y0269079D01*
X0116079Y0270086D01*
X0114762Y0270631D01*
X0113338Y0270631D01*
X0112021Y0270086D01*
X0111014Y0269079D01*
X0110633Y0268158D01*
X0103692Y0261217D01*
X0102771Y0260836D01*
X0101764Y0259829D01*
X0101219Y0258512D01*
X0101219Y0257088D01*
X0101600Y0256168D01*
X0101600Y0249699D01*
X0101184Y0249699D01*
X0100247Y0248762D01*
X0100247Y0242318D01*
X0100624Y0241941D01*
X0100407Y0241724D01*
X0100170Y0241314D01*
X0100047Y0240856D01*
X0100047Y0238539D01*
X0104320Y0238539D01*
X0104320Y0237580D01*
X0100047Y0237580D01*
X0100047Y0235264D01*
X0100170Y0234806D01*
X0100407Y0234396D01*
X0100742Y0234060D01*
X0101152Y0233823D01*
X0101610Y0233701D01*
X0104320Y0233701D01*
X0104320Y0237580D01*
X0105280Y0237580D01*
X0105280Y0238539D01*
X0109553Y0238539D01*
X0109553Y0240856D01*
X0109430Y0241314D01*
X0109193Y0241724D01*
X0108976Y0241941D01*
X0109353Y0242318D01*
X0109013Y0241978D02*
X0139900Y0241978D01*
X0139900Y0240380D02*
X0109553Y0240380D01*
X0109553Y0238781D02*
X0139900Y0238781D01*
X0139900Y0237183D02*
X0109553Y0237183D01*
X0109553Y0237580D02*
X0109553Y0235264D01*
X0109430Y0234806D01*
X0109193Y0234396D01*
X0108858Y0234060D01*
X0108448Y0233823D01*
X0107990Y0233701D01*
X0105280Y0233701D01*
X0105280Y0237580D01*
X0109553Y0237580D01*
X0109553Y0235584D02*
X0139900Y0235584D01*
X0139900Y0233986D02*
X0108728Y0233986D01*
X0105280Y0233986D02*
X0104320Y0233986D01*
X0104320Y0235584D02*
X0105280Y0235584D01*
X0105280Y0237183D02*
X0104320Y0237183D01*
X0100047Y0237183D02*
X0095650Y0237183D01*
X0095650Y0238781D02*
X0100047Y0238781D01*
X0100047Y0240380D02*
X0095650Y0240380D01*
X0095650Y0241978D02*
X0100587Y0241978D01*
X0100247Y0243577D02*
X0095650Y0243577D01*
X0095650Y0245175D02*
X0100247Y0245175D01*
X0100247Y0246774D02*
X0095650Y0246774D01*
X0095650Y0248372D02*
X0100247Y0248372D01*
X0101600Y0249971D02*
X0095650Y0249971D01*
X0095650Y0251569D02*
X0101600Y0251569D01*
X0101600Y0253168D02*
X0095650Y0253168D01*
X0095650Y0254766D02*
X0101600Y0254766D01*
X0101518Y0256365D02*
X0095650Y0256365D01*
X0095650Y0257963D02*
X0101219Y0257963D01*
X0101654Y0259562D02*
X0095650Y0259562D01*
X0095650Y0261160D02*
X0103555Y0261160D01*
X0105233Y0262759D02*
X0097047Y0262759D01*
X0098646Y0264357D02*
X0106832Y0264357D01*
X0108430Y0265956D02*
X0100244Y0265956D01*
X0101843Y0267554D02*
X0110029Y0267554D01*
X0111088Y0269153D02*
X0103441Y0269153D01*
X0105040Y0270751D02*
X0136450Y0270751D01*
X0136450Y0269153D02*
X0117012Y0269153D01*
X0117631Y0267554D02*
X0136450Y0267554D01*
X0136460Y0265956D02*
X0117473Y0265956D01*
X0116422Y0264357D02*
X0136460Y0264357D01*
X0135398Y0262759D02*
X0114284Y0262759D01*
X0112686Y0261160D02*
X0135188Y0261160D01*
X0135188Y0259562D02*
X0111087Y0259562D01*
X0109489Y0257963D02*
X0135188Y0257963D01*
X0135323Y0256365D02*
X0108082Y0256365D01*
X0108000Y0251569D02*
X0138928Y0251569D01*
X0138928Y0249971D02*
X0108000Y0249971D01*
X0109353Y0248372D02*
X0138928Y0248372D01*
X0139205Y0246774D02*
X0109353Y0246774D01*
X0109353Y0245175D02*
X0139900Y0245175D01*
X0142300Y0250076D02*
X0154024Y0250076D01*
X0152219Y0253168D02*
X0145604Y0253168D01*
X0142300Y0250076D02*
X0142300Y0223050D01*
X0138981Y0224395D02*
X0092443Y0224395D01*
X0094041Y0225993D02*
X0139900Y0225993D01*
X0139900Y0227592D02*
X0095280Y0227592D01*
X0095650Y0229190D02*
X0139900Y0229190D01*
X0139900Y0230789D02*
X0095650Y0230789D01*
X0095650Y0232387D02*
X0139900Y0232387D01*
X0144700Y0232387D02*
X0165746Y0232387D01*
X0165839Y0230789D02*
X0144700Y0230789D01*
X0144700Y0229190D02*
X0166416Y0229190D01*
X0167688Y0227592D02*
X0144700Y0227592D01*
X0138719Y0222796D02*
X0090844Y0222796D01*
X0089246Y0221198D02*
X0139191Y0221198D01*
X0144700Y0233986D02*
X0166131Y0233986D01*
X0167106Y0235584D02*
X0144700Y0235584D01*
X0149277Y0256365D02*
X0189200Y0256365D01*
X0189200Y0257963D02*
X0149412Y0257963D01*
X0149412Y0259562D02*
X0188144Y0259562D01*
X0187719Y0261160D02*
X0149412Y0261160D01*
X0149240Y0262759D02*
X0188028Y0262759D01*
X0186747Y0272350D02*
X0177125Y0272350D01*
X0178724Y0273948D02*
X0186747Y0273948D01*
X0186747Y0275547D02*
X0180322Y0275547D01*
X0181921Y0277145D02*
X0186747Y0277145D01*
X0187210Y0278744D02*
X0183519Y0278744D01*
X0177665Y0281941D02*
X0109553Y0281941D01*
X0109318Y0280342D02*
X0176067Y0280342D01*
X0174468Y0278744D02*
X0109353Y0278744D01*
X0109353Y0277145D02*
X0172870Y0277145D01*
X0171271Y0275547D02*
X0144117Y0275547D01*
X0144881Y0273948D02*
X0169673Y0273948D01*
X0168074Y0272350D02*
X0144783Y0272350D01*
X0138482Y0275547D02*
X0109353Y0275547D01*
X0109353Y0273948D02*
X0137719Y0273948D01*
X0137380Y0272350D02*
X0108615Y0272350D01*
X0087450Y0259562D02*
X0083196Y0259562D01*
X0083631Y0257963D02*
X0087450Y0257963D01*
X0087450Y0256365D02*
X0083332Y0256365D01*
X0082450Y0254766D02*
X0087450Y0254766D01*
X0087450Y0253168D02*
X0082450Y0253168D01*
X0082450Y0251569D02*
X0087450Y0251569D01*
X0087450Y0249971D02*
X0082450Y0249971D01*
X0082450Y0248372D02*
X0087450Y0248372D01*
X0087450Y0246774D02*
X0082450Y0246774D01*
X0082450Y0245175D02*
X0087450Y0245175D01*
X0087450Y0243577D02*
X0082450Y0243577D01*
X0082450Y0241978D02*
X0087450Y0241978D01*
X0087450Y0240380D02*
X0082450Y0240380D01*
X0082450Y0238781D02*
X0087450Y0238781D01*
X0087450Y0237183D02*
X0082288Y0237183D01*
X0080978Y0235584D02*
X0087450Y0235584D01*
X0087450Y0233986D02*
X0079380Y0233986D01*
X0077781Y0232387D02*
X0087450Y0232387D01*
X0087240Y0230789D02*
X0076183Y0230789D01*
X0074584Y0229190D02*
X0085642Y0229190D01*
X0084043Y0227592D02*
X0072986Y0227592D01*
X0071387Y0225993D02*
X0082445Y0225993D01*
X0080846Y0224395D02*
X0069789Y0224395D01*
X0068190Y0222796D02*
X0079248Y0222796D01*
X0077649Y0221198D02*
X0066592Y0221198D01*
X0064993Y0219599D02*
X0076051Y0219599D01*
X0074452Y0218001D02*
X0063395Y0218001D01*
X0061796Y0216402D02*
X0072854Y0216402D01*
X0071255Y0214803D02*
X0060198Y0214803D01*
X0058599Y0213205D02*
X0069657Y0213205D01*
X0068058Y0211606D02*
X0057001Y0211606D01*
X0055402Y0210008D02*
X0066460Y0210008D01*
X0064861Y0208409D02*
X0053804Y0208409D01*
X0052205Y0206811D02*
X0063263Y0206811D01*
X0074859Y0206811D02*
X0169208Y0206811D01*
X0168294Y0207189D02*
X0170293Y0206361D01*
X0172457Y0206361D01*
X0174456Y0207189D01*
X0175985Y0208719D01*
X0176813Y0210718D01*
X0176813Y0212882D01*
X0175985Y0214881D01*
X0174456Y0216411D01*
X0172457Y0217239D01*
X0170293Y0217239D01*
X0168294Y0216411D01*
X0166764Y0214881D01*
X0165936Y0212882D01*
X0165936Y0210718D01*
X0166764Y0208719D01*
X0168294Y0207189D01*
X0167074Y0208409D02*
X0076458Y0208409D01*
X0078056Y0210008D02*
X0166230Y0210008D01*
X0165936Y0211606D02*
X0079655Y0211606D01*
X0081253Y0213205D02*
X0166070Y0213205D01*
X0166732Y0214803D02*
X0082852Y0214803D01*
X0084450Y0216402D02*
X0168285Y0216402D01*
X0174464Y0216402D02*
X0214966Y0216402D01*
X0213438Y0214803D02*
X0176017Y0214803D01*
X0176680Y0213205D02*
X0212753Y0213205D01*
X0212592Y0211320D02*
X0212725Y0210480D01*
X0213000Y0209636D01*
X0213403Y0208845D01*
X0213924Y0208127D01*
X0214552Y0207499D01*
X0215270Y0206977D01*
X0216061Y0206575D01*
X0216905Y0206300D01*
X0217746Y0206167D01*
X0217746Y0211320D01*
X0212592Y0211320D01*
X0212879Y0210008D02*
X0176519Y0210008D01*
X0176813Y0211606D02*
X0217746Y0211606D01*
X0218705Y0211606D02*
X0256873Y0211606D01*
X0284450Y0186030D02*
X0066400Y0186030D01*
X0066400Y0184432D02*
X0284450Y0184432D01*
X0284450Y0182833D02*
X0086831Y0182833D01*
X0085691Y0183305D02*
X0089184Y0181858D01*
X0091858Y0179184D01*
X0093305Y0175691D01*
X0093305Y0171909D01*
X0091858Y0168416D01*
X0089184Y0165742D01*
X0085691Y0164294D01*
X0081909Y0164294D01*
X0078416Y0165742D01*
X0075742Y0168416D01*
X0074294Y0171909D01*
X0074294Y0175691D01*
X0075742Y0179184D01*
X0078416Y0181858D01*
X0081909Y0183305D01*
X0085691Y0183305D01*
X0080769Y0182833D02*
X0066400Y0182833D01*
X0066400Y0181235D02*
X0077792Y0181235D01*
X0076193Y0179636D02*
X0066400Y0179636D01*
X0066400Y0178038D02*
X0075267Y0178038D01*
X0074605Y0176439D02*
X0066400Y0176439D01*
X0066400Y0174841D02*
X0074294Y0174841D01*
X0074294Y0173242D02*
X0066400Y0173242D01*
X0066400Y0171644D02*
X0074404Y0171644D01*
X0075067Y0170045D02*
X0066400Y0170045D01*
X0066400Y0168447D02*
X0075729Y0168447D01*
X0077309Y0166848D02*
X0066400Y0166848D01*
X0066400Y0165250D02*
X0079603Y0165250D01*
X0078884Y0162053D02*
X0066400Y0162053D01*
X0066400Y0163651D02*
X0094294Y0163651D01*
X0094294Y0162053D02*
X0088716Y0162053D01*
X0090589Y0160454D02*
X0094897Y0160454D01*
X0095559Y0158856D02*
X0091995Y0158856D01*
X0092657Y0157257D02*
X0096900Y0157257D01*
X0098616Y0155659D02*
X0093305Y0155659D01*
X0094294Y0165250D02*
X0087997Y0165250D01*
X0090291Y0166848D02*
X0094774Y0166848D01*
X0095436Y0168447D02*
X0091871Y0168447D01*
X0092533Y0170045D02*
X0096602Y0170045D01*
X0098201Y0171644D02*
X0093196Y0171644D01*
X0093305Y0173242D02*
X0101756Y0173242D01*
X0105844Y0173242D02*
X0284450Y0173242D01*
X0284450Y0171644D02*
X0109399Y0171644D01*
X0110998Y0170045D02*
X0194429Y0170045D01*
X0194400Y0168447D02*
X0112164Y0168447D01*
X0112826Y0166848D02*
X0194400Y0166848D01*
X0194400Y0165250D02*
X0113305Y0165250D01*
X0113305Y0163651D02*
X0170780Y0163651D01*
X0169192Y0162053D02*
X0113305Y0162053D01*
X0112703Y0160454D02*
X0168700Y0160454D01*
X0168700Y0158856D02*
X0112041Y0158856D01*
X0110700Y0157257D02*
X0168700Y0157257D01*
X0168700Y0155659D02*
X0108984Y0155659D01*
X0110463Y0150863D02*
X0168247Y0150863D01*
X0168247Y0149265D02*
X0111829Y0149265D01*
X0112711Y0147666D02*
X0168400Y0147666D01*
X0168247Y0146068D02*
X0113238Y0146068D01*
X0093305Y0174841D02*
X0284450Y0174841D01*
X0284450Y0176439D02*
X0092995Y0176439D01*
X0092333Y0178038D02*
X0284450Y0178038D01*
X0284450Y0179636D02*
X0091407Y0179636D01*
X0089808Y0181235D02*
X0284450Y0181235D01*
X0299000Y0130082D02*
X0240200Y0130082D01*
X0240152Y0128484D02*
X0299000Y0128484D01*
X0299000Y0123688D02*
X0176900Y0123688D01*
X0176900Y0122090D02*
X0299000Y0122090D01*
X0299000Y0120491D02*
X0176900Y0120491D01*
X0176900Y0118893D02*
X0203930Y0118893D01*
X0203800Y0118763D02*
X0203800Y0112499D01*
X0203600Y0112016D01*
X0203600Y0110584D01*
X0203700Y0110342D01*
X0203700Y0103073D01*
X0203200Y0101866D01*
X0203200Y0086248D01*
X0200478Y0083526D01*
X0192651Y0075699D01*
X0190434Y0075699D01*
X0189497Y0074762D01*
X0189497Y0068318D01*
X0189874Y0067941D01*
X0189657Y0067724D01*
X0189420Y0067314D01*
X0189297Y0066856D01*
X0189297Y0064539D01*
X0193570Y0064539D01*
X0193570Y0063580D01*
X0189297Y0063580D01*
X0189297Y0061264D01*
X0189420Y0060806D01*
X0189657Y0060396D01*
X0189992Y0060060D01*
X0190402Y0059823D01*
X0190860Y0059701D01*
X0193570Y0059701D01*
X0193570Y0063580D01*
X0194530Y0063580D01*
X0194530Y0064539D01*
X0198803Y0064539D01*
X0198803Y0066856D01*
X0198680Y0067314D01*
X0198443Y0067724D01*
X0198226Y0067941D01*
X0198603Y0068318D01*
X0198603Y0070054D01*
X0206276Y0077728D01*
X0210776Y0082228D01*
X0211400Y0083734D01*
X0211400Y0101866D01*
X0210900Y0103073D01*
X0210900Y0111916D01*
X0210800Y0112157D01*
X0210800Y0118763D01*
X0209863Y0119700D01*
X0204737Y0119700D01*
X0203800Y0118763D01*
X0203800Y0117294D02*
X0176900Y0117294D01*
X0176900Y0115696D02*
X0203800Y0115696D01*
X0203800Y0114097D02*
X0176900Y0114097D01*
X0176900Y0112499D02*
X0203800Y0112499D01*
X0203600Y0110900D02*
X0176900Y0110900D01*
X0176900Y0109302D02*
X0203700Y0109302D01*
X0203700Y0107703D02*
X0176900Y0107703D01*
X0176900Y0106105D02*
X0203700Y0106105D01*
X0203700Y0104506D02*
X0176900Y0104506D01*
X0176900Y0102908D02*
X0203632Y0102908D01*
X0203200Y0101309D02*
X0176900Y0101309D01*
X0176900Y0099711D02*
X0203200Y0099711D01*
X0203200Y0098112D02*
X0176900Y0098112D01*
X0176900Y0096514D02*
X0203200Y0096514D01*
X0203200Y0094915D02*
X0176900Y0094915D01*
X0176900Y0093317D02*
X0203200Y0093317D01*
X0203200Y0091718D02*
X0176900Y0091718D01*
X0176900Y0090120D02*
X0203200Y0090120D01*
X0203200Y0088521D02*
X0176900Y0088521D01*
X0176900Y0086923D02*
X0203200Y0086923D01*
X0202276Y0085324D02*
X0176900Y0085324D01*
X0176900Y0083726D02*
X0200677Y0083726D01*
X0199079Y0082127D02*
X0176900Y0082127D01*
X0176900Y0080529D02*
X0197480Y0080529D01*
X0195882Y0078930D02*
X0176774Y0078930D01*
X0175880Y0077332D02*
X0194283Y0077332D01*
X0192685Y0075733D02*
X0151900Y0075733D01*
X0151900Y0074134D02*
X0189497Y0074134D01*
X0189497Y0072536D02*
X0151900Y0072536D01*
X0151900Y0070937D02*
X0189497Y0070937D01*
X0189497Y0069339D02*
X0151900Y0069339D01*
X0151900Y0067740D02*
X0189673Y0067740D01*
X0189297Y0066142D02*
X0151900Y0066142D01*
X0151900Y0064543D02*
X0189297Y0064543D01*
X0189297Y0062945D02*
X0151900Y0062945D01*
X0151900Y0061346D02*
X0189297Y0061346D01*
X0190684Y0059748D02*
X0151900Y0059748D01*
X0151900Y0058149D02*
X0204851Y0058149D01*
X0204324Y0057622D02*
X0203700Y0056116D01*
X0203700Y0054484D01*
X0204324Y0052978D01*
X0205478Y0051824D01*
X0206984Y0051200D01*
X0208616Y0051200D01*
X0210122Y0051824D01*
X0230766Y0072468D01*
X0231390Y0073975D01*
X0231390Y0085125D01*
X0231449Y0085184D01*
X0231449Y0092415D01*
X0231393Y0092472D01*
X0231401Y0101612D01*
X0230900Y0102824D01*
X0230900Y0108800D01*
X0247286Y0108800D01*
X0247921Y0108164D01*
X0249238Y0107619D01*
X0250662Y0107619D01*
X0251979Y0108164D01*
X0252986Y0109171D01*
X0253531Y0110488D01*
X0253531Y0111912D01*
X0252986Y0113229D01*
X0251979Y0114236D01*
X0250662Y0114781D01*
X0249238Y0114781D01*
X0247921Y0114236D01*
X0247286Y0113600D01*
X0230800Y0113600D01*
X0230800Y0118763D01*
X0229863Y0119700D01*
X0224737Y0119700D01*
X0223800Y0118763D01*
X0223800Y0112157D01*
X0223700Y0111916D01*
X0223700Y0102822D01*
X0223201Y0101619D01*
X0223194Y0093355D01*
X0223064Y0093430D01*
X0222606Y0093553D01*
X0220289Y0093553D01*
X0220289Y0089280D01*
X0219330Y0089280D01*
X0219330Y0093553D01*
X0217014Y0093553D01*
X0216556Y0093430D01*
X0216146Y0093193D01*
X0215810Y0092858D01*
X0215573Y0092448D01*
X0215451Y0091990D01*
X0215451Y0089280D01*
X0219330Y0089280D01*
X0219330Y0088320D01*
X0220289Y0088320D01*
X0220289Y0084047D01*
X0222606Y0084047D01*
X0223064Y0084170D01*
X0223190Y0084243D01*
X0223190Y0076488D01*
X0204324Y0057622D01*
X0203880Y0056551D02*
X0151900Y0056551D01*
X0151900Y0054952D02*
X0203700Y0054952D01*
X0204168Y0053354D02*
X0151900Y0053354D01*
X0151900Y0051755D02*
X0205644Y0051755D01*
X0209956Y0051755D02*
X0299000Y0051755D01*
X0299000Y0050157D02*
X0151900Y0050157D01*
X0151900Y0048558D02*
X0299000Y0048558D01*
X0299000Y0046960D02*
X0151900Y0046960D01*
X0151900Y0045361D02*
X0237380Y0045361D01*
X0238318Y0045750D02*
X0235580Y0044616D01*
X0233484Y0042520D01*
X0232350Y0039782D01*
X0232350Y0036818D01*
X0233484Y0034080D01*
X0235580Y0031984D01*
X0238318Y0030850D01*
X0241282Y0030850D01*
X0244020Y0031984D01*
X0246116Y0034080D01*
X0247250Y0036818D01*
X0247250Y0039782D01*
X0246116Y0042520D01*
X0244020Y0044616D01*
X0241282Y0045750D01*
X0238318Y0045750D01*
X0242220Y0045361D02*
X0299000Y0045361D01*
X0299000Y0043763D02*
X0244873Y0043763D01*
X0246263Y0042164D02*
X0299000Y0042164D01*
X0299000Y0040566D02*
X0246925Y0040566D01*
X0247250Y0038967D02*
X0299000Y0038967D01*
X0299000Y0037369D02*
X0247250Y0037369D01*
X0246816Y0035770D02*
X0299000Y0035770D01*
X0299000Y0034172D02*
X0246154Y0034172D01*
X0244609Y0032573D02*
X0299000Y0032573D01*
X0299000Y0030975D02*
X0241583Y0030975D01*
X0238017Y0030975D02*
X0149583Y0030975D01*
X0152609Y0032573D02*
X0234991Y0032573D01*
X0233446Y0034172D02*
X0154154Y0034172D01*
X0154816Y0035770D02*
X0232784Y0035770D01*
X0232350Y0037369D02*
X0155250Y0037369D01*
X0155250Y0038967D02*
X0232350Y0038967D01*
X0232675Y0040566D02*
X0154925Y0040566D01*
X0154263Y0042164D02*
X0233337Y0042164D01*
X0234727Y0043763D02*
X0152873Y0043763D01*
X0143700Y0045361D02*
X0112900Y0045361D01*
X0112900Y0043763D02*
X0142727Y0043763D01*
X0141337Y0042164D02*
X0112900Y0042164D01*
X0112900Y0040566D02*
X0140675Y0040566D01*
X0140350Y0038967D02*
X0112900Y0038967D01*
X0112900Y0037369D02*
X0140350Y0037369D01*
X0140784Y0035770D02*
X0112900Y0035770D01*
X0112900Y0034172D02*
X0141446Y0034172D01*
X0142991Y0032573D02*
X0112900Y0032573D01*
X0112900Y0030975D02*
X0146017Y0030975D01*
X0143700Y0046960D02*
X0112900Y0046960D01*
X0112900Y0048558D02*
X0143700Y0048558D01*
X0143700Y0050157D02*
X0112900Y0050157D01*
X0112900Y0051755D02*
X0143700Y0051755D01*
X0143700Y0053354D02*
X0112900Y0053354D01*
X0112900Y0054952D02*
X0143700Y0054952D01*
X0143700Y0056551D02*
X0112720Y0056551D01*
X0111749Y0058149D02*
X0143700Y0058149D01*
X0143700Y0059748D02*
X0094400Y0059748D01*
X0094400Y0061346D02*
X0143700Y0061346D01*
X0143700Y0062945D02*
X0094400Y0062945D01*
X0094400Y0064543D02*
X0143700Y0064543D01*
X0143700Y0066142D02*
X0094400Y0066142D01*
X0094400Y0067740D02*
X0143700Y0067740D01*
X0143700Y0069339D02*
X0094400Y0069339D01*
X0094400Y0070937D02*
X0108911Y0070937D01*
X0109484Y0070700D02*
X0107978Y0071324D01*
X0106824Y0072478D01*
X0106200Y0073984D01*
X0106200Y0075616D01*
X0106824Y0077122D01*
X0107978Y0078276D01*
X0109484Y0078900D01*
X0114885Y0078900D01*
X0115338Y0079353D01*
X0121782Y0079353D01*
X0122159Y0078976D01*
X0122376Y0079193D01*
X0122786Y0079430D01*
X0123244Y0079553D01*
X0125561Y0079553D01*
X0125561Y0075280D01*
X0126520Y0075280D01*
X0126520Y0079553D01*
X0128836Y0079553D01*
X0129294Y0079430D01*
X0129704Y0079193D01*
X0130040Y0078858D01*
X0130277Y0078448D01*
X0130399Y0077990D01*
X0130399Y0075280D01*
X0126520Y0075280D01*
X0126520Y0074320D01*
X0126520Y0070047D01*
X0128836Y0070047D01*
X0129294Y0070170D01*
X0129704Y0070407D01*
X0130040Y0070742D01*
X0130277Y0071152D01*
X0130399Y0071610D01*
X0130399Y0074320D01*
X0126520Y0074320D01*
X0125561Y0074320D01*
X0125561Y0070047D01*
X0123244Y0070047D01*
X0122786Y0070170D01*
X0122376Y0070407D01*
X0122159Y0070624D01*
X0121782Y0070247D01*
X0115338Y0070247D01*
X0114885Y0070700D01*
X0109484Y0070700D01*
X0106800Y0072536D02*
X0094400Y0072536D01*
X0094400Y0074134D02*
X0106200Y0074134D01*
X0106249Y0075733D02*
X0094351Y0075733D01*
X0093567Y0077332D02*
X0107033Y0077332D01*
X0114915Y0078930D02*
X0090130Y0078930D01*
X0088531Y0080529D02*
X0143700Y0080529D01*
X0143700Y0082127D02*
X0086933Y0082127D01*
X0094400Y0058149D02*
X0105851Y0058149D01*
X0125561Y0070937D02*
X0126520Y0070937D01*
X0126520Y0072536D02*
X0125561Y0072536D01*
X0125561Y0074134D02*
X0126520Y0074134D01*
X0126520Y0075733D02*
X0125561Y0075733D01*
X0125561Y0077332D02*
X0126520Y0077332D01*
X0126520Y0078930D02*
X0125561Y0078930D01*
X0129968Y0078930D02*
X0143700Y0078930D01*
X0143700Y0077332D02*
X0130399Y0077332D01*
X0130399Y0075733D02*
X0143700Y0075733D01*
X0143700Y0074134D02*
X0130399Y0074134D01*
X0130399Y0072536D02*
X0143700Y0072536D01*
X0143700Y0070937D02*
X0130152Y0070937D01*
X0143700Y0083726D02*
X0041945Y0083726D01*
X0043544Y0085324D02*
X0143700Y0085324D01*
X0143700Y0086923D02*
X0045142Y0086923D01*
X0045650Y0088521D02*
X0143700Y0088521D01*
X0143700Y0090120D02*
X0045650Y0090120D01*
X0045650Y0091718D02*
X0143700Y0091718D01*
X0143700Y0093317D02*
X0045650Y0093317D01*
X0045650Y0094915D02*
X0143700Y0094915D01*
X0151900Y0094915D02*
X0168700Y0094915D01*
X0168700Y0093317D02*
X0151900Y0093317D01*
X0151900Y0091718D02*
X0168700Y0091718D01*
X0168700Y0090120D02*
X0151900Y0090120D01*
X0151900Y0088521D02*
X0168700Y0088521D01*
X0168700Y0086923D02*
X0151900Y0086923D01*
X0151900Y0085324D02*
X0168700Y0085324D01*
X0168700Y0083726D02*
X0151900Y0083726D01*
X0151900Y0082127D02*
X0168700Y0082127D01*
X0168700Y0080529D02*
X0151900Y0080529D01*
X0151900Y0078930D02*
X0168826Y0078930D01*
X0169720Y0077332D02*
X0151900Y0077332D01*
X0151900Y0096514D02*
X0168700Y0096514D01*
X0168700Y0098112D02*
X0151900Y0098112D01*
X0151900Y0099711D02*
X0168700Y0099711D01*
X0168700Y0101309D02*
X0151900Y0101309D01*
X0151779Y0102908D02*
X0168700Y0102908D01*
X0168700Y0104506D02*
X0150892Y0104506D01*
X0149294Y0106105D02*
X0168700Y0106105D01*
X0168700Y0107703D02*
X0147695Y0107703D01*
X0146097Y0109302D02*
X0168700Y0109302D01*
X0168700Y0110900D02*
X0144498Y0110900D01*
X0177353Y0152462D02*
X0194400Y0152462D01*
X0194400Y0154060D02*
X0177353Y0154060D01*
X0176900Y0155659D02*
X0194400Y0155659D01*
X0194400Y0157257D02*
X0176900Y0157257D01*
X0176900Y0158856D02*
X0194400Y0158856D01*
X0194400Y0160454D02*
X0176900Y0160454D01*
X0176408Y0162053D02*
X0194400Y0162053D01*
X0194400Y0163651D02*
X0174820Y0163651D01*
X0216500Y0163651D02*
X0218100Y0163651D01*
X0218100Y0162053D02*
X0216500Y0162053D01*
X0216500Y0160454D02*
X0218100Y0160454D01*
X0218100Y0158856D02*
X0216500Y0158856D01*
X0216500Y0157257D02*
X0218100Y0157257D01*
X0218100Y0155659D02*
X0216500Y0155659D01*
X0216500Y0154060D02*
X0218100Y0154060D01*
X0218100Y0152462D02*
X0216500Y0152462D01*
X0216500Y0147666D02*
X0218100Y0147666D01*
X0218100Y0146068D02*
X0216500Y0146068D01*
X0216500Y0144469D02*
X0218100Y0144469D01*
X0218100Y0142870D02*
X0216500Y0142870D01*
X0216500Y0141272D02*
X0218100Y0141272D01*
X0218100Y0139673D02*
X0216500Y0139673D01*
X0216500Y0138075D02*
X0218100Y0138075D01*
X0218100Y0136476D02*
X0216500Y0136476D01*
X0216500Y0134878D02*
X0218100Y0134878D01*
X0218100Y0133279D02*
X0216500Y0133279D01*
X0216500Y0131681D02*
X0218100Y0131681D01*
X0218100Y0130082D02*
X0216500Y0130082D01*
X0216500Y0128484D02*
X0218100Y0128484D01*
X0217450Y0119900D02*
X0219437Y0119900D01*
X0219895Y0119777D01*
X0220305Y0119540D01*
X0220640Y0119205D01*
X0220877Y0118795D01*
X0221000Y0118337D01*
X0221000Y0111350D01*
X0217450Y0111350D01*
X0217450Y0111050D01*
X0221000Y0111050D01*
X0221000Y0104063D01*
X0220877Y0103605D01*
X0220640Y0103195D01*
X0220305Y0102860D01*
X0219895Y0102623D01*
X0219437Y0102500D01*
X0217450Y0102500D01*
X0217450Y0111050D01*
X0217150Y0111050D01*
X0217150Y0102500D01*
X0215163Y0102500D01*
X0214705Y0102623D01*
X0214295Y0102860D01*
X0213960Y0103195D01*
X0213723Y0103605D01*
X0213600Y0104063D01*
X0213600Y0111050D01*
X0217150Y0111050D01*
X0217150Y0111350D01*
X0217150Y0119900D01*
X0215163Y0119900D01*
X0214705Y0119777D01*
X0214295Y0119540D01*
X0213960Y0119205D01*
X0213723Y0118795D01*
X0213600Y0118337D01*
X0213600Y0111350D01*
X0217150Y0111350D01*
X0217450Y0111350D01*
X0217450Y0119900D01*
X0217450Y0118893D02*
X0217150Y0118893D01*
X0217150Y0117294D02*
X0217450Y0117294D01*
X0217450Y0115696D02*
X0217150Y0115696D01*
X0217150Y0114097D02*
X0217450Y0114097D01*
X0217450Y0112499D02*
X0217150Y0112499D01*
X0217150Y0110900D02*
X0217450Y0110900D01*
X0217450Y0109302D02*
X0217150Y0109302D01*
X0217150Y0107703D02*
X0217450Y0107703D01*
X0217450Y0106105D02*
X0217150Y0106105D01*
X0217150Y0104506D02*
X0217450Y0104506D01*
X0217450Y0102908D02*
X0217150Y0102908D01*
X0214247Y0102908D02*
X0210968Y0102908D01*
X0210900Y0104506D02*
X0213600Y0104506D01*
X0213600Y0106105D02*
X0210900Y0106105D01*
X0210900Y0107703D02*
X0213600Y0107703D01*
X0213600Y0109302D02*
X0210900Y0109302D01*
X0210900Y0110900D02*
X0213600Y0110900D01*
X0213600Y0112499D02*
X0210800Y0112499D01*
X0210800Y0114097D02*
X0213600Y0114097D01*
X0213600Y0115696D02*
X0210800Y0115696D01*
X0210800Y0117294D02*
X0213600Y0117294D01*
X0213779Y0118893D02*
X0210670Y0118893D01*
X0220821Y0118893D02*
X0223930Y0118893D01*
X0223800Y0117294D02*
X0221000Y0117294D01*
X0221000Y0115696D02*
X0223800Y0115696D01*
X0223800Y0114097D02*
X0221000Y0114097D01*
X0221000Y0112499D02*
X0223800Y0112499D01*
X0223700Y0110900D02*
X0221000Y0110900D01*
X0221000Y0109302D02*
X0223700Y0109302D01*
X0223700Y0107703D02*
X0221000Y0107703D01*
X0221000Y0106105D02*
X0223700Y0106105D01*
X0223700Y0104506D02*
X0221000Y0104506D01*
X0220353Y0102908D02*
X0223700Y0102908D01*
X0223200Y0101309D02*
X0211400Y0101309D01*
X0211400Y0099711D02*
X0223199Y0099711D01*
X0223198Y0098112D02*
X0211400Y0098112D01*
X0211400Y0096514D02*
X0223196Y0096514D01*
X0223195Y0094915D02*
X0211400Y0094915D01*
X0211400Y0093317D02*
X0216360Y0093317D01*
X0215451Y0091718D02*
X0211400Y0091718D01*
X0211400Y0090120D02*
X0215451Y0090120D01*
X0215451Y0088320D02*
X0215451Y0085610D01*
X0215573Y0085152D01*
X0215810Y0084742D01*
X0216146Y0084407D01*
X0216556Y0084170D01*
X0217014Y0084047D01*
X0219330Y0084047D01*
X0219330Y0088320D01*
X0215451Y0088320D01*
X0215451Y0086923D02*
X0211400Y0086923D01*
X0211400Y0088521D02*
X0219330Y0088521D01*
X0219330Y0086923D02*
X0220289Y0086923D01*
X0220289Y0085324D02*
X0219330Y0085324D01*
X0215527Y0085324D02*
X0211400Y0085324D01*
X0211396Y0083726D02*
X0223190Y0083726D01*
X0223190Y0082127D02*
X0210675Y0082127D01*
X0209077Y0080529D02*
X0223190Y0080529D01*
X0223190Y0078930D02*
X0207478Y0078930D01*
X0205880Y0077332D02*
X0223190Y0077332D01*
X0222435Y0075733D02*
X0204281Y0075733D01*
X0202683Y0074134D02*
X0220836Y0074134D01*
X0219238Y0072536D02*
X0201084Y0072536D01*
X0199486Y0070937D02*
X0217639Y0070937D01*
X0216041Y0069339D02*
X0198603Y0069339D01*
X0198427Y0067740D02*
X0214442Y0067740D01*
X0212844Y0066142D02*
X0198803Y0066142D01*
X0198803Y0064543D02*
X0211245Y0064543D01*
X0209647Y0062945D02*
X0198803Y0062945D01*
X0198803Y0063580D02*
X0198803Y0061264D01*
X0198680Y0060806D01*
X0198443Y0060396D01*
X0198108Y0060060D01*
X0197698Y0059823D01*
X0197240Y0059701D01*
X0194530Y0059701D01*
X0194530Y0063580D01*
X0198803Y0063580D01*
X0198803Y0061346D02*
X0208048Y0061346D01*
X0206450Y0059748D02*
X0197416Y0059748D01*
X0194530Y0059748D02*
X0193570Y0059748D01*
X0193570Y0061346D02*
X0194530Y0061346D01*
X0194530Y0062945D02*
X0193570Y0062945D01*
X0211652Y0053354D02*
X0267551Y0053354D01*
X0267539Y0053398D02*
X0267662Y0052940D01*
X0267899Y0052529D01*
X0268234Y0052194D01*
X0268645Y0051957D01*
X0269102Y0051835D01*
X0271616Y0051835D01*
X0271616Y0057683D01*
X0267539Y0057683D01*
X0267539Y0053398D01*
X0267539Y0054952D02*
X0213251Y0054952D01*
X0214849Y0056551D02*
X0267539Y0056551D01*
X0267539Y0059035D02*
X0271616Y0059035D01*
X0271616Y0057683D01*
X0272969Y0057683D01*
X0272969Y0059035D01*
X0277045Y0059035D01*
X0277045Y0063320D01*
X0276922Y0063778D01*
X0276685Y0064189D01*
X0276350Y0064524D01*
X0275940Y0064761D01*
X0275482Y0064883D01*
X0272969Y0064883D01*
X0272969Y0059036D01*
X0271616Y0059036D01*
X0271616Y0064883D01*
X0269102Y0064883D01*
X0268645Y0064761D01*
X0268234Y0064524D01*
X0267899Y0064189D01*
X0267662Y0063778D01*
X0267539Y0063320D01*
X0267539Y0059035D01*
X0267539Y0059748D02*
X0218046Y0059748D01*
X0216448Y0058149D02*
X0271616Y0058149D01*
X0272969Y0058149D02*
X0295631Y0058149D01*
X0295631Y0056551D02*
X0296984Y0056551D01*
X0296984Y0054952D02*
X0295631Y0054952D01*
X0295631Y0053354D02*
X0296984Y0053354D01*
X0291567Y0053354D02*
X0277033Y0053354D01*
X0277045Y0053398D02*
X0277045Y0057683D01*
X0272969Y0057683D01*
X0272969Y0051835D01*
X0275482Y0051835D01*
X0275940Y0051957D01*
X0276350Y0052194D01*
X0276685Y0052529D01*
X0276922Y0052940D01*
X0277045Y0053398D01*
X0277045Y0054952D02*
X0291555Y0054952D01*
X0291555Y0056551D02*
X0277045Y0056551D01*
X0277045Y0059748D02*
X0291555Y0059748D01*
X0291555Y0061346D02*
X0277045Y0061346D01*
X0277045Y0062945D02*
X0291555Y0062945D01*
X0292284Y0064543D02*
X0276316Y0064543D01*
X0272969Y0064543D02*
X0271616Y0064543D01*
X0271616Y0062945D02*
X0272969Y0062945D01*
X0272969Y0061346D02*
X0271616Y0061346D01*
X0271616Y0059748D02*
X0272969Y0059748D01*
X0272969Y0056551D02*
X0271616Y0056551D01*
X0271616Y0054952D02*
X0272969Y0054952D01*
X0272969Y0053354D02*
X0271616Y0053354D01*
X0267539Y0061346D02*
X0219645Y0061346D01*
X0221243Y0062945D02*
X0267539Y0062945D01*
X0268268Y0064543D02*
X0222842Y0064543D01*
X0224440Y0066142D02*
X0299000Y0066142D01*
X0299000Y0067740D02*
X0226039Y0067740D01*
X0227637Y0069339D02*
X0299000Y0069339D01*
X0299000Y0070937D02*
X0229236Y0070937D01*
X0230794Y0072536D02*
X0288158Y0072536D01*
X0288349Y0072457D02*
X0291668Y0072457D01*
X0294735Y0073727D01*
X0297082Y0076074D01*
X0298352Y0079140D01*
X0298352Y0082460D01*
X0297082Y0085526D01*
X0294735Y0087873D01*
X0291668Y0089143D01*
X0288349Y0089143D01*
X0285283Y0087873D01*
X0282936Y0085526D01*
X0281665Y0082460D01*
X0281665Y0079140D01*
X0282936Y0076074D01*
X0285283Y0073727D01*
X0288349Y0072457D01*
X0291860Y0072536D02*
X0299000Y0072536D01*
X0299000Y0074134D02*
X0295142Y0074134D01*
X0296741Y0075733D02*
X0299000Y0075733D01*
X0299000Y0077332D02*
X0297603Y0077332D01*
X0298265Y0078930D02*
X0299000Y0078930D01*
X0299000Y0080529D02*
X0298352Y0080529D01*
X0298352Y0082127D02*
X0299000Y0082127D01*
X0299000Y0083726D02*
X0297828Y0083726D01*
X0297165Y0085324D02*
X0299000Y0085324D01*
X0299000Y0086923D02*
X0295685Y0086923D01*
X0293170Y0088521D02*
X0299000Y0088521D01*
X0299000Y0090120D02*
X0264969Y0090120D01*
X0266568Y0091718D02*
X0299000Y0091718D01*
X0299000Y0093317D02*
X0268166Y0093317D01*
X0269765Y0094915D02*
X0299000Y0094915D01*
X0299000Y0096514D02*
X0271363Y0096514D01*
X0276845Y0098112D02*
X0291755Y0098112D01*
X0286847Y0088521D02*
X0274425Y0088521D01*
X0273873Y0088750D02*
X0270711Y0088750D01*
X0267789Y0087539D01*
X0265553Y0085303D01*
X0264343Y0082381D01*
X0264343Y0079219D01*
X0265553Y0076297D01*
X0267789Y0074061D01*
X0270711Y0072850D01*
X0273873Y0072850D01*
X0276795Y0074061D01*
X0279031Y0076297D01*
X0280242Y0079219D01*
X0280242Y0082381D01*
X0279031Y0085303D01*
X0276795Y0087539D01*
X0273873Y0088750D01*
X0277412Y0086923D02*
X0284332Y0086923D01*
X0282852Y0085324D02*
X0279010Y0085324D01*
X0279685Y0083726D02*
X0282190Y0083726D01*
X0281665Y0082127D02*
X0280242Y0082127D01*
X0280242Y0080529D02*
X0281665Y0080529D01*
X0281752Y0078930D02*
X0280122Y0078930D01*
X0279460Y0077332D02*
X0282415Y0077332D01*
X0283276Y0075733D02*
X0278468Y0075733D01*
X0276869Y0074134D02*
X0284875Y0074134D01*
X0295631Y0064543D02*
X0296984Y0064543D01*
X0296984Y0062945D02*
X0295631Y0062945D01*
X0295631Y0061346D02*
X0296984Y0061346D01*
X0296984Y0059748D02*
X0295631Y0059748D01*
X0267715Y0074134D02*
X0231390Y0074134D01*
X0231390Y0075733D02*
X0266117Y0075733D01*
X0265124Y0077332D02*
X0231390Y0077332D01*
X0231390Y0078930D02*
X0264462Y0078930D01*
X0264343Y0080529D02*
X0231390Y0080529D01*
X0231390Y0082127D02*
X0264343Y0082127D01*
X0264899Y0083726D02*
X0231390Y0083726D01*
X0231449Y0085324D02*
X0265574Y0085324D01*
X0267172Y0086923D02*
X0231449Y0086923D01*
X0231449Y0088521D02*
X0257281Y0088521D01*
X0256351Y0090120D02*
X0231449Y0090120D01*
X0231449Y0091718D02*
X0256200Y0091718D01*
X0256698Y0093317D02*
X0231394Y0093317D01*
X0231395Y0094915D02*
X0258168Y0094915D01*
X0259767Y0096514D02*
X0231396Y0096514D01*
X0231398Y0098112D02*
X0261365Y0098112D01*
X0262964Y0099711D02*
X0231399Y0099711D01*
X0231400Y0101309D02*
X0264562Y0101309D01*
X0266161Y0102908D02*
X0230900Y0102908D01*
X0230900Y0104506D02*
X0267739Y0104506D01*
X0267739Y0106105D02*
X0230900Y0106105D01*
X0230900Y0107703D02*
X0249034Y0107703D01*
X0250866Y0107703D02*
X0267739Y0107703D01*
X0268413Y0109302D02*
X0253040Y0109302D01*
X0253531Y0110900D02*
X0299000Y0110900D01*
X0299000Y0112499D02*
X0253288Y0112499D01*
X0252117Y0114097D02*
X0299000Y0114097D01*
X0299000Y0115696D02*
X0230800Y0115696D01*
X0230800Y0117294D02*
X0299000Y0117294D01*
X0299000Y0118893D02*
X0230670Y0118893D01*
X0230800Y0114097D02*
X0247783Y0114097D01*
X0249950Y0111200D02*
X0227300Y0111200D01*
X0220289Y0093317D02*
X0219330Y0093317D01*
X0219330Y0091718D02*
X0220289Y0091718D01*
X0220289Y0090120D02*
X0219330Y0090120D01*
X0263371Y0088521D02*
X0270159Y0088521D01*
X0276845Y0107703D02*
X0291755Y0107703D01*
X0292429Y0109302D02*
X0276171Y0109302D01*
X0218100Y0165250D02*
X0216500Y0165250D01*
X0216500Y0166848D02*
X0218100Y0166848D01*
X0218100Y0168447D02*
X0216500Y0168447D01*
X0216500Y0170045D02*
X0218100Y0170045D01*
X0217746Y0206811D02*
X0218705Y0206811D01*
X0218705Y0208409D02*
X0217746Y0208409D01*
X0217746Y0210008D02*
X0218705Y0210008D01*
X0218705Y0213205D02*
X0217746Y0213205D01*
X0217746Y0214803D02*
X0218705Y0214803D01*
X0218705Y0216402D02*
X0217746Y0216402D01*
X0213719Y0208409D02*
X0175676Y0208409D01*
X0173542Y0206811D02*
X0215597Y0206811D01*
X0251300Y0251800D02*
X0251300Y0275060D01*
X0246747Y0275547D02*
X0235853Y0275547D01*
X0235853Y0277145D02*
X0246747Y0277145D01*
X0247210Y0278744D02*
X0235390Y0278744D01*
X0235853Y0273948D02*
X0246747Y0273948D01*
X0246747Y0272350D02*
X0235853Y0272350D01*
X0235853Y0285138D02*
X0246747Y0285138D01*
X0255853Y0285138D02*
X0277876Y0285138D01*
X0294382Y0278744D02*
X0299000Y0278744D01*
X0299000Y0280342D02*
X0296606Y0280342D01*
X0298119Y0281941D02*
X0299000Y0281941D01*
X0226747Y0285138D02*
X0215853Y0285138D01*
X0100872Y0233986D02*
X0095650Y0233986D01*
X0095650Y0235584D02*
X0100047Y0235584D01*
X0080050Y0238050D02*
X0080050Y0257800D01*
X0068425Y0251569D02*
X0068375Y0251569D01*
X0068375Y0249971D02*
X0068425Y0249971D01*
X0068375Y0248372D02*
X0068425Y0248372D01*
X0068375Y0246774D02*
X0068425Y0246774D01*
X0080050Y0238050D02*
X0029800Y0187800D01*
X0029800Y0072040D01*
X0034353Y0072536D02*
X0035200Y0072536D01*
X0035200Y0074134D02*
X0034353Y0074134D01*
X0033882Y0075733D02*
X0035200Y0075733D01*
X0035200Y0077332D02*
X0032200Y0077332D01*
X0032200Y0078930D02*
X0035200Y0078930D01*
X0035200Y0080529D02*
X0032200Y0080529D01*
X0032200Y0082127D02*
X0035200Y0082127D01*
X0036006Y0083726D02*
X0032200Y0083726D01*
X0032200Y0085324D02*
X0037604Y0085324D01*
X0039203Y0086923D02*
X0032200Y0086923D01*
X0032200Y0088521D02*
X0040801Y0088521D01*
X0041450Y0090120D02*
X0032200Y0090120D01*
X0032200Y0091718D02*
X0041450Y0091718D01*
X0041450Y0093317D02*
X0032200Y0093317D01*
X0032200Y0094915D02*
X0041450Y0094915D01*
X0041450Y0096514D02*
X0032200Y0096514D01*
X0032200Y0098112D02*
X0041450Y0098112D01*
X0041450Y0099711D02*
X0032200Y0099711D01*
X0032200Y0101309D02*
X0041450Y0101309D01*
X0041450Y0102908D02*
X0032200Y0102908D01*
X0032200Y0104506D02*
X0041450Y0104506D01*
X0041450Y0106105D02*
X0032200Y0106105D01*
X0032200Y0107703D02*
X0041450Y0107703D01*
X0041450Y0109302D02*
X0032200Y0109302D01*
X0032200Y0110900D02*
X0041450Y0110900D01*
X0041450Y0112499D02*
X0032200Y0112499D01*
X0032200Y0114097D02*
X0041450Y0114097D01*
X0041450Y0115696D02*
X0032200Y0115696D01*
X0032200Y0117294D02*
X0041450Y0117294D01*
X0041450Y0118893D02*
X0032200Y0118893D01*
X0032200Y0120491D02*
X0041450Y0120491D01*
X0041450Y0122090D02*
X0032200Y0122090D01*
X0032200Y0123688D02*
X0041450Y0123688D01*
X0041450Y0125287D02*
X0032200Y0125287D01*
X0032200Y0126885D02*
X0041450Y0126885D01*
X0041450Y0128484D02*
X0032200Y0128484D01*
X0032200Y0130082D02*
X0041450Y0130082D01*
X0041450Y0131681D02*
X0032200Y0131681D01*
X0032200Y0133279D02*
X0041450Y0133279D01*
X0041450Y0134878D02*
X0032200Y0134878D01*
X0032200Y0136476D02*
X0041450Y0136476D01*
X0041450Y0138075D02*
X0032200Y0138075D01*
X0032200Y0139673D02*
X0041450Y0139673D01*
X0041450Y0141272D02*
X0032200Y0141272D01*
X0032200Y0142870D02*
X0041450Y0142870D01*
X0041450Y0144469D02*
X0032200Y0144469D01*
X0032200Y0146068D02*
X0041450Y0146068D01*
X0041450Y0147666D02*
X0032200Y0147666D01*
X0032200Y0149265D02*
X0041450Y0149265D01*
X0041450Y0150863D02*
X0032200Y0150863D01*
X0032200Y0152462D02*
X0041450Y0152462D01*
X0041450Y0154060D02*
X0032200Y0154060D01*
X0032200Y0155659D02*
X0041450Y0155659D01*
X0041450Y0157257D02*
X0032200Y0157257D01*
X0032200Y0158856D02*
X0041450Y0158856D01*
X0041450Y0160454D02*
X0032200Y0160454D01*
X0032200Y0162053D02*
X0041450Y0162053D01*
X0041450Y0163651D02*
X0032200Y0163651D01*
X0032200Y0165250D02*
X0041450Y0165250D01*
X0041450Y0166848D02*
X0032200Y0166848D01*
X0032200Y0168447D02*
X0041450Y0168447D01*
X0041450Y0170045D02*
X0032200Y0170045D01*
X0032200Y0171644D02*
X0041450Y0171644D01*
X0041450Y0173242D02*
X0032200Y0173242D01*
X0032200Y0174841D02*
X0041450Y0174841D01*
X0041450Y0176439D02*
X0032200Y0176439D01*
X0032200Y0178038D02*
X0041450Y0178038D01*
X0041450Y0179636D02*
X0032200Y0179636D01*
X0032200Y0181235D02*
X0041450Y0181235D01*
X0041450Y0182833D02*
X0032200Y0182833D01*
X0032200Y0184432D02*
X0041450Y0184432D01*
X0042560Y0186030D02*
X0032200Y0186030D01*
X0033023Y0187629D02*
X0044159Y0187629D01*
X0045757Y0189227D02*
X0034621Y0189227D01*
X0036220Y0190826D02*
X0047356Y0190826D01*
X0047536Y0192424D02*
X0037818Y0192424D01*
X0039417Y0194023D02*
X0048458Y0194023D01*
X0066400Y0160454D02*
X0077011Y0160454D01*
X0075605Y0158856D02*
X0066400Y0158856D01*
X0066400Y0157257D02*
X0074943Y0157257D01*
X0074294Y0155659D02*
X0066400Y0155659D01*
X0066400Y0154060D02*
X0074294Y0154060D01*
X0074294Y0152462D02*
X0066400Y0152462D01*
X0066400Y0150863D02*
X0074728Y0150863D01*
X0075390Y0149265D02*
X0066400Y0149265D01*
X0066400Y0147666D02*
X0076491Y0147666D01*
X0078090Y0146068D02*
X0066400Y0146068D01*
X0035200Y0070937D02*
X0034353Y0070937D01*
X0034353Y0069339D02*
X0035200Y0069339D01*
X0035176Y0067740D02*
X0034353Y0067740D01*
X0112900Y0029376D02*
X0284119Y0029376D01*
X0281514Y0027778D02*
X0112900Y0027778D01*
X0112900Y0026179D02*
X0279916Y0026179D01*
X0278858Y0024581D02*
X0112900Y0024581D01*
X0112900Y0022982D02*
X0278015Y0022982D01*
X0277587Y0021384D02*
X0112900Y0021384D01*
X0113324Y0019785D02*
X0277300Y0019785D01*
X0277300Y0018187D02*
X0113368Y0018187D01*
X0113368Y0016588D02*
X0277487Y0016588D01*
X0277915Y0014990D02*
X0113368Y0014990D01*
X0113368Y0013391D02*
X0278644Y0013391D01*
X0279567Y0011793D02*
X0113315Y0011793D01*
X0112623Y0010194D02*
X0281142Y0010194D01*
X0297684Y0026179D02*
X0299000Y0026179D01*
X0299000Y0024581D02*
X0298742Y0024581D01*
X0299000Y0027778D02*
X0296086Y0027778D01*
X0293481Y0029376D02*
X0299000Y0029376D01*
D27*
X0201050Y0233300D02*
X0201050Y0279550D01*
X0198060Y0282540D01*
X0191300Y0282540D01*
X0191290Y0282550D01*
X0182800Y0282550D01*
X0167300Y0267050D01*
X0146050Y0267050D02*
X0146040Y0267040D01*
X0146040Y0259524D01*
X0114050Y0267050D02*
X0104800Y0257800D01*
X0104800Y0245540D01*
X0091550Y0263050D02*
X0087745Y0266855D01*
X0068400Y0266855D01*
X0068400Y0257800D02*
X0080050Y0257800D01*
X0047800Y0278050D02*
X0043200Y0273450D01*
X0043200Y0257800D01*
D28*
X0047800Y0278050D03*
X0080050Y0257800D03*
X0104800Y0257800D03*
X0114050Y0267050D03*
X0141300Y0273300D03*
X0146050Y0267050D03*
X0154050Y0250050D03*
X0167300Y0267050D03*
X0191300Y0261300D03*
X0191300Y0245800D03*
X0201050Y0233300D03*
X0208550Y0250050D03*
X0225550Y0247550D03*
X0237050Y0236550D03*
X0247050Y0247550D03*
X0237050Y0219050D03*
X0274050Y0191550D03*
X0280300Y0222550D03*
X0288550Y0229300D03*
X0296300Y0157550D03*
X0288550Y0136550D03*
X0249950Y0111200D03*
X0260300Y0091300D03*
X0207800Y0055300D03*
X0202800Y0080050D03*
X0172800Y0080050D03*
X0142050Y0107550D03*
X0110300Y0074800D03*
X0090300Y0074800D03*
X0108800Y0055300D03*
X0062300Y0099300D03*
X0054300Y0064800D03*
X0048300Y0058800D03*
X0037300Y0064800D03*
X0062300Y0143800D03*
X0051050Y0191550D03*
X0142300Y0223050D03*
X0172800Y0160050D03*
D29*
X0172800Y0151040D01*
X0172800Y0143560D02*
X0172800Y0080050D01*
X0194050Y0071540D02*
X0194290Y0071540D01*
X0202800Y0080050D01*
X0207300Y0084550D01*
X0207300Y0101050D01*
X0227300Y0100800D02*
X0227290Y0088800D01*
X0227290Y0074790D01*
X0207800Y0055300D01*
X0260300Y0091300D02*
X0260351Y0091300D01*
X0272292Y0103241D01*
X0272241Y0103241D01*
X0272292Y0103241D02*
X0296308Y0103241D01*
X0288550Y0136550D02*
X0288550Y0229300D01*
X0147800Y0101800D02*
X0142050Y0107550D01*
X0147800Y0101800D02*
X0147800Y0038300D01*
X0118560Y0074800D02*
X0110300Y0074800D01*
X0090300Y0074800D02*
X0090300Y0047300D01*
X0058800Y0015800D01*
X0048300Y0058800D02*
X0048300Y0069800D01*
X0062300Y0099300D02*
X0062300Y0143800D01*
X0062300Y0200050D01*
X0091550Y0229300D01*
X0091550Y0263050D01*
X0091550Y0263060D01*
X0104800Y0276310D01*
X0108800Y0055300D02*
X0108800Y0015800D01*
D30*
X0085300Y0069800D02*
X0081000Y0069800D01*
X0085300Y0069800D02*
X0090300Y0074800D01*
X0081000Y0074800D01*
X0081000Y0079800D02*
X0085300Y0079800D01*
X0090300Y0074800D01*
X0061600Y0074800D02*
X0053300Y0074800D01*
X0048300Y0069800D01*
X0061600Y0069800D01*
D31*
X0207300Y0101050D02*
X0207300Y0111200D01*
X0207200Y0111300D01*
X0227300Y0111200D02*
X0227300Y0100800D01*
D32*
X0274050Y0191550D02*
X0280300Y0197800D01*
X0280300Y0222550D01*
X0237050Y0219050D02*
X0237050Y0236550D01*
X0191300Y0245800D02*
X0191300Y0261300D01*
X0191300Y0275060D01*
X0154050Y0250050D02*
X0154024Y0250076D01*
X0138560Y0259524D02*
X0138560Y0267040D01*
X0138550Y0267050D01*
X0138550Y0270550D01*
X0141300Y0273300D01*
X0051050Y0191550D02*
X0043550Y0184050D01*
X0043550Y0088300D01*
X0037300Y0082050D01*
X0037300Y0064800D01*
X0030040Y0064800D01*
X0029800Y0064560D01*
X0054300Y0064800D02*
X0061600Y0064800D01*
M02*
