G75*
%MOIN*%
%OFA0B0*%
%FSLAX25Y25*%
%IPPOS*%
%LPD*%
%AMOC8*
5,1,8,0,0,1.08239X$1,22.5*
%
%ADD10C,0.14200*%
%ADD11C,0.07099*%
%ADD12C,0.07887*%
%ADD13C,0.16611*%
%ADD14C,0.12500*%
%ADD15R,0.06824X0.06824*%
%ADD16C,0.06824*%
%ADD17C,0.08477*%
%ADD18C,0.06737*%
%ADD19C,0.04762*%
D10*
X0018800Y0018800D03*
X0018800Y0288800D03*
X0288800Y0288800D03*
X0288800Y0018800D03*
D11*
X0272292Y0080800D03*
D12*
X0290009Y0080800D03*
D13*
X0103800Y0143800D03*
X0083800Y0133800D03*
X0083800Y0153800D03*
X0083800Y0173800D03*
X0103800Y0163800D03*
D14*
X0147800Y0038300D03*
X0239800Y0038300D03*
D15*
X0258800Y0235800D03*
D16*
X0258800Y0225800D03*
X0258800Y0215800D03*
X0268800Y0215800D03*
X0268800Y0225800D03*
X0268800Y0235800D03*
D17*
X0218225Y0224005D03*
X0218225Y0211800D03*
X0171375Y0211800D03*
X0171375Y0231879D03*
D18*
X0108800Y0018769D02*
X0108800Y0012831D01*
X0098800Y0012831D02*
X0098800Y0018769D01*
X0058800Y0018769D02*
X0058800Y0012831D01*
X0048800Y0012831D02*
X0048800Y0018769D01*
D19*
X0048300Y0058800D03*
X0054300Y0064800D03*
X0037300Y0064800D03*
X0062300Y0099300D03*
X0090300Y0074800D03*
X0110300Y0074800D03*
X0108800Y0055300D03*
X0142050Y0107550D03*
X0172800Y0080050D03*
X0202800Y0080050D03*
X0207800Y0055300D03*
X0260300Y0091300D03*
X0249950Y0111200D03*
X0288550Y0136550D03*
X0296300Y0157550D03*
X0274050Y0191550D03*
X0280300Y0222550D03*
X0288550Y0229300D03*
X0247050Y0247550D03*
X0237050Y0236550D03*
X0225550Y0247550D03*
X0208550Y0250050D03*
X0191300Y0245800D03*
X0201050Y0233300D03*
X0191300Y0261300D03*
X0167300Y0267050D03*
X0154050Y0250050D03*
X0146050Y0267050D03*
X0141300Y0273300D03*
X0114050Y0267050D03*
X0104800Y0257800D03*
X0080050Y0257800D03*
X0047800Y0278050D03*
X0051050Y0191550D03*
X0062300Y0143800D03*
X0142300Y0223050D03*
X0172800Y0160050D03*
X0237050Y0219050D03*
M02*
