G75*
%MOIN*%
%OFA0B0*%
%FSLAX25Y25*%
%IPPOS*%
%LPD*%
%AMOC8*
5,1,8,0,0,1.08239X$1,22.5*
%
%ADD10OC8,0.06000*%
%ADD11C,0.04756*%
%ADD12C,0.03962*%
%ADD13C,0.01600*%
%ADD14C,0.04000*%
%ADD15C,0.01000*%
D10*
X0208300Y0278000D03*
X0208300Y0288000D03*
X0218300Y0288000D03*
X0228300Y0288000D03*
X0238300Y0288000D03*
X0248300Y0288000D03*
X0248300Y0278000D03*
X0238300Y0278000D03*
X0228300Y0278000D03*
X0218300Y0278000D03*
X0258300Y0278000D03*
X0258300Y0288000D03*
D11*
X0225158Y0028000D03*
X0219253Y0028000D03*
X0213347Y0028000D03*
X0207442Y0028000D03*
X0099158Y0028000D03*
X0093253Y0028000D03*
X0087347Y0028000D03*
X0081442Y0028000D03*
D12*
X0075800Y0046000D03*
X0104800Y0046000D03*
X0137800Y0074500D03*
X0142800Y0085500D03*
X0155800Y0096500D03*
X0176300Y0114000D03*
X0165300Y0120500D03*
X0189300Y0117000D03*
X0175300Y0148000D03*
X0183300Y0156000D03*
X0196032Y0163232D03*
X0179300Y0174500D03*
X0161800Y0186500D03*
X0135300Y0171500D03*
X0130300Y0160500D03*
X0104800Y0137500D03*
X0075800Y0137500D03*
X0050300Y0162500D03*
X0037300Y0179500D03*
X0029300Y0179500D03*
X0021300Y0179500D03*
X0013300Y0179500D03*
X0009300Y0166500D03*
X0017300Y0166500D03*
X0050300Y0208000D03*
X0039300Y0214500D03*
X0063300Y0211000D03*
X0065800Y0253000D03*
X0081300Y0279000D03*
X0083300Y0296500D03*
X0049800Y0288000D03*
X0032300Y0277500D03*
X0032300Y0271000D03*
X0032300Y0265000D03*
X0114800Y0253000D03*
X0137800Y0249500D03*
X0169300Y0279000D03*
X0179300Y0278000D03*
X0183800Y0274000D03*
X0179300Y0270000D03*
X0164300Y0296500D03*
X0138300Y0296500D03*
X0130800Y0306500D03*
X0117300Y0211000D03*
X0130300Y0208000D03*
X0207300Y0186500D03*
X0240800Y0159000D03*
X0263800Y0155500D03*
X0256300Y0114000D03*
X0243300Y0117000D03*
X0261800Y0077500D03*
X0256300Y0066500D03*
X0243800Y0056500D03*
X0230800Y0043500D03*
X0201800Y0043500D03*
X0188800Y0056500D03*
X0176300Y0068500D03*
X0287300Y0076500D03*
X0290800Y0205000D03*
X0296800Y0230000D03*
X0296300Y0259500D03*
X0258300Y0237500D03*
X0243800Y0259000D03*
X0037300Y0102500D03*
X0024800Y0104500D03*
X0017300Y0097000D03*
D13*
X0012967Y0017800D02*
X0008100Y0017800D01*
X0008100Y0022667D01*
X0009098Y0020939D01*
X0011239Y0018798D01*
X0012967Y0017800D01*
X0010642Y0019394D02*
X0008100Y0019394D01*
X0008100Y0020993D02*
X0009067Y0020993D01*
X0008144Y0022591D02*
X0008100Y0022591D01*
X0008100Y0033333D02*
X0008100Y0163121D01*
X0008588Y0162919D01*
X0010012Y0162919D01*
X0011329Y0163464D01*
X0012336Y0164471D01*
X0012881Y0165788D01*
X0012881Y0167212D01*
X0012336Y0168529D01*
X0011400Y0169464D01*
X0011400Y0176411D01*
X0012588Y0175919D01*
X0014012Y0175919D01*
X0015200Y0176411D01*
X0015200Y0169464D01*
X0014264Y0168529D01*
X0013719Y0167212D01*
X0013719Y0165788D01*
X0014264Y0164471D01*
X0015200Y0163536D01*
X0015200Y0099964D01*
X0014264Y0099029D01*
X0013719Y0097712D01*
X0013719Y0096288D01*
X0014264Y0094971D01*
X0015271Y0093964D01*
X0016588Y0093419D01*
X0018012Y0093419D01*
X0019329Y0093964D01*
X0020336Y0094971D01*
X0020881Y0096288D01*
X0020881Y0097712D01*
X0020336Y0099029D01*
X0019400Y0099964D01*
X0019400Y0163536D01*
X0020336Y0164471D01*
X0020881Y0165788D01*
X0020881Y0167212D01*
X0020336Y0168529D01*
X0019400Y0169464D01*
X0019400Y0176411D01*
X0020588Y0175919D01*
X0022012Y0175919D01*
X0023329Y0176464D01*
X0024336Y0177471D01*
X0024881Y0178788D01*
X0024881Y0180212D01*
X0024336Y0181529D01*
X0023400Y0182464D01*
X0023400Y0190430D01*
X0024430Y0189400D01*
X0031270Y0182560D01*
X0030012Y0183081D01*
X0028588Y0183081D01*
X0027271Y0182536D01*
X0026264Y0181529D01*
X0025719Y0180212D01*
X0025719Y0178788D01*
X0026264Y0177471D01*
X0027200Y0176536D01*
X0027200Y0127370D01*
X0023930Y0124100D01*
X0022700Y0122870D01*
X0022700Y0107464D01*
X0021764Y0106529D01*
X0021219Y0105212D01*
X0021219Y0103788D01*
X0021764Y0102471D01*
X0022771Y0101464D01*
X0024088Y0100919D01*
X0025512Y0100919D01*
X0026829Y0101464D01*
X0027836Y0102471D01*
X0028381Y0103788D01*
X0028381Y0105212D01*
X0027836Y0106529D01*
X0026900Y0107464D01*
X0026900Y0121130D01*
X0031400Y0125630D01*
X0031400Y0176536D01*
X0032336Y0177471D01*
X0032881Y0178788D01*
X0032881Y0180212D01*
X0032360Y0181470D01*
X0033719Y0180111D01*
X0033719Y0178788D01*
X0034264Y0177471D01*
X0035200Y0176536D01*
X0035200Y0105464D01*
X0034264Y0104529D01*
X0033719Y0103212D01*
X0033719Y0101788D01*
X0034264Y0100471D01*
X0035271Y0099464D01*
X0036588Y0098919D01*
X0038012Y0098919D01*
X0039329Y0099464D01*
X0040336Y0100471D01*
X0040881Y0101788D01*
X0040881Y0103212D01*
X0040336Y0104529D01*
X0039400Y0105464D01*
X0039400Y0176536D01*
X0040336Y0177471D01*
X0040881Y0178788D01*
X0040881Y0180212D01*
X0040336Y0181529D01*
X0039329Y0182536D01*
X0038012Y0183081D01*
X0036689Y0183081D01*
X0027400Y0192370D01*
X0027400Y0257130D01*
X0031689Y0261419D01*
X0033012Y0261419D01*
X0034329Y0261964D01*
X0035336Y0262971D01*
X0035881Y0264288D01*
X0035881Y0265712D01*
X0035336Y0267029D01*
X0034364Y0268000D01*
X0035336Y0268971D01*
X0035881Y0270288D01*
X0035881Y0271712D01*
X0035336Y0273029D01*
X0034329Y0274036D01*
X0033812Y0274250D01*
X0034329Y0274464D01*
X0035336Y0275471D01*
X0035881Y0276788D01*
X0035881Y0278212D01*
X0035336Y0279529D01*
X0034464Y0280400D01*
X0069670Y0280400D01*
X0082306Y0293036D01*
X0082588Y0292919D01*
X0084012Y0292919D01*
X0085329Y0293464D01*
X0086336Y0294471D01*
X0086881Y0295788D01*
X0086881Y0297212D01*
X0086336Y0298529D01*
X0085329Y0299536D01*
X0084012Y0300081D01*
X0082588Y0300081D01*
X0081271Y0299536D01*
X0080264Y0298529D01*
X0079719Y0297212D01*
X0079719Y0296389D01*
X0067930Y0284600D01*
X0050949Y0284600D01*
X0051829Y0284964D01*
X0052836Y0285971D01*
X0053381Y0287288D01*
X0053381Y0288712D01*
X0052836Y0290029D01*
X0051829Y0291036D01*
X0050512Y0291581D01*
X0049088Y0291581D01*
X0047771Y0291036D01*
X0046836Y0290100D01*
X0028930Y0290100D01*
X0008430Y0269600D01*
X0008100Y0269270D01*
X0008100Y0292667D01*
X0009098Y0290939D01*
X0011239Y0288798D01*
X0013861Y0287284D01*
X0016786Y0286500D01*
X0019814Y0286500D01*
X0022739Y0287284D01*
X0025361Y0288798D01*
X0027502Y0290939D01*
X0029016Y0293561D01*
X0029800Y0296486D01*
X0029800Y0299514D01*
X0029016Y0302439D01*
X0027502Y0305061D01*
X0025361Y0307202D01*
X0023633Y0308200D01*
X0127409Y0308200D01*
X0112761Y0293552D01*
X0112761Y0293552D01*
X0111748Y0292539D01*
X0111200Y0291216D01*
X0111200Y0222784D01*
X0111748Y0221461D01*
X0112761Y0220448D01*
X0119028Y0214181D01*
X0118016Y0214600D01*
X0109084Y0214600D01*
X0107761Y0214052D01*
X0106748Y0213039D01*
X0096106Y0202398D01*
X0095558Y0201074D01*
X0095558Y0031320D01*
X0095506Y0031372D01*
X0094044Y0031978D01*
X0092461Y0031978D01*
X0090999Y0031372D01*
X0090300Y0030673D01*
X0089601Y0031372D01*
X0088139Y0031978D01*
X0086556Y0031978D01*
X0085094Y0031372D01*
X0085042Y0031320D01*
X0085042Y0201074D01*
X0084494Y0202398D01*
X0073852Y0213039D01*
X0072839Y0214052D01*
X0071516Y0214600D01*
X0062584Y0214600D01*
X0061572Y0214181D01*
X0067839Y0220448D01*
X0068852Y0221461D01*
X0069400Y0222784D01*
X0069400Y0253716D01*
X0068852Y0255039D01*
X0067839Y0256052D01*
X0066516Y0256600D01*
X0065084Y0256600D01*
X0063761Y0256052D01*
X0062748Y0255039D01*
X0062200Y0253716D01*
X0062200Y0224991D01*
X0047248Y0210039D01*
X0046700Y0208716D01*
X0046700Y0161784D01*
X0047248Y0160461D01*
X0048261Y0159448D01*
X0049584Y0158900D01*
X0051016Y0158900D01*
X0052339Y0159448D01*
X0053352Y0160461D01*
X0053900Y0161784D01*
X0053900Y0206509D01*
X0060119Y0212728D01*
X0059700Y0211716D01*
X0059700Y0210284D01*
X0060248Y0208961D01*
X0061261Y0207948D01*
X0062584Y0207400D01*
X0069309Y0207400D01*
X0077842Y0198867D01*
X0077842Y0140549D01*
X0077839Y0140552D01*
X0076516Y0141100D01*
X0075084Y0141100D01*
X0073761Y0140552D01*
X0072748Y0139539D01*
X0072200Y0138216D01*
X0072200Y0045284D01*
X0072748Y0043961D01*
X0073761Y0042948D01*
X0075084Y0042400D01*
X0076516Y0042400D01*
X0077839Y0042948D01*
X0077842Y0042951D01*
X0077842Y0029704D01*
X0077464Y0028791D01*
X0077464Y0027209D01*
X0078069Y0025747D01*
X0079188Y0024628D01*
X0080650Y0024022D01*
X0082233Y0024022D01*
X0083695Y0024628D01*
X0084394Y0025327D01*
X0085094Y0024628D01*
X0086556Y0024022D01*
X0088139Y0024022D01*
X0089601Y0024628D01*
X0090300Y0025327D01*
X0090999Y0024628D01*
X0092461Y0024022D01*
X0094044Y0024022D01*
X0095506Y0024628D01*
X0096205Y0025327D01*
X0096905Y0024628D01*
X0098367Y0024022D01*
X0099950Y0024022D01*
X0101412Y0024628D01*
X0102531Y0025747D01*
X0103136Y0027209D01*
X0103136Y0028791D01*
X0102758Y0029704D01*
X0102758Y0042951D01*
X0102761Y0042948D01*
X0104084Y0042400D01*
X0105516Y0042400D01*
X0106839Y0042948D01*
X0107852Y0043961D01*
X0108400Y0045284D01*
X0108400Y0138216D01*
X0107852Y0139539D01*
X0106839Y0140552D01*
X0105516Y0141100D01*
X0104084Y0141100D01*
X0102761Y0140552D01*
X0102758Y0140549D01*
X0102758Y0198867D01*
X0111291Y0207400D01*
X0118016Y0207400D01*
X0119339Y0207948D01*
X0120352Y0208961D01*
X0120900Y0210284D01*
X0120900Y0211716D01*
X0120481Y0212728D01*
X0126700Y0206509D01*
X0126700Y0159784D01*
X0127248Y0158461D01*
X0128261Y0157448D01*
X0129584Y0156900D01*
X0131016Y0156900D01*
X0132339Y0157448D01*
X0133352Y0158461D01*
X0133900Y0159784D01*
X0133900Y0168204D01*
X0134588Y0167919D01*
X0136012Y0167919D01*
X0137329Y0168464D01*
X0138336Y0169471D01*
X0138881Y0170788D01*
X0138881Y0172111D01*
X0151170Y0184400D01*
X0158836Y0184400D01*
X0159771Y0183464D01*
X0161088Y0182919D01*
X0162512Y0182919D01*
X0163829Y0183464D01*
X0164200Y0183836D01*
X0164200Y0153870D01*
X0136930Y0126600D01*
X0135700Y0125370D01*
X0135700Y0077464D01*
X0134764Y0076529D01*
X0134219Y0075212D01*
X0134219Y0073788D01*
X0134764Y0072471D01*
X0135771Y0071464D01*
X0137088Y0070919D01*
X0138512Y0070919D01*
X0139829Y0071464D01*
X0140836Y0072471D01*
X0141381Y0073788D01*
X0141381Y0075212D01*
X0140836Y0076529D01*
X0139900Y0077464D01*
X0139900Y0083336D01*
X0140771Y0082464D01*
X0142088Y0081919D01*
X0143512Y0081919D01*
X0144829Y0082464D01*
X0145836Y0083471D01*
X0146381Y0084788D01*
X0146381Y0086212D01*
X0145836Y0087529D01*
X0144900Y0088464D01*
X0144900Y0118130D01*
X0170670Y0143900D01*
X0171900Y0145130D01*
X0171900Y0146851D01*
X0172264Y0145971D01*
X0173200Y0145036D01*
X0173200Y0141870D01*
X0154930Y0123600D01*
X0153700Y0122370D01*
X0153700Y0099464D01*
X0152764Y0098529D01*
X0152219Y0097212D01*
X0152219Y0095788D01*
X0152764Y0094471D01*
X0153771Y0093464D01*
X0155088Y0092919D01*
X0156512Y0092919D01*
X0157829Y0093464D01*
X0158836Y0094471D01*
X0159381Y0095788D01*
X0159381Y0097212D01*
X0158836Y0098529D01*
X0157900Y0099464D01*
X0157900Y0120630D01*
X0176900Y0139630D01*
X0176900Y0131494D01*
X0168306Y0122900D01*
X0167964Y0122900D01*
X0167329Y0123536D01*
X0166012Y0124081D01*
X0164588Y0124081D01*
X0163271Y0123536D01*
X0162264Y0122529D01*
X0161719Y0121212D01*
X0161719Y0119788D01*
X0162264Y0118471D01*
X0163271Y0117464D01*
X0164588Y0116919D01*
X0166012Y0116919D01*
X0167329Y0117464D01*
X0167964Y0118100D01*
X0169777Y0118100D01*
X0170659Y0118465D01*
X0171335Y0119141D01*
X0180659Y0128465D01*
X0181335Y0129141D01*
X0181700Y0130023D01*
X0181700Y0152787D01*
X0182588Y0152419D01*
X0184012Y0152419D01*
X0185329Y0152964D01*
X0186336Y0153971D01*
X0186881Y0155288D01*
X0186881Y0156712D01*
X0186336Y0158029D01*
X0185400Y0158964D01*
X0185400Y0171630D01*
X0249170Y0235400D01*
X0250400Y0236630D01*
X0250400Y0273595D01*
X0252900Y0276095D01*
X0252900Y0279905D01*
X0250205Y0282600D01*
X0246395Y0282600D01*
X0243700Y0279905D01*
X0243700Y0276095D01*
X0246200Y0273595D01*
X0246200Y0261664D01*
X0245829Y0262036D01*
X0244512Y0262581D01*
X0243088Y0262581D01*
X0241771Y0262036D01*
X0241136Y0261400D01*
X0183794Y0261400D01*
X0178775Y0266419D01*
X0180012Y0266419D01*
X0181329Y0266964D01*
X0182264Y0267900D01*
X0185930Y0267900D01*
X0188200Y0265630D01*
X0189430Y0264400D01*
X0231670Y0264400D01*
X0232900Y0265630D01*
X0232900Y0265630D01*
X0239170Y0271900D01*
X0240400Y0273130D01*
X0240400Y0273595D01*
X0242900Y0276095D01*
X0242900Y0279905D01*
X0240205Y0282600D01*
X0236395Y0282600D01*
X0233700Y0279905D01*
X0233700Y0276095D01*
X0235562Y0274232D01*
X0229930Y0268600D01*
X0225870Y0268600D01*
X0229170Y0271900D01*
X0230400Y0273130D01*
X0230400Y0273595D01*
X0232900Y0276095D01*
X0232900Y0279905D01*
X0230205Y0282600D01*
X0226395Y0282600D01*
X0223700Y0279905D01*
X0223700Y0276095D01*
X0225562Y0274232D01*
X0222430Y0271100D01*
X0218370Y0271100D01*
X0218650Y0271380D01*
X0219170Y0271900D01*
X0220400Y0273130D01*
X0220400Y0273595D01*
X0222900Y0276095D01*
X0222900Y0279905D01*
X0220205Y0282600D01*
X0216395Y0282600D01*
X0213700Y0279905D01*
X0213700Y0276095D01*
X0215562Y0274232D01*
X0214430Y0273100D01*
X0194170Y0273100D01*
X0187170Y0280100D01*
X0182264Y0280100D01*
X0181329Y0281036D01*
X0180012Y0281581D01*
X0178588Y0281581D01*
X0177271Y0281036D01*
X0176264Y0280029D01*
X0175719Y0278712D01*
X0175719Y0277288D01*
X0176264Y0275971D01*
X0177271Y0274964D01*
X0178588Y0274419D01*
X0180012Y0274419D01*
X0180219Y0274504D01*
X0180219Y0273496D01*
X0180012Y0273581D01*
X0178588Y0273581D01*
X0177271Y0273036D01*
X0176264Y0272029D01*
X0175719Y0270712D01*
X0175719Y0269475D01*
X0175700Y0269494D01*
X0175700Y0275477D01*
X0175335Y0276359D01*
X0174659Y0277035D01*
X0172881Y0278813D01*
X0172881Y0279712D01*
X0172336Y0281029D01*
X0171329Y0282036D01*
X0170012Y0282581D01*
X0168588Y0282581D01*
X0167271Y0282036D01*
X0166400Y0281164D01*
X0166400Y0293536D01*
X0167336Y0294471D01*
X0167881Y0295788D01*
X0167881Y0297111D01*
X0170670Y0299900D01*
X0222930Y0299900D01*
X0226200Y0296630D01*
X0226200Y0292405D01*
X0223700Y0289905D01*
X0223700Y0286095D01*
X0226395Y0283400D01*
X0230205Y0283400D01*
X0232900Y0286095D01*
X0232900Y0289905D01*
X0230400Y0292405D01*
X0230400Y0298370D01*
X0229170Y0299600D01*
X0229170Y0299600D01*
X0226870Y0301900D01*
X0242930Y0301900D01*
X0246200Y0298630D01*
X0246200Y0292405D01*
X0243700Y0289905D01*
X0243700Y0286095D01*
X0246395Y0283400D01*
X0250205Y0283400D01*
X0252900Y0286095D01*
X0252900Y0289905D01*
X0250400Y0292405D01*
X0250400Y0300370D01*
X0249170Y0301600D01*
X0244670Y0306100D01*
X0145430Y0306100D01*
X0144200Y0304870D01*
X0139294Y0299964D01*
X0139012Y0300081D01*
X0137588Y0300081D01*
X0136271Y0299536D01*
X0135264Y0298529D01*
X0134719Y0297212D01*
X0134719Y0295788D01*
X0135264Y0294471D01*
X0136200Y0293536D01*
X0136200Y0278130D01*
X0164200Y0250130D01*
X0164200Y0189164D01*
X0163829Y0189536D01*
X0162512Y0190081D01*
X0161088Y0190081D01*
X0159771Y0189536D01*
X0158836Y0188600D01*
X0149430Y0188600D01*
X0135911Y0175081D01*
X0134588Y0175081D01*
X0133900Y0174796D01*
X0133900Y0206509D01*
X0140852Y0213461D01*
X0141400Y0214784D01*
X0141400Y0250216D01*
X0140852Y0251539D01*
X0139839Y0252552D01*
X0138516Y0253100D01*
X0137084Y0253100D01*
X0135761Y0252552D01*
X0134748Y0251539D01*
X0134200Y0250216D01*
X0134200Y0216991D01*
X0130300Y0213091D01*
X0118400Y0224991D01*
X0118400Y0289009D01*
X0133852Y0304461D01*
X0134400Y0305784D01*
X0134400Y0307216D01*
X0133992Y0308200D01*
X0282967Y0308200D01*
X0281239Y0307202D01*
X0279098Y0305061D01*
X0277584Y0302439D01*
X0276800Y0299514D01*
X0276800Y0296486D01*
X0277584Y0293561D01*
X0279098Y0290939D01*
X0281239Y0288798D01*
X0283861Y0287284D01*
X0286786Y0286500D01*
X0289814Y0286500D01*
X0292739Y0287284D01*
X0295361Y0288798D01*
X0297502Y0290939D01*
X0298500Y0292667D01*
X0298500Y0262391D01*
X0298339Y0262552D01*
X0297016Y0263100D01*
X0295584Y0263100D01*
X0294261Y0262552D01*
X0238761Y0207052D01*
X0237748Y0206039D01*
X0237200Y0204716D01*
X0237200Y0128784D01*
X0237748Y0127461D01*
X0238761Y0126448D01*
X0245028Y0120181D01*
X0244016Y0120600D01*
X0235084Y0120600D01*
X0233761Y0120052D01*
X0232748Y0119039D01*
X0222106Y0108398D01*
X0221558Y0107074D01*
X0221558Y0031320D01*
X0221506Y0031372D01*
X0220044Y0031978D01*
X0218461Y0031978D01*
X0216999Y0031372D01*
X0216300Y0030673D01*
X0215601Y0031372D01*
X0214139Y0031978D01*
X0212556Y0031978D01*
X0211094Y0031372D01*
X0211042Y0031320D01*
X0211042Y0107074D01*
X0210494Y0108398D01*
X0199852Y0119039D01*
X0198839Y0120052D01*
X0197516Y0120600D01*
X0188584Y0120600D01*
X0187572Y0120181D01*
X0193839Y0126448D01*
X0194852Y0127461D01*
X0195400Y0128784D01*
X0195400Y0157509D01*
X0199084Y0161193D01*
X0199632Y0162516D01*
X0199632Y0163948D01*
X0199084Y0165272D01*
X0198072Y0166284D01*
X0196748Y0166832D01*
X0195316Y0166832D01*
X0193993Y0166284D01*
X0188748Y0161039D01*
X0188200Y0159716D01*
X0188200Y0130991D01*
X0173248Y0116039D01*
X0172700Y0114716D01*
X0172700Y0113284D01*
X0172700Y0067784D01*
X0173248Y0066461D01*
X0174261Y0065448D01*
X0175584Y0064900D01*
X0177016Y0064900D01*
X0178339Y0065448D01*
X0179352Y0066461D01*
X0179900Y0067784D01*
X0179900Y0112509D01*
X0186119Y0118728D01*
X0185700Y0117716D01*
X0185700Y0116284D01*
X0186248Y0114961D01*
X0187261Y0113948D01*
X0188584Y0113400D01*
X0195309Y0113400D01*
X0203842Y0104867D01*
X0203842Y0046549D01*
X0190839Y0059552D01*
X0189516Y0060100D01*
X0188084Y0060100D01*
X0186761Y0059552D01*
X0185748Y0058539D01*
X0185200Y0057216D01*
X0185200Y0055784D01*
X0185748Y0054461D01*
X0199761Y0040448D01*
X0201084Y0039900D01*
X0202516Y0039900D01*
X0203839Y0040448D01*
X0203842Y0040451D01*
X0203842Y0029704D01*
X0203464Y0028791D01*
X0203464Y0027209D01*
X0204069Y0025747D01*
X0205188Y0024628D01*
X0206650Y0024022D01*
X0208233Y0024022D01*
X0209695Y0024628D01*
X0210394Y0025327D01*
X0211094Y0024628D01*
X0212556Y0024022D01*
X0214139Y0024022D01*
X0215601Y0024628D01*
X0216300Y0025327D01*
X0216999Y0024628D01*
X0218461Y0024022D01*
X0220044Y0024022D01*
X0221506Y0024628D01*
X0222205Y0025327D01*
X0222905Y0024628D01*
X0224367Y0024022D01*
X0225950Y0024022D01*
X0227412Y0024628D01*
X0228531Y0025747D01*
X0229136Y0027209D01*
X0229136Y0028791D01*
X0228758Y0029704D01*
X0228758Y0040451D01*
X0228761Y0040448D01*
X0230084Y0039900D01*
X0231516Y0039900D01*
X0232839Y0040448D01*
X0246852Y0054461D01*
X0247400Y0055784D01*
X0247400Y0057216D01*
X0246852Y0058539D01*
X0245839Y0059552D01*
X0244516Y0060100D01*
X0243084Y0060100D01*
X0241761Y0059552D01*
X0228758Y0046549D01*
X0228758Y0104867D01*
X0237291Y0113400D01*
X0244016Y0113400D01*
X0245339Y0113948D01*
X0246352Y0114961D01*
X0246900Y0116284D01*
X0246900Y0117716D01*
X0246481Y0118728D01*
X0252700Y0112509D01*
X0252700Y0065784D01*
X0253248Y0064461D01*
X0254261Y0063448D01*
X0255584Y0062900D01*
X0257016Y0062900D01*
X0258339Y0063448D01*
X0259352Y0064461D01*
X0259900Y0065784D01*
X0259900Y0074411D01*
X0261088Y0073919D01*
X0262512Y0073919D01*
X0263829Y0074464D01*
X0264836Y0075471D01*
X0265381Y0076788D01*
X0265381Y0078111D01*
X0292900Y0105630D01*
X0292900Y0202036D01*
X0293836Y0202971D01*
X0294381Y0204288D01*
X0294381Y0205712D01*
X0293836Y0207029D01*
X0292829Y0208036D01*
X0291512Y0208581D01*
X0290088Y0208581D01*
X0288771Y0208036D01*
X0287764Y0207029D01*
X0287219Y0205712D01*
X0287219Y0204288D01*
X0287764Y0202971D01*
X0288700Y0202036D01*
X0288700Y0107370D01*
X0262411Y0081081D01*
X0261088Y0081081D01*
X0259900Y0080589D01*
X0259900Y0112009D01*
X0266852Y0118961D01*
X0267400Y0120284D01*
X0267400Y0156216D01*
X0266852Y0157539D01*
X0265839Y0158552D01*
X0264516Y0159100D01*
X0263084Y0159100D01*
X0261761Y0158552D01*
X0260748Y0157539D01*
X0260200Y0156216D01*
X0260200Y0122491D01*
X0256550Y0118841D01*
X0244400Y0130991D01*
X0244400Y0202509D01*
X0298500Y0256609D01*
X0298500Y0233172D01*
X0297512Y0233581D01*
X0296088Y0233581D01*
X0294771Y0233036D01*
X0293764Y0232029D01*
X0293219Y0230712D01*
X0293219Y0229288D01*
X0293764Y0227971D01*
X0294400Y0227336D01*
X0294400Y0086994D01*
X0287487Y0080081D01*
X0286588Y0080081D01*
X0285271Y0079536D01*
X0284264Y0078529D01*
X0283719Y0077212D01*
X0283719Y0075788D01*
X0284264Y0074471D01*
X0285271Y0073464D01*
X0286588Y0072919D01*
X0288012Y0072919D01*
X0289329Y0073464D01*
X0290336Y0074471D01*
X0290881Y0075788D01*
X0290881Y0076687D01*
X0298159Y0083965D01*
X0298500Y0084306D01*
X0298500Y0033333D01*
X0297502Y0035061D01*
X0295361Y0037202D01*
X0292739Y0038716D01*
X0289814Y0039500D01*
X0286786Y0039500D01*
X0283861Y0038716D01*
X0281239Y0037202D01*
X0279098Y0035061D01*
X0277584Y0032439D01*
X0276800Y0029514D01*
X0276800Y0026486D01*
X0277584Y0023561D01*
X0279098Y0020939D01*
X0281239Y0018798D01*
X0282967Y0017800D01*
X0023633Y0017800D01*
X0025361Y0018798D01*
X0027502Y0020939D01*
X0029016Y0023561D01*
X0029800Y0026486D01*
X0029800Y0029514D01*
X0029016Y0032439D01*
X0027502Y0035061D01*
X0025361Y0037202D01*
X0022739Y0038716D01*
X0019814Y0039500D01*
X0016786Y0039500D01*
X0013861Y0038716D01*
X0011239Y0037202D01*
X0009098Y0035061D01*
X0008100Y0033333D01*
X0008100Y0033781D02*
X0008358Y0033781D01*
X0008100Y0035379D02*
X0009416Y0035379D01*
X0008100Y0036978D02*
X0011014Y0036978D01*
X0013619Y0038576D02*
X0008100Y0038576D01*
X0008100Y0040175D02*
X0077842Y0040175D01*
X0077842Y0041773D02*
X0008100Y0041773D01*
X0008100Y0043372D02*
X0073337Y0043372D01*
X0072330Y0044970D02*
X0008100Y0044970D01*
X0008100Y0046569D02*
X0072200Y0046569D01*
X0072200Y0048167D02*
X0008100Y0048167D01*
X0008100Y0049766D02*
X0072200Y0049766D01*
X0072200Y0051364D02*
X0008100Y0051364D01*
X0008100Y0052963D02*
X0072200Y0052963D01*
X0072200Y0054561D02*
X0008100Y0054561D01*
X0008100Y0056160D02*
X0072200Y0056160D01*
X0072200Y0057758D02*
X0008100Y0057758D01*
X0008100Y0059357D02*
X0072200Y0059357D01*
X0072200Y0060955D02*
X0008100Y0060955D01*
X0008100Y0062554D02*
X0072200Y0062554D01*
X0072200Y0064152D02*
X0008100Y0064152D01*
X0008100Y0065751D02*
X0072200Y0065751D01*
X0072200Y0067349D02*
X0008100Y0067349D01*
X0008100Y0068948D02*
X0072200Y0068948D01*
X0072200Y0070546D02*
X0008100Y0070546D01*
X0008100Y0072145D02*
X0072200Y0072145D01*
X0072200Y0073743D02*
X0008100Y0073743D01*
X0008100Y0075342D02*
X0072200Y0075342D01*
X0072200Y0076940D02*
X0008100Y0076940D01*
X0008100Y0078539D02*
X0072200Y0078539D01*
X0072200Y0080137D02*
X0008100Y0080137D01*
X0008100Y0081736D02*
X0072200Y0081736D01*
X0072200Y0083334D02*
X0008100Y0083334D01*
X0008100Y0084933D02*
X0072200Y0084933D01*
X0072200Y0086532D02*
X0008100Y0086532D01*
X0008100Y0088130D02*
X0072200Y0088130D01*
X0072200Y0089729D02*
X0008100Y0089729D01*
X0008100Y0091327D02*
X0072200Y0091327D01*
X0072200Y0092926D02*
X0008100Y0092926D01*
X0008100Y0094524D02*
X0014711Y0094524D01*
X0013787Y0096123D02*
X0008100Y0096123D01*
X0008100Y0097721D02*
X0013723Y0097721D01*
X0014555Y0099320D02*
X0008100Y0099320D01*
X0008100Y0100918D02*
X0015200Y0100918D01*
X0015200Y0102517D02*
X0008100Y0102517D01*
X0008100Y0104115D02*
X0015200Y0104115D01*
X0015200Y0105714D02*
X0008100Y0105714D01*
X0008100Y0107312D02*
X0015200Y0107312D01*
X0015200Y0108911D02*
X0008100Y0108911D01*
X0008100Y0110509D02*
X0015200Y0110509D01*
X0015200Y0112108D02*
X0008100Y0112108D01*
X0008100Y0113706D02*
X0015200Y0113706D01*
X0015200Y0115305D02*
X0008100Y0115305D01*
X0008100Y0116903D02*
X0015200Y0116903D01*
X0015200Y0118502D02*
X0008100Y0118502D01*
X0008100Y0120100D02*
X0015200Y0120100D01*
X0015200Y0121699D02*
X0008100Y0121699D01*
X0008100Y0123297D02*
X0015200Y0123297D01*
X0015200Y0124896D02*
X0008100Y0124896D01*
X0008100Y0126494D02*
X0015200Y0126494D01*
X0015200Y0128093D02*
X0008100Y0128093D01*
X0008100Y0129691D02*
X0015200Y0129691D01*
X0015200Y0131290D02*
X0008100Y0131290D01*
X0008100Y0132888D02*
X0015200Y0132888D01*
X0015200Y0134487D02*
X0008100Y0134487D01*
X0008100Y0136085D02*
X0015200Y0136085D01*
X0015200Y0137684D02*
X0008100Y0137684D01*
X0008100Y0139282D02*
X0015200Y0139282D01*
X0015200Y0140881D02*
X0008100Y0140881D01*
X0008100Y0142479D02*
X0015200Y0142479D01*
X0015200Y0144078D02*
X0008100Y0144078D01*
X0008100Y0145676D02*
X0015200Y0145676D01*
X0015200Y0147275D02*
X0008100Y0147275D01*
X0008100Y0148873D02*
X0015200Y0148873D01*
X0015200Y0150472D02*
X0008100Y0150472D01*
X0008100Y0152070D02*
X0015200Y0152070D01*
X0015200Y0153669D02*
X0008100Y0153669D01*
X0008100Y0155268D02*
X0015200Y0155268D01*
X0015200Y0156866D02*
X0008100Y0156866D01*
X0008100Y0158465D02*
X0015200Y0158465D01*
X0015200Y0160063D02*
X0008100Y0160063D01*
X0008100Y0161662D02*
X0015200Y0161662D01*
X0015200Y0163260D02*
X0010836Y0163260D01*
X0012496Y0164859D02*
X0014104Y0164859D01*
X0013719Y0166457D02*
X0012881Y0166457D01*
X0012532Y0168056D02*
X0014068Y0168056D01*
X0015200Y0169654D02*
X0011400Y0169654D01*
X0011400Y0171253D02*
X0015200Y0171253D01*
X0015200Y0172851D02*
X0011400Y0172851D01*
X0011400Y0174450D02*
X0015200Y0174450D01*
X0015200Y0176048D02*
X0014324Y0176048D01*
X0012276Y0176048D02*
X0011400Y0176048D01*
X0019400Y0176048D02*
X0020276Y0176048D01*
X0019400Y0174450D02*
X0027200Y0174450D01*
X0027200Y0176048D02*
X0022324Y0176048D01*
X0024408Y0177647D02*
X0026192Y0177647D01*
X0025719Y0179245D02*
X0024881Y0179245D01*
X0024620Y0180844D02*
X0025980Y0180844D01*
X0027178Y0182442D02*
X0023422Y0182442D01*
X0023400Y0184041D02*
X0029789Y0184041D01*
X0028191Y0185639D02*
X0023400Y0185639D01*
X0023400Y0187238D02*
X0026592Y0187238D01*
X0024994Y0188836D02*
X0023400Y0188836D01*
X0027737Y0192033D02*
X0046700Y0192033D01*
X0046700Y0190435D02*
X0029335Y0190435D01*
X0030934Y0188836D02*
X0046700Y0188836D01*
X0046700Y0187238D02*
X0032532Y0187238D01*
X0034131Y0185639D02*
X0046700Y0185639D01*
X0046700Y0184041D02*
X0035729Y0184041D01*
X0039422Y0182442D02*
X0046700Y0182442D01*
X0046700Y0180844D02*
X0040620Y0180844D01*
X0040881Y0179245D02*
X0046700Y0179245D01*
X0046700Y0177647D02*
X0040408Y0177647D01*
X0039400Y0176048D02*
X0046700Y0176048D01*
X0046700Y0174450D02*
X0039400Y0174450D01*
X0039400Y0172851D02*
X0046700Y0172851D01*
X0046700Y0171253D02*
X0039400Y0171253D01*
X0039400Y0169654D02*
X0046700Y0169654D01*
X0046700Y0168056D02*
X0039400Y0168056D01*
X0039400Y0166457D02*
X0046700Y0166457D01*
X0046700Y0164859D02*
X0039400Y0164859D01*
X0039400Y0163260D02*
X0046700Y0163260D01*
X0046751Y0161662D02*
X0039400Y0161662D01*
X0039400Y0160063D02*
X0047646Y0160063D01*
X0052954Y0160063D02*
X0077842Y0160063D01*
X0077842Y0158465D02*
X0039400Y0158465D01*
X0039400Y0156866D02*
X0077842Y0156866D01*
X0077842Y0155268D02*
X0039400Y0155268D01*
X0039400Y0153669D02*
X0077842Y0153669D01*
X0077842Y0152070D02*
X0039400Y0152070D01*
X0039400Y0150472D02*
X0077842Y0150472D01*
X0077842Y0148873D02*
X0039400Y0148873D01*
X0039400Y0147275D02*
X0077842Y0147275D01*
X0077842Y0145676D02*
X0039400Y0145676D01*
X0039400Y0144078D02*
X0077842Y0144078D01*
X0077842Y0142479D02*
X0039400Y0142479D01*
X0039400Y0140881D02*
X0074555Y0140881D01*
X0077045Y0140881D02*
X0077842Y0140881D01*
X0072642Y0139282D02*
X0039400Y0139282D01*
X0039400Y0137684D02*
X0072200Y0137684D01*
X0072200Y0136085D02*
X0039400Y0136085D01*
X0039400Y0134487D02*
X0072200Y0134487D01*
X0072200Y0132888D02*
X0039400Y0132888D01*
X0039400Y0131290D02*
X0072200Y0131290D01*
X0072200Y0129691D02*
X0039400Y0129691D01*
X0039400Y0128093D02*
X0072200Y0128093D01*
X0072200Y0126494D02*
X0039400Y0126494D01*
X0039400Y0124896D02*
X0072200Y0124896D01*
X0072200Y0123297D02*
X0039400Y0123297D01*
X0039400Y0121699D02*
X0072200Y0121699D01*
X0072200Y0120100D02*
X0039400Y0120100D01*
X0039400Y0118502D02*
X0072200Y0118502D01*
X0072200Y0116903D02*
X0039400Y0116903D01*
X0039400Y0115305D02*
X0072200Y0115305D01*
X0072200Y0113706D02*
X0039400Y0113706D01*
X0039400Y0112108D02*
X0072200Y0112108D01*
X0072200Y0110509D02*
X0039400Y0110509D01*
X0039400Y0108911D02*
X0072200Y0108911D01*
X0072200Y0107312D02*
X0039400Y0107312D01*
X0039400Y0105714D02*
X0072200Y0105714D01*
X0072200Y0104115D02*
X0040507Y0104115D01*
X0040881Y0102517D02*
X0072200Y0102517D01*
X0072200Y0100918D02*
X0040521Y0100918D01*
X0038980Y0099320D02*
X0072200Y0099320D01*
X0072200Y0097721D02*
X0020877Y0097721D01*
X0020813Y0096123D02*
X0072200Y0096123D01*
X0072200Y0094524D02*
X0019889Y0094524D01*
X0020045Y0099320D02*
X0035620Y0099320D01*
X0034079Y0100918D02*
X0019400Y0100918D01*
X0019400Y0102517D02*
X0021745Y0102517D01*
X0021219Y0104115D02*
X0019400Y0104115D01*
X0019400Y0105714D02*
X0021427Y0105714D01*
X0022548Y0107312D02*
X0019400Y0107312D01*
X0019400Y0108911D02*
X0022700Y0108911D01*
X0022700Y0110509D02*
X0019400Y0110509D01*
X0019400Y0112108D02*
X0022700Y0112108D01*
X0022700Y0113706D02*
X0019400Y0113706D01*
X0019400Y0115305D02*
X0022700Y0115305D01*
X0022700Y0116903D02*
X0019400Y0116903D01*
X0019400Y0118502D02*
X0022700Y0118502D01*
X0022700Y0120100D02*
X0019400Y0120100D01*
X0019400Y0121699D02*
X0022700Y0121699D01*
X0023127Y0123297D02*
X0019400Y0123297D01*
X0019400Y0124896D02*
X0024726Y0124896D01*
X0026324Y0126494D02*
X0019400Y0126494D01*
X0019400Y0128093D02*
X0027200Y0128093D01*
X0027200Y0129691D02*
X0019400Y0129691D01*
X0019400Y0131290D02*
X0027200Y0131290D01*
X0027200Y0132888D02*
X0019400Y0132888D01*
X0019400Y0134487D02*
X0027200Y0134487D01*
X0027200Y0136085D02*
X0019400Y0136085D01*
X0019400Y0137684D02*
X0027200Y0137684D01*
X0027200Y0139282D02*
X0019400Y0139282D01*
X0019400Y0140881D02*
X0027200Y0140881D01*
X0027200Y0142479D02*
X0019400Y0142479D01*
X0019400Y0144078D02*
X0027200Y0144078D01*
X0027200Y0145676D02*
X0019400Y0145676D01*
X0019400Y0147275D02*
X0027200Y0147275D01*
X0027200Y0148873D02*
X0019400Y0148873D01*
X0019400Y0150472D02*
X0027200Y0150472D01*
X0027200Y0152070D02*
X0019400Y0152070D01*
X0019400Y0153669D02*
X0027200Y0153669D01*
X0027200Y0155268D02*
X0019400Y0155268D01*
X0019400Y0156866D02*
X0027200Y0156866D01*
X0027200Y0158465D02*
X0019400Y0158465D01*
X0019400Y0160063D02*
X0027200Y0160063D01*
X0027200Y0161662D02*
X0019400Y0161662D01*
X0019400Y0163260D02*
X0027200Y0163260D01*
X0027200Y0164859D02*
X0020496Y0164859D01*
X0020881Y0166457D02*
X0027200Y0166457D01*
X0027200Y0168056D02*
X0020532Y0168056D01*
X0019400Y0169654D02*
X0027200Y0169654D01*
X0027200Y0171253D02*
X0019400Y0171253D01*
X0019400Y0172851D02*
X0027200Y0172851D01*
X0031400Y0172851D02*
X0035200Y0172851D01*
X0035200Y0171253D02*
X0031400Y0171253D01*
X0031400Y0169654D02*
X0035200Y0169654D01*
X0035200Y0168056D02*
X0031400Y0168056D01*
X0031400Y0166457D02*
X0035200Y0166457D01*
X0035200Y0164859D02*
X0031400Y0164859D01*
X0031400Y0163260D02*
X0035200Y0163260D01*
X0035200Y0161662D02*
X0031400Y0161662D01*
X0031400Y0160063D02*
X0035200Y0160063D01*
X0035200Y0158465D02*
X0031400Y0158465D01*
X0031400Y0156866D02*
X0035200Y0156866D01*
X0035200Y0155268D02*
X0031400Y0155268D01*
X0031400Y0153669D02*
X0035200Y0153669D01*
X0035200Y0152070D02*
X0031400Y0152070D01*
X0031400Y0150472D02*
X0035200Y0150472D01*
X0035200Y0148873D02*
X0031400Y0148873D01*
X0031400Y0147275D02*
X0035200Y0147275D01*
X0035200Y0145676D02*
X0031400Y0145676D01*
X0031400Y0144078D02*
X0035200Y0144078D01*
X0035200Y0142479D02*
X0031400Y0142479D01*
X0031400Y0140881D02*
X0035200Y0140881D01*
X0035200Y0139282D02*
X0031400Y0139282D01*
X0031400Y0137684D02*
X0035200Y0137684D01*
X0035200Y0136085D02*
X0031400Y0136085D01*
X0031400Y0134487D02*
X0035200Y0134487D01*
X0035200Y0132888D02*
X0031400Y0132888D01*
X0031400Y0131290D02*
X0035200Y0131290D01*
X0035200Y0129691D02*
X0031400Y0129691D01*
X0031400Y0128093D02*
X0035200Y0128093D01*
X0035200Y0126494D02*
X0031400Y0126494D01*
X0030666Y0124896D02*
X0035200Y0124896D01*
X0035200Y0123297D02*
X0029067Y0123297D01*
X0027469Y0121699D02*
X0035200Y0121699D01*
X0035200Y0120100D02*
X0026900Y0120100D01*
X0026900Y0118502D02*
X0035200Y0118502D01*
X0035200Y0116903D02*
X0026900Y0116903D01*
X0026900Y0115305D02*
X0035200Y0115305D01*
X0035200Y0113706D02*
X0026900Y0113706D01*
X0026900Y0112108D02*
X0035200Y0112108D01*
X0035200Y0110509D02*
X0026900Y0110509D01*
X0026900Y0108911D02*
X0035200Y0108911D01*
X0035200Y0107312D02*
X0027052Y0107312D01*
X0028173Y0105714D02*
X0035200Y0105714D01*
X0034093Y0104115D02*
X0028381Y0104115D01*
X0027855Y0102517D02*
X0033719Y0102517D01*
X0085042Y0102517D02*
X0095558Y0102517D01*
X0095558Y0104115D02*
X0085042Y0104115D01*
X0085042Y0105714D02*
X0095558Y0105714D01*
X0095558Y0107312D02*
X0085042Y0107312D01*
X0085042Y0108911D02*
X0095558Y0108911D01*
X0095558Y0110509D02*
X0085042Y0110509D01*
X0085042Y0112108D02*
X0095558Y0112108D01*
X0095558Y0113706D02*
X0085042Y0113706D01*
X0085042Y0115305D02*
X0095558Y0115305D01*
X0095558Y0116903D02*
X0085042Y0116903D01*
X0085042Y0118502D02*
X0095558Y0118502D01*
X0095558Y0120100D02*
X0085042Y0120100D01*
X0085042Y0121699D02*
X0095558Y0121699D01*
X0095558Y0123297D02*
X0085042Y0123297D01*
X0085042Y0124896D02*
X0095558Y0124896D01*
X0095558Y0126494D02*
X0085042Y0126494D01*
X0085042Y0128093D02*
X0095558Y0128093D01*
X0095558Y0129691D02*
X0085042Y0129691D01*
X0085042Y0131290D02*
X0095558Y0131290D01*
X0095558Y0132888D02*
X0085042Y0132888D01*
X0085042Y0134487D02*
X0095558Y0134487D01*
X0095558Y0136085D02*
X0085042Y0136085D01*
X0085042Y0137684D02*
X0095558Y0137684D01*
X0095558Y0139282D02*
X0085042Y0139282D01*
X0085042Y0140881D02*
X0095558Y0140881D01*
X0095558Y0142479D02*
X0085042Y0142479D01*
X0085042Y0144078D02*
X0095558Y0144078D01*
X0095558Y0145676D02*
X0085042Y0145676D01*
X0085042Y0147275D02*
X0095558Y0147275D01*
X0095558Y0148873D02*
X0085042Y0148873D01*
X0085042Y0150472D02*
X0095558Y0150472D01*
X0095558Y0152070D02*
X0085042Y0152070D01*
X0085042Y0153669D02*
X0095558Y0153669D01*
X0095558Y0155268D02*
X0085042Y0155268D01*
X0085042Y0156866D02*
X0095558Y0156866D01*
X0095558Y0158465D02*
X0085042Y0158465D01*
X0085042Y0160063D02*
X0095558Y0160063D01*
X0095558Y0161662D02*
X0085042Y0161662D01*
X0085042Y0163260D02*
X0095558Y0163260D01*
X0095558Y0164859D02*
X0085042Y0164859D01*
X0085042Y0166457D02*
X0095558Y0166457D01*
X0095558Y0168056D02*
X0085042Y0168056D01*
X0085042Y0169654D02*
X0095558Y0169654D01*
X0095558Y0171253D02*
X0085042Y0171253D01*
X0085042Y0172851D02*
X0095558Y0172851D01*
X0095558Y0174450D02*
X0085042Y0174450D01*
X0085042Y0176048D02*
X0095558Y0176048D01*
X0095558Y0177647D02*
X0085042Y0177647D01*
X0085042Y0179245D02*
X0095558Y0179245D01*
X0095558Y0180844D02*
X0085042Y0180844D01*
X0085042Y0182442D02*
X0095558Y0182442D01*
X0095558Y0184041D02*
X0085042Y0184041D01*
X0085042Y0185639D02*
X0095558Y0185639D01*
X0095558Y0187238D02*
X0085042Y0187238D01*
X0085042Y0188836D02*
X0095558Y0188836D01*
X0095558Y0190435D02*
X0085042Y0190435D01*
X0085042Y0192033D02*
X0095558Y0192033D01*
X0095558Y0193632D02*
X0085042Y0193632D01*
X0085042Y0195230D02*
X0095558Y0195230D01*
X0095558Y0196829D02*
X0085042Y0196829D01*
X0085042Y0198427D02*
X0095558Y0198427D01*
X0095558Y0200026D02*
X0085042Y0200026D01*
X0084814Y0201624D02*
X0095786Y0201624D01*
X0096932Y0203223D02*
X0083668Y0203223D01*
X0082070Y0204821D02*
X0098530Y0204821D01*
X0100129Y0206420D02*
X0080471Y0206420D01*
X0078873Y0208018D02*
X0101727Y0208018D01*
X0103326Y0209617D02*
X0077274Y0209617D01*
X0075676Y0211215D02*
X0104924Y0211215D01*
X0106523Y0212814D02*
X0074077Y0212814D01*
X0071969Y0214412D02*
X0108631Y0214412D01*
X0114001Y0219208D02*
X0066599Y0219208D01*
X0065001Y0217609D02*
X0115599Y0217609D01*
X0117198Y0216011D02*
X0063402Y0216011D01*
X0062131Y0214412D02*
X0061804Y0214412D01*
X0059700Y0211215D02*
X0058607Y0211215D01*
X0059976Y0209617D02*
X0057008Y0209617D01*
X0055410Y0208018D02*
X0061190Y0208018D01*
X0053900Y0206420D02*
X0070289Y0206420D01*
X0071887Y0204821D02*
X0053900Y0204821D01*
X0053900Y0203223D02*
X0073486Y0203223D01*
X0075084Y0201624D02*
X0053900Y0201624D01*
X0053900Y0200026D02*
X0076683Y0200026D01*
X0077842Y0198427D02*
X0053900Y0198427D01*
X0053900Y0196829D02*
X0077842Y0196829D01*
X0077842Y0195230D02*
X0053900Y0195230D01*
X0053900Y0193632D02*
X0077842Y0193632D01*
X0077842Y0192033D02*
X0053900Y0192033D01*
X0053900Y0190435D02*
X0077842Y0190435D01*
X0077842Y0188836D02*
X0053900Y0188836D01*
X0053900Y0187238D02*
X0077842Y0187238D01*
X0077842Y0185639D02*
X0053900Y0185639D01*
X0053900Y0184041D02*
X0077842Y0184041D01*
X0077842Y0182442D02*
X0053900Y0182442D01*
X0053900Y0180844D02*
X0077842Y0180844D01*
X0077842Y0179245D02*
X0053900Y0179245D01*
X0053900Y0177647D02*
X0077842Y0177647D01*
X0077842Y0176048D02*
X0053900Y0176048D01*
X0053900Y0174450D02*
X0077842Y0174450D01*
X0077842Y0172851D02*
X0053900Y0172851D01*
X0053900Y0171253D02*
X0077842Y0171253D01*
X0077842Y0169654D02*
X0053900Y0169654D01*
X0053900Y0168056D02*
X0077842Y0168056D01*
X0077842Y0166457D02*
X0053900Y0166457D01*
X0053900Y0164859D02*
X0077842Y0164859D01*
X0077842Y0163260D02*
X0053900Y0163260D01*
X0053849Y0161662D02*
X0077842Y0161662D01*
X0102758Y0161662D02*
X0126700Y0161662D01*
X0126700Y0163260D02*
X0102758Y0163260D01*
X0102758Y0164859D02*
X0126700Y0164859D01*
X0126700Y0166457D02*
X0102758Y0166457D01*
X0102758Y0168056D02*
X0126700Y0168056D01*
X0126700Y0169654D02*
X0102758Y0169654D01*
X0102758Y0171253D02*
X0126700Y0171253D01*
X0126700Y0172851D02*
X0102758Y0172851D01*
X0102758Y0174450D02*
X0126700Y0174450D01*
X0126700Y0176048D02*
X0102758Y0176048D01*
X0102758Y0177647D02*
X0126700Y0177647D01*
X0126700Y0179245D02*
X0102758Y0179245D01*
X0102758Y0180844D02*
X0126700Y0180844D01*
X0126700Y0182442D02*
X0102758Y0182442D01*
X0102758Y0184041D02*
X0126700Y0184041D01*
X0126700Y0185639D02*
X0102758Y0185639D01*
X0102758Y0187238D02*
X0126700Y0187238D01*
X0126700Y0188836D02*
X0102758Y0188836D01*
X0102758Y0190435D02*
X0126700Y0190435D01*
X0126700Y0192033D02*
X0102758Y0192033D01*
X0102758Y0193632D02*
X0126700Y0193632D01*
X0126700Y0195230D02*
X0102758Y0195230D01*
X0102758Y0196829D02*
X0126700Y0196829D01*
X0126700Y0198427D02*
X0102758Y0198427D01*
X0103917Y0200026D02*
X0126700Y0200026D01*
X0126700Y0201624D02*
X0105516Y0201624D01*
X0107114Y0203223D02*
X0126700Y0203223D01*
X0126700Y0204821D02*
X0108713Y0204821D01*
X0110311Y0206420D02*
X0126700Y0206420D01*
X0125190Y0208018D02*
X0119410Y0208018D01*
X0120624Y0209617D02*
X0123592Y0209617D01*
X0121993Y0211215D02*
X0120900Y0211215D01*
X0118796Y0214412D02*
X0118469Y0214412D01*
X0124183Y0219208D02*
X0134200Y0219208D01*
X0134200Y0220806D02*
X0122585Y0220806D01*
X0120986Y0222405D02*
X0134200Y0222405D01*
X0134200Y0224003D02*
X0119388Y0224003D01*
X0118400Y0225602D02*
X0134200Y0225602D01*
X0134200Y0227201D02*
X0118400Y0227201D01*
X0118400Y0228799D02*
X0134200Y0228799D01*
X0134200Y0230398D02*
X0118400Y0230398D01*
X0118400Y0231996D02*
X0134200Y0231996D01*
X0134200Y0233595D02*
X0118400Y0233595D01*
X0118400Y0235193D02*
X0134200Y0235193D01*
X0134200Y0236792D02*
X0118400Y0236792D01*
X0118400Y0238390D02*
X0134200Y0238390D01*
X0134200Y0239989D02*
X0118400Y0239989D01*
X0118400Y0241587D02*
X0134200Y0241587D01*
X0134200Y0243186D02*
X0118400Y0243186D01*
X0118400Y0244784D02*
X0134200Y0244784D01*
X0134200Y0246383D02*
X0118400Y0246383D01*
X0118400Y0247981D02*
X0134200Y0247981D01*
X0134200Y0249580D02*
X0118400Y0249580D01*
X0118400Y0251178D02*
X0134599Y0251178D01*
X0136303Y0252777D02*
X0118400Y0252777D01*
X0118400Y0254375D02*
X0159955Y0254375D01*
X0161553Y0252777D02*
X0139297Y0252777D01*
X0141001Y0251178D02*
X0163152Y0251178D01*
X0164200Y0249580D02*
X0141400Y0249580D01*
X0141400Y0247981D02*
X0164200Y0247981D01*
X0164200Y0246383D02*
X0141400Y0246383D01*
X0141400Y0244784D02*
X0164200Y0244784D01*
X0164200Y0243186D02*
X0141400Y0243186D01*
X0141400Y0241587D02*
X0164200Y0241587D01*
X0164200Y0239989D02*
X0141400Y0239989D01*
X0141400Y0238390D02*
X0164200Y0238390D01*
X0164200Y0236792D02*
X0141400Y0236792D01*
X0141400Y0235193D02*
X0164200Y0235193D01*
X0164200Y0233595D02*
X0141400Y0233595D01*
X0141400Y0231996D02*
X0164200Y0231996D01*
X0164200Y0230398D02*
X0141400Y0230398D01*
X0141400Y0228799D02*
X0164200Y0228799D01*
X0164200Y0227201D02*
X0141400Y0227201D01*
X0141400Y0225602D02*
X0164200Y0225602D01*
X0164200Y0224003D02*
X0141400Y0224003D01*
X0141400Y0222405D02*
X0164200Y0222405D01*
X0164200Y0220806D02*
X0141400Y0220806D01*
X0141400Y0219208D02*
X0164200Y0219208D01*
X0164200Y0217609D02*
X0141400Y0217609D01*
X0141400Y0216011D02*
X0164200Y0216011D01*
X0164200Y0214412D02*
X0141246Y0214412D01*
X0140205Y0212814D02*
X0164200Y0212814D01*
X0164200Y0211215D02*
X0138607Y0211215D01*
X0137008Y0209617D02*
X0164200Y0209617D01*
X0164200Y0208018D02*
X0135410Y0208018D01*
X0133900Y0206420D02*
X0164200Y0206420D01*
X0164200Y0204821D02*
X0133900Y0204821D01*
X0133900Y0203223D02*
X0164200Y0203223D01*
X0164200Y0201624D02*
X0133900Y0201624D01*
X0133900Y0200026D02*
X0164200Y0200026D01*
X0164200Y0198427D02*
X0133900Y0198427D01*
X0133900Y0196829D02*
X0164200Y0196829D01*
X0164200Y0195230D02*
X0133900Y0195230D01*
X0133900Y0193632D02*
X0164200Y0193632D01*
X0164200Y0192033D02*
X0133900Y0192033D01*
X0133900Y0190435D02*
X0164200Y0190435D01*
X0159072Y0188836D02*
X0133900Y0188836D01*
X0133900Y0187238D02*
X0148068Y0187238D01*
X0146469Y0185639D02*
X0133900Y0185639D01*
X0133900Y0184041D02*
X0144871Y0184041D01*
X0143272Y0182442D02*
X0133900Y0182442D01*
X0133900Y0180844D02*
X0141674Y0180844D01*
X0140075Y0179245D02*
X0133900Y0179245D01*
X0133900Y0177647D02*
X0138477Y0177647D01*
X0136878Y0176048D02*
X0133900Y0176048D01*
X0139621Y0172851D02*
X0164200Y0172851D01*
X0164200Y0171253D02*
X0138881Y0171253D01*
X0138412Y0169654D02*
X0164200Y0169654D01*
X0164200Y0168056D02*
X0136342Y0168056D01*
X0134258Y0168056D02*
X0133900Y0168056D01*
X0133900Y0166457D02*
X0164200Y0166457D01*
X0164200Y0164859D02*
X0133900Y0164859D01*
X0133900Y0163260D02*
X0164200Y0163260D01*
X0164200Y0161662D02*
X0133900Y0161662D01*
X0133900Y0160063D02*
X0164200Y0160063D01*
X0164200Y0158465D02*
X0133353Y0158465D01*
X0127246Y0158465D02*
X0102758Y0158465D01*
X0102758Y0160063D02*
X0126700Y0160063D01*
X0141219Y0174450D02*
X0164200Y0174450D01*
X0164200Y0176048D02*
X0142818Y0176048D01*
X0144417Y0177647D02*
X0164200Y0177647D01*
X0164200Y0179245D02*
X0146015Y0179245D01*
X0147614Y0180844D02*
X0164200Y0180844D01*
X0164200Y0182442D02*
X0149212Y0182442D01*
X0150811Y0184041D02*
X0159195Y0184041D01*
X0171900Y0184041D02*
X0185447Y0184041D01*
X0187045Y0185639D02*
X0171900Y0185639D01*
X0171900Y0187238D02*
X0188644Y0187238D01*
X0190242Y0188836D02*
X0171900Y0188836D01*
X0171900Y0190435D02*
X0191841Y0190435D01*
X0193439Y0192033D02*
X0171900Y0192033D01*
X0171900Y0193632D02*
X0195038Y0193632D01*
X0196636Y0195230D02*
X0171900Y0195230D01*
X0171900Y0196829D02*
X0198235Y0196829D01*
X0199833Y0198427D02*
X0171900Y0198427D01*
X0171900Y0200026D02*
X0201432Y0200026D01*
X0203030Y0201624D02*
X0171900Y0201624D01*
X0171900Y0203223D02*
X0204629Y0203223D01*
X0206227Y0204821D02*
X0171900Y0204821D01*
X0171900Y0206420D02*
X0207826Y0206420D01*
X0209424Y0208018D02*
X0171900Y0208018D01*
X0171900Y0209617D02*
X0211023Y0209617D01*
X0212621Y0211215D02*
X0171900Y0211215D01*
X0171900Y0212814D02*
X0214220Y0212814D01*
X0215818Y0214412D02*
X0171900Y0214412D01*
X0171900Y0216011D02*
X0217417Y0216011D01*
X0219015Y0217609D02*
X0171900Y0217609D01*
X0171900Y0219208D02*
X0220614Y0219208D01*
X0222212Y0220806D02*
X0171900Y0220806D01*
X0171900Y0222405D02*
X0223811Y0222405D01*
X0225409Y0224003D02*
X0171900Y0224003D01*
X0171900Y0225602D02*
X0227008Y0225602D01*
X0228606Y0227201D02*
X0171900Y0227201D01*
X0171900Y0228799D02*
X0230205Y0228799D01*
X0231803Y0230398D02*
X0171900Y0230398D01*
X0171900Y0231996D02*
X0233402Y0231996D01*
X0235000Y0233595D02*
X0171900Y0233595D01*
X0171900Y0235193D02*
X0236599Y0235193D01*
X0238197Y0236792D02*
X0171900Y0236792D01*
X0171900Y0238390D02*
X0239796Y0238390D01*
X0241395Y0239989D02*
X0171900Y0239989D01*
X0171900Y0241587D02*
X0241400Y0241587D01*
X0241400Y0239994D02*
X0179487Y0178081D01*
X0178588Y0178081D01*
X0177271Y0177536D01*
X0176264Y0176529D01*
X0175719Y0175212D01*
X0175719Y0173788D01*
X0176264Y0172471D01*
X0176900Y0171836D01*
X0176900Y0151213D01*
X0176012Y0151581D01*
X0174588Y0151581D01*
X0173271Y0151036D01*
X0172264Y0150029D01*
X0171900Y0149149D01*
X0171900Y0253370D01*
X0170670Y0254600D01*
X0170670Y0254600D01*
X0166400Y0258870D01*
X0166400Y0276836D01*
X0167271Y0275964D01*
X0168588Y0275419D01*
X0169487Y0275419D01*
X0170900Y0274006D01*
X0170900Y0268023D01*
X0171265Y0267141D01*
X0180765Y0257641D01*
X0181441Y0256965D01*
X0182323Y0256600D01*
X0241136Y0256600D01*
X0241400Y0256336D01*
X0241400Y0239994D01*
X0243800Y0239000D02*
X0179300Y0174500D01*
X0179300Y0130500D01*
X0169300Y0120500D01*
X0165300Y0120500D01*
X0161920Y0121699D02*
X0158969Y0121699D01*
X0157900Y0120100D02*
X0161719Y0120100D01*
X0162252Y0118502D02*
X0157900Y0118502D01*
X0157900Y0116903D02*
X0174112Y0116903D01*
X0172944Y0115305D02*
X0157900Y0115305D01*
X0157900Y0113706D02*
X0172700Y0113706D01*
X0172700Y0112108D02*
X0157900Y0112108D01*
X0157900Y0110509D02*
X0172700Y0110509D01*
X0172700Y0108911D02*
X0157900Y0108911D01*
X0157900Y0107312D02*
X0172700Y0107312D01*
X0172700Y0105714D02*
X0157900Y0105714D01*
X0157900Y0104115D02*
X0172700Y0104115D01*
X0172700Y0102517D02*
X0157900Y0102517D01*
X0157900Y0100918D02*
X0172700Y0100918D01*
X0172700Y0099320D02*
X0158045Y0099320D01*
X0159170Y0097721D02*
X0172700Y0097721D01*
X0172700Y0096123D02*
X0159381Y0096123D01*
X0158858Y0094524D02*
X0172700Y0094524D01*
X0172700Y0092926D02*
X0156528Y0092926D01*
X0155072Y0092926D02*
X0144900Y0092926D01*
X0144900Y0094524D02*
X0152742Y0094524D01*
X0152219Y0096123D02*
X0144900Y0096123D01*
X0144900Y0097721D02*
X0152430Y0097721D01*
X0153555Y0099320D02*
X0144900Y0099320D01*
X0144900Y0100918D02*
X0153700Y0100918D01*
X0153700Y0102517D02*
X0144900Y0102517D01*
X0144900Y0104115D02*
X0153700Y0104115D01*
X0153700Y0105714D02*
X0144900Y0105714D01*
X0144900Y0107312D02*
X0153700Y0107312D01*
X0153700Y0108911D02*
X0144900Y0108911D01*
X0144900Y0110509D02*
X0153700Y0110509D01*
X0153700Y0112108D02*
X0144900Y0112108D01*
X0144900Y0113706D02*
X0153700Y0113706D01*
X0153700Y0115305D02*
X0144900Y0115305D01*
X0144900Y0116903D02*
X0153700Y0116903D01*
X0153700Y0118502D02*
X0145272Y0118502D01*
X0146870Y0120100D02*
X0153700Y0120100D01*
X0153700Y0121699D02*
X0148469Y0121699D01*
X0150067Y0123297D02*
X0154627Y0123297D01*
X0156226Y0124896D02*
X0151666Y0124896D01*
X0153264Y0126494D02*
X0157824Y0126494D01*
X0159423Y0128093D02*
X0154863Y0128093D01*
X0156461Y0129691D02*
X0161021Y0129691D01*
X0162620Y0131290D02*
X0158060Y0131290D01*
X0159658Y0132888D02*
X0164219Y0132888D01*
X0165817Y0134487D02*
X0161257Y0134487D01*
X0162855Y0136085D02*
X0167416Y0136085D01*
X0169014Y0137684D02*
X0164454Y0137684D01*
X0166052Y0139282D02*
X0170613Y0139282D01*
X0172211Y0140881D02*
X0167651Y0140881D01*
X0169249Y0142479D02*
X0173200Y0142479D01*
X0173200Y0144078D02*
X0170848Y0144078D01*
X0171900Y0145676D02*
X0172559Y0145676D01*
X0172708Y0150472D02*
X0171900Y0150472D01*
X0171900Y0152070D02*
X0176900Y0152070D01*
X0176900Y0153669D02*
X0171900Y0153669D01*
X0171900Y0155268D02*
X0176900Y0155268D01*
X0176900Y0156866D02*
X0171900Y0156866D01*
X0171900Y0158465D02*
X0176900Y0158465D01*
X0176900Y0160063D02*
X0171900Y0160063D01*
X0171900Y0161662D02*
X0176900Y0161662D01*
X0176900Y0163260D02*
X0171900Y0163260D01*
X0171900Y0164859D02*
X0176900Y0164859D01*
X0176900Y0166457D02*
X0171900Y0166457D01*
X0171900Y0168056D02*
X0176900Y0168056D01*
X0176900Y0169654D02*
X0171900Y0169654D01*
X0171900Y0171253D02*
X0176900Y0171253D01*
X0176107Y0172851D02*
X0171900Y0172851D01*
X0171900Y0174450D02*
X0175719Y0174450D01*
X0176065Y0176048D02*
X0171900Y0176048D01*
X0171900Y0177647D02*
X0177539Y0177647D01*
X0180651Y0179245D02*
X0171900Y0179245D01*
X0171900Y0180844D02*
X0182250Y0180844D01*
X0183848Y0182442D02*
X0171900Y0182442D01*
X0185400Y0171253D02*
X0237200Y0171253D01*
X0237200Y0172851D02*
X0186621Y0172851D01*
X0188219Y0174450D02*
X0237200Y0174450D01*
X0237200Y0176048D02*
X0189818Y0176048D01*
X0191417Y0177647D02*
X0237200Y0177647D01*
X0237200Y0179245D02*
X0193015Y0179245D01*
X0194614Y0180844D02*
X0237200Y0180844D01*
X0237200Y0182442D02*
X0196212Y0182442D01*
X0197811Y0184041D02*
X0204695Y0184041D01*
X0204264Y0184471D02*
X0205271Y0183464D01*
X0206588Y0182919D01*
X0208012Y0182919D01*
X0209329Y0183464D01*
X0210336Y0184471D01*
X0210881Y0185788D01*
X0210881Y0187111D01*
X0257689Y0233919D01*
X0259012Y0233919D01*
X0260329Y0234464D01*
X0261336Y0235471D01*
X0261881Y0236788D01*
X0261881Y0238212D01*
X0261336Y0239529D01*
X0260400Y0240464D01*
X0260400Y0273595D01*
X0262900Y0276095D01*
X0262900Y0279905D01*
X0260205Y0282600D01*
X0256395Y0282600D01*
X0253700Y0279905D01*
X0253700Y0276095D01*
X0256200Y0273595D01*
X0256200Y0240464D01*
X0255264Y0239529D01*
X0254719Y0238212D01*
X0254719Y0236889D01*
X0207911Y0190081D01*
X0206588Y0190081D01*
X0205271Y0189536D01*
X0204264Y0188529D01*
X0203719Y0187212D01*
X0203719Y0185788D01*
X0204264Y0184471D01*
X0203780Y0185639D02*
X0199409Y0185639D01*
X0201008Y0187238D02*
X0203729Y0187238D01*
X0204572Y0188836D02*
X0202606Y0188836D01*
X0204205Y0190435D02*
X0208265Y0190435D01*
X0209863Y0192033D02*
X0205803Y0192033D01*
X0207402Y0193632D02*
X0211462Y0193632D01*
X0213060Y0195230D02*
X0209000Y0195230D01*
X0210599Y0196829D02*
X0214659Y0196829D01*
X0216257Y0198427D02*
X0212197Y0198427D01*
X0213796Y0200026D02*
X0217856Y0200026D01*
X0219454Y0201624D02*
X0215394Y0201624D01*
X0216993Y0203223D02*
X0221053Y0203223D01*
X0222652Y0204821D02*
X0218591Y0204821D01*
X0220190Y0206420D02*
X0224250Y0206420D01*
X0225849Y0208018D02*
X0221788Y0208018D01*
X0223387Y0209617D02*
X0227447Y0209617D01*
X0229046Y0211215D02*
X0224985Y0211215D01*
X0226584Y0212814D02*
X0230644Y0212814D01*
X0232243Y0214412D02*
X0228182Y0214412D01*
X0229781Y0216011D02*
X0233841Y0216011D01*
X0235440Y0217609D02*
X0231379Y0217609D01*
X0232978Y0219208D02*
X0237038Y0219208D01*
X0238637Y0220806D02*
X0234576Y0220806D01*
X0236175Y0222405D02*
X0240235Y0222405D01*
X0241834Y0224003D02*
X0237773Y0224003D01*
X0239372Y0225602D02*
X0243432Y0225602D01*
X0245031Y0227201D02*
X0240970Y0227201D01*
X0242569Y0228799D02*
X0246629Y0228799D01*
X0248228Y0230398D02*
X0244167Y0230398D01*
X0245766Y0231996D02*
X0249826Y0231996D01*
X0251425Y0233595D02*
X0247364Y0233595D01*
X0248963Y0235193D02*
X0253023Y0235193D01*
X0254622Y0236792D02*
X0250400Y0236792D01*
X0250400Y0238390D02*
X0254793Y0238390D01*
X0255724Y0239989D02*
X0250400Y0239989D01*
X0250400Y0241587D02*
X0256200Y0241587D01*
X0256200Y0243186D02*
X0250400Y0243186D01*
X0250400Y0244784D02*
X0256200Y0244784D01*
X0256200Y0246383D02*
X0250400Y0246383D01*
X0250400Y0247981D02*
X0256200Y0247981D01*
X0256200Y0249580D02*
X0250400Y0249580D01*
X0250400Y0251178D02*
X0256200Y0251178D01*
X0256200Y0252777D02*
X0250400Y0252777D01*
X0250400Y0254375D02*
X0256200Y0254375D01*
X0256200Y0255974D02*
X0250400Y0255974D01*
X0250400Y0257572D02*
X0256200Y0257572D01*
X0256200Y0259171D02*
X0250400Y0259171D01*
X0250400Y0260769D02*
X0256200Y0260769D01*
X0256200Y0262368D02*
X0250400Y0262368D01*
X0250400Y0263966D02*
X0256200Y0263966D01*
X0256200Y0265565D02*
X0250400Y0265565D01*
X0250400Y0267163D02*
X0256200Y0267163D01*
X0256200Y0268762D02*
X0250400Y0268762D01*
X0250400Y0270360D02*
X0256200Y0270360D01*
X0256200Y0271959D02*
X0250400Y0271959D01*
X0250400Y0273557D02*
X0256200Y0273557D01*
X0254639Y0275156D02*
X0251961Y0275156D01*
X0252900Y0276754D02*
X0253700Y0276754D01*
X0253700Y0278353D02*
X0252900Y0278353D01*
X0252854Y0279951D02*
X0253746Y0279951D01*
X0255345Y0281550D02*
X0251255Y0281550D01*
X0251552Y0284747D02*
X0255048Y0284747D01*
X0256395Y0283400D02*
X0260205Y0283400D01*
X0262900Y0286095D01*
X0262900Y0289905D01*
X0260205Y0292600D01*
X0256395Y0292600D01*
X0253700Y0289905D01*
X0253700Y0286095D01*
X0256395Y0283400D01*
X0253700Y0286345D02*
X0252900Y0286345D01*
X0252900Y0287944D02*
X0253700Y0287944D01*
X0253700Y0289542D02*
X0252900Y0289542D01*
X0251664Y0291141D02*
X0254936Y0291141D01*
X0250400Y0292739D02*
X0278058Y0292739D01*
X0277376Y0294338D02*
X0250400Y0294338D01*
X0250400Y0295937D02*
X0276947Y0295937D01*
X0276800Y0297535D02*
X0250400Y0297535D01*
X0250400Y0299134D02*
X0276800Y0299134D01*
X0277126Y0300732D02*
X0250038Y0300732D01*
X0248439Y0302331D02*
X0277555Y0302331D01*
X0278444Y0303929D02*
X0246841Y0303929D01*
X0245242Y0305528D02*
X0279564Y0305528D01*
X0281163Y0307126D02*
X0134400Y0307126D01*
X0134294Y0305528D02*
X0144858Y0305528D01*
X0143259Y0303929D02*
X0133320Y0303929D01*
X0131722Y0302331D02*
X0141661Y0302331D01*
X0140062Y0300732D02*
X0130123Y0300732D01*
X0128525Y0299134D02*
X0135869Y0299134D01*
X0134853Y0297535D02*
X0126926Y0297535D01*
X0125328Y0295937D02*
X0134719Y0295937D01*
X0135398Y0294338D02*
X0123729Y0294338D01*
X0122131Y0292739D02*
X0136200Y0292739D01*
X0136200Y0291141D02*
X0120532Y0291141D01*
X0118934Y0289542D02*
X0136200Y0289542D01*
X0136200Y0287944D02*
X0118400Y0287944D01*
X0118400Y0286345D02*
X0136200Y0286345D01*
X0136200Y0284747D02*
X0118400Y0284747D01*
X0118400Y0283148D02*
X0136200Y0283148D01*
X0136200Y0281550D02*
X0118400Y0281550D01*
X0118400Y0279951D02*
X0136200Y0279951D01*
X0136200Y0278353D02*
X0118400Y0278353D01*
X0118400Y0276754D02*
X0137576Y0276754D01*
X0139174Y0275156D02*
X0118400Y0275156D01*
X0118400Y0273557D02*
X0140773Y0273557D01*
X0142371Y0271959D02*
X0118400Y0271959D01*
X0118400Y0270360D02*
X0143970Y0270360D01*
X0145568Y0268762D02*
X0118400Y0268762D01*
X0118400Y0267163D02*
X0147167Y0267163D01*
X0148765Y0265565D02*
X0118400Y0265565D01*
X0118400Y0263966D02*
X0150364Y0263966D01*
X0151962Y0262368D02*
X0118400Y0262368D01*
X0118400Y0260769D02*
X0153561Y0260769D01*
X0155159Y0259171D02*
X0118400Y0259171D01*
X0118400Y0257572D02*
X0156758Y0257572D01*
X0158356Y0255974D02*
X0118400Y0255974D01*
X0111200Y0255974D02*
X0067917Y0255974D01*
X0069127Y0254375D02*
X0111200Y0254375D01*
X0111200Y0252777D02*
X0069400Y0252777D01*
X0069400Y0251178D02*
X0111200Y0251178D01*
X0111200Y0249580D02*
X0069400Y0249580D01*
X0069400Y0247981D02*
X0111200Y0247981D01*
X0111200Y0246383D02*
X0069400Y0246383D01*
X0069400Y0244784D02*
X0111200Y0244784D01*
X0111200Y0243186D02*
X0069400Y0243186D01*
X0069400Y0241587D02*
X0111200Y0241587D01*
X0111200Y0239989D02*
X0069400Y0239989D01*
X0069400Y0238390D02*
X0111200Y0238390D01*
X0111200Y0236792D02*
X0069400Y0236792D01*
X0069400Y0235193D02*
X0111200Y0235193D01*
X0111200Y0233595D02*
X0069400Y0233595D01*
X0069400Y0231996D02*
X0111200Y0231996D01*
X0111200Y0230398D02*
X0069400Y0230398D01*
X0069400Y0228799D02*
X0111200Y0228799D01*
X0111200Y0227201D02*
X0069400Y0227201D01*
X0069400Y0225602D02*
X0111200Y0225602D01*
X0111200Y0224003D02*
X0069400Y0224003D01*
X0069243Y0222405D02*
X0111357Y0222405D01*
X0112402Y0220806D02*
X0068198Y0220806D01*
X0062200Y0225602D02*
X0049700Y0225602D01*
X0049700Y0227201D02*
X0062200Y0227201D01*
X0062200Y0228799D02*
X0049700Y0228799D01*
X0049700Y0230398D02*
X0062200Y0230398D01*
X0062200Y0231996D02*
X0049700Y0231996D01*
X0049700Y0233595D02*
X0062200Y0233595D01*
X0062200Y0235193D02*
X0049700Y0235193D01*
X0049700Y0236792D02*
X0062200Y0236792D01*
X0062200Y0238390D02*
X0049700Y0238390D01*
X0049700Y0239989D02*
X0062200Y0239989D01*
X0062200Y0241587D02*
X0049700Y0241587D01*
X0049700Y0243186D02*
X0062200Y0243186D01*
X0062200Y0244784D02*
X0050478Y0244784D01*
X0049700Y0244006D02*
X0081113Y0275419D01*
X0082012Y0275419D01*
X0083329Y0275964D01*
X0084336Y0276971D01*
X0084881Y0278288D01*
X0084881Y0279712D01*
X0084336Y0281029D01*
X0083329Y0282036D01*
X0082012Y0282581D01*
X0080588Y0282581D01*
X0079271Y0282036D01*
X0078264Y0281029D01*
X0077719Y0279712D01*
X0077719Y0278813D01*
X0045941Y0247035D01*
X0045941Y0247035D01*
X0045265Y0246359D01*
X0044900Y0245477D01*
X0044900Y0218494D01*
X0043306Y0216900D01*
X0041964Y0216900D01*
X0041329Y0217536D01*
X0040012Y0218081D01*
X0038588Y0218081D01*
X0037271Y0217536D01*
X0036264Y0216529D01*
X0035719Y0215212D01*
X0035719Y0213788D01*
X0036264Y0212471D01*
X0037271Y0211464D01*
X0038588Y0210919D01*
X0040012Y0210919D01*
X0041329Y0211464D01*
X0041964Y0212100D01*
X0044777Y0212100D01*
X0045659Y0212465D01*
X0048659Y0215465D01*
X0049335Y0216141D01*
X0049700Y0217023D01*
X0049700Y0244006D01*
X0047300Y0245000D02*
X0081300Y0279000D01*
X0083815Y0281550D02*
X0111200Y0281550D01*
X0111200Y0283148D02*
X0072418Y0283148D01*
X0070820Y0281550D02*
X0078785Y0281550D01*
X0077818Y0279951D02*
X0034913Y0279951D01*
X0035823Y0278353D02*
X0077259Y0278353D01*
X0075660Y0276754D02*
X0035867Y0276754D01*
X0035020Y0275156D02*
X0074062Y0275156D01*
X0072463Y0273557D02*
X0034807Y0273557D01*
X0035779Y0271959D02*
X0070865Y0271959D01*
X0069266Y0270360D02*
X0035881Y0270360D01*
X0035126Y0268762D02*
X0067668Y0268762D01*
X0066069Y0267163D02*
X0035201Y0267163D01*
X0035881Y0265565D02*
X0064471Y0265565D01*
X0062872Y0263966D02*
X0035748Y0263966D01*
X0034732Y0262368D02*
X0061274Y0262368D01*
X0059675Y0260769D02*
X0031039Y0260769D01*
X0029441Y0259171D02*
X0058077Y0259171D01*
X0056478Y0257572D02*
X0027842Y0257572D01*
X0027400Y0255974D02*
X0054880Y0255974D01*
X0053281Y0254375D02*
X0027400Y0254375D01*
X0027400Y0252777D02*
X0051683Y0252777D01*
X0050084Y0251178D02*
X0027400Y0251178D01*
X0027400Y0249580D02*
X0048486Y0249580D01*
X0046887Y0247981D02*
X0027400Y0247981D01*
X0027400Y0246383D02*
X0045289Y0246383D01*
X0044900Y0244784D02*
X0027400Y0244784D01*
X0027400Y0243186D02*
X0044900Y0243186D01*
X0044900Y0241587D02*
X0027400Y0241587D01*
X0027400Y0239989D02*
X0044900Y0239989D01*
X0044900Y0238390D02*
X0027400Y0238390D01*
X0027400Y0236792D02*
X0044900Y0236792D01*
X0044900Y0235193D02*
X0027400Y0235193D01*
X0027400Y0233595D02*
X0044900Y0233595D01*
X0044900Y0231996D02*
X0027400Y0231996D01*
X0027400Y0230398D02*
X0044900Y0230398D01*
X0044900Y0228799D02*
X0027400Y0228799D01*
X0027400Y0227201D02*
X0044900Y0227201D01*
X0044900Y0225602D02*
X0027400Y0225602D01*
X0027400Y0224003D02*
X0044900Y0224003D01*
X0044900Y0222405D02*
X0027400Y0222405D01*
X0027400Y0220806D02*
X0044900Y0220806D01*
X0044900Y0219208D02*
X0027400Y0219208D01*
X0027400Y0217609D02*
X0037449Y0217609D01*
X0036050Y0216011D02*
X0027400Y0216011D01*
X0027400Y0214412D02*
X0035719Y0214412D01*
X0036122Y0212814D02*
X0027400Y0212814D01*
X0027400Y0211215D02*
X0037872Y0211215D01*
X0040728Y0211215D02*
X0048424Y0211215D01*
X0047073Y0209617D02*
X0027400Y0209617D01*
X0027400Y0208018D02*
X0046700Y0208018D01*
X0046700Y0206420D02*
X0027400Y0206420D01*
X0027400Y0204821D02*
X0046700Y0204821D01*
X0046700Y0203223D02*
X0027400Y0203223D01*
X0027400Y0201624D02*
X0046700Y0201624D01*
X0046700Y0200026D02*
X0027400Y0200026D01*
X0027400Y0198427D02*
X0046700Y0198427D01*
X0046700Y0196829D02*
X0027400Y0196829D01*
X0027400Y0195230D02*
X0046700Y0195230D01*
X0046700Y0193632D02*
X0027400Y0193632D01*
X0032620Y0180844D02*
X0032986Y0180844D01*
X0032881Y0179245D02*
X0033719Y0179245D01*
X0034192Y0177647D02*
X0032408Y0177647D01*
X0031400Y0176048D02*
X0035200Y0176048D01*
X0035200Y0174450D02*
X0031400Y0174450D01*
X0039300Y0214500D02*
X0044300Y0214500D01*
X0047300Y0217500D01*
X0047300Y0245000D01*
X0052077Y0246383D02*
X0062200Y0246383D01*
X0062200Y0247981D02*
X0053675Y0247981D01*
X0055274Y0249580D02*
X0062200Y0249580D01*
X0062200Y0251178D02*
X0056872Y0251178D01*
X0058471Y0252777D02*
X0062200Y0252777D01*
X0062473Y0254375D02*
X0060069Y0254375D01*
X0061668Y0255974D02*
X0063683Y0255974D01*
X0063266Y0257572D02*
X0111200Y0257572D01*
X0111200Y0259171D02*
X0064865Y0259171D01*
X0066463Y0260769D02*
X0111200Y0260769D01*
X0111200Y0262368D02*
X0068062Y0262368D01*
X0069660Y0263966D02*
X0111200Y0263966D01*
X0111200Y0265565D02*
X0071259Y0265565D01*
X0072857Y0267163D02*
X0111200Y0267163D01*
X0111200Y0268762D02*
X0074456Y0268762D01*
X0076054Y0270360D02*
X0111200Y0270360D01*
X0111200Y0271959D02*
X0077653Y0271959D01*
X0079251Y0273557D02*
X0111200Y0273557D01*
X0111200Y0275156D02*
X0080850Y0275156D01*
X0084119Y0276754D02*
X0111200Y0276754D01*
X0111200Y0278353D02*
X0084881Y0278353D01*
X0084782Y0279951D02*
X0111200Y0279951D01*
X0111200Y0284747D02*
X0074017Y0284747D01*
X0075615Y0286345D02*
X0111200Y0286345D01*
X0111200Y0287944D02*
X0077214Y0287944D01*
X0078812Y0289542D02*
X0111200Y0289542D01*
X0111200Y0291141D02*
X0080411Y0291141D01*
X0082009Y0292739D02*
X0111948Y0292739D01*
X0113547Y0294338D02*
X0086202Y0294338D01*
X0086881Y0295937D02*
X0115145Y0295937D01*
X0116744Y0297535D02*
X0086747Y0297535D01*
X0085731Y0299134D02*
X0118342Y0299134D01*
X0119941Y0300732D02*
X0029474Y0300732D01*
X0029800Y0299134D02*
X0080869Y0299134D01*
X0079853Y0297535D02*
X0029800Y0297535D01*
X0029653Y0295937D02*
X0079267Y0295937D01*
X0077668Y0294338D02*
X0029224Y0294338D01*
X0028542Y0292739D02*
X0076070Y0292739D01*
X0074471Y0291141D02*
X0051575Y0291141D01*
X0053037Y0289542D02*
X0072873Y0289542D01*
X0071274Y0287944D02*
X0053381Y0287944D01*
X0052991Y0286345D02*
X0069676Y0286345D01*
X0068077Y0284747D02*
X0051304Y0284747D01*
X0048650Y0284600D02*
X0029930Y0284600D01*
X0011400Y0266070D01*
X0011400Y0266630D01*
X0030670Y0285900D01*
X0046836Y0285900D01*
X0047771Y0284964D01*
X0048650Y0284600D01*
X0048296Y0284747D02*
X0029517Y0284747D01*
X0028479Y0283148D02*
X0027918Y0283148D01*
X0026880Y0281550D02*
X0026320Y0281550D01*
X0025282Y0279951D02*
X0024721Y0279951D01*
X0023683Y0278353D02*
X0023123Y0278353D01*
X0022085Y0276754D02*
X0021524Y0276754D01*
X0020486Y0275156D02*
X0019926Y0275156D01*
X0018888Y0273557D02*
X0018327Y0273557D01*
X0017289Y0271959D02*
X0016729Y0271959D01*
X0015690Y0270360D02*
X0015130Y0270360D01*
X0014092Y0268762D02*
X0013532Y0268762D01*
X0012493Y0267163D02*
X0011933Y0267163D01*
X0009190Y0270360D02*
X0008100Y0270360D01*
X0008100Y0271959D02*
X0010789Y0271959D01*
X0012387Y0273557D02*
X0008100Y0273557D01*
X0008100Y0275156D02*
X0013986Y0275156D01*
X0015585Y0276754D02*
X0008100Y0276754D01*
X0008100Y0278353D02*
X0017183Y0278353D01*
X0018782Y0279951D02*
X0008100Y0279951D01*
X0008100Y0281550D02*
X0020380Y0281550D01*
X0021979Y0283148D02*
X0008100Y0283148D01*
X0008100Y0284747D02*
X0023577Y0284747D01*
X0025176Y0286345D02*
X0008100Y0286345D01*
X0008100Y0287944D02*
X0012718Y0287944D01*
X0010494Y0289542D02*
X0008100Y0289542D01*
X0008100Y0291141D02*
X0008981Y0291141D01*
X0008100Y0303333D02*
X0008100Y0308200D01*
X0012967Y0308200D01*
X0011239Y0307202D01*
X0009098Y0305061D01*
X0008100Y0303333D01*
X0008100Y0303929D02*
X0008444Y0303929D01*
X0008100Y0305528D02*
X0009564Y0305528D01*
X0008100Y0307126D02*
X0011163Y0307126D01*
X0025437Y0307126D02*
X0126335Y0307126D01*
X0124736Y0305528D02*
X0027036Y0305528D01*
X0028156Y0303929D02*
X0123138Y0303929D01*
X0121539Y0302331D02*
X0029045Y0302331D01*
X0027619Y0291141D02*
X0048025Y0291141D01*
X0028373Y0289542D02*
X0026106Y0289542D01*
X0026774Y0287944D02*
X0023882Y0287944D01*
X0028719Y0277449D02*
X0028719Y0276889D01*
X0015400Y0263570D01*
X0015400Y0264130D01*
X0028719Y0277449D01*
X0028585Y0276754D02*
X0028024Y0276754D01*
X0026986Y0275156D02*
X0026426Y0275156D01*
X0025388Y0273557D02*
X0024827Y0273557D01*
X0023789Y0271959D02*
X0023229Y0271959D01*
X0022190Y0270360D02*
X0021630Y0270360D01*
X0020592Y0268762D02*
X0020032Y0268762D01*
X0018993Y0267163D02*
X0018433Y0267163D01*
X0017395Y0265565D02*
X0016835Y0265565D01*
X0015796Y0263966D02*
X0015400Y0263966D01*
X0019400Y0261630D02*
X0028719Y0270949D01*
X0028719Y0270389D01*
X0019400Y0261070D01*
X0019400Y0261630D01*
X0020138Y0262368D02*
X0020698Y0262368D01*
X0021736Y0263966D02*
X0022296Y0263966D01*
X0023335Y0265565D02*
X0023895Y0265565D01*
X0024933Y0267163D02*
X0025493Y0267163D01*
X0026532Y0268762D02*
X0027092Y0268762D01*
X0028130Y0270360D02*
X0028690Y0270360D01*
X0028719Y0264449D02*
X0028719Y0264389D01*
X0023400Y0259070D01*
X0023400Y0259130D01*
X0028719Y0264449D01*
X0028296Y0263966D02*
X0028236Y0263966D01*
X0026698Y0262368D02*
X0026638Y0262368D01*
X0025099Y0260769D02*
X0025039Y0260769D01*
X0023501Y0259171D02*
X0023441Y0259171D01*
X0049700Y0224003D02*
X0061212Y0224003D01*
X0059614Y0222405D02*
X0049700Y0222405D01*
X0049700Y0220806D02*
X0058015Y0220806D01*
X0056417Y0219208D02*
X0049700Y0219208D01*
X0049700Y0217609D02*
X0054818Y0217609D01*
X0053220Y0216011D02*
X0049205Y0216011D01*
X0047607Y0214412D02*
X0051621Y0214412D01*
X0050023Y0212814D02*
X0046008Y0212814D01*
X0044015Y0217609D02*
X0041151Y0217609D01*
X0102758Y0156866D02*
X0164200Y0156866D01*
X0164200Y0155268D02*
X0102758Y0155268D01*
X0102758Y0153669D02*
X0163999Y0153669D01*
X0162401Y0152070D02*
X0102758Y0152070D01*
X0102758Y0150472D02*
X0160802Y0150472D01*
X0159204Y0148873D02*
X0102758Y0148873D01*
X0102758Y0147275D02*
X0157605Y0147275D01*
X0156007Y0145676D02*
X0102758Y0145676D01*
X0102758Y0144078D02*
X0154408Y0144078D01*
X0152810Y0142479D02*
X0102758Y0142479D01*
X0102758Y0140881D02*
X0103555Y0140881D01*
X0106045Y0140881D02*
X0151211Y0140881D01*
X0149613Y0139282D02*
X0107958Y0139282D01*
X0108400Y0137684D02*
X0148014Y0137684D01*
X0146416Y0136085D02*
X0108400Y0136085D01*
X0108400Y0134487D02*
X0144817Y0134487D01*
X0143219Y0132888D02*
X0108400Y0132888D01*
X0108400Y0131290D02*
X0141620Y0131290D01*
X0140021Y0129691D02*
X0108400Y0129691D01*
X0108400Y0128093D02*
X0138423Y0128093D01*
X0136824Y0126494D02*
X0108400Y0126494D01*
X0108400Y0124896D02*
X0135700Y0124896D01*
X0135700Y0123297D02*
X0108400Y0123297D01*
X0108400Y0121699D02*
X0135700Y0121699D01*
X0135700Y0120100D02*
X0108400Y0120100D01*
X0108400Y0118502D02*
X0135700Y0118502D01*
X0135700Y0116903D02*
X0108400Y0116903D01*
X0108400Y0115305D02*
X0135700Y0115305D01*
X0135700Y0113706D02*
X0108400Y0113706D01*
X0108400Y0112108D02*
X0135700Y0112108D01*
X0135700Y0110509D02*
X0108400Y0110509D01*
X0108400Y0108911D02*
X0135700Y0108911D01*
X0135700Y0107312D02*
X0108400Y0107312D01*
X0108400Y0105714D02*
X0135700Y0105714D01*
X0135700Y0104115D02*
X0108400Y0104115D01*
X0108400Y0102517D02*
X0135700Y0102517D01*
X0135700Y0100918D02*
X0108400Y0100918D01*
X0108400Y0099320D02*
X0135700Y0099320D01*
X0135700Y0097721D02*
X0108400Y0097721D01*
X0108400Y0096123D02*
X0135700Y0096123D01*
X0135700Y0094524D02*
X0108400Y0094524D01*
X0108400Y0092926D02*
X0135700Y0092926D01*
X0135700Y0091327D02*
X0108400Y0091327D01*
X0108400Y0089729D02*
X0135700Y0089729D01*
X0135700Y0088130D02*
X0108400Y0088130D01*
X0108400Y0086532D02*
X0135700Y0086532D01*
X0135700Y0084933D02*
X0108400Y0084933D01*
X0108400Y0083334D02*
X0135700Y0083334D01*
X0135700Y0081736D02*
X0108400Y0081736D01*
X0108400Y0080137D02*
X0135700Y0080137D01*
X0135700Y0078539D02*
X0108400Y0078539D01*
X0108400Y0076940D02*
X0135176Y0076940D01*
X0134273Y0075342D02*
X0108400Y0075342D01*
X0108400Y0073743D02*
X0134237Y0073743D01*
X0135091Y0072145D02*
X0108400Y0072145D01*
X0108400Y0070546D02*
X0172700Y0070546D01*
X0172700Y0068948D02*
X0108400Y0068948D01*
X0108400Y0067349D02*
X0172880Y0067349D01*
X0173958Y0065751D02*
X0108400Y0065751D01*
X0108400Y0064152D02*
X0203842Y0064152D01*
X0203842Y0062554D02*
X0108400Y0062554D01*
X0108400Y0060955D02*
X0203842Y0060955D01*
X0203842Y0059357D02*
X0191034Y0059357D01*
X0192633Y0057758D02*
X0203842Y0057758D01*
X0203842Y0056160D02*
X0194231Y0056160D01*
X0195830Y0054561D02*
X0203842Y0054561D01*
X0203842Y0052963D02*
X0197428Y0052963D01*
X0199027Y0051364D02*
X0203842Y0051364D01*
X0203842Y0049766D02*
X0200625Y0049766D01*
X0202224Y0048167D02*
X0203842Y0048167D01*
X0203822Y0046569D02*
X0203842Y0046569D01*
X0203842Y0040175D02*
X0203179Y0040175D01*
X0203842Y0038576D02*
X0102758Y0038576D01*
X0102758Y0036978D02*
X0203842Y0036978D01*
X0203842Y0035379D02*
X0102758Y0035379D01*
X0102758Y0033781D02*
X0203842Y0033781D01*
X0203842Y0032182D02*
X0102758Y0032182D01*
X0102758Y0030584D02*
X0203842Y0030584D01*
X0203544Y0028985D02*
X0103056Y0028985D01*
X0103136Y0027387D02*
X0203464Y0027387D01*
X0204052Y0025788D02*
X0102548Y0025788D01*
X0100354Y0024190D02*
X0206246Y0024190D01*
X0208637Y0024190D02*
X0212152Y0024190D01*
X0214543Y0024190D02*
X0218057Y0024190D01*
X0220448Y0024190D02*
X0223963Y0024190D01*
X0226354Y0024190D02*
X0277415Y0024190D01*
X0276987Y0025788D02*
X0228548Y0025788D01*
X0229136Y0027387D02*
X0276800Y0027387D01*
X0276800Y0028985D02*
X0229056Y0028985D01*
X0228758Y0030584D02*
X0277087Y0030584D01*
X0277515Y0032182D02*
X0228758Y0032182D01*
X0228758Y0033781D02*
X0278358Y0033781D01*
X0279416Y0035379D02*
X0228758Y0035379D01*
X0228758Y0036978D02*
X0281014Y0036978D01*
X0283619Y0038576D02*
X0228758Y0038576D01*
X0228758Y0040175D02*
X0229421Y0040175D01*
X0232179Y0040175D02*
X0298500Y0040175D01*
X0298500Y0041773D02*
X0234164Y0041773D01*
X0235763Y0043372D02*
X0298500Y0043372D01*
X0298500Y0044970D02*
X0237361Y0044970D01*
X0238960Y0046569D02*
X0298500Y0046569D01*
X0298500Y0048167D02*
X0240558Y0048167D01*
X0242157Y0049766D02*
X0298500Y0049766D01*
X0298500Y0051364D02*
X0243755Y0051364D01*
X0245354Y0052963D02*
X0298500Y0052963D01*
X0298500Y0054561D02*
X0246894Y0054561D01*
X0247400Y0056160D02*
X0298500Y0056160D01*
X0298500Y0057758D02*
X0247175Y0057758D01*
X0246034Y0059357D02*
X0298500Y0059357D01*
X0298500Y0060955D02*
X0228758Y0060955D01*
X0228758Y0059357D02*
X0241566Y0059357D01*
X0239967Y0057758D02*
X0228758Y0057758D01*
X0228758Y0056160D02*
X0238369Y0056160D01*
X0236770Y0054561D02*
X0228758Y0054561D01*
X0228758Y0052963D02*
X0235172Y0052963D01*
X0233573Y0051364D02*
X0228758Y0051364D01*
X0228758Y0049766D02*
X0231975Y0049766D01*
X0230376Y0048167D02*
X0228758Y0048167D01*
X0228758Y0046569D02*
X0228778Y0046569D01*
X0221558Y0046569D02*
X0211042Y0046569D01*
X0211042Y0048167D02*
X0221558Y0048167D01*
X0221558Y0049766D02*
X0211042Y0049766D01*
X0211042Y0051364D02*
X0221558Y0051364D01*
X0221558Y0052963D02*
X0211042Y0052963D01*
X0211042Y0054561D02*
X0221558Y0054561D01*
X0221558Y0056160D02*
X0211042Y0056160D01*
X0211042Y0057758D02*
X0221558Y0057758D01*
X0221558Y0059357D02*
X0211042Y0059357D01*
X0211042Y0060955D02*
X0221558Y0060955D01*
X0221558Y0062554D02*
X0211042Y0062554D01*
X0211042Y0064152D02*
X0221558Y0064152D01*
X0221558Y0065751D02*
X0211042Y0065751D01*
X0211042Y0067349D02*
X0221558Y0067349D01*
X0221558Y0068948D02*
X0211042Y0068948D01*
X0211042Y0070546D02*
X0221558Y0070546D01*
X0221558Y0072145D02*
X0211042Y0072145D01*
X0211042Y0073743D02*
X0221558Y0073743D01*
X0221558Y0075342D02*
X0211042Y0075342D01*
X0211042Y0076940D02*
X0221558Y0076940D01*
X0221558Y0078539D02*
X0211042Y0078539D01*
X0211042Y0080137D02*
X0221558Y0080137D01*
X0221558Y0081736D02*
X0211042Y0081736D01*
X0211042Y0083334D02*
X0221558Y0083334D01*
X0221558Y0084933D02*
X0211042Y0084933D01*
X0211042Y0086532D02*
X0221558Y0086532D01*
X0221558Y0088130D02*
X0211042Y0088130D01*
X0211042Y0089729D02*
X0221558Y0089729D01*
X0221558Y0091327D02*
X0211042Y0091327D01*
X0211042Y0092926D02*
X0221558Y0092926D01*
X0221558Y0094524D02*
X0211042Y0094524D01*
X0211042Y0096123D02*
X0221558Y0096123D01*
X0221558Y0097721D02*
X0211042Y0097721D01*
X0211042Y0099320D02*
X0221558Y0099320D01*
X0221558Y0100918D02*
X0211042Y0100918D01*
X0211042Y0102517D02*
X0221558Y0102517D01*
X0221558Y0104115D02*
X0211042Y0104115D01*
X0211042Y0105714D02*
X0221558Y0105714D01*
X0221657Y0107312D02*
X0210943Y0107312D01*
X0209980Y0108911D02*
X0222620Y0108911D01*
X0224218Y0110509D02*
X0208382Y0110509D01*
X0206783Y0112108D02*
X0225817Y0112108D01*
X0227415Y0113706D02*
X0205185Y0113706D01*
X0203586Y0115305D02*
X0229014Y0115305D01*
X0230612Y0116903D02*
X0201988Y0116903D01*
X0200389Y0118502D02*
X0232211Y0118502D01*
X0233877Y0120100D02*
X0198723Y0120100D01*
X0193885Y0126494D02*
X0238715Y0126494D01*
X0237486Y0128093D02*
X0195114Y0128093D01*
X0195400Y0129691D02*
X0237200Y0129691D01*
X0237200Y0131290D02*
X0195400Y0131290D01*
X0195400Y0132888D02*
X0237200Y0132888D01*
X0237200Y0134487D02*
X0195400Y0134487D01*
X0195400Y0136085D02*
X0237200Y0136085D01*
X0237200Y0137684D02*
X0195400Y0137684D01*
X0195400Y0139282D02*
X0237200Y0139282D01*
X0237200Y0140881D02*
X0195400Y0140881D01*
X0195400Y0142479D02*
X0237200Y0142479D01*
X0237200Y0144078D02*
X0195400Y0144078D01*
X0195400Y0145676D02*
X0237200Y0145676D01*
X0237200Y0147275D02*
X0195400Y0147275D01*
X0195400Y0148873D02*
X0237200Y0148873D01*
X0237200Y0150472D02*
X0195400Y0150472D01*
X0195400Y0152070D02*
X0237200Y0152070D01*
X0237200Y0153669D02*
X0195400Y0153669D01*
X0195400Y0155268D02*
X0237200Y0155268D01*
X0237200Y0156866D02*
X0195400Y0156866D01*
X0196356Y0158465D02*
X0237200Y0158465D01*
X0237200Y0160063D02*
X0197954Y0160063D01*
X0199278Y0161662D02*
X0237200Y0161662D01*
X0237200Y0163260D02*
X0199632Y0163260D01*
X0199255Y0164859D02*
X0237200Y0164859D01*
X0237200Y0166457D02*
X0197654Y0166457D01*
X0194410Y0166457D02*
X0185400Y0166457D01*
X0185400Y0164859D02*
X0192567Y0164859D01*
X0190969Y0163260D02*
X0185400Y0163260D01*
X0185400Y0161662D02*
X0189370Y0161662D01*
X0188344Y0160063D02*
X0185400Y0160063D01*
X0185900Y0158465D02*
X0188200Y0158465D01*
X0188200Y0156866D02*
X0186817Y0156866D01*
X0186873Y0155268D02*
X0188200Y0155268D01*
X0188200Y0153669D02*
X0186033Y0153669D01*
X0188200Y0152070D02*
X0181700Y0152070D01*
X0181700Y0150472D02*
X0188200Y0150472D01*
X0188200Y0148873D02*
X0181700Y0148873D01*
X0181700Y0147275D02*
X0188200Y0147275D01*
X0188200Y0145676D02*
X0181700Y0145676D01*
X0181700Y0144078D02*
X0188200Y0144078D01*
X0188200Y0142479D02*
X0181700Y0142479D01*
X0181700Y0140881D02*
X0188200Y0140881D01*
X0188200Y0139282D02*
X0181700Y0139282D01*
X0181700Y0137684D02*
X0188200Y0137684D01*
X0188200Y0136085D02*
X0181700Y0136085D01*
X0181700Y0134487D02*
X0188200Y0134487D01*
X0188200Y0132888D02*
X0181700Y0132888D01*
X0181700Y0131290D02*
X0188200Y0131290D01*
X0186900Y0129691D02*
X0181563Y0129691D01*
X0180287Y0128093D02*
X0185302Y0128093D01*
X0183703Y0126494D02*
X0178688Y0126494D01*
X0177090Y0124896D02*
X0182105Y0124896D01*
X0180506Y0123297D02*
X0175491Y0123297D01*
X0173893Y0121699D02*
X0178908Y0121699D01*
X0177309Y0120100D02*
X0172294Y0120100D01*
X0171335Y0119141D02*
X0171335Y0119141D01*
X0170696Y0118502D02*
X0175711Y0118502D01*
X0181097Y0113706D02*
X0187845Y0113706D01*
X0186106Y0115305D02*
X0182696Y0115305D01*
X0184294Y0116903D02*
X0185700Y0116903D01*
X0185893Y0118502D02*
X0186025Y0118502D01*
X0189090Y0121699D02*
X0243510Y0121699D01*
X0241912Y0123297D02*
X0190688Y0123297D01*
X0192287Y0124896D02*
X0240313Y0124896D01*
X0245700Y0129691D02*
X0260200Y0129691D01*
X0260200Y0128093D02*
X0247298Y0128093D01*
X0248897Y0126494D02*
X0260200Y0126494D01*
X0260200Y0124896D02*
X0250495Y0124896D01*
X0252094Y0123297D02*
X0260200Y0123297D01*
X0259408Y0121699D02*
X0253692Y0121699D01*
X0255291Y0120100D02*
X0257809Y0120100D01*
X0263196Y0115305D02*
X0288700Y0115305D01*
X0288700Y0116903D02*
X0264794Y0116903D01*
X0266393Y0118502D02*
X0288700Y0118502D01*
X0288700Y0120100D02*
X0267324Y0120100D01*
X0267400Y0121699D02*
X0288700Y0121699D01*
X0288700Y0123297D02*
X0267400Y0123297D01*
X0267400Y0124896D02*
X0288700Y0124896D01*
X0288700Y0126494D02*
X0267400Y0126494D01*
X0267400Y0128093D02*
X0288700Y0128093D01*
X0288700Y0129691D02*
X0267400Y0129691D01*
X0267400Y0131290D02*
X0288700Y0131290D01*
X0288700Y0132888D02*
X0267400Y0132888D01*
X0267400Y0134487D02*
X0288700Y0134487D01*
X0288700Y0136085D02*
X0267400Y0136085D01*
X0267400Y0137684D02*
X0288700Y0137684D01*
X0288700Y0139282D02*
X0267400Y0139282D01*
X0267400Y0140881D02*
X0288700Y0140881D01*
X0288700Y0142479D02*
X0267400Y0142479D01*
X0267400Y0144078D02*
X0288700Y0144078D01*
X0288700Y0145676D02*
X0267400Y0145676D01*
X0267400Y0147275D02*
X0288700Y0147275D01*
X0288700Y0148873D02*
X0267400Y0148873D01*
X0267400Y0150472D02*
X0288700Y0150472D01*
X0288700Y0152070D02*
X0267400Y0152070D01*
X0267400Y0153669D02*
X0288700Y0153669D01*
X0288700Y0155268D02*
X0267400Y0155268D01*
X0267131Y0156866D02*
X0288700Y0156866D01*
X0288700Y0158465D02*
X0265927Y0158465D01*
X0261673Y0158465D02*
X0244400Y0158465D01*
X0244400Y0160063D02*
X0288700Y0160063D01*
X0288700Y0161662D02*
X0244400Y0161662D01*
X0244400Y0163260D02*
X0288700Y0163260D01*
X0288700Y0164859D02*
X0244400Y0164859D01*
X0244400Y0166457D02*
X0288700Y0166457D01*
X0288700Y0168056D02*
X0244400Y0168056D01*
X0244400Y0169654D02*
X0288700Y0169654D01*
X0288700Y0171253D02*
X0244400Y0171253D01*
X0244400Y0172851D02*
X0288700Y0172851D01*
X0288700Y0174450D02*
X0244400Y0174450D01*
X0244400Y0176048D02*
X0288700Y0176048D01*
X0288700Y0177647D02*
X0244400Y0177647D01*
X0244400Y0179245D02*
X0288700Y0179245D01*
X0288700Y0180844D02*
X0244400Y0180844D01*
X0244400Y0182442D02*
X0288700Y0182442D01*
X0288700Y0184041D02*
X0244400Y0184041D01*
X0244400Y0185639D02*
X0288700Y0185639D01*
X0288700Y0187238D02*
X0244400Y0187238D01*
X0244400Y0188836D02*
X0288700Y0188836D01*
X0288700Y0190435D02*
X0244400Y0190435D01*
X0244400Y0192033D02*
X0288700Y0192033D01*
X0288700Y0193632D02*
X0244400Y0193632D01*
X0244400Y0195230D02*
X0288700Y0195230D01*
X0288700Y0196829D02*
X0244400Y0196829D01*
X0244400Y0198427D02*
X0288700Y0198427D01*
X0288700Y0200026D02*
X0244400Y0200026D01*
X0244400Y0201624D02*
X0288700Y0201624D01*
X0287660Y0203223D02*
X0245114Y0203223D01*
X0246713Y0204821D02*
X0287219Y0204821D01*
X0287512Y0206420D02*
X0248311Y0206420D01*
X0249910Y0208018D02*
X0288754Y0208018D01*
X0292846Y0208018D02*
X0294400Y0208018D01*
X0294400Y0206420D02*
X0294088Y0206420D01*
X0294381Y0204821D02*
X0294400Y0204821D01*
X0294400Y0203223D02*
X0293940Y0203223D01*
X0294400Y0201624D02*
X0292900Y0201624D01*
X0292900Y0200026D02*
X0294400Y0200026D01*
X0294400Y0198427D02*
X0292900Y0198427D01*
X0292900Y0196829D02*
X0294400Y0196829D01*
X0294400Y0195230D02*
X0292900Y0195230D01*
X0292900Y0193632D02*
X0294400Y0193632D01*
X0294400Y0192033D02*
X0292900Y0192033D01*
X0292900Y0190435D02*
X0294400Y0190435D01*
X0294400Y0188836D02*
X0292900Y0188836D01*
X0292900Y0187238D02*
X0294400Y0187238D01*
X0294400Y0185639D02*
X0292900Y0185639D01*
X0292900Y0184041D02*
X0294400Y0184041D01*
X0294400Y0182442D02*
X0292900Y0182442D01*
X0292900Y0180844D02*
X0294400Y0180844D01*
X0294400Y0179245D02*
X0292900Y0179245D01*
X0292900Y0177647D02*
X0294400Y0177647D01*
X0294400Y0176048D02*
X0292900Y0176048D01*
X0292900Y0174450D02*
X0294400Y0174450D01*
X0294400Y0172851D02*
X0292900Y0172851D01*
X0292900Y0171253D02*
X0294400Y0171253D01*
X0294400Y0169654D02*
X0292900Y0169654D01*
X0292900Y0168056D02*
X0294400Y0168056D01*
X0294400Y0166457D02*
X0292900Y0166457D01*
X0292900Y0164859D02*
X0294400Y0164859D01*
X0294400Y0163260D02*
X0292900Y0163260D01*
X0292900Y0161662D02*
X0294400Y0161662D01*
X0294400Y0160063D02*
X0292900Y0160063D01*
X0292900Y0158465D02*
X0294400Y0158465D01*
X0294400Y0156866D02*
X0292900Y0156866D01*
X0292900Y0155268D02*
X0294400Y0155268D01*
X0294400Y0153669D02*
X0292900Y0153669D01*
X0292900Y0152070D02*
X0294400Y0152070D01*
X0294400Y0150472D02*
X0292900Y0150472D01*
X0292900Y0148873D02*
X0294400Y0148873D01*
X0294400Y0147275D02*
X0292900Y0147275D01*
X0292900Y0145676D02*
X0294400Y0145676D01*
X0294400Y0144078D02*
X0292900Y0144078D01*
X0292900Y0142479D02*
X0294400Y0142479D01*
X0294400Y0140881D02*
X0292900Y0140881D01*
X0292900Y0139282D02*
X0294400Y0139282D01*
X0294400Y0137684D02*
X0292900Y0137684D01*
X0292900Y0136085D02*
X0294400Y0136085D01*
X0294400Y0134487D02*
X0292900Y0134487D01*
X0292900Y0132888D02*
X0294400Y0132888D01*
X0294400Y0131290D02*
X0292900Y0131290D01*
X0292900Y0129691D02*
X0294400Y0129691D01*
X0294400Y0128093D02*
X0292900Y0128093D01*
X0292900Y0126494D02*
X0294400Y0126494D01*
X0294400Y0124896D02*
X0292900Y0124896D01*
X0292900Y0123297D02*
X0294400Y0123297D01*
X0294400Y0121699D02*
X0292900Y0121699D01*
X0292900Y0120100D02*
X0294400Y0120100D01*
X0294400Y0118502D02*
X0292900Y0118502D01*
X0292900Y0116903D02*
X0294400Y0116903D01*
X0294400Y0115305D02*
X0292900Y0115305D01*
X0292900Y0113706D02*
X0294400Y0113706D01*
X0294400Y0112108D02*
X0292900Y0112108D01*
X0292900Y0110509D02*
X0294400Y0110509D01*
X0294400Y0108911D02*
X0292900Y0108911D01*
X0292900Y0107312D02*
X0294400Y0107312D01*
X0294400Y0105714D02*
X0292900Y0105714D01*
X0294400Y0104115D02*
X0291385Y0104115D01*
X0289786Y0102517D02*
X0294400Y0102517D01*
X0294400Y0100918D02*
X0288188Y0100918D01*
X0286589Y0099320D02*
X0294400Y0099320D01*
X0294400Y0097721D02*
X0284991Y0097721D01*
X0283392Y0096123D02*
X0294400Y0096123D01*
X0294400Y0094524D02*
X0281794Y0094524D01*
X0280195Y0092926D02*
X0294400Y0092926D01*
X0294400Y0091327D02*
X0278597Y0091327D01*
X0276998Y0089729D02*
X0294400Y0089729D01*
X0294400Y0088130D02*
X0275400Y0088130D01*
X0273801Y0086532D02*
X0293937Y0086532D01*
X0292339Y0084933D02*
X0272203Y0084933D01*
X0270604Y0083334D02*
X0290740Y0083334D01*
X0289142Y0081736D02*
X0269006Y0081736D01*
X0267407Y0080137D02*
X0287543Y0080137D01*
X0284275Y0078539D02*
X0265809Y0078539D01*
X0265381Y0076940D02*
X0283719Y0076940D01*
X0283904Y0075342D02*
X0264706Y0075342D01*
X0259900Y0073743D02*
X0284992Y0073743D01*
X0287300Y0076500D02*
X0296800Y0086000D01*
X0296800Y0230000D01*
X0293421Y0228799D02*
X0270690Y0228799D01*
X0269092Y0227201D02*
X0294400Y0227201D01*
X0294400Y0225602D02*
X0267493Y0225602D01*
X0265895Y0224003D02*
X0294400Y0224003D01*
X0294400Y0222405D02*
X0264296Y0222405D01*
X0262698Y0220806D02*
X0294400Y0220806D01*
X0294400Y0219208D02*
X0261099Y0219208D01*
X0259501Y0217609D02*
X0294400Y0217609D01*
X0294400Y0216011D02*
X0257902Y0216011D01*
X0256304Y0214412D02*
X0294400Y0214412D01*
X0294400Y0212814D02*
X0254705Y0212814D01*
X0253107Y0211215D02*
X0294400Y0211215D01*
X0294400Y0209617D02*
X0251508Y0209617D01*
X0246121Y0214412D02*
X0238182Y0214412D01*
X0236584Y0212814D02*
X0244523Y0212814D01*
X0242924Y0211215D02*
X0234985Y0211215D01*
X0233387Y0209617D02*
X0241326Y0209617D01*
X0239727Y0208018D02*
X0231788Y0208018D01*
X0230190Y0206420D02*
X0238129Y0206420D01*
X0237244Y0204821D02*
X0228591Y0204821D01*
X0226993Y0203223D02*
X0237200Y0203223D01*
X0237200Y0201624D02*
X0225394Y0201624D01*
X0223796Y0200026D02*
X0237200Y0200026D01*
X0237200Y0198427D02*
X0222197Y0198427D01*
X0220599Y0196829D02*
X0237200Y0196829D01*
X0237200Y0195230D02*
X0219000Y0195230D01*
X0217402Y0193632D02*
X0237200Y0193632D01*
X0237200Y0192033D02*
X0215803Y0192033D01*
X0214205Y0190435D02*
X0237200Y0190435D01*
X0237200Y0188836D02*
X0212606Y0188836D01*
X0211008Y0187238D02*
X0237200Y0187238D01*
X0237200Y0185639D02*
X0210820Y0185639D01*
X0209905Y0184041D02*
X0237200Y0184041D01*
X0237200Y0169654D02*
X0185400Y0169654D01*
X0185400Y0168056D02*
X0237200Y0168056D01*
X0244400Y0156866D02*
X0260469Y0156866D01*
X0260200Y0155268D02*
X0244400Y0155268D01*
X0244400Y0153669D02*
X0260200Y0153669D01*
X0260200Y0152070D02*
X0244400Y0152070D01*
X0244400Y0150472D02*
X0260200Y0150472D01*
X0260200Y0148873D02*
X0244400Y0148873D01*
X0244400Y0147275D02*
X0260200Y0147275D01*
X0260200Y0145676D02*
X0244400Y0145676D01*
X0244400Y0144078D02*
X0260200Y0144078D01*
X0260200Y0142479D02*
X0244400Y0142479D01*
X0244400Y0140881D02*
X0260200Y0140881D01*
X0260200Y0139282D02*
X0244400Y0139282D01*
X0244400Y0137684D02*
X0260200Y0137684D01*
X0260200Y0136085D02*
X0244400Y0136085D01*
X0244400Y0134487D02*
X0260200Y0134487D01*
X0260200Y0132888D02*
X0244400Y0132888D01*
X0244400Y0131290D02*
X0260200Y0131290D01*
X0246707Y0118502D02*
X0246575Y0118502D01*
X0246900Y0116903D02*
X0248306Y0116903D01*
X0249904Y0115305D02*
X0246494Y0115305D01*
X0244755Y0113706D02*
X0251503Y0113706D01*
X0252700Y0112108D02*
X0235999Y0112108D01*
X0234400Y0110509D02*
X0252700Y0110509D01*
X0252700Y0108911D02*
X0232802Y0108911D01*
X0231203Y0107312D02*
X0252700Y0107312D01*
X0252700Y0105714D02*
X0229605Y0105714D01*
X0228758Y0104115D02*
X0252700Y0104115D01*
X0252700Y0102517D02*
X0228758Y0102517D01*
X0228758Y0100918D02*
X0252700Y0100918D01*
X0252700Y0099320D02*
X0228758Y0099320D01*
X0228758Y0097721D02*
X0252700Y0097721D01*
X0252700Y0096123D02*
X0228758Y0096123D01*
X0228758Y0094524D02*
X0252700Y0094524D01*
X0252700Y0092926D02*
X0228758Y0092926D01*
X0228758Y0091327D02*
X0252700Y0091327D01*
X0252700Y0089729D02*
X0228758Y0089729D01*
X0228758Y0088130D02*
X0252700Y0088130D01*
X0252700Y0086532D02*
X0228758Y0086532D01*
X0228758Y0084933D02*
X0252700Y0084933D01*
X0252700Y0083334D02*
X0228758Y0083334D01*
X0228758Y0081736D02*
X0252700Y0081736D01*
X0252700Y0080137D02*
X0228758Y0080137D01*
X0228758Y0078539D02*
X0252700Y0078539D01*
X0252700Y0076940D02*
X0228758Y0076940D01*
X0228758Y0075342D02*
X0252700Y0075342D01*
X0252700Y0073743D02*
X0228758Y0073743D01*
X0228758Y0072145D02*
X0252700Y0072145D01*
X0252700Y0070546D02*
X0228758Y0070546D01*
X0228758Y0068948D02*
X0252700Y0068948D01*
X0252700Y0067349D02*
X0228758Y0067349D01*
X0228758Y0065751D02*
X0252714Y0065751D01*
X0253556Y0064152D02*
X0228758Y0064152D01*
X0228758Y0062554D02*
X0298500Y0062554D01*
X0298500Y0064152D02*
X0259044Y0064152D01*
X0259886Y0065751D02*
X0298500Y0065751D01*
X0298500Y0067349D02*
X0259900Y0067349D01*
X0259900Y0068948D02*
X0298500Y0068948D01*
X0298500Y0070546D02*
X0259900Y0070546D01*
X0259900Y0072145D02*
X0298500Y0072145D01*
X0298500Y0073743D02*
X0289608Y0073743D01*
X0290696Y0075342D02*
X0298500Y0075342D01*
X0298500Y0076940D02*
X0291135Y0076940D01*
X0292733Y0078539D02*
X0298500Y0078539D01*
X0298500Y0080137D02*
X0294332Y0080137D01*
X0295930Y0081736D02*
X0298500Y0081736D01*
X0298500Y0083334D02*
X0297529Y0083334D01*
X0298159Y0083965D02*
X0298159Y0083965D01*
X0282248Y0100918D02*
X0259900Y0100918D01*
X0259900Y0099320D02*
X0280650Y0099320D01*
X0279051Y0097721D02*
X0259900Y0097721D01*
X0259900Y0096123D02*
X0277453Y0096123D01*
X0275854Y0094524D02*
X0259900Y0094524D01*
X0259900Y0092926D02*
X0274256Y0092926D01*
X0272657Y0091327D02*
X0259900Y0091327D01*
X0259900Y0089729D02*
X0271059Y0089729D01*
X0269460Y0088130D02*
X0259900Y0088130D01*
X0259900Y0086532D02*
X0267862Y0086532D01*
X0266263Y0084933D02*
X0259900Y0084933D01*
X0259900Y0083334D02*
X0264665Y0083334D01*
X0263066Y0081736D02*
X0259900Y0081736D01*
X0259900Y0102517D02*
X0283847Y0102517D01*
X0285445Y0104115D02*
X0259900Y0104115D01*
X0259900Y0105714D02*
X0287044Y0105714D01*
X0288642Y0107312D02*
X0259900Y0107312D01*
X0259900Y0108911D02*
X0288700Y0108911D01*
X0288700Y0110509D02*
X0259900Y0110509D01*
X0259999Y0112108D02*
X0288700Y0112108D01*
X0288700Y0113706D02*
X0261597Y0113706D01*
X0203842Y0104115D02*
X0179900Y0104115D01*
X0179900Y0102517D02*
X0203842Y0102517D01*
X0203842Y0100918D02*
X0179900Y0100918D01*
X0179900Y0099320D02*
X0203842Y0099320D01*
X0203842Y0097721D02*
X0179900Y0097721D01*
X0179900Y0096123D02*
X0203842Y0096123D01*
X0203842Y0094524D02*
X0179900Y0094524D01*
X0179900Y0092926D02*
X0203842Y0092926D01*
X0203842Y0091327D02*
X0179900Y0091327D01*
X0179900Y0089729D02*
X0203842Y0089729D01*
X0203842Y0088130D02*
X0179900Y0088130D01*
X0179900Y0086532D02*
X0203842Y0086532D01*
X0203842Y0084933D02*
X0179900Y0084933D01*
X0179900Y0083334D02*
X0203842Y0083334D01*
X0203842Y0081736D02*
X0179900Y0081736D01*
X0179900Y0080137D02*
X0203842Y0080137D01*
X0203842Y0078539D02*
X0179900Y0078539D01*
X0179900Y0076940D02*
X0203842Y0076940D01*
X0203842Y0075342D02*
X0179900Y0075342D01*
X0179900Y0073743D02*
X0203842Y0073743D01*
X0203842Y0072145D02*
X0179900Y0072145D01*
X0179900Y0070546D02*
X0203842Y0070546D01*
X0203842Y0068948D02*
X0179900Y0068948D01*
X0179720Y0067349D02*
X0203842Y0067349D01*
X0203842Y0065751D02*
X0178642Y0065751D01*
X0172700Y0072145D02*
X0140509Y0072145D01*
X0141363Y0073743D02*
X0172700Y0073743D01*
X0172700Y0075342D02*
X0141327Y0075342D01*
X0140424Y0076940D02*
X0172700Y0076940D01*
X0172700Y0078539D02*
X0139900Y0078539D01*
X0139900Y0080137D02*
X0172700Y0080137D01*
X0172700Y0081736D02*
X0139900Y0081736D01*
X0139900Y0083334D02*
X0139901Y0083334D01*
X0139900Y0087664D02*
X0139900Y0123630D01*
X0167700Y0151430D01*
X0167700Y0146870D01*
X0141930Y0121100D01*
X0140700Y0119870D01*
X0140700Y0088464D01*
X0139900Y0087664D01*
X0139900Y0088130D02*
X0140366Y0088130D01*
X0140700Y0089729D02*
X0139900Y0089729D01*
X0139900Y0091327D02*
X0140700Y0091327D01*
X0140700Y0092926D02*
X0139900Y0092926D01*
X0139900Y0094524D02*
X0140700Y0094524D01*
X0140700Y0096123D02*
X0139900Y0096123D01*
X0139900Y0097721D02*
X0140700Y0097721D01*
X0140700Y0099320D02*
X0139900Y0099320D01*
X0139900Y0100918D02*
X0140700Y0100918D01*
X0140700Y0102517D02*
X0139900Y0102517D01*
X0139900Y0104115D02*
X0140700Y0104115D01*
X0140700Y0105714D02*
X0139900Y0105714D01*
X0139900Y0107312D02*
X0140700Y0107312D01*
X0140700Y0108911D02*
X0139900Y0108911D01*
X0139900Y0110509D02*
X0140700Y0110509D01*
X0140700Y0112108D02*
X0139900Y0112108D01*
X0139900Y0113706D02*
X0140700Y0113706D01*
X0140700Y0115305D02*
X0139900Y0115305D01*
X0139900Y0116903D02*
X0140700Y0116903D01*
X0140700Y0118502D02*
X0139900Y0118502D01*
X0139900Y0120100D02*
X0140930Y0120100D01*
X0139900Y0121699D02*
X0142529Y0121699D01*
X0144127Y0123297D02*
X0139900Y0123297D01*
X0141166Y0124896D02*
X0145726Y0124896D01*
X0147324Y0126494D02*
X0142764Y0126494D01*
X0144363Y0128093D02*
X0148923Y0128093D01*
X0150521Y0129691D02*
X0145961Y0129691D01*
X0147560Y0131290D02*
X0152120Y0131290D01*
X0153719Y0132888D02*
X0149158Y0132888D01*
X0150757Y0134487D02*
X0155317Y0134487D01*
X0156916Y0136085D02*
X0152355Y0136085D01*
X0153954Y0137684D02*
X0158514Y0137684D01*
X0160113Y0139282D02*
X0155552Y0139282D01*
X0157151Y0140881D02*
X0161711Y0140881D01*
X0163310Y0142479D02*
X0158749Y0142479D01*
X0160348Y0144078D02*
X0164908Y0144078D01*
X0166507Y0145676D02*
X0161946Y0145676D01*
X0163545Y0147275D02*
X0167700Y0147275D01*
X0167700Y0148873D02*
X0165143Y0148873D01*
X0166742Y0150472D02*
X0167700Y0150472D01*
X0176552Y0139282D02*
X0176900Y0139282D01*
X0176900Y0137684D02*
X0174954Y0137684D01*
X0173355Y0136085D02*
X0176900Y0136085D01*
X0176900Y0134487D02*
X0171757Y0134487D01*
X0170158Y0132888D02*
X0176900Y0132888D01*
X0176696Y0131290D02*
X0168560Y0131290D01*
X0166961Y0129691D02*
X0175097Y0129691D01*
X0173499Y0128093D02*
X0165363Y0128093D01*
X0163764Y0126494D02*
X0171900Y0126494D01*
X0170302Y0124896D02*
X0162166Y0124896D01*
X0163033Y0123297D02*
X0160567Y0123297D01*
X0167567Y0123297D02*
X0168703Y0123297D01*
X0179900Y0112108D02*
X0196601Y0112108D01*
X0198200Y0110509D02*
X0179900Y0110509D01*
X0179900Y0108911D02*
X0199798Y0108911D01*
X0201397Y0107312D02*
X0179900Y0107312D01*
X0179900Y0105714D02*
X0202995Y0105714D01*
X0172700Y0091327D02*
X0144900Y0091327D01*
X0144900Y0089729D02*
X0172700Y0089729D01*
X0172700Y0088130D02*
X0145234Y0088130D01*
X0146249Y0086532D02*
X0172700Y0086532D01*
X0172700Y0084933D02*
X0146381Y0084933D01*
X0145699Y0083334D02*
X0172700Y0083334D01*
X0186566Y0059357D02*
X0108400Y0059357D01*
X0108400Y0057758D02*
X0185425Y0057758D01*
X0185200Y0056160D02*
X0108400Y0056160D01*
X0108400Y0054561D02*
X0185706Y0054561D01*
X0187246Y0052963D02*
X0108400Y0052963D01*
X0108400Y0051364D02*
X0188845Y0051364D01*
X0190443Y0049766D02*
X0108400Y0049766D01*
X0108400Y0048167D02*
X0192042Y0048167D01*
X0193640Y0046569D02*
X0108400Y0046569D01*
X0108270Y0044970D02*
X0195239Y0044970D01*
X0196837Y0043372D02*
X0107263Y0043372D01*
X0102758Y0041773D02*
X0198436Y0041773D01*
X0200421Y0040175D02*
X0102758Y0040175D01*
X0095558Y0040175D02*
X0085042Y0040175D01*
X0085042Y0041773D02*
X0095558Y0041773D01*
X0095558Y0043372D02*
X0085042Y0043372D01*
X0085042Y0044970D02*
X0095558Y0044970D01*
X0095558Y0046569D02*
X0085042Y0046569D01*
X0085042Y0048167D02*
X0095558Y0048167D01*
X0095558Y0049766D02*
X0085042Y0049766D01*
X0085042Y0051364D02*
X0095558Y0051364D01*
X0095558Y0052963D02*
X0085042Y0052963D01*
X0085042Y0054561D02*
X0095558Y0054561D01*
X0095558Y0056160D02*
X0085042Y0056160D01*
X0085042Y0057758D02*
X0095558Y0057758D01*
X0095558Y0059357D02*
X0085042Y0059357D01*
X0085042Y0060955D02*
X0095558Y0060955D01*
X0095558Y0062554D02*
X0085042Y0062554D01*
X0085042Y0064152D02*
X0095558Y0064152D01*
X0095558Y0065751D02*
X0085042Y0065751D01*
X0085042Y0067349D02*
X0095558Y0067349D01*
X0095558Y0068948D02*
X0085042Y0068948D01*
X0085042Y0070546D02*
X0095558Y0070546D01*
X0095558Y0072145D02*
X0085042Y0072145D01*
X0085042Y0073743D02*
X0095558Y0073743D01*
X0095558Y0075342D02*
X0085042Y0075342D01*
X0085042Y0076940D02*
X0095558Y0076940D01*
X0095558Y0078539D02*
X0085042Y0078539D01*
X0085042Y0080137D02*
X0095558Y0080137D01*
X0095558Y0081736D02*
X0085042Y0081736D01*
X0085042Y0083334D02*
X0095558Y0083334D01*
X0095558Y0084933D02*
X0085042Y0084933D01*
X0085042Y0086532D02*
X0095558Y0086532D01*
X0095558Y0088130D02*
X0085042Y0088130D01*
X0085042Y0089729D02*
X0095558Y0089729D01*
X0095558Y0091327D02*
X0085042Y0091327D01*
X0085042Y0092926D02*
X0095558Y0092926D01*
X0095558Y0094524D02*
X0085042Y0094524D01*
X0085042Y0096123D02*
X0095558Y0096123D01*
X0095558Y0097721D02*
X0085042Y0097721D01*
X0085042Y0099320D02*
X0095558Y0099320D01*
X0095558Y0100918D02*
X0085042Y0100918D01*
X0085042Y0038576D02*
X0095558Y0038576D01*
X0095558Y0036978D02*
X0085042Y0036978D01*
X0085042Y0035379D02*
X0095558Y0035379D01*
X0095558Y0033781D02*
X0085042Y0033781D01*
X0085042Y0032182D02*
X0095558Y0032182D01*
X0094448Y0024190D02*
X0097963Y0024190D01*
X0092057Y0024190D02*
X0088543Y0024190D01*
X0086152Y0024190D02*
X0082637Y0024190D01*
X0080246Y0024190D02*
X0029185Y0024190D01*
X0029613Y0025788D02*
X0078052Y0025788D01*
X0077464Y0027387D02*
X0029800Y0027387D01*
X0029800Y0028985D02*
X0077544Y0028985D01*
X0077842Y0030584D02*
X0029513Y0030584D01*
X0029085Y0032182D02*
X0077842Y0032182D01*
X0077842Y0033781D02*
X0028242Y0033781D01*
X0027184Y0035379D02*
X0077842Y0035379D01*
X0077842Y0036978D02*
X0025586Y0036978D01*
X0022981Y0038576D02*
X0077842Y0038576D01*
X0028456Y0022591D02*
X0278144Y0022591D01*
X0279067Y0020993D02*
X0027533Y0020993D01*
X0025957Y0019394D02*
X0280642Y0019394D01*
X0293633Y0017800D02*
X0295361Y0018798D01*
X0297502Y0020939D01*
X0298500Y0022667D01*
X0298500Y0017800D01*
X0293633Y0017800D01*
X0295957Y0019394D02*
X0298500Y0019394D01*
X0298500Y0020993D02*
X0297533Y0020993D01*
X0298456Y0022591D02*
X0298500Y0022591D01*
X0298500Y0033781D02*
X0298242Y0033781D01*
X0298500Y0035379D02*
X0297184Y0035379D01*
X0298500Y0036978D02*
X0295586Y0036978D01*
X0292981Y0038576D02*
X0298500Y0038576D01*
X0221558Y0038576D02*
X0211042Y0038576D01*
X0211042Y0036978D02*
X0221558Y0036978D01*
X0221558Y0035379D02*
X0211042Y0035379D01*
X0211042Y0033781D02*
X0221558Y0033781D01*
X0221558Y0032182D02*
X0211042Y0032182D01*
X0211042Y0040175D02*
X0221558Y0040175D01*
X0221558Y0041773D02*
X0211042Y0041773D01*
X0211042Y0043372D02*
X0221558Y0043372D01*
X0221558Y0044970D02*
X0211042Y0044970D01*
X0131621Y0214412D02*
X0128979Y0214412D01*
X0127380Y0216011D02*
X0133220Y0216011D01*
X0134200Y0217609D02*
X0125782Y0217609D01*
X0162200Y0258070D02*
X0140400Y0279870D01*
X0140400Y0293536D01*
X0141336Y0294471D01*
X0141881Y0295788D01*
X0141881Y0296611D01*
X0147170Y0301900D01*
X0166730Y0301900D01*
X0164911Y0300081D01*
X0163588Y0300081D01*
X0162271Y0299536D01*
X0161264Y0298529D01*
X0160719Y0297212D01*
X0160719Y0295788D01*
X0161264Y0294471D01*
X0162200Y0293536D01*
X0162200Y0258070D01*
X0162200Y0259171D02*
X0161099Y0259171D01*
X0162200Y0260769D02*
X0159501Y0260769D01*
X0157902Y0262368D02*
X0162200Y0262368D01*
X0162200Y0263966D02*
X0156304Y0263966D01*
X0154705Y0265565D02*
X0162200Y0265565D01*
X0162200Y0267163D02*
X0153107Y0267163D01*
X0151508Y0268762D02*
X0162200Y0268762D01*
X0162200Y0270360D02*
X0149910Y0270360D01*
X0148311Y0271959D02*
X0162200Y0271959D01*
X0162200Y0273557D02*
X0146712Y0273557D01*
X0145114Y0275156D02*
X0162200Y0275156D01*
X0162200Y0276754D02*
X0143515Y0276754D01*
X0141917Y0278353D02*
X0162200Y0278353D01*
X0162200Y0279951D02*
X0140400Y0279951D01*
X0140400Y0281550D02*
X0162200Y0281550D01*
X0162200Y0283148D02*
X0140400Y0283148D01*
X0140400Y0284747D02*
X0162200Y0284747D01*
X0162200Y0286345D02*
X0140400Y0286345D01*
X0140400Y0287944D02*
X0162200Y0287944D01*
X0162200Y0289542D02*
X0140400Y0289542D01*
X0140400Y0291141D02*
X0162200Y0291141D01*
X0162200Y0292739D02*
X0140400Y0292739D01*
X0141202Y0294338D02*
X0161398Y0294338D01*
X0160719Y0295937D02*
X0141881Y0295937D01*
X0142805Y0297535D02*
X0160853Y0297535D01*
X0161869Y0299134D02*
X0144403Y0299134D01*
X0146002Y0300732D02*
X0165562Y0300732D01*
X0168305Y0297535D02*
X0225295Y0297535D01*
X0226200Y0295937D02*
X0167881Y0295937D01*
X0167202Y0294338D02*
X0226200Y0294338D01*
X0226200Y0292739D02*
X0166400Y0292739D01*
X0166400Y0291141D02*
X0204936Y0291141D01*
X0203700Y0289905D02*
X0203700Y0286095D01*
X0206395Y0283400D01*
X0210205Y0283400D01*
X0212900Y0286095D01*
X0212900Y0289905D01*
X0210205Y0292600D01*
X0206395Y0292600D01*
X0203700Y0289905D01*
X0203700Y0289542D02*
X0166400Y0289542D01*
X0166400Y0287944D02*
X0203700Y0287944D01*
X0203700Y0286345D02*
X0166400Y0286345D01*
X0166400Y0284747D02*
X0205048Y0284747D01*
X0206395Y0282600D02*
X0203700Y0279905D01*
X0203700Y0276095D01*
X0206395Y0273400D01*
X0210205Y0273400D01*
X0212900Y0276095D01*
X0212900Y0279905D01*
X0210205Y0282600D01*
X0206395Y0282600D01*
X0205345Y0281550D02*
X0180088Y0281550D01*
X0178512Y0281550D02*
X0171815Y0281550D01*
X0172782Y0279951D02*
X0176232Y0279951D01*
X0175719Y0278353D02*
X0173341Y0278353D01*
X0174659Y0277035D02*
X0174659Y0277035D01*
X0174940Y0276754D02*
X0175940Y0276754D01*
X0175700Y0275156D02*
X0177080Y0275156D01*
X0175700Y0273557D02*
X0178530Y0273557D01*
X0180070Y0273557D02*
X0180219Y0273557D01*
X0176235Y0271959D02*
X0175700Y0271959D01*
X0175700Y0270360D02*
X0175719Y0270360D01*
X0173300Y0268500D02*
X0182800Y0259000D01*
X0243800Y0259000D01*
X0243800Y0239000D01*
X0246092Y0238262D02*
X0246200Y0238370D01*
X0246200Y0256336D01*
X0246200Y0256336D01*
X0246200Y0238523D01*
X0246092Y0238262D01*
X0246145Y0238390D02*
X0246200Y0238390D01*
X0246200Y0239989D02*
X0246200Y0239989D01*
X0246200Y0241587D02*
X0246200Y0241587D01*
X0246200Y0243186D02*
X0246200Y0243186D01*
X0246200Y0244784D02*
X0246200Y0244784D01*
X0246200Y0246383D02*
X0246200Y0246383D01*
X0246200Y0247981D02*
X0246200Y0247981D01*
X0246200Y0249580D02*
X0246200Y0249580D01*
X0246200Y0251178D02*
X0246200Y0251178D01*
X0246200Y0252777D02*
X0246200Y0252777D01*
X0246200Y0254375D02*
X0246200Y0254375D01*
X0246200Y0255974D02*
X0246200Y0255974D01*
X0241400Y0255974D02*
X0169296Y0255974D01*
X0167698Y0257572D02*
X0180834Y0257572D01*
X0179235Y0259171D02*
X0166400Y0259171D01*
X0166400Y0260769D02*
X0177637Y0260769D01*
X0176038Y0262368D02*
X0166400Y0262368D01*
X0166400Y0263966D02*
X0174440Y0263966D01*
X0172841Y0265565D02*
X0166400Y0265565D01*
X0166400Y0267163D02*
X0171256Y0267163D01*
X0170900Y0268762D02*
X0166400Y0268762D01*
X0166400Y0270360D02*
X0170900Y0270360D01*
X0170900Y0271959D02*
X0166400Y0271959D01*
X0166400Y0273557D02*
X0170900Y0273557D01*
X0169750Y0275156D02*
X0166400Y0275156D01*
X0166400Y0276754D02*
X0166481Y0276754D01*
X0169300Y0279000D02*
X0173300Y0275000D01*
X0173300Y0268500D01*
X0179629Y0265565D02*
X0188265Y0265565D01*
X0188200Y0265630D02*
X0188200Y0265630D01*
X0186667Y0267163D02*
X0181528Y0267163D01*
X0181228Y0263966D02*
X0246200Y0263966D01*
X0246200Y0262368D02*
X0245027Y0262368D01*
X0242573Y0262368D02*
X0182826Y0262368D01*
X0171900Y0252777D02*
X0241400Y0252777D01*
X0241400Y0254375D02*
X0170895Y0254375D01*
X0171900Y0251178D02*
X0241400Y0251178D01*
X0241400Y0249580D02*
X0171900Y0249580D01*
X0171900Y0247981D02*
X0241400Y0247981D01*
X0241400Y0246383D02*
X0171900Y0246383D01*
X0171900Y0244784D02*
X0241400Y0244784D01*
X0241400Y0243186D02*
X0171900Y0243186D01*
X0193712Y0273557D02*
X0206237Y0273557D01*
X0204639Y0275156D02*
X0192114Y0275156D01*
X0190515Y0276754D02*
X0203700Y0276754D01*
X0203700Y0278353D02*
X0188917Y0278353D01*
X0187318Y0279951D02*
X0203746Y0279951D01*
X0211255Y0281550D02*
X0215345Y0281550D01*
X0216395Y0283400D02*
X0220205Y0283400D01*
X0222900Y0286095D01*
X0222900Y0289905D01*
X0220205Y0292600D01*
X0216395Y0292600D01*
X0213700Y0289905D01*
X0213700Y0286095D01*
X0216395Y0283400D01*
X0215048Y0284747D02*
X0211552Y0284747D01*
X0212900Y0286345D02*
X0213700Y0286345D01*
X0213700Y0287944D02*
X0212900Y0287944D01*
X0212900Y0289542D02*
X0213700Y0289542D01*
X0214936Y0291141D02*
X0211664Y0291141D01*
X0221664Y0291141D02*
X0224936Y0291141D01*
X0223700Y0289542D02*
X0222900Y0289542D01*
X0222900Y0287944D02*
X0223700Y0287944D01*
X0223700Y0286345D02*
X0222900Y0286345D01*
X0221552Y0284747D02*
X0225048Y0284747D01*
X0225345Y0281550D02*
X0221255Y0281550D01*
X0222854Y0279951D02*
X0223746Y0279951D01*
X0223700Y0278353D02*
X0222900Y0278353D01*
X0222900Y0276754D02*
X0223700Y0276754D01*
X0224639Y0275156D02*
X0221961Y0275156D01*
X0220400Y0273557D02*
X0224887Y0273557D01*
X0223289Y0271959D02*
X0219229Y0271959D01*
X0214887Y0273557D02*
X0210363Y0273557D01*
X0211961Y0275156D02*
X0214639Y0275156D01*
X0213700Y0276754D02*
X0212900Y0276754D01*
X0212900Y0278353D02*
X0213700Y0278353D01*
X0213746Y0279951D02*
X0212854Y0279951D01*
X0226032Y0268762D02*
X0230092Y0268762D01*
X0231690Y0270360D02*
X0227630Y0270360D01*
X0229229Y0271959D02*
X0233289Y0271959D01*
X0234888Y0273557D02*
X0230400Y0273557D01*
X0231961Y0275156D02*
X0234639Y0275156D01*
X0233700Y0276754D02*
X0232900Y0276754D01*
X0232900Y0278353D02*
X0233700Y0278353D01*
X0233746Y0279951D02*
X0232854Y0279951D01*
X0231255Y0281550D02*
X0235345Y0281550D01*
X0236395Y0283400D02*
X0233700Y0286095D01*
X0233700Y0289905D01*
X0236395Y0292600D01*
X0240205Y0292600D01*
X0242900Y0289905D01*
X0242900Y0286095D01*
X0240205Y0283400D01*
X0236395Y0283400D01*
X0235048Y0284747D02*
X0231552Y0284747D01*
X0232900Y0286345D02*
X0233700Y0286345D01*
X0233700Y0287944D02*
X0232900Y0287944D01*
X0232900Y0289542D02*
X0233700Y0289542D01*
X0234936Y0291141D02*
X0231664Y0291141D01*
X0230400Y0292739D02*
X0246200Y0292739D01*
X0246200Y0294338D02*
X0230400Y0294338D01*
X0230400Y0295937D02*
X0246200Y0295937D01*
X0246200Y0297535D02*
X0230400Y0297535D01*
X0229636Y0299134D02*
X0245697Y0299134D01*
X0244098Y0300732D02*
X0228038Y0300732D01*
X0223697Y0299134D02*
X0169903Y0299134D01*
X0166400Y0283148D02*
X0298500Y0283148D01*
X0298500Y0281550D02*
X0261255Y0281550D01*
X0262854Y0279951D02*
X0298500Y0279951D01*
X0298500Y0278353D02*
X0262900Y0278353D01*
X0262900Y0276754D02*
X0298500Y0276754D01*
X0298500Y0275156D02*
X0261961Y0275156D01*
X0260400Y0273557D02*
X0298500Y0273557D01*
X0298500Y0271959D02*
X0260400Y0271959D01*
X0260400Y0270360D02*
X0298500Y0270360D01*
X0298500Y0268762D02*
X0260400Y0268762D01*
X0260400Y0267163D02*
X0298500Y0267163D01*
X0298500Y0265565D02*
X0260400Y0265565D01*
X0260400Y0263966D02*
X0298500Y0263966D01*
X0294077Y0262368D02*
X0260400Y0262368D01*
X0260400Y0260769D02*
X0292478Y0260769D01*
X0290880Y0259171D02*
X0260400Y0259171D01*
X0260400Y0257572D02*
X0289281Y0257572D01*
X0287683Y0255974D02*
X0260400Y0255974D01*
X0260400Y0254375D02*
X0286084Y0254375D01*
X0284486Y0252777D02*
X0260400Y0252777D01*
X0260400Y0251178D02*
X0282887Y0251178D01*
X0281289Y0249580D02*
X0260400Y0249580D01*
X0260400Y0247981D02*
X0279690Y0247981D01*
X0278091Y0246383D02*
X0260400Y0246383D01*
X0260400Y0244784D02*
X0276493Y0244784D01*
X0274894Y0243186D02*
X0260400Y0243186D01*
X0260400Y0241587D02*
X0273296Y0241587D01*
X0271697Y0239989D02*
X0260876Y0239989D01*
X0261807Y0238390D02*
X0270099Y0238390D01*
X0268500Y0236792D02*
X0261881Y0236792D01*
X0261058Y0235193D02*
X0266902Y0235193D01*
X0265303Y0233595D02*
X0257364Y0233595D01*
X0255766Y0231996D02*
X0263705Y0231996D01*
X0262106Y0230398D02*
X0254167Y0230398D01*
X0252569Y0228799D02*
X0260508Y0228799D01*
X0258909Y0227201D02*
X0250970Y0227201D01*
X0249372Y0225602D02*
X0257311Y0225602D01*
X0255712Y0224003D02*
X0247773Y0224003D01*
X0246175Y0222405D02*
X0254114Y0222405D01*
X0252515Y0220806D02*
X0244576Y0220806D01*
X0242978Y0219208D02*
X0250917Y0219208D01*
X0249318Y0217609D02*
X0241379Y0217609D01*
X0239781Y0216011D02*
X0247720Y0216011D01*
X0272289Y0230398D02*
X0293219Y0230398D01*
X0293751Y0231996D02*
X0273887Y0231996D01*
X0275486Y0233595D02*
X0298500Y0233595D01*
X0298500Y0235193D02*
X0277084Y0235193D01*
X0278683Y0236792D02*
X0298500Y0236792D01*
X0298500Y0238390D02*
X0280281Y0238390D01*
X0281880Y0239989D02*
X0298500Y0239989D01*
X0298500Y0241587D02*
X0283478Y0241587D01*
X0285077Y0243186D02*
X0298500Y0243186D01*
X0298500Y0244784D02*
X0286675Y0244784D01*
X0288274Y0246383D02*
X0298500Y0246383D01*
X0298500Y0247981D02*
X0289872Y0247981D01*
X0291471Y0249580D02*
X0298500Y0249580D01*
X0298500Y0251178D02*
X0293069Y0251178D01*
X0294668Y0252777D02*
X0298500Y0252777D01*
X0298500Y0254375D02*
X0296266Y0254375D01*
X0297865Y0255974D02*
X0298500Y0255974D01*
X0298500Y0284747D02*
X0261552Y0284747D01*
X0262900Y0286345D02*
X0298500Y0286345D01*
X0298500Y0287944D02*
X0293882Y0287944D01*
X0296106Y0289542D02*
X0298500Y0289542D01*
X0298500Y0291141D02*
X0297619Y0291141D01*
X0298500Y0303333D02*
X0297502Y0305061D01*
X0295361Y0307202D01*
X0293633Y0308200D01*
X0298500Y0308200D01*
X0298500Y0303333D01*
X0298500Y0303929D02*
X0298156Y0303929D01*
X0298500Y0305528D02*
X0297036Y0305528D01*
X0298500Y0307126D02*
X0295437Y0307126D01*
X0278981Y0291141D02*
X0261664Y0291141D01*
X0262900Y0289542D02*
X0280494Y0289542D01*
X0282718Y0287944D02*
X0262900Y0287944D01*
X0245345Y0281550D02*
X0241255Y0281550D01*
X0242854Y0279951D02*
X0243746Y0279951D01*
X0243700Y0278353D02*
X0242900Y0278353D01*
X0242900Y0276754D02*
X0243700Y0276754D01*
X0244639Y0275156D02*
X0241961Y0275156D01*
X0240400Y0273557D02*
X0246200Y0273557D01*
X0246200Y0271959D02*
X0239229Y0271959D01*
X0237630Y0270360D02*
X0246200Y0270360D01*
X0246200Y0268762D02*
X0236032Y0268762D01*
X0234433Y0267163D02*
X0246200Y0267163D01*
X0246200Y0265565D02*
X0232835Y0265565D01*
X0241552Y0284747D02*
X0245048Y0284747D01*
X0243700Y0286345D02*
X0242900Y0286345D01*
X0242900Y0287944D02*
X0243700Y0287944D01*
X0243700Y0289542D02*
X0242900Y0289542D01*
X0241664Y0291141D02*
X0244936Y0291141D01*
X0166785Y0281550D02*
X0166400Y0281550D01*
D14*
X0137800Y0249500D02*
X0137800Y0215500D01*
X0130300Y0208000D01*
X0130300Y0160500D01*
X0104800Y0137500D02*
X0104800Y0046000D01*
X0099158Y0028000D02*
X0099158Y0200358D01*
X0109800Y0211000D01*
X0117300Y0211000D01*
X0114800Y0223500D02*
X0114800Y0253000D01*
X0114800Y0290500D01*
X0130800Y0306500D01*
X0065800Y0253000D02*
X0065800Y0223500D01*
X0050300Y0208000D01*
X0050300Y0162500D01*
X0075800Y0137500D02*
X0075800Y0046000D01*
X0081442Y0028000D02*
X0081442Y0200358D01*
X0070800Y0211000D01*
X0063300Y0211000D01*
X0114800Y0223500D02*
X0130300Y0208000D01*
X0191800Y0159000D02*
X0196032Y0163232D01*
X0191800Y0159000D02*
X0191800Y0129500D01*
X0176300Y0114000D01*
X0176300Y0068500D01*
X0188800Y0056500D02*
X0201800Y0043500D01*
X0207442Y0028000D02*
X0207442Y0106358D01*
X0196800Y0117000D01*
X0189300Y0117000D01*
X0225158Y0106358D02*
X0235800Y0117000D01*
X0243300Y0117000D01*
X0240800Y0129500D02*
X0240800Y0159000D01*
X0240800Y0204000D01*
X0296300Y0259500D01*
X0263800Y0155500D02*
X0263800Y0121000D01*
X0256800Y0114000D01*
X0256300Y0114000D01*
X0256300Y0066500D01*
X0243800Y0056500D02*
X0230800Y0043500D01*
X0225158Y0028000D02*
X0225158Y0106358D01*
X0240800Y0129500D02*
X0256300Y0114000D01*
D15*
X0290800Y0106500D02*
X0261800Y0077500D01*
X0290800Y0106500D02*
X0290800Y0205000D01*
X0258300Y0237500D02*
X0207300Y0186500D01*
X0183300Y0172500D02*
X0183300Y0156000D01*
X0175300Y0148000D02*
X0175300Y0141000D01*
X0155800Y0121500D01*
X0155800Y0096500D01*
X0142800Y0085500D02*
X0142800Y0119000D01*
X0169800Y0146000D01*
X0169800Y0252500D01*
X0164300Y0258000D01*
X0164300Y0296500D01*
X0169800Y0302000D01*
X0223800Y0302000D01*
X0228300Y0297500D01*
X0228300Y0288000D01*
X0228300Y0278000D02*
X0228300Y0274000D01*
X0223300Y0269000D01*
X0191800Y0269000D01*
X0186800Y0274000D01*
X0183800Y0274000D01*
X0186300Y0278000D02*
X0179300Y0278000D01*
X0186300Y0278000D02*
X0193300Y0271000D01*
X0215300Y0271000D01*
X0216550Y0272250D01*
X0218300Y0274000D01*
X0218300Y0278000D01*
X0230800Y0266500D02*
X0190300Y0266500D01*
X0186800Y0270000D01*
X0179300Y0270000D01*
X0166300Y0251000D02*
X0166300Y0153000D01*
X0137800Y0124500D01*
X0137800Y0074500D01*
X0135300Y0171500D02*
X0150300Y0186500D01*
X0161800Y0186500D01*
X0183300Y0172500D02*
X0248300Y0237500D01*
X0248300Y0278000D01*
X0238300Y0278000D02*
X0238300Y0274000D01*
X0230800Y0266500D01*
X0248300Y0288000D02*
X0248300Y0299500D01*
X0243800Y0304000D01*
X0146300Y0304000D01*
X0138800Y0296500D01*
X0138300Y0296500D01*
X0138300Y0279000D01*
X0166300Y0251000D01*
X0083300Y0296500D02*
X0082800Y0296500D01*
X0068800Y0282500D01*
X0030800Y0282500D01*
X0013300Y0265000D01*
X0013300Y0179500D01*
X0021300Y0179500D02*
X0021300Y0260000D01*
X0032300Y0271000D01*
X0032300Y0265000D02*
X0025300Y0258000D01*
X0025300Y0191500D01*
X0037300Y0179500D01*
X0037300Y0102500D01*
X0024800Y0104500D02*
X0024800Y0122000D01*
X0029300Y0126500D01*
X0029300Y0179500D01*
X0017300Y0166500D02*
X0017300Y0097000D01*
X0017300Y0166500D02*
X0017300Y0262500D01*
X0032300Y0277500D01*
X0029800Y0288000D02*
X0009300Y0267500D01*
X0009300Y0166500D01*
X0029800Y0288000D02*
X0049800Y0288000D01*
X0258300Y0278000D02*
X0258300Y0237500D01*
M02*
