G75*
%MOIN*%
%OFA0B0*%
%FSLAX25Y25*%
%IPPOS*%
%LPD*%
%AMOC8*
5,1,8,0,0,1.08239X$1,22.5*
%
%ADD10C,0.00600*%
%ADD11C,0.00500*%
%ADD12C,0.00300*%
%ADD13C,0.00400*%
%ADD14C,0.00800*%
D10*
X0144200Y0219400D02*
X0146400Y0219400D01*
X0144200Y0219400D02*
X0144200Y0222600D01*
X0153200Y0219400D02*
X0155400Y0219400D01*
X0155400Y0222600D01*
X0205800Y0273000D02*
X0203300Y0275500D01*
X0203300Y0290500D01*
X0205800Y0293000D01*
X0210800Y0293000D01*
X0213300Y0290500D01*
X0215800Y0293000D01*
X0220800Y0293000D01*
X0223300Y0290500D01*
X0225800Y0293000D01*
X0230800Y0293000D01*
X0233300Y0290500D01*
X0235800Y0293000D01*
X0240800Y0293000D01*
X0243300Y0290500D01*
X0245800Y0293000D01*
X0250800Y0293000D01*
X0253300Y0290500D01*
X0255800Y0293000D01*
X0260800Y0293000D01*
X0263300Y0290500D01*
X0263300Y0275500D01*
X0260800Y0273000D01*
X0255800Y0273000D01*
X0253300Y0275500D01*
X0250800Y0273000D01*
X0245800Y0273000D01*
X0243300Y0275500D01*
X0240800Y0273000D01*
X0235800Y0273000D01*
X0233300Y0275500D01*
X0230800Y0273000D01*
X0225800Y0273000D01*
X0223300Y0275500D01*
X0220800Y0273000D01*
X0215800Y0273000D01*
X0213300Y0275500D01*
X0210800Y0273000D01*
X0205800Y0273000D01*
X0270200Y0128600D02*
X0270200Y0125400D01*
X0272400Y0125400D01*
X0279200Y0125400D02*
X0281400Y0125400D01*
X0281400Y0128600D01*
D11*
X0282800Y0133000D02*
X0282802Y0133044D01*
X0282808Y0133088D01*
X0282818Y0133131D01*
X0282831Y0133173D01*
X0282848Y0133214D01*
X0282869Y0133253D01*
X0282893Y0133290D01*
X0282920Y0133325D01*
X0282950Y0133357D01*
X0282983Y0133387D01*
X0283019Y0133413D01*
X0283056Y0133437D01*
X0283096Y0133456D01*
X0283137Y0133473D01*
X0283180Y0133485D01*
X0283223Y0133494D01*
X0283267Y0133499D01*
X0283311Y0133500D01*
X0283355Y0133497D01*
X0283399Y0133490D01*
X0283442Y0133479D01*
X0283484Y0133465D01*
X0283524Y0133447D01*
X0283563Y0133425D01*
X0283599Y0133401D01*
X0283633Y0133373D01*
X0283665Y0133342D01*
X0283694Y0133308D01*
X0283720Y0133272D01*
X0283742Y0133234D01*
X0283761Y0133194D01*
X0283776Y0133152D01*
X0283788Y0133110D01*
X0283796Y0133066D01*
X0283800Y0133022D01*
X0283800Y0132978D01*
X0283796Y0132934D01*
X0283788Y0132890D01*
X0283776Y0132848D01*
X0283761Y0132806D01*
X0283742Y0132766D01*
X0283720Y0132728D01*
X0283694Y0132692D01*
X0283665Y0132658D01*
X0283633Y0132627D01*
X0283599Y0132599D01*
X0283563Y0132575D01*
X0283524Y0132553D01*
X0283484Y0132535D01*
X0283442Y0132521D01*
X0283399Y0132510D01*
X0283355Y0132503D01*
X0283311Y0132500D01*
X0283267Y0132501D01*
X0283223Y0132506D01*
X0283180Y0132515D01*
X0283137Y0132527D01*
X0283096Y0132544D01*
X0283056Y0132563D01*
X0283019Y0132587D01*
X0282983Y0132613D01*
X0282950Y0132643D01*
X0282920Y0132675D01*
X0282893Y0132710D01*
X0282869Y0132747D01*
X0282848Y0132786D01*
X0282831Y0132827D01*
X0282818Y0132869D01*
X0282808Y0132912D01*
X0282802Y0132956D01*
X0282800Y0133000D01*
X0156800Y0227000D02*
X0156802Y0227044D01*
X0156808Y0227088D01*
X0156818Y0227131D01*
X0156831Y0227173D01*
X0156848Y0227214D01*
X0156869Y0227253D01*
X0156893Y0227290D01*
X0156920Y0227325D01*
X0156950Y0227357D01*
X0156983Y0227387D01*
X0157019Y0227413D01*
X0157056Y0227437D01*
X0157096Y0227456D01*
X0157137Y0227473D01*
X0157180Y0227485D01*
X0157223Y0227494D01*
X0157267Y0227499D01*
X0157311Y0227500D01*
X0157355Y0227497D01*
X0157399Y0227490D01*
X0157442Y0227479D01*
X0157484Y0227465D01*
X0157524Y0227447D01*
X0157563Y0227425D01*
X0157599Y0227401D01*
X0157633Y0227373D01*
X0157665Y0227342D01*
X0157694Y0227308D01*
X0157720Y0227272D01*
X0157742Y0227234D01*
X0157761Y0227194D01*
X0157776Y0227152D01*
X0157788Y0227110D01*
X0157796Y0227066D01*
X0157800Y0227022D01*
X0157800Y0226978D01*
X0157796Y0226934D01*
X0157788Y0226890D01*
X0157776Y0226848D01*
X0157761Y0226806D01*
X0157742Y0226766D01*
X0157720Y0226728D01*
X0157694Y0226692D01*
X0157665Y0226658D01*
X0157633Y0226627D01*
X0157599Y0226599D01*
X0157563Y0226575D01*
X0157524Y0226553D01*
X0157484Y0226535D01*
X0157442Y0226521D01*
X0157399Y0226510D01*
X0157355Y0226503D01*
X0157311Y0226500D01*
X0157267Y0226501D01*
X0157223Y0226506D01*
X0157180Y0226515D01*
X0157137Y0226527D01*
X0157096Y0226544D01*
X0157056Y0226563D01*
X0157019Y0226587D01*
X0156983Y0226613D01*
X0156950Y0226643D01*
X0156920Y0226675D01*
X0156893Y0226710D01*
X0156869Y0226747D01*
X0156848Y0226786D01*
X0156831Y0226827D01*
X0156818Y0226869D01*
X0156808Y0226912D01*
X0156802Y0226956D01*
X0156800Y0227000D01*
X0206550Y0266750D02*
X0209553Y0266750D01*
X0208051Y0266750D02*
X0208051Y0271254D01*
X0206550Y0269753D01*
X0206553Y0294750D02*
X0206553Y0299254D01*
X0208154Y0299254D02*
X0208154Y0294750D01*
X0211156Y0294750D01*
X0212758Y0294750D02*
X0212758Y0297753D01*
X0214259Y0299254D01*
X0215760Y0297753D01*
X0215760Y0294750D01*
X0217362Y0294750D02*
X0219614Y0294750D01*
X0220364Y0295501D01*
X0220364Y0298503D01*
X0219614Y0299254D01*
X0217362Y0299254D01*
X0217362Y0294750D01*
X0215760Y0297002D02*
X0212758Y0297002D01*
X0211156Y0299254D02*
X0208154Y0299254D01*
X0208154Y0297002D02*
X0209655Y0297002D01*
X0206553Y0297002D02*
X0203550Y0297002D01*
X0203550Y0294750D02*
X0203550Y0299254D01*
X0221966Y0299254D02*
X0221966Y0294750D01*
X0224968Y0294750D01*
X0226570Y0294750D02*
X0226570Y0299254D01*
X0228822Y0299254D01*
X0229572Y0298503D01*
X0229572Y0297002D01*
X0228822Y0296251D01*
X0226570Y0296251D01*
X0228071Y0296251D02*
X0229572Y0294750D01*
X0231174Y0293999D02*
X0234176Y0293999D01*
X0235777Y0294750D02*
X0238780Y0297753D01*
X0238780Y0298503D01*
X0238029Y0299254D01*
X0236528Y0299254D01*
X0235777Y0298503D01*
X0235777Y0294750D02*
X0238780Y0294750D01*
X0240381Y0294750D02*
X0243384Y0299254D01*
X0244985Y0297002D02*
X0247237Y0297002D01*
X0247988Y0296251D01*
X0247988Y0295501D01*
X0247237Y0294750D01*
X0245736Y0294750D01*
X0244985Y0295501D01*
X0244985Y0297002D01*
X0246487Y0298503D01*
X0247988Y0299254D01*
X0243384Y0294750D02*
X0240381Y0299254D01*
X0253550Y0297753D02*
X0255051Y0299254D01*
X0255051Y0294750D01*
X0253550Y0294750D02*
X0256553Y0294750D01*
X0258154Y0294750D02*
X0261156Y0297753D01*
X0261156Y0298503D01*
X0260406Y0299254D01*
X0258905Y0299254D01*
X0258154Y0298503D01*
X0258154Y0294750D02*
X0261156Y0294750D01*
X0224968Y0299254D02*
X0221966Y0299254D01*
X0221966Y0297002D02*
X0223467Y0297002D01*
D12*
X0176938Y0296852D02*
X0175003Y0296852D01*
X0175003Y0295401D01*
X0175971Y0295885D01*
X0176455Y0295885D01*
X0176938Y0295401D01*
X0176938Y0294434D01*
X0176455Y0293950D01*
X0175487Y0293950D01*
X0175003Y0294434D01*
X0173992Y0293950D02*
X0173024Y0294917D01*
X0173508Y0294917D02*
X0172057Y0294917D01*
X0172057Y0293950D02*
X0172057Y0296852D01*
X0173508Y0296852D01*
X0173992Y0296369D01*
X0173992Y0295401D01*
X0173508Y0294917D01*
X0147455Y0282852D02*
X0147455Y0279950D01*
X0147938Y0281401D02*
X0146003Y0281401D01*
X0147455Y0282852D01*
X0144992Y0282369D02*
X0144992Y0281401D01*
X0144508Y0280917D01*
X0143057Y0280917D01*
X0143057Y0279950D02*
X0143057Y0282852D01*
X0144508Y0282852D01*
X0144992Y0282369D01*
X0144024Y0280917D02*
X0144992Y0279950D01*
X0150948Y0248138D02*
X0150948Y0246203D01*
X0152399Y0246203D01*
X0151915Y0247171D01*
X0151915Y0247655D01*
X0152399Y0248138D01*
X0153366Y0248138D01*
X0153850Y0247655D01*
X0153850Y0246687D01*
X0153366Y0246203D01*
X0153366Y0245192D02*
X0153850Y0244708D01*
X0153850Y0243741D01*
X0153366Y0243257D01*
X0151431Y0243257D01*
X0150948Y0243741D01*
X0150948Y0244708D01*
X0151431Y0245192D01*
X0154334Y0242245D02*
X0154334Y0240310D01*
X0153850Y0239299D02*
X0150948Y0237364D01*
X0150948Y0239299D02*
X0153850Y0237364D01*
X0123834Y0239810D02*
X0123834Y0241745D01*
X0122866Y0242757D02*
X0123350Y0243241D01*
X0123350Y0244208D01*
X0122866Y0244692D01*
X0122866Y0245703D02*
X0123350Y0246187D01*
X0123350Y0247155D01*
X0122866Y0247638D01*
X0122383Y0247638D01*
X0121899Y0247155D01*
X0121899Y0246671D01*
X0121899Y0247155D02*
X0121415Y0247638D01*
X0120931Y0247638D01*
X0120448Y0247155D01*
X0120448Y0246187D01*
X0120931Y0245703D01*
X0120931Y0244692D02*
X0120448Y0244208D01*
X0120448Y0243241D01*
X0120931Y0242757D01*
X0122866Y0242757D01*
X0123350Y0238799D02*
X0120448Y0236864D01*
X0120448Y0238799D02*
X0123350Y0236864D01*
X0138164Y0203852D02*
X0140099Y0200950D01*
X0141110Y0200466D02*
X0143045Y0200466D01*
X0144057Y0201434D02*
X0144541Y0200950D01*
X0145508Y0200950D01*
X0145992Y0201434D01*
X0147003Y0201434D02*
X0147487Y0200950D01*
X0148455Y0200950D01*
X0148938Y0201434D01*
X0148938Y0201917D01*
X0148455Y0202401D01*
X0147003Y0202401D01*
X0147003Y0201434D01*
X0147003Y0202401D02*
X0147971Y0203369D01*
X0148938Y0203852D01*
X0145992Y0203369D02*
X0145508Y0203852D01*
X0144541Y0203852D01*
X0144057Y0203369D01*
X0144057Y0201434D01*
X0140099Y0203852D02*
X0138164Y0200950D01*
X0137950Y0186552D02*
X0139885Y0183650D01*
X0140897Y0183166D02*
X0142831Y0183166D01*
X0143843Y0184134D02*
X0144327Y0183650D01*
X0145294Y0183650D01*
X0145778Y0184134D01*
X0146790Y0184134D02*
X0146790Y0184617D01*
X0147273Y0185101D01*
X0148241Y0185101D01*
X0148725Y0184617D01*
X0148725Y0184134D01*
X0148241Y0183650D01*
X0147273Y0183650D01*
X0146790Y0184134D01*
X0147273Y0185101D02*
X0146790Y0185585D01*
X0146790Y0186069D01*
X0147273Y0186552D01*
X0148241Y0186552D01*
X0148725Y0186069D01*
X0148725Y0185585D01*
X0148241Y0185101D01*
X0145778Y0186069D02*
X0145294Y0186552D01*
X0144327Y0186552D01*
X0143843Y0186069D01*
X0143843Y0184134D01*
X0139885Y0186552D02*
X0137950Y0183650D01*
X0143450Y0170552D02*
X0145385Y0167650D01*
X0146397Y0167166D02*
X0148331Y0167166D01*
X0149343Y0168134D02*
X0149827Y0167650D01*
X0150794Y0167650D01*
X0151278Y0168134D01*
X0152290Y0168134D02*
X0152290Y0167650D01*
X0152290Y0168134D02*
X0154225Y0170069D01*
X0154225Y0170552D01*
X0152290Y0170552D01*
X0151278Y0170069D02*
X0150794Y0170552D01*
X0149827Y0170552D01*
X0149343Y0170069D01*
X0149343Y0168134D01*
X0145385Y0170552D02*
X0143450Y0167650D01*
X0157731Y0142371D02*
X0159666Y0140436D01*
X0160150Y0140920D01*
X0160150Y0141887D01*
X0159666Y0142371D01*
X0157731Y0142371D01*
X0157248Y0141887D01*
X0157248Y0140920D01*
X0157731Y0140436D01*
X0159666Y0140436D01*
X0160150Y0139425D02*
X0160150Y0137490D01*
X0160150Y0138457D02*
X0157248Y0138457D01*
X0158215Y0137490D01*
X0157731Y0136478D02*
X0157248Y0135994D01*
X0157248Y0135027D01*
X0157731Y0134543D01*
X0159666Y0134543D01*
X0160150Y0135027D01*
X0160150Y0135994D01*
X0159666Y0136478D01*
X0160634Y0133531D02*
X0160634Y0131597D01*
X0160150Y0129617D02*
X0158699Y0129617D01*
X0157731Y0130585D01*
X0157248Y0130585D01*
X0158699Y0129617D02*
X0157731Y0128650D01*
X0157248Y0128650D01*
X0173248Y0128650D02*
X0173731Y0128650D01*
X0174699Y0129617D01*
X0176150Y0129617D01*
X0174699Y0129617D02*
X0173731Y0130585D01*
X0173248Y0130585D01*
X0176634Y0131597D02*
X0176634Y0133531D01*
X0175666Y0134543D02*
X0176150Y0135027D01*
X0176150Y0135994D01*
X0175666Y0136478D01*
X0174699Y0137490D02*
X0174699Y0139425D01*
X0176150Y0138941D02*
X0173248Y0138941D01*
X0174699Y0137490D01*
X0173731Y0136478D02*
X0173248Y0135994D01*
X0173248Y0135027D01*
X0173731Y0134543D01*
X0175666Y0134543D01*
X0172866Y0111638D02*
X0170931Y0111638D01*
X0170448Y0111155D01*
X0170448Y0110187D01*
X0170931Y0109703D01*
X0171415Y0109703D01*
X0171899Y0110187D01*
X0171899Y0111638D01*
X0172866Y0111638D02*
X0173350Y0111155D01*
X0173350Y0110187D01*
X0172866Y0109703D01*
X0172866Y0108692D02*
X0173350Y0108208D01*
X0173350Y0107241D01*
X0172866Y0106757D01*
X0170931Y0106757D01*
X0170448Y0107241D01*
X0170448Y0108208D01*
X0170931Y0108692D01*
X0173834Y0105745D02*
X0173834Y0103810D01*
X0173350Y0101831D02*
X0171899Y0101831D01*
X0170931Y0102799D01*
X0170448Y0102799D01*
X0171899Y0101831D02*
X0170931Y0100864D01*
X0170448Y0100864D01*
X0205557Y0136611D02*
X0206174Y0136611D01*
X0207409Y0137845D01*
X0209260Y0137845D01*
X0207409Y0137845D02*
X0206174Y0139079D01*
X0205557Y0139079D01*
X0209877Y0140294D02*
X0209877Y0142763D01*
X0209260Y0143977D02*
X0209260Y0145828D01*
X0208643Y0146446D01*
X0208026Y0146446D01*
X0207409Y0145828D01*
X0207409Y0143977D01*
X0209260Y0143977D02*
X0205557Y0143977D01*
X0205557Y0145828D01*
X0206174Y0146446D01*
X0206791Y0146446D01*
X0207409Y0145828D01*
X0207409Y0147660D02*
X0207409Y0150129D01*
X0206791Y0150129D02*
X0209260Y0150129D01*
X0208643Y0151343D02*
X0209260Y0151960D01*
X0209260Y0153195D01*
X0208643Y0153812D01*
X0206174Y0153812D02*
X0205557Y0153195D01*
X0205557Y0151960D01*
X0206174Y0151343D01*
X0208643Y0151343D01*
X0206791Y0150129D02*
X0205557Y0148894D01*
X0206791Y0147660D01*
X0209260Y0147660D01*
X0247448Y0146799D02*
X0247931Y0146799D01*
X0248899Y0145831D01*
X0250350Y0145831D01*
X0248899Y0145831D02*
X0247931Y0144864D01*
X0247448Y0144864D01*
X0250834Y0147810D02*
X0250834Y0149745D01*
X0249866Y0150757D02*
X0250350Y0151241D01*
X0250350Y0152208D01*
X0249866Y0152692D01*
X0249866Y0153703D02*
X0250350Y0154187D01*
X0250350Y0155155D01*
X0249866Y0155638D01*
X0249383Y0155638D01*
X0248899Y0155155D01*
X0248899Y0154671D01*
X0248899Y0155155D02*
X0248415Y0155638D01*
X0247931Y0155638D01*
X0247448Y0155155D01*
X0247448Y0154187D01*
X0247931Y0153703D01*
X0247931Y0152692D02*
X0247448Y0152208D01*
X0247448Y0151241D01*
X0247931Y0150757D01*
X0249866Y0150757D01*
X0276948Y0150708D02*
X0276948Y0149741D01*
X0277431Y0149257D01*
X0279366Y0149257D01*
X0279850Y0149741D01*
X0279850Y0150708D01*
X0279366Y0151192D01*
X0279366Y0152203D02*
X0279850Y0152687D01*
X0279850Y0153655D01*
X0279366Y0154138D01*
X0278399Y0154138D01*
X0277915Y0153655D01*
X0277915Y0153171D01*
X0278399Y0152203D01*
X0276948Y0152203D01*
X0276948Y0154138D01*
X0277431Y0151192D02*
X0276948Y0150708D01*
X0280334Y0148245D02*
X0280334Y0146310D01*
X0279850Y0144331D02*
X0278399Y0144331D01*
X0277431Y0145299D01*
X0276948Y0145299D01*
X0278399Y0144331D02*
X0277431Y0143364D01*
X0276948Y0143364D01*
X0274938Y0108852D02*
X0273971Y0108369D01*
X0273003Y0107401D01*
X0274455Y0107401D01*
X0274938Y0106917D01*
X0274938Y0106434D01*
X0274455Y0105950D01*
X0273487Y0105950D01*
X0273003Y0106434D01*
X0273003Y0107401D01*
X0271992Y0106434D02*
X0271508Y0105950D01*
X0270541Y0105950D01*
X0270057Y0106434D01*
X0270057Y0108369D01*
X0270541Y0108852D01*
X0271508Y0108852D01*
X0271992Y0108369D01*
X0269045Y0105466D02*
X0267110Y0105466D01*
X0265131Y0105950D02*
X0265131Y0107401D01*
X0266099Y0108369D01*
X0266099Y0108852D01*
X0265131Y0107401D02*
X0264164Y0108369D01*
X0264164Y0108852D01*
X0269450Y0092552D02*
X0269450Y0092069D01*
X0270417Y0091101D01*
X0270417Y0089650D01*
X0270417Y0091101D02*
X0271385Y0092069D01*
X0271385Y0092552D01*
X0272397Y0089166D02*
X0274331Y0089166D01*
X0275343Y0090134D02*
X0275827Y0089650D01*
X0276794Y0089650D01*
X0277278Y0090134D01*
X0278290Y0090134D02*
X0278290Y0090617D01*
X0278773Y0091101D01*
X0279741Y0091101D01*
X0280225Y0090617D01*
X0280225Y0090134D01*
X0279741Y0089650D01*
X0278773Y0089650D01*
X0278290Y0090134D01*
X0278773Y0091101D02*
X0278290Y0091585D01*
X0278290Y0092069D01*
X0278773Y0092552D01*
X0279741Y0092552D01*
X0280225Y0092069D01*
X0280225Y0091585D01*
X0279741Y0091101D01*
X0277278Y0092069D02*
X0276794Y0092552D01*
X0275827Y0092552D01*
X0275343Y0092069D01*
X0275343Y0090134D01*
X0275827Y0076552D02*
X0275343Y0076069D01*
X0275343Y0074134D01*
X0275827Y0073650D01*
X0276794Y0073650D01*
X0277278Y0074134D01*
X0278290Y0074134D02*
X0278290Y0073650D01*
X0278290Y0074134D02*
X0280225Y0076069D01*
X0280225Y0076552D01*
X0278290Y0076552D01*
X0277278Y0076069D02*
X0276794Y0076552D01*
X0275827Y0076552D01*
X0274331Y0073166D02*
X0272397Y0073166D01*
X0270417Y0073650D02*
X0270417Y0075101D01*
X0271385Y0076069D01*
X0271385Y0076552D01*
X0270417Y0075101D02*
X0269450Y0076069D01*
X0269450Y0076552D01*
X0248971Y0033852D02*
X0248003Y0032885D01*
X0246992Y0033369D02*
X0246508Y0033852D01*
X0245541Y0033852D01*
X0245057Y0033369D01*
X0245057Y0031434D01*
X0245541Y0030950D01*
X0246508Y0030950D01*
X0246992Y0031434D01*
X0248003Y0030950D02*
X0249938Y0030950D01*
X0248971Y0030950D02*
X0248971Y0033852D01*
X0244045Y0030466D02*
X0242110Y0030466D01*
X0240131Y0030950D02*
X0240131Y0032401D01*
X0241099Y0033369D01*
X0241099Y0033852D01*
X0240131Y0032401D02*
X0239164Y0033369D01*
X0239164Y0033852D01*
X0184834Y0045310D02*
X0184834Y0047245D01*
X0183866Y0048257D02*
X0184350Y0048741D01*
X0184350Y0049708D01*
X0183866Y0050192D01*
X0184350Y0051203D02*
X0182415Y0053138D01*
X0181931Y0053138D01*
X0181448Y0052655D01*
X0181448Y0051687D01*
X0181931Y0051203D01*
X0181931Y0050192D02*
X0181448Y0049708D01*
X0181448Y0048741D01*
X0181931Y0048257D01*
X0183866Y0048257D01*
X0184350Y0051203D02*
X0184350Y0053138D01*
X0181931Y0044299D02*
X0181448Y0044299D01*
X0181931Y0044299D02*
X0182899Y0043331D01*
X0184350Y0043331D01*
X0182899Y0043331D02*
X0181931Y0042364D01*
X0181448Y0042364D01*
X0123938Y0120950D02*
X0122003Y0120950D01*
X0122971Y0120950D02*
X0122971Y0123852D01*
X0122003Y0122885D01*
X0120992Y0123369D02*
X0120508Y0123852D01*
X0119541Y0123852D01*
X0119057Y0123369D01*
X0119057Y0121434D01*
X0119541Y0120950D01*
X0120508Y0120950D01*
X0120992Y0121434D01*
X0118045Y0120466D02*
X0116110Y0120466D01*
X0115099Y0120950D02*
X0113164Y0123852D01*
X0115099Y0123852D02*
X0113164Y0120950D01*
X0058834Y0127310D02*
X0058834Y0129245D01*
X0057866Y0130257D02*
X0058350Y0130741D01*
X0058350Y0131708D01*
X0057866Y0132192D01*
X0058350Y0133203D02*
X0056415Y0135138D01*
X0055931Y0135138D01*
X0055448Y0134655D01*
X0055448Y0133687D01*
X0055931Y0133203D01*
X0055931Y0132192D02*
X0055448Y0131708D01*
X0055448Y0130741D01*
X0055931Y0130257D01*
X0057866Y0130257D01*
X0058350Y0133203D02*
X0058350Y0135138D01*
X0058350Y0126299D02*
X0055448Y0124364D01*
X0055448Y0126299D02*
X0058350Y0124364D01*
X0033350Y0194864D02*
X0030448Y0196799D01*
X0030448Y0194864D02*
X0033350Y0196799D01*
X0033834Y0197810D02*
X0033834Y0199745D01*
X0032866Y0200757D02*
X0033350Y0201241D01*
X0033350Y0202208D01*
X0032866Y0202692D01*
X0032866Y0203703D02*
X0033350Y0204187D01*
X0033350Y0205155D01*
X0032866Y0205638D01*
X0030931Y0205638D01*
X0030448Y0205155D01*
X0030448Y0204187D01*
X0030931Y0203703D01*
X0031415Y0203703D01*
X0031899Y0204187D01*
X0031899Y0205638D01*
X0030931Y0202692D02*
X0030448Y0202208D01*
X0030448Y0201241D01*
X0030931Y0200757D01*
X0032866Y0200757D01*
X0034150Y0222650D02*
X0031248Y0224585D01*
X0031248Y0222650D02*
X0034150Y0224585D01*
X0034634Y0225597D02*
X0034634Y0227531D01*
X0033666Y0228543D02*
X0034150Y0229027D01*
X0034150Y0229994D01*
X0033666Y0230478D01*
X0034150Y0231490D02*
X0034150Y0233425D01*
X0034150Y0232457D02*
X0031248Y0232457D01*
X0032215Y0231490D01*
X0031731Y0230478D02*
X0031248Y0229994D01*
X0031248Y0229027D01*
X0031731Y0228543D01*
X0033666Y0228543D01*
X0033666Y0234436D02*
X0031731Y0236371D01*
X0033666Y0236371D01*
X0034150Y0235887D01*
X0034150Y0234920D01*
X0033666Y0234436D01*
X0031731Y0234436D01*
X0031248Y0234920D01*
X0031248Y0235887D01*
X0031731Y0236371D01*
X0047248Y0232941D02*
X0048699Y0231490D01*
X0048699Y0233425D01*
X0050150Y0232941D02*
X0047248Y0232941D01*
X0047731Y0230478D02*
X0047248Y0229994D01*
X0047248Y0229027D01*
X0047731Y0228543D01*
X0049666Y0228543D01*
X0050150Y0229027D01*
X0050150Y0229994D01*
X0049666Y0230478D01*
X0050634Y0227531D02*
X0050634Y0225597D01*
X0050150Y0224585D02*
X0047248Y0222650D01*
X0047248Y0224585D02*
X0050150Y0222650D01*
X0079557Y0230611D02*
X0083260Y0233079D01*
X0083877Y0234294D02*
X0083877Y0236763D01*
X0083260Y0237977D02*
X0083260Y0239828D01*
X0082643Y0240446D01*
X0082026Y0240446D01*
X0081409Y0239828D01*
X0081409Y0237977D01*
X0083260Y0237977D02*
X0079557Y0237977D01*
X0079557Y0239828D01*
X0080174Y0240446D01*
X0080791Y0240446D01*
X0081409Y0239828D01*
X0081409Y0241660D02*
X0081409Y0244129D01*
X0080791Y0244129D02*
X0083260Y0244129D01*
X0082643Y0245343D02*
X0083260Y0245960D01*
X0083260Y0247195D01*
X0082643Y0247812D01*
X0080174Y0247812D02*
X0079557Y0247195D01*
X0079557Y0245960D01*
X0080174Y0245343D01*
X0082643Y0245343D01*
X0080791Y0244129D02*
X0079557Y0242894D01*
X0080791Y0241660D01*
X0083260Y0241660D01*
X0079557Y0233079D02*
X0083260Y0230611D01*
X0088557Y0279450D02*
X0088557Y0282352D01*
X0090008Y0282352D01*
X0090492Y0281869D01*
X0090492Y0280901D01*
X0090008Y0280417D01*
X0088557Y0280417D01*
X0089524Y0280417D02*
X0090492Y0279450D01*
X0091503Y0279450D02*
X0093438Y0281385D01*
X0093438Y0281869D01*
X0092955Y0282352D01*
X0091987Y0282352D01*
X0091503Y0281869D01*
X0091503Y0279450D02*
X0093438Y0279450D01*
X0065938Y0278950D02*
X0064003Y0278950D01*
X0064971Y0278950D02*
X0064971Y0281852D01*
X0064003Y0280885D01*
X0062992Y0281369D02*
X0062992Y0280401D01*
X0062508Y0279917D01*
X0061057Y0279917D01*
X0061057Y0278950D02*
X0061057Y0281852D01*
X0062508Y0281852D01*
X0062992Y0281369D01*
X0062024Y0279917D02*
X0062992Y0278950D01*
X0281248Y0272548D02*
X0281248Y0271580D01*
X0281731Y0271097D01*
X0281731Y0270085D02*
X0282699Y0270085D01*
X0283183Y0269601D01*
X0283183Y0268150D01*
X0284150Y0268150D02*
X0281248Y0268150D01*
X0281248Y0269601D01*
X0281731Y0270085D01*
X0283183Y0269117D02*
X0284150Y0270085D01*
X0283666Y0271097D02*
X0284150Y0271580D01*
X0284150Y0272548D01*
X0283666Y0273031D01*
X0283183Y0273031D01*
X0282699Y0272548D01*
X0282699Y0272064D01*
X0282699Y0272548D02*
X0282215Y0273031D01*
X0281731Y0273031D01*
X0281248Y0272548D01*
D13*
X0227324Y0166579D02*
X0220237Y0166579D01*
X0212363Y0166579D02*
X0205276Y0166579D01*
X0196221Y0157524D01*
X0196221Y0126421D01*
X0212363Y0126421D01*
X0220237Y0126421D02*
X0236379Y0126421D01*
X0236379Y0157524D01*
X0227324Y0166579D01*
X0212363Y0165594D02*
X0211898Y0165493D01*
X0211435Y0165379D01*
X0210976Y0165255D01*
X0210520Y0165119D01*
X0210067Y0164973D01*
X0209618Y0164815D01*
X0209172Y0164646D01*
X0208731Y0164467D01*
X0208295Y0164277D01*
X0207863Y0164076D01*
X0207437Y0163865D01*
X0207015Y0163643D01*
X0206600Y0163411D01*
X0206190Y0163170D01*
X0205786Y0162918D01*
X0205388Y0162656D01*
X0204997Y0162385D01*
X0204612Y0162104D01*
X0204235Y0161814D01*
X0203864Y0161515D01*
X0203501Y0161207D01*
X0203146Y0160890D01*
X0202799Y0160564D01*
X0202459Y0160231D01*
X0202128Y0159889D01*
X0201805Y0159539D01*
X0201491Y0159181D01*
X0201186Y0158815D01*
X0200890Y0158443D01*
X0200603Y0158063D01*
X0200325Y0157676D01*
X0200057Y0157283D01*
X0199799Y0156883D01*
X0199550Y0156477D01*
X0199312Y0156065D01*
X0199083Y0155647D01*
X0198865Y0155224D01*
X0198657Y0154796D01*
X0198460Y0154363D01*
X0198273Y0153925D01*
X0198097Y0153482D01*
X0197932Y0153036D01*
X0197778Y0152585D01*
X0197635Y0152131D01*
X0197503Y0151674D01*
X0197382Y0151214D01*
X0197273Y0150750D01*
X0197175Y0150284D01*
X0197088Y0149816D01*
X0197013Y0149346D01*
X0196949Y0148874D01*
X0196897Y0148401D01*
X0196856Y0147927D01*
X0196827Y0147452D01*
X0196810Y0146976D01*
X0196804Y0146500D01*
X0196810Y0146024D01*
X0196827Y0145548D01*
X0196856Y0145073D01*
X0196897Y0144599D01*
X0196949Y0144126D01*
X0197013Y0143654D01*
X0197088Y0143184D01*
X0197175Y0142716D01*
X0197273Y0142250D01*
X0197382Y0141786D01*
X0197503Y0141326D01*
X0197635Y0140869D01*
X0197778Y0140415D01*
X0197932Y0139964D01*
X0198097Y0139518D01*
X0198273Y0139075D01*
X0198460Y0138637D01*
X0198657Y0138204D01*
X0198865Y0137776D01*
X0199083Y0137353D01*
X0199312Y0136935D01*
X0199550Y0136523D01*
X0199799Y0136117D01*
X0200057Y0135717D01*
X0200325Y0135324D01*
X0200603Y0134937D01*
X0200890Y0134557D01*
X0201186Y0134185D01*
X0201491Y0133819D01*
X0201805Y0133461D01*
X0202128Y0133111D01*
X0202459Y0132769D01*
X0202799Y0132436D01*
X0203146Y0132110D01*
X0203501Y0131793D01*
X0203864Y0131485D01*
X0204235Y0131186D01*
X0204612Y0130896D01*
X0204997Y0130615D01*
X0205388Y0130344D01*
X0205786Y0130082D01*
X0206190Y0129830D01*
X0206600Y0129589D01*
X0207015Y0129357D01*
X0207437Y0129135D01*
X0207863Y0128924D01*
X0208295Y0128723D01*
X0208731Y0128533D01*
X0209172Y0128354D01*
X0209618Y0128185D01*
X0210067Y0128027D01*
X0210520Y0127881D01*
X0210976Y0127745D01*
X0211435Y0127621D01*
X0211898Y0127507D01*
X0212363Y0127406D01*
X0220237Y0127406D02*
X0220702Y0127507D01*
X0221165Y0127621D01*
X0221624Y0127745D01*
X0222080Y0127881D01*
X0222533Y0128027D01*
X0222982Y0128185D01*
X0223428Y0128354D01*
X0223869Y0128533D01*
X0224305Y0128723D01*
X0224737Y0128924D01*
X0225163Y0129135D01*
X0225585Y0129357D01*
X0226000Y0129589D01*
X0226410Y0129830D01*
X0226814Y0130082D01*
X0227212Y0130344D01*
X0227603Y0130615D01*
X0227988Y0130896D01*
X0228365Y0131186D01*
X0228736Y0131485D01*
X0229099Y0131793D01*
X0229454Y0132110D01*
X0229801Y0132436D01*
X0230141Y0132769D01*
X0230472Y0133111D01*
X0230795Y0133461D01*
X0231109Y0133819D01*
X0231414Y0134185D01*
X0231710Y0134557D01*
X0231997Y0134937D01*
X0232275Y0135324D01*
X0232543Y0135717D01*
X0232801Y0136117D01*
X0233050Y0136523D01*
X0233288Y0136935D01*
X0233517Y0137353D01*
X0233735Y0137776D01*
X0233943Y0138204D01*
X0234140Y0138637D01*
X0234327Y0139075D01*
X0234503Y0139518D01*
X0234668Y0139964D01*
X0234822Y0140415D01*
X0234965Y0140869D01*
X0235097Y0141326D01*
X0235218Y0141786D01*
X0235327Y0142250D01*
X0235425Y0142716D01*
X0235512Y0143184D01*
X0235587Y0143654D01*
X0235651Y0144126D01*
X0235703Y0144599D01*
X0235744Y0145073D01*
X0235773Y0145548D01*
X0235790Y0146024D01*
X0235796Y0146500D01*
X0235790Y0146976D01*
X0235773Y0147452D01*
X0235744Y0147927D01*
X0235703Y0148401D01*
X0235651Y0148874D01*
X0235587Y0149346D01*
X0235512Y0149816D01*
X0235425Y0150284D01*
X0235327Y0150750D01*
X0235218Y0151214D01*
X0235097Y0151674D01*
X0234965Y0152131D01*
X0234822Y0152585D01*
X0234668Y0153036D01*
X0234503Y0153482D01*
X0234327Y0153925D01*
X0234140Y0154363D01*
X0233943Y0154796D01*
X0233735Y0155224D01*
X0233517Y0155647D01*
X0233288Y0156065D01*
X0233050Y0156477D01*
X0232801Y0156883D01*
X0232543Y0157283D01*
X0232275Y0157676D01*
X0231997Y0158063D01*
X0231710Y0158443D01*
X0231414Y0158815D01*
X0231109Y0159181D01*
X0230795Y0159539D01*
X0230472Y0159889D01*
X0230141Y0160231D01*
X0229801Y0160564D01*
X0229454Y0160890D01*
X0229099Y0161207D01*
X0228736Y0161515D01*
X0228365Y0161814D01*
X0227988Y0162104D01*
X0227603Y0162385D01*
X0227212Y0162656D01*
X0226814Y0162918D01*
X0226410Y0163170D01*
X0226000Y0163411D01*
X0225585Y0163643D01*
X0225163Y0163865D01*
X0224737Y0164076D01*
X0224305Y0164277D01*
X0223869Y0164467D01*
X0223428Y0164646D01*
X0222982Y0164815D01*
X0222533Y0164973D01*
X0222080Y0165119D01*
X0221624Y0165255D01*
X0221165Y0165379D01*
X0220702Y0165493D01*
X0220237Y0165594D01*
X0251272Y0120304D02*
X0251272Y0119537D01*
X0252807Y0118002D01*
X0252807Y0115700D01*
X0252807Y0118002D02*
X0254342Y0119537D01*
X0254342Y0120304D01*
X0255876Y0114933D02*
X0258946Y0114933D01*
X0260480Y0115700D02*
X0262782Y0115700D01*
X0263550Y0116467D01*
X0263550Y0117235D01*
X0262782Y0118002D01*
X0260480Y0118002D01*
X0260480Y0115700D02*
X0260480Y0120304D01*
X0262782Y0120304D01*
X0263550Y0119537D01*
X0263550Y0118769D01*
X0262782Y0118002D01*
X0265084Y0118002D02*
X0268154Y0118002D01*
X0268154Y0118769D02*
X0268154Y0115700D01*
X0269688Y0117235D02*
X0271223Y0115700D01*
X0272757Y0117235D01*
X0272757Y0120304D01*
X0274292Y0119537D02*
X0274292Y0118769D01*
X0275059Y0118002D01*
X0277361Y0118002D01*
X0277361Y0119537D02*
X0276594Y0120304D01*
X0275059Y0120304D01*
X0274292Y0119537D01*
X0277361Y0119537D02*
X0277361Y0116467D01*
X0276594Y0115700D01*
X0275059Y0115700D01*
X0274292Y0116467D01*
X0278896Y0116467D02*
X0279663Y0115700D01*
X0281198Y0115700D01*
X0281965Y0116467D01*
X0281965Y0119537D01*
X0281198Y0120304D01*
X0279663Y0120304D01*
X0278896Y0119537D01*
X0278896Y0118769D01*
X0279663Y0118002D01*
X0281965Y0118002D01*
X0269688Y0117235D02*
X0269688Y0120304D01*
X0268154Y0118769D02*
X0266619Y0120304D01*
X0265084Y0118769D01*
X0265084Y0115700D01*
X0206100Y0097393D02*
X0206100Y0094324D01*
X0203031Y0097393D01*
X0202263Y0097393D01*
X0201496Y0096626D01*
X0201496Y0095091D01*
X0202263Y0094324D01*
X0202263Y0092789D02*
X0205333Y0089720D01*
X0206100Y0089720D01*
X0206100Y0087418D02*
X0201496Y0087418D01*
X0203798Y0085116D01*
X0203798Y0088185D01*
X0201496Y0089720D02*
X0201496Y0092789D01*
X0202263Y0092789D01*
X0201496Y0083581D02*
X0202263Y0082046D01*
X0203798Y0080512D01*
X0203798Y0082814D01*
X0204565Y0083581D01*
X0205333Y0083581D01*
X0206100Y0082814D01*
X0206100Y0081279D01*
X0205333Y0080512D01*
X0203798Y0080512D01*
X0206100Y0078977D02*
X0206100Y0075908D01*
X0201496Y0075908D01*
X0201496Y0069769D02*
X0202263Y0069769D01*
X0203798Y0068235D01*
X0206100Y0068235D01*
X0203798Y0068235D02*
X0202263Y0066700D01*
X0201496Y0066700D01*
X0206867Y0071304D02*
X0206867Y0074373D01*
X0204805Y0038709D02*
X0204805Y0037942D01*
X0203271Y0036407D01*
X0203271Y0034106D01*
X0203271Y0036407D02*
X0201736Y0037942D01*
X0201736Y0038709D01*
X0206340Y0033338D02*
X0209409Y0033338D01*
X0210944Y0034873D02*
X0211711Y0034106D01*
X0212479Y0034106D01*
X0213246Y0034873D01*
X0213246Y0038709D01*
X0212479Y0038709D02*
X0214013Y0038709D01*
X0215548Y0037942D02*
X0215548Y0037175D01*
X0216315Y0036407D01*
X0217850Y0036407D01*
X0218617Y0035640D01*
X0218617Y0034873D01*
X0217850Y0034106D01*
X0216315Y0034106D01*
X0215548Y0034873D01*
X0215548Y0037942D02*
X0216315Y0038709D01*
X0217850Y0038709D01*
X0218617Y0037942D01*
X0220152Y0038709D02*
X0223221Y0038709D01*
X0221687Y0038709D02*
X0221687Y0034106D01*
X0097221Y0038709D02*
X0094152Y0038709D01*
X0095687Y0038709D02*
X0095687Y0034106D01*
X0092617Y0034873D02*
X0091850Y0034106D01*
X0090315Y0034106D01*
X0089548Y0034873D01*
X0090315Y0036407D02*
X0091850Y0036407D01*
X0092617Y0035640D01*
X0092617Y0034873D01*
X0090315Y0036407D02*
X0089548Y0037175D01*
X0089548Y0037942D01*
X0090315Y0038709D01*
X0091850Y0038709D01*
X0092617Y0037942D01*
X0088013Y0038709D02*
X0086479Y0038709D01*
X0087246Y0038709D02*
X0087246Y0034873D01*
X0086479Y0034106D01*
X0085711Y0034106D01*
X0084944Y0034873D01*
X0083409Y0033338D02*
X0080340Y0033338D01*
X0078805Y0034106D02*
X0075736Y0038709D01*
X0078805Y0038709D02*
X0075736Y0034106D01*
X0075496Y0160700D02*
X0080100Y0163769D01*
X0080867Y0165304D02*
X0080867Y0168373D01*
X0080100Y0169908D02*
X0080100Y0172977D01*
X0079333Y0174512D02*
X0080100Y0175279D01*
X0080100Y0176814D01*
X0079333Y0177581D01*
X0078565Y0177581D01*
X0077798Y0176814D01*
X0077798Y0174512D01*
X0079333Y0174512D01*
X0077798Y0174512D02*
X0076263Y0176046D01*
X0075496Y0177581D01*
X0077798Y0179116D02*
X0075496Y0181418D01*
X0080100Y0181418D01*
X0080100Y0183720D02*
X0079333Y0183720D01*
X0076263Y0186789D01*
X0075496Y0186789D01*
X0075496Y0183720D01*
X0077798Y0182185D02*
X0077798Y0179116D01*
X0076263Y0188324D02*
X0075496Y0189091D01*
X0075496Y0190626D01*
X0076263Y0191393D01*
X0077031Y0191393D01*
X0080100Y0188324D01*
X0080100Y0191393D01*
X0080100Y0169908D02*
X0075496Y0169908D01*
X0075496Y0163769D02*
X0080100Y0160700D01*
X0125272Y0209700D02*
X0128342Y0214304D01*
X0125272Y0214304D02*
X0128342Y0209700D01*
X0129876Y0208933D02*
X0132946Y0208933D01*
X0134480Y0209700D02*
X0136782Y0209700D01*
X0137550Y0210467D01*
X0137550Y0211235D01*
X0136782Y0212002D01*
X0134480Y0212002D01*
X0134480Y0214304D02*
X0136782Y0214304D01*
X0137550Y0213537D01*
X0137550Y0212769D01*
X0136782Y0212002D01*
X0139084Y0212002D02*
X0142154Y0212002D01*
X0142154Y0212769D02*
X0142154Y0209700D01*
X0143688Y0211235D02*
X0145223Y0209700D01*
X0146757Y0211235D01*
X0146757Y0214304D01*
X0148292Y0213537D02*
X0148292Y0212769D01*
X0149059Y0212002D01*
X0151361Y0212002D01*
X0151361Y0213537D02*
X0150594Y0214304D01*
X0149059Y0214304D01*
X0148292Y0213537D01*
X0151361Y0213537D02*
X0151361Y0210467D01*
X0150594Y0209700D01*
X0149059Y0209700D01*
X0148292Y0210467D01*
X0152896Y0210467D02*
X0153663Y0209700D01*
X0155198Y0209700D01*
X0155965Y0210467D01*
X0155965Y0213537D01*
X0155198Y0214304D01*
X0153663Y0214304D01*
X0152896Y0213537D01*
X0152896Y0212769D01*
X0153663Y0212002D01*
X0155965Y0212002D01*
X0143688Y0211235D02*
X0143688Y0214304D01*
X0142154Y0212769D02*
X0140619Y0214304D01*
X0139084Y0212769D01*
X0139084Y0209700D01*
X0134480Y0209700D02*
X0134480Y0214304D01*
X0110379Y0220421D02*
X0094237Y0220421D01*
X0086363Y0220421D02*
X0070221Y0220421D01*
X0070221Y0251524D01*
X0079276Y0260579D01*
X0086363Y0260579D01*
X0094237Y0260579D02*
X0101324Y0260579D01*
X0110379Y0251524D01*
X0110379Y0220421D01*
X0086363Y0221406D02*
X0085898Y0221507D01*
X0085435Y0221621D01*
X0084976Y0221745D01*
X0084520Y0221881D01*
X0084067Y0222027D01*
X0083618Y0222185D01*
X0083172Y0222354D01*
X0082731Y0222533D01*
X0082295Y0222723D01*
X0081863Y0222924D01*
X0081437Y0223135D01*
X0081015Y0223357D01*
X0080600Y0223589D01*
X0080190Y0223830D01*
X0079786Y0224082D01*
X0079388Y0224344D01*
X0078997Y0224615D01*
X0078612Y0224896D01*
X0078235Y0225186D01*
X0077864Y0225485D01*
X0077501Y0225793D01*
X0077146Y0226110D01*
X0076799Y0226436D01*
X0076459Y0226769D01*
X0076128Y0227111D01*
X0075805Y0227461D01*
X0075491Y0227819D01*
X0075186Y0228185D01*
X0074890Y0228557D01*
X0074603Y0228937D01*
X0074325Y0229324D01*
X0074057Y0229717D01*
X0073799Y0230117D01*
X0073550Y0230523D01*
X0073312Y0230935D01*
X0073083Y0231353D01*
X0072865Y0231776D01*
X0072657Y0232204D01*
X0072460Y0232637D01*
X0072273Y0233075D01*
X0072097Y0233518D01*
X0071932Y0233964D01*
X0071778Y0234415D01*
X0071635Y0234869D01*
X0071503Y0235326D01*
X0071382Y0235786D01*
X0071273Y0236250D01*
X0071175Y0236716D01*
X0071088Y0237184D01*
X0071013Y0237654D01*
X0070949Y0238126D01*
X0070897Y0238599D01*
X0070856Y0239073D01*
X0070827Y0239548D01*
X0070810Y0240024D01*
X0070804Y0240500D01*
X0070810Y0240976D01*
X0070827Y0241452D01*
X0070856Y0241927D01*
X0070897Y0242401D01*
X0070949Y0242874D01*
X0071013Y0243346D01*
X0071088Y0243816D01*
X0071175Y0244284D01*
X0071273Y0244750D01*
X0071382Y0245214D01*
X0071503Y0245674D01*
X0071635Y0246131D01*
X0071778Y0246585D01*
X0071932Y0247036D01*
X0072097Y0247482D01*
X0072273Y0247925D01*
X0072460Y0248363D01*
X0072657Y0248796D01*
X0072865Y0249224D01*
X0073083Y0249647D01*
X0073312Y0250065D01*
X0073550Y0250477D01*
X0073799Y0250883D01*
X0074057Y0251283D01*
X0074325Y0251676D01*
X0074603Y0252063D01*
X0074890Y0252443D01*
X0075186Y0252815D01*
X0075491Y0253181D01*
X0075805Y0253539D01*
X0076128Y0253889D01*
X0076459Y0254231D01*
X0076799Y0254564D01*
X0077146Y0254890D01*
X0077501Y0255207D01*
X0077864Y0255515D01*
X0078235Y0255814D01*
X0078612Y0256104D01*
X0078997Y0256385D01*
X0079388Y0256656D01*
X0079786Y0256918D01*
X0080190Y0257170D01*
X0080600Y0257411D01*
X0081015Y0257643D01*
X0081437Y0257865D01*
X0081863Y0258076D01*
X0082295Y0258277D01*
X0082731Y0258467D01*
X0083172Y0258646D01*
X0083618Y0258815D01*
X0084067Y0258973D01*
X0084520Y0259119D01*
X0084976Y0259255D01*
X0085435Y0259379D01*
X0085898Y0259493D01*
X0086363Y0259594D01*
X0094237Y0259594D02*
X0094702Y0259493D01*
X0095165Y0259379D01*
X0095624Y0259255D01*
X0096080Y0259119D01*
X0096533Y0258973D01*
X0096982Y0258815D01*
X0097428Y0258646D01*
X0097869Y0258467D01*
X0098305Y0258277D01*
X0098737Y0258076D01*
X0099163Y0257865D01*
X0099585Y0257643D01*
X0100000Y0257411D01*
X0100410Y0257170D01*
X0100814Y0256918D01*
X0101212Y0256656D01*
X0101603Y0256385D01*
X0101988Y0256104D01*
X0102365Y0255814D01*
X0102736Y0255515D01*
X0103099Y0255207D01*
X0103454Y0254890D01*
X0103801Y0254564D01*
X0104141Y0254231D01*
X0104472Y0253889D01*
X0104795Y0253539D01*
X0105109Y0253181D01*
X0105414Y0252815D01*
X0105710Y0252443D01*
X0105997Y0252063D01*
X0106275Y0251676D01*
X0106543Y0251283D01*
X0106801Y0250883D01*
X0107050Y0250477D01*
X0107288Y0250065D01*
X0107517Y0249647D01*
X0107735Y0249224D01*
X0107943Y0248796D01*
X0108140Y0248363D01*
X0108327Y0247925D01*
X0108503Y0247482D01*
X0108668Y0247036D01*
X0108822Y0246585D01*
X0108965Y0246131D01*
X0109097Y0245674D01*
X0109218Y0245214D01*
X0109327Y0244750D01*
X0109425Y0244284D01*
X0109512Y0243816D01*
X0109587Y0243346D01*
X0109651Y0242874D01*
X0109703Y0242401D01*
X0109744Y0241927D01*
X0109773Y0241452D01*
X0109790Y0240976D01*
X0109796Y0240500D01*
X0109790Y0240024D01*
X0109773Y0239548D01*
X0109744Y0239073D01*
X0109703Y0238599D01*
X0109651Y0238126D01*
X0109587Y0237654D01*
X0109512Y0237184D01*
X0109425Y0236716D01*
X0109327Y0236250D01*
X0109218Y0235786D01*
X0109097Y0235326D01*
X0108965Y0234869D01*
X0108822Y0234415D01*
X0108668Y0233964D01*
X0108503Y0233518D01*
X0108327Y0233075D01*
X0108140Y0232637D01*
X0107943Y0232204D01*
X0107735Y0231776D01*
X0107517Y0231353D01*
X0107288Y0230935D01*
X0107050Y0230523D01*
X0106801Y0230117D01*
X0106543Y0229717D01*
X0106275Y0229324D01*
X0105997Y0228937D01*
X0105710Y0228557D01*
X0105414Y0228185D01*
X0105109Y0227819D01*
X0104795Y0227461D01*
X0104472Y0227111D01*
X0104141Y0226769D01*
X0103801Y0226436D01*
X0103454Y0226110D01*
X0103099Y0225793D01*
X0102736Y0225485D01*
X0102365Y0225186D01*
X0101988Y0224896D01*
X0101603Y0224615D01*
X0101212Y0224344D01*
X0100814Y0224082D01*
X0100410Y0223830D01*
X0100000Y0223589D01*
X0099585Y0223357D01*
X0099163Y0223135D01*
X0098737Y0222924D01*
X0098305Y0222723D01*
X0097869Y0222533D01*
X0097428Y0222354D01*
X0096982Y0222185D01*
X0096533Y0222027D01*
X0096080Y0221881D01*
X0095624Y0221745D01*
X0095165Y0221621D01*
X0094702Y0221507D01*
X0094237Y0221406D01*
D14*
X0075930Y0033020D02*
X0075930Y0010283D01*
X0104670Y0010283D01*
X0104670Y0033020D01*
X0075930Y0033020D01*
X0069040Y0149398D02*
X0069040Y0211602D01*
X0084158Y0211602D01*
X0096442Y0211602D02*
X0111560Y0211602D01*
X0111560Y0154161D01*
X0106796Y0149398D01*
X0096442Y0149398D01*
X0084158Y0149398D02*
X0069040Y0149398D01*
X0195040Y0117602D02*
X0195040Y0055398D01*
X0210158Y0055398D01*
X0222442Y0055398D02*
X0232796Y0055398D01*
X0237560Y0060161D01*
X0237560Y0117602D01*
X0222442Y0117602D01*
X0210158Y0117602D02*
X0195040Y0117602D01*
X0201930Y0033020D02*
X0230670Y0033020D01*
X0230670Y0010283D01*
X0201930Y0010283D01*
X0201930Y0033020D01*
M02*
