%
M48
M72
T01C0.0236
T02C0.0276
T03C0.0400
T04C0.1340
%
T01
X7580Y4600
X10480Y4600
X13780Y7450
X14280Y8550
X15580Y9650
X17630Y11400
X16530Y12050
X18930Y11700
X17530Y14800
X18330Y15600
X19603Y16323
X17930Y17450
X16180Y18650
X13530Y17150
X13030Y16050
X10480Y13750
X7580Y13750
X5030Y16250
X3730Y17950
X2930Y17950
X2130Y17950
X1330Y17950
X930Y16650
X1730Y16650
X5030Y20800
X3930Y21450
X6330Y21100
X6580Y25300
X8130Y27900
X8330Y29650
X4980Y28800
X3230Y27750
X3230Y27100
X3230Y26500
X11480Y25300
X13780Y24950
X16930Y27900
X17930Y27800
X18380Y27400
X17930Y27000
X16430Y29650
X13830Y29650
X13080Y30650
X11730Y21100
X13030Y20800
X20730Y18650
X24080Y15900
X26380Y15550
X25630Y11400
X24330Y11700
X26180Y7750
X25630Y6650
X24380Y5650
X23080Y4350
X20180Y4350
X18880Y5650
X17630Y6850
X28730Y7650
X29080Y20500
X29680Y23000
X29630Y25950
X25830Y23750
X24380Y25900
X3730Y10250
X2480Y10450
X1730Y9700
T02
X8144Y2800
X8735Y2800
X9325Y2800
X9916Y2800
X20744Y2800
X21335Y2800
X21925Y2800
X22516Y2800
T03
X22830Y27800
X21830Y27800
X21830Y28800
X22830Y28800
X23830Y28800
X24830Y28800
X24830Y27800
X23830Y27800
X25830Y27800
X25830Y28800
X20830Y28800
X20830Y27800
T04
X1830Y2800
X1830Y29800
X28830Y29800
X28830Y2800
M30
