G75*
%MOIN*%
%OFA0B0*%
%FSLAX25Y25*%
%IPPOS*%
%LPD*%
%AMOC8*
5,1,8,0,0,1.08239X$1,22.5*
%
%ADD10C,0.00000*%
D10*
X0003300Y0013000D02*
X0003300Y0313000D01*
X0303300Y0313000D01*
X0303300Y0013000D01*
X0003300Y0013000D01*
X0011600Y0028000D02*
X0011602Y0028164D01*
X0011608Y0028329D01*
X0011618Y0028493D01*
X0011632Y0028657D01*
X0011650Y0028820D01*
X0011673Y0028983D01*
X0011699Y0029145D01*
X0011729Y0029307D01*
X0011763Y0029468D01*
X0011801Y0029628D01*
X0011843Y0029787D01*
X0011888Y0029945D01*
X0011938Y0030102D01*
X0011992Y0030257D01*
X0012049Y0030411D01*
X0012110Y0030564D01*
X0012175Y0030715D01*
X0012243Y0030865D01*
X0012315Y0031012D01*
X0012391Y0031158D01*
X0012470Y0031302D01*
X0012553Y0031444D01*
X0012639Y0031584D01*
X0012729Y0031722D01*
X0012822Y0031858D01*
X0012919Y0031991D01*
X0013018Y0032122D01*
X0013121Y0032250D01*
X0013227Y0032376D01*
X0013336Y0032499D01*
X0013448Y0032620D01*
X0013562Y0032738D01*
X0013680Y0032852D01*
X0013801Y0032964D01*
X0013924Y0033073D01*
X0014050Y0033179D01*
X0014178Y0033282D01*
X0014309Y0033381D01*
X0014442Y0033478D01*
X0014578Y0033571D01*
X0014716Y0033661D01*
X0014856Y0033747D01*
X0014998Y0033830D01*
X0015142Y0033909D01*
X0015288Y0033985D01*
X0015435Y0034057D01*
X0015585Y0034125D01*
X0015736Y0034190D01*
X0015889Y0034251D01*
X0016043Y0034308D01*
X0016198Y0034362D01*
X0016355Y0034412D01*
X0016513Y0034457D01*
X0016672Y0034499D01*
X0016832Y0034537D01*
X0016993Y0034571D01*
X0017155Y0034601D01*
X0017317Y0034627D01*
X0017480Y0034650D01*
X0017643Y0034668D01*
X0017807Y0034682D01*
X0017971Y0034692D01*
X0018136Y0034698D01*
X0018300Y0034700D01*
X0018464Y0034698D01*
X0018629Y0034692D01*
X0018793Y0034682D01*
X0018957Y0034668D01*
X0019120Y0034650D01*
X0019283Y0034627D01*
X0019445Y0034601D01*
X0019607Y0034571D01*
X0019768Y0034537D01*
X0019928Y0034499D01*
X0020087Y0034457D01*
X0020245Y0034412D01*
X0020402Y0034362D01*
X0020557Y0034308D01*
X0020711Y0034251D01*
X0020864Y0034190D01*
X0021015Y0034125D01*
X0021165Y0034057D01*
X0021312Y0033985D01*
X0021458Y0033909D01*
X0021602Y0033830D01*
X0021744Y0033747D01*
X0021884Y0033661D01*
X0022022Y0033571D01*
X0022158Y0033478D01*
X0022291Y0033381D01*
X0022422Y0033282D01*
X0022550Y0033179D01*
X0022676Y0033073D01*
X0022799Y0032964D01*
X0022920Y0032852D01*
X0023038Y0032738D01*
X0023152Y0032620D01*
X0023264Y0032499D01*
X0023373Y0032376D01*
X0023479Y0032250D01*
X0023582Y0032122D01*
X0023681Y0031991D01*
X0023778Y0031858D01*
X0023871Y0031722D01*
X0023961Y0031584D01*
X0024047Y0031444D01*
X0024130Y0031302D01*
X0024209Y0031158D01*
X0024285Y0031012D01*
X0024357Y0030865D01*
X0024425Y0030715D01*
X0024490Y0030564D01*
X0024551Y0030411D01*
X0024608Y0030257D01*
X0024662Y0030102D01*
X0024712Y0029945D01*
X0024757Y0029787D01*
X0024799Y0029628D01*
X0024837Y0029468D01*
X0024871Y0029307D01*
X0024901Y0029145D01*
X0024927Y0028983D01*
X0024950Y0028820D01*
X0024968Y0028657D01*
X0024982Y0028493D01*
X0024992Y0028329D01*
X0024998Y0028164D01*
X0025000Y0028000D01*
X0024998Y0027836D01*
X0024992Y0027671D01*
X0024982Y0027507D01*
X0024968Y0027343D01*
X0024950Y0027180D01*
X0024927Y0027017D01*
X0024901Y0026855D01*
X0024871Y0026693D01*
X0024837Y0026532D01*
X0024799Y0026372D01*
X0024757Y0026213D01*
X0024712Y0026055D01*
X0024662Y0025898D01*
X0024608Y0025743D01*
X0024551Y0025589D01*
X0024490Y0025436D01*
X0024425Y0025285D01*
X0024357Y0025135D01*
X0024285Y0024988D01*
X0024209Y0024842D01*
X0024130Y0024698D01*
X0024047Y0024556D01*
X0023961Y0024416D01*
X0023871Y0024278D01*
X0023778Y0024142D01*
X0023681Y0024009D01*
X0023582Y0023878D01*
X0023479Y0023750D01*
X0023373Y0023624D01*
X0023264Y0023501D01*
X0023152Y0023380D01*
X0023038Y0023262D01*
X0022920Y0023148D01*
X0022799Y0023036D01*
X0022676Y0022927D01*
X0022550Y0022821D01*
X0022422Y0022718D01*
X0022291Y0022619D01*
X0022158Y0022522D01*
X0022022Y0022429D01*
X0021884Y0022339D01*
X0021744Y0022253D01*
X0021602Y0022170D01*
X0021458Y0022091D01*
X0021312Y0022015D01*
X0021165Y0021943D01*
X0021015Y0021875D01*
X0020864Y0021810D01*
X0020711Y0021749D01*
X0020557Y0021692D01*
X0020402Y0021638D01*
X0020245Y0021588D01*
X0020087Y0021543D01*
X0019928Y0021501D01*
X0019768Y0021463D01*
X0019607Y0021429D01*
X0019445Y0021399D01*
X0019283Y0021373D01*
X0019120Y0021350D01*
X0018957Y0021332D01*
X0018793Y0021318D01*
X0018629Y0021308D01*
X0018464Y0021302D01*
X0018300Y0021300D01*
X0018136Y0021302D01*
X0017971Y0021308D01*
X0017807Y0021318D01*
X0017643Y0021332D01*
X0017480Y0021350D01*
X0017317Y0021373D01*
X0017155Y0021399D01*
X0016993Y0021429D01*
X0016832Y0021463D01*
X0016672Y0021501D01*
X0016513Y0021543D01*
X0016355Y0021588D01*
X0016198Y0021638D01*
X0016043Y0021692D01*
X0015889Y0021749D01*
X0015736Y0021810D01*
X0015585Y0021875D01*
X0015435Y0021943D01*
X0015288Y0022015D01*
X0015142Y0022091D01*
X0014998Y0022170D01*
X0014856Y0022253D01*
X0014716Y0022339D01*
X0014578Y0022429D01*
X0014442Y0022522D01*
X0014309Y0022619D01*
X0014178Y0022718D01*
X0014050Y0022821D01*
X0013924Y0022927D01*
X0013801Y0023036D01*
X0013680Y0023148D01*
X0013562Y0023262D01*
X0013448Y0023380D01*
X0013336Y0023501D01*
X0013227Y0023624D01*
X0013121Y0023750D01*
X0013018Y0023878D01*
X0012919Y0024009D01*
X0012822Y0024142D01*
X0012729Y0024278D01*
X0012639Y0024416D01*
X0012553Y0024556D01*
X0012470Y0024698D01*
X0012391Y0024842D01*
X0012315Y0024988D01*
X0012243Y0025135D01*
X0012175Y0025285D01*
X0012110Y0025436D01*
X0012049Y0025589D01*
X0011992Y0025743D01*
X0011938Y0025898D01*
X0011888Y0026055D01*
X0011843Y0026213D01*
X0011801Y0026372D01*
X0011763Y0026532D01*
X0011729Y0026693D01*
X0011699Y0026855D01*
X0011673Y0027017D01*
X0011650Y0027180D01*
X0011632Y0027343D01*
X0011618Y0027507D01*
X0011608Y0027671D01*
X0011602Y0027836D01*
X0011600Y0028000D01*
X0011600Y0298000D02*
X0011602Y0298164D01*
X0011608Y0298329D01*
X0011618Y0298493D01*
X0011632Y0298657D01*
X0011650Y0298820D01*
X0011673Y0298983D01*
X0011699Y0299145D01*
X0011729Y0299307D01*
X0011763Y0299468D01*
X0011801Y0299628D01*
X0011843Y0299787D01*
X0011888Y0299945D01*
X0011938Y0300102D01*
X0011992Y0300257D01*
X0012049Y0300411D01*
X0012110Y0300564D01*
X0012175Y0300715D01*
X0012243Y0300865D01*
X0012315Y0301012D01*
X0012391Y0301158D01*
X0012470Y0301302D01*
X0012553Y0301444D01*
X0012639Y0301584D01*
X0012729Y0301722D01*
X0012822Y0301858D01*
X0012919Y0301991D01*
X0013018Y0302122D01*
X0013121Y0302250D01*
X0013227Y0302376D01*
X0013336Y0302499D01*
X0013448Y0302620D01*
X0013562Y0302738D01*
X0013680Y0302852D01*
X0013801Y0302964D01*
X0013924Y0303073D01*
X0014050Y0303179D01*
X0014178Y0303282D01*
X0014309Y0303381D01*
X0014442Y0303478D01*
X0014578Y0303571D01*
X0014716Y0303661D01*
X0014856Y0303747D01*
X0014998Y0303830D01*
X0015142Y0303909D01*
X0015288Y0303985D01*
X0015435Y0304057D01*
X0015585Y0304125D01*
X0015736Y0304190D01*
X0015889Y0304251D01*
X0016043Y0304308D01*
X0016198Y0304362D01*
X0016355Y0304412D01*
X0016513Y0304457D01*
X0016672Y0304499D01*
X0016832Y0304537D01*
X0016993Y0304571D01*
X0017155Y0304601D01*
X0017317Y0304627D01*
X0017480Y0304650D01*
X0017643Y0304668D01*
X0017807Y0304682D01*
X0017971Y0304692D01*
X0018136Y0304698D01*
X0018300Y0304700D01*
X0018464Y0304698D01*
X0018629Y0304692D01*
X0018793Y0304682D01*
X0018957Y0304668D01*
X0019120Y0304650D01*
X0019283Y0304627D01*
X0019445Y0304601D01*
X0019607Y0304571D01*
X0019768Y0304537D01*
X0019928Y0304499D01*
X0020087Y0304457D01*
X0020245Y0304412D01*
X0020402Y0304362D01*
X0020557Y0304308D01*
X0020711Y0304251D01*
X0020864Y0304190D01*
X0021015Y0304125D01*
X0021165Y0304057D01*
X0021312Y0303985D01*
X0021458Y0303909D01*
X0021602Y0303830D01*
X0021744Y0303747D01*
X0021884Y0303661D01*
X0022022Y0303571D01*
X0022158Y0303478D01*
X0022291Y0303381D01*
X0022422Y0303282D01*
X0022550Y0303179D01*
X0022676Y0303073D01*
X0022799Y0302964D01*
X0022920Y0302852D01*
X0023038Y0302738D01*
X0023152Y0302620D01*
X0023264Y0302499D01*
X0023373Y0302376D01*
X0023479Y0302250D01*
X0023582Y0302122D01*
X0023681Y0301991D01*
X0023778Y0301858D01*
X0023871Y0301722D01*
X0023961Y0301584D01*
X0024047Y0301444D01*
X0024130Y0301302D01*
X0024209Y0301158D01*
X0024285Y0301012D01*
X0024357Y0300865D01*
X0024425Y0300715D01*
X0024490Y0300564D01*
X0024551Y0300411D01*
X0024608Y0300257D01*
X0024662Y0300102D01*
X0024712Y0299945D01*
X0024757Y0299787D01*
X0024799Y0299628D01*
X0024837Y0299468D01*
X0024871Y0299307D01*
X0024901Y0299145D01*
X0024927Y0298983D01*
X0024950Y0298820D01*
X0024968Y0298657D01*
X0024982Y0298493D01*
X0024992Y0298329D01*
X0024998Y0298164D01*
X0025000Y0298000D01*
X0024998Y0297836D01*
X0024992Y0297671D01*
X0024982Y0297507D01*
X0024968Y0297343D01*
X0024950Y0297180D01*
X0024927Y0297017D01*
X0024901Y0296855D01*
X0024871Y0296693D01*
X0024837Y0296532D01*
X0024799Y0296372D01*
X0024757Y0296213D01*
X0024712Y0296055D01*
X0024662Y0295898D01*
X0024608Y0295743D01*
X0024551Y0295589D01*
X0024490Y0295436D01*
X0024425Y0295285D01*
X0024357Y0295135D01*
X0024285Y0294988D01*
X0024209Y0294842D01*
X0024130Y0294698D01*
X0024047Y0294556D01*
X0023961Y0294416D01*
X0023871Y0294278D01*
X0023778Y0294142D01*
X0023681Y0294009D01*
X0023582Y0293878D01*
X0023479Y0293750D01*
X0023373Y0293624D01*
X0023264Y0293501D01*
X0023152Y0293380D01*
X0023038Y0293262D01*
X0022920Y0293148D01*
X0022799Y0293036D01*
X0022676Y0292927D01*
X0022550Y0292821D01*
X0022422Y0292718D01*
X0022291Y0292619D01*
X0022158Y0292522D01*
X0022022Y0292429D01*
X0021884Y0292339D01*
X0021744Y0292253D01*
X0021602Y0292170D01*
X0021458Y0292091D01*
X0021312Y0292015D01*
X0021165Y0291943D01*
X0021015Y0291875D01*
X0020864Y0291810D01*
X0020711Y0291749D01*
X0020557Y0291692D01*
X0020402Y0291638D01*
X0020245Y0291588D01*
X0020087Y0291543D01*
X0019928Y0291501D01*
X0019768Y0291463D01*
X0019607Y0291429D01*
X0019445Y0291399D01*
X0019283Y0291373D01*
X0019120Y0291350D01*
X0018957Y0291332D01*
X0018793Y0291318D01*
X0018629Y0291308D01*
X0018464Y0291302D01*
X0018300Y0291300D01*
X0018136Y0291302D01*
X0017971Y0291308D01*
X0017807Y0291318D01*
X0017643Y0291332D01*
X0017480Y0291350D01*
X0017317Y0291373D01*
X0017155Y0291399D01*
X0016993Y0291429D01*
X0016832Y0291463D01*
X0016672Y0291501D01*
X0016513Y0291543D01*
X0016355Y0291588D01*
X0016198Y0291638D01*
X0016043Y0291692D01*
X0015889Y0291749D01*
X0015736Y0291810D01*
X0015585Y0291875D01*
X0015435Y0291943D01*
X0015288Y0292015D01*
X0015142Y0292091D01*
X0014998Y0292170D01*
X0014856Y0292253D01*
X0014716Y0292339D01*
X0014578Y0292429D01*
X0014442Y0292522D01*
X0014309Y0292619D01*
X0014178Y0292718D01*
X0014050Y0292821D01*
X0013924Y0292927D01*
X0013801Y0293036D01*
X0013680Y0293148D01*
X0013562Y0293262D01*
X0013448Y0293380D01*
X0013336Y0293501D01*
X0013227Y0293624D01*
X0013121Y0293750D01*
X0013018Y0293878D01*
X0012919Y0294009D01*
X0012822Y0294142D01*
X0012729Y0294278D01*
X0012639Y0294416D01*
X0012553Y0294556D01*
X0012470Y0294698D01*
X0012391Y0294842D01*
X0012315Y0294988D01*
X0012243Y0295135D01*
X0012175Y0295285D01*
X0012110Y0295436D01*
X0012049Y0295589D01*
X0011992Y0295743D01*
X0011938Y0295898D01*
X0011888Y0296055D01*
X0011843Y0296213D01*
X0011801Y0296372D01*
X0011763Y0296532D01*
X0011729Y0296693D01*
X0011699Y0296855D01*
X0011673Y0297017D01*
X0011650Y0297180D01*
X0011632Y0297343D01*
X0011618Y0297507D01*
X0011608Y0297671D01*
X0011602Y0297836D01*
X0011600Y0298000D01*
X0281600Y0298000D02*
X0281602Y0298164D01*
X0281608Y0298329D01*
X0281618Y0298493D01*
X0281632Y0298657D01*
X0281650Y0298820D01*
X0281673Y0298983D01*
X0281699Y0299145D01*
X0281729Y0299307D01*
X0281763Y0299468D01*
X0281801Y0299628D01*
X0281843Y0299787D01*
X0281888Y0299945D01*
X0281938Y0300102D01*
X0281992Y0300257D01*
X0282049Y0300411D01*
X0282110Y0300564D01*
X0282175Y0300715D01*
X0282243Y0300865D01*
X0282315Y0301012D01*
X0282391Y0301158D01*
X0282470Y0301302D01*
X0282553Y0301444D01*
X0282639Y0301584D01*
X0282729Y0301722D01*
X0282822Y0301858D01*
X0282919Y0301991D01*
X0283018Y0302122D01*
X0283121Y0302250D01*
X0283227Y0302376D01*
X0283336Y0302499D01*
X0283448Y0302620D01*
X0283562Y0302738D01*
X0283680Y0302852D01*
X0283801Y0302964D01*
X0283924Y0303073D01*
X0284050Y0303179D01*
X0284178Y0303282D01*
X0284309Y0303381D01*
X0284442Y0303478D01*
X0284578Y0303571D01*
X0284716Y0303661D01*
X0284856Y0303747D01*
X0284998Y0303830D01*
X0285142Y0303909D01*
X0285288Y0303985D01*
X0285435Y0304057D01*
X0285585Y0304125D01*
X0285736Y0304190D01*
X0285889Y0304251D01*
X0286043Y0304308D01*
X0286198Y0304362D01*
X0286355Y0304412D01*
X0286513Y0304457D01*
X0286672Y0304499D01*
X0286832Y0304537D01*
X0286993Y0304571D01*
X0287155Y0304601D01*
X0287317Y0304627D01*
X0287480Y0304650D01*
X0287643Y0304668D01*
X0287807Y0304682D01*
X0287971Y0304692D01*
X0288136Y0304698D01*
X0288300Y0304700D01*
X0288464Y0304698D01*
X0288629Y0304692D01*
X0288793Y0304682D01*
X0288957Y0304668D01*
X0289120Y0304650D01*
X0289283Y0304627D01*
X0289445Y0304601D01*
X0289607Y0304571D01*
X0289768Y0304537D01*
X0289928Y0304499D01*
X0290087Y0304457D01*
X0290245Y0304412D01*
X0290402Y0304362D01*
X0290557Y0304308D01*
X0290711Y0304251D01*
X0290864Y0304190D01*
X0291015Y0304125D01*
X0291165Y0304057D01*
X0291312Y0303985D01*
X0291458Y0303909D01*
X0291602Y0303830D01*
X0291744Y0303747D01*
X0291884Y0303661D01*
X0292022Y0303571D01*
X0292158Y0303478D01*
X0292291Y0303381D01*
X0292422Y0303282D01*
X0292550Y0303179D01*
X0292676Y0303073D01*
X0292799Y0302964D01*
X0292920Y0302852D01*
X0293038Y0302738D01*
X0293152Y0302620D01*
X0293264Y0302499D01*
X0293373Y0302376D01*
X0293479Y0302250D01*
X0293582Y0302122D01*
X0293681Y0301991D01*
X0293778Y0301858D01*
X0293871Y0301722D01*
X0293961Y0301584D01*
X0294047Y0301444D01*
X0294130Y0301302D01*
X0294209Y0301158D01*
X0294285Y0301012D01*
X0294357Y0300865D01*
X0294425Y0300715D01*
X0294490Y0300564D01*
X0294551Y0300411D01*
X0294608Y0300257D01*
X0294662Y0300102D01*
X0294712Y0299945D01*
X0294757Y0299787D01*
X0294799Y0299628D01*
X0294837Y0299468D01*
X0294871Y0299307D01*
X0294901Y0299145D01*
X0294927Y0298983D01*
X0294950Y0298820D01*
X0294968Y0298657D01*
X0294982Y0298493D01*
X0294992Y0298329D01*
X0294998Y0298164D01*
X0295000Y0298000D01*
X0294998Y0297836D01*
X0294992Y0297671D01*
X0294982Y0297507D01*
X0294968Y0297343D01*
X0294950Y0297180D01*
X0294927Y0297017D01*
X0294901Y0296855D01*
X0294871Y0296693D01*
X0294837Y0296532D01*
X0294799Y0296372D01*
X0294757Y0296213D01*
X0294712Y0296055D01*
X0294662Y0295898D01*
X0294608Y0295743D01*
X0294551Y0295589D01*
X0294490Y0295436D01*
X0294425Y0295285D01*
X0294357Y0295135D01*
X0294285Y0294988D01*
X0294209Y0294842D01*
X0294130Y0294698D01*
X0294047Y0294556D01*
X0293961Y0294416D01*
X0293871Y0294278D01*
X0293778Y0294142D01*
X0293681Y0294009D01*
X0293582Y0293878D01*
X0293479Y0293750D01*
X0293373Y0293624D01*
X0293264Y0293501D01*
X0293152Y0293380D01*
X0293038Y0293262D01*
X0292920Y0293148D01*
X0292799Y0293036D01*
X0292676Y0292927D01*
X0292550Y0292821D01*
X0292422Y0292718D01*
X0292291Y0292619D01*
X0292158Y0292522D01*
X0292022Y0292429D01*
X0291884Y0292339D01*
X0291744Y0292253D01*
X0291602Y0292170D01*
X0291458Y0292091D01*
X0291312Y0292015D01*
X0291165Y0291943D01*
X0291015Y0291875D01*
X0290864Y0291810D01*
X0290711Y0291749D01*
X0290557Y0291692D01*
X0290402Y0291638D01*
X0290245Y0291588D01*
X0290087Y0291543D01*
X0289928Y0291501D01*
X0289768Y0291463D01*
X0289607Y0291429D01*
X0289445Y0291399D01*
X0289283Y0291373D01*
X0289120Y0291350D01*
X0288957Y0291332D01*
X0288793Y0291318D01*
X0288629Y0291308D01*
X0288464Y0291302D01*
X0288300Y0291300D01*
X0288136Y0291302D01*
X0287971Y0291308D01*
X0287807Y0291318D01*
X0287643Y0291332D01*
X0287480Y0291350D01*
X0287317Y0291373D01*
X0287155Y0291399D01*
X0286993Y0291429D01*
X0286832Y0291463D01*
X0286672Y0291501D01*
X0286513Y0291543D01*
X0286355Y0291588D01*
X0286198Y0291638D01*
X0286043Y0291692D01*
X0285889Y0291749D01*
X0285736Y0291810D01*
X0285585Y0291875D01*
X0285435Y0291943D01*
X0285288Y0292015D01*
X0285142Y0292091D01*
X0284998Y0292170D01*
X0284856Y0292253D01*
X0284716Y0292339D01*
X0284578Y0292429D01*
X0284442Y0292522D01*
X0284309Y0292619D01*
X0284178Y0292718D01*
X0284050Y0292821D01*
X0283924Y0292927D01*
X0283801Y0293036D01*
X0283680Y0293148D01*
X0283562Y0293262D01*
X0283448Y0293380D01*
X0283336Y0293501D01*
X0283227Y0293624D01*
X0283121Y0293750D01*
X0283018Y0293878D01*
X0282919Y0294009D01*
X0282822Y0294142D01*
X0282729Y0294278D01*
X0282639Y0294416D01*
X0282553Y0294556D01*
X0282470Y0294698D01*
X0282391Y0294842D01*
X0282315Y0294988D01*
X0282243Y0295135D01*
X0282175Y0295285D01*
X0282110Y0295436D01*
X0282049Y0295589D01*
X0281992Y0295743D01*
X0281938Y0295898D01*
X0281888Y0296055D01*
X0281843Y0296213D01*
X0281801Y0296372D01*
X0281763Y0296532D01*
X0281729Y0296693D01*
X0281699Y0296855D01*
X0281673Y0297017D01*
X0281650Y0297180D01*
X0281632Y0297343D01*
X0281618Y0297507D01*
X0281608Y0297671D01*
X0281602Y0297836D01*
X0281600Y0298000D01*
X0281600Y0028000D02*
X0281602Y0028164D01*
X0281608Y0028329D01*
X0281618Y0028493D01*
X0281632Y0028657D01*
X0281650Y0028820D01*
X0281673Y0028983D01*
X0281699Y0029145D01*
X0281729Y0029307D01*
X0281763Y0029468D01*
X0281801Y0029628D01*
X0281843Y0029787D01*
X0281888Y0029945D01*
X0281938Y0030102D01*
X0281992Y0030257D01*
X0282049Y0030411D01*
X0282110Y0030564D01*
X0282175Y0030715D01*
X0282243Y0030865D01*
X0282315Y0031012D01*
X0282391Y0031158D01*
X0282470Y0031302D01*
X0282553Y0031444D01*
X0282639Y0031584D01*
X0282729Y0031722D01*
X0282822Y0031858D01*
X0282919Y0031991D01*
X0283018Y0032122D01*
X0283121Y0032250D01*
X0283227Y0032376D01*
X0283336Y0032499D01*
X0283448Y0032620D01*
X0283562Y0032738D01*
X0283680Y0032852D01*
X0283801Y0032964D01*
X0283924Y0033073D01*
X0284050Y0033179D01*
X0284178Y0033282D01*
X0284309Y0033381D01*
X0284442Y0033478D01*
X0284578Y0033571D01*
X0284716Y0033661D01*
X0284856Y0033747D01*
X0284998Y0033830D01*
X0285142Y0033909D01*
X0285288Y0033985D01*
X0285435Y0034057D01*
X0285585Y0034125D01*
X0285736Y0034190D01*
X0285889Y0034251D01*
X0286043Y0034308D01*
X0286198Y0034362D01*
X0286355Y0034412D01*
X0286513Y0034457D01*
X0286672Y0034499D01*
X0286832Y0034537D01*
X0286993Y0034571D01*
X0287155Y0034601D01*
X0287317Y0034627D01*
X0287480Y0034650D01*
X0287643Y0034668D01*
X0287807Y0034682D01*
X0287971Y0034692D01*
X0288136Y0034698D01*
X0288300Y0034700D01*
X0288464Y0034698D01*
X0288629Y0034692D01*
X0288793Y0034682D01*
X0288957Y0034668D01*
X0289120Y0034650D01*
X0289283Y0034627D01*
X0289445Y0034601D01*
X0289607Y0034571D01*
X0289768Y0034537D01*
X0289928Y0034499D01*
X0290087Y0034457D01*
X0290245Y0034412D01*
X0290402Y0034362D01*
X0290557Y0034308D01*
X0290711Y0034251D01*
X0290864Y0034190D01*
X0291015Y0034125D01*
X0291165Y0034057D01*
X0291312Y0033985D01*
X0291458Y0033909D01*
X0291602Y0033830D01*
X0291744Y0033747D01*
X0291884Y0033661D01*
X0292022Y0033571D01*
X0292158Y0033478D01*
X0292291Y0033381D01*
X0292422Y0033282D01*
X0292550Y0033179D01*
X0292676Y0033073D01*
X0292799Y0032964D01*
X0292920Y0032852D01*
X0293038Y0032738D01*
X0293152Y0032620D01*
X0293264Y0032499D01*
X0293373Y0032376D01*
X0293479Y0032250D01*
X0293582Y0032122D01*
X0293681Y0031991D01*
X0293778Y0031858D01*
X0293871Y0031722D01*
X0293961Y0031584D01*
X0294047Y0031444D01*
X0294130Y0031302D01*
X0294209Y0031158D01*
X0294285Y0031012D01*
X0294357Y0030865D01*
X0294425Y0030715D01*
X0294490Y0030564D01*
X0294551Y0030411D01*
X0294608Y0030257D01*
X0294662Y0030102D01*
X0294712Y0029945D01*
X0294757Y0029787D01*
X0294799Y0029628D01*
X0294837Y0029468D01*
X0294871Y0029307D01*
X0294901Y0029145D01*
X0294927Y0028983D01*
X0294950Y0028820D01*
X0294968Y0028657D01*
X0294982Y0028493D01*
X0294992Y0028329D01*
X0294998Y0028164D01*
X0295000Y0028000D01*
X0294998Y0027836D01*
X0294992Y0027671D01*
X0294982Y0027507D01*
X0294968Y0027343D01*
X0294950Y0027180D01*
X0294927Y0027017D01*
X0294901Y0026855D01*
X0294871Y0026693D01*
X0294837Y0026532D01*
X0294799Y0026372D01*
X0294757Y0026213D01*
X0294712Y0026055D01*
X0294662Y0025898D01*
X0294608Y0025743D01*
X0294551Y0025589D01*
X0294490Y0025436D01*
X0294425Y0025285D01*
X0294357Y0025135D01*
X0294285Y0024988D01*
X0294209Y0024842D01*
X0294130Y0024698D01*
X0294047Y0024556D01*
X0293961Y0024416D01*
X0293871Y0024278D01*
X0293778Y0024142D01*
X0293681Y0024009D01*
X0293582Y0023878D01*
X0293479Y0023750D01*
X0293373Y0023624D01*
X0293264Y0023501D01*
X0293152Y0023380D01*
X0293038Y0023262D01*
X0292920Y0023148D01*
X0292799Y0023036D01*
X0292676Y0022927D01*
X0292550Y0022821D01*
X0292422Y0022718D01*
X0292291Y0022619D01*
X0292158Y0022522D01*
X0292022Y0022429D01*
X0291884Y0022339D01*
X0291744Y0022253D01*
X0291602Y0022170D01*
X0291458Y0022091D01*
X0291312Y0022015D01*
X0291165Y0021943D01*
X0291015Y0021875D01*
X0290864Y0021810D01*
X0290711Y0021749D01*
X0290557Y0021692D01*
X0290402Y0021638D01*
X0290245Y0021588D01*
X0290087Y0021543D01*
X0289928Y0021501D01*
X0289768Y0021463D01*
X0289607Y0021429D01*
X0289445Y0021399D01*
X0289283Y0021373D01*
X0289120Y0021350D01*
X0288957Y0021332D01*
X0288793Y0021318D01*
X0288629Y0021308D01*
X0288464Y0021302D01*
X0288300Y0021300D01*
X0288136Y0021302D01*
X0287971Y0021308D01*
X0287807Y0021318D01*
X0287643Y0021332D01*
X0287480Y0021350D01*
X0287317Y0021373D01*
X0287155Y0021399D01*
X0286993Y0021429D01*
X0286832Y0021463D01*
X0286672Y0021501D01*
X0286513Y0021543D01*
X0286355Y0021588D01*
X0286198Y0021638D01*
X0286043Y0021692D01*
X0285889Y0021749D01*
X0285736Y0021810D01*
X0285585Y0021875D01*
X0285435Y0021943D01*
X0285288Y0022015D01*
X0285142Y0022091D01*
X0284998Y0022170D01*
X0284856Y0022253D01*
X0284716Y0022339D01*
X0284578Y0022429D01*
X0284442Y0022522D01*
X0284309Y0022619D01*
X0284178Y0022718D01*
X0284050Y0022821D01*
X0283924Y0022927D01*
X0283801Y0023036D01*
X0283680Y0023148D01*
X0283562Y0023262D01*
X0283448Y0023380D01*
X0283336Y0023501D01*
X0283227Y0023624D01*
X0283121Y0023750D01*
X0283018Y0023878D01*
X0282919Y0024009D01*
X0282822Y0024142D01*
X0282729Y0024278D01*
X0282639Y0024416D01*
X0282553Y0024556D01*
X0282470Y0024698D01*
X0282391Y0024842D01*
X0282315Y0024988D01*
X0282243Y0025135D01*
X0282175Y0025285D01*
X0282110Y0025436D01*
X0282049Y0025589D01*
X0281992Y0025743D01*
X0281938Y0025898D01*
X0281888Y0026055D01*
X0281843Y0026213D01*
X0281801Y0026372D01*
X0281763Y0026532D01*
X0281729Y0026693D01*
X0281699Y0026855D01*
X0281673Y0027017D01*
X0281650Y0027180D01*
X0281632Y0027343D01*
X0281618Y0027507D01*
X0281608Y0027671D01*
X0281602Y0027836D01*
X0281600Y0028000D01*
M02*
