G75*
%MOIN*%
%OFA0B0*%
%FSLAX25Y25*%
%IPPOS*%
%LPD*%
%AMOC8*
5,1,8,0,0,1.08239X$1,22.5*
%
%ADD10C,0.14200*%
%ADD11OC8,0.06800*%
%ADD12R,0.07099X0.08674*%
%ADD13R,0.08674X0.07099*%
%ADD14R,0.07099X0.16154*%
%ADD15R,0.04737X0.06312*%
%ADD16R,0.07099X0.07887*%
%ADD17R,0.07887X0.07099*%
%ADD18C,0.05556*%
%ADD19R,0.06312X0.02375*%
%ADD20C,0.00800*%
D10*
X0018300Y0028000D03*
X0018300Y0298000D03*
X0288300Y0298000D03*
X0288300Y0028000D03*
D11*
X0258300Y0278000D03*
X0258300Y0288000D03*
X0248300Y0288000D03*
X0238300Y0288000D03*
X0228300Y0288000D03*
X0218300Y0288000D03*
X0218300Y0278000D03*
X0228300Y0278000D03*
X0238300Y0278000D03*
X0248300Y0278000D03*
X0208300Y0278000D03*
X0208300Y0288000D03*
D12*
X0175312Y0288000D03*
X0164288Y0288000D03*
X0149312Y0288000D03*
X0138288Y0288000D03*
X0094312Y0288000D03*
X0083288Y0288000D03*
X0068312Y0288000D03*
X0057288Y0288000D03*
D13*
X0273800Y0278012D03*
X0273800Y0266988D03*
D14*
X0216300Y0163232D03*
X0216300Y0129768D03*
X0090300Y0223768D03*
X0090300Y0257232D03*
D15*
X0146060Y0226331D03*
X0153540Y0226331D03*
X0149800Y0217669D03*
X0272060Y0132331D03*
X0275800Y0123669D03*
X0279540Y0132331D03*
D16*
X0279812Y0100500D03*
X0268788Y0100500D03*
X0268788Y0084500D03*
X0279812Y0084500D03*
X0279812Y0068500D03*
X0268788Y0068500D03*
X0251312Y0039000D03*
X0240288Y0039000D03*
X0125312Y0129000D03*
X0114288Y0129000D03*
X0142788Y0162500D03*
X0153812Y0162500D03*
X0153812Y0178500D03*
X0142788Y0178500D03*
X0142788Y0194500D03*
X0153812Y0194500D03*
D17*
X0145800Y0238488D03*
X0145800Y0249512D03*
X0129800Y0249512D03*
X0129800Y0238488D03*
X0055300Y0233012D03*
X0055300Y0221988D03*
X0039300Y0221988D03*
X0039300Y0233012D03*
X0039300Y0207012D03*
X0039300Y0195988D03*
X0050300Y0136512D03*
X0050300Y0125488D03*
X0165300Y0127988D03*
X0165300Y0139012D03*
X0181300Y0139012D03*
X0181300Y0127988D03*
X0165300Y0113012D03*
X0165300Y0101988D03*
X0176300Y0054512D03*
X0176300Y0043488D03*
X0255800Y0144488D03*
X0255800Y0155512D03*
X0271800Y0155512D03*
X0271800Y0144488D03*
D18*
X0225158Y0028000D03*
X0219253Y0028000D03*
X0213347Y0028000D03*
X0207442Y0028000D03*
X0099158Y0028000D03*
X0093253Y0028000D03*
X0087347Y0028000D03*
X0081442Y0028000D03*
D19*
X0189922Y0064748D03*
X0189922Y0067307D03*
X0189922Y0069866D03*
X0189922Y0072425D03*
X0189922Y0074984D03*
X0189922Y0077543D03*
X0189922Y0080102D03*
X0189922Y0082661D03*
X0189922Y0085220D03*
X0189922Y0087780D03*
X0189922Y0090339D03*
X0189922Y0092898D03*
X0189922Y0095457D03*
X0189922Y0098016D03*
X0189922Y0100575D03*
X0189922Y0103134D03*
X0189922Y0105693D03*
X0189922Y0108252D03*
X0242678Y0108252D03*
X0242678Y0105693D03*
X0242678Y0103134D03*
X0242678Y0100575D03*
X0242678Y0098016D03*
X0242678Y0095457D03*
X0242678Y0092898D03*
X0242678Y0090339D03*
X0242678Y0087780D03*
X0242678Y0085220D03*
X0242678Y0082661D03*
X0242678Y0080102D03*
X0242678Y0077543D03*
X0242678Y0074984D03*
X0242678Y0072425D03*
X0242678Y0069866D03*
X0242678Y0067307D03*
X0242678Y0064748D03*
X0116678Y0158748D03*
X0116678Y0161307D03*
X0116678Y0163866D03*
X0116678Y0166425D03*
X0116678Y0168984D03*
X0116678Y0171543D03*
X0116678Y0174102D03*
X0116678Y0176661D03*
X0116678Y0179220D03*
X0116678Y0181780D03*
X0116678Y0184339D03*
X0116678Y0186898D03*
X0116678Y0189457D03*
X0116678Y0192016D03*
X0116678Y0194575D03*
X0116678Y0197134D03*
X0116678Y0199693D03*
X0116678Y0202252D03*
X0063922Y0202252D03*
X0063922Y0199693D03*
X0063922Y0197134D03*
X0063922Y0194575D03*
X0063922Y0192016D03*
X0063922Y0189457D03*
X0063922Y0186898D03*
X0063922Y0184339D03*
X0063922Y0181780D03*
X0063922Y0179220D03*
X0063922Y0176661D03*
X0063922Y0174102D03*
X0063922Y0171543D03*
X0063922Y0168984D03*
X0063922Y0166425D03*
X0063922Y0163866D03*
X0063922Y0161307D03*
X0063922Y0158748D03*
D20*
X0078489Y0161602D02*
X0078489Y0199398D01*
X0084788Y0199398D01*
X0084788Y0211602D01*
X0095812Y0211602D01*
X0095812Y0199398D01*
X0102111Y0199398D01*
X0102111Y0161602D01*
X0095812Y0161602D01*
X0095812Y0161209D01*
X0095812Y0149398D01*
X0084788Y0149398D01*
X0084788Y0161602D01*
X0078489Y0161602D01*
X0078489Y0162322D02*
X0102111Y0162322D01*
X0102111Y0163120D02*
X0078489Y0163120D01*
X0078489Y0163919D02*
X0102111Y0163919D01*
X0102111Y0164717D02*
X0078489Y0164717D01*
X0078489Y0165516D02*
X0102111Y0165516D01*
X0102111Y0166314D02*
X0078489Y0166314D01*
X0078489Y0167113D02*
X0102111Y0167113D01*
X0102111Y0167911D02*
X0078489Y0167911D01*
X0078489Y0168710D02*
X0102111Y0168710D01*
X0102111Y0169508D02*
X0078489Y0169508D01*
X0078489Y0170307D02*
X0102111Y0170307D01*
X0102111Y0171105D02*
X0078489Y0171105D01*
X0078489Y0171904D02*
X0102111Y0171904D01*
X0102111Y0172702D02*
X0078489Y0172702D01*
X0078489Y0173501D02*
X0102111Y0173501D01*
X0102111Y0174299D02*
X0078489Y0174299D01*
X0078489Y0175098D02*
X0102111Y0175098D01*
X0102111Y0175896D02*
X0078489Y0175896D01*
X0078489Y0176695D02*
X0102111Y0176695D01*
X0102111Y0177493D02*
X0078489Y0177493D01*
X0078489Y0178292D02*
X0102111Y0178292D01*
X0102111Y0179090D02*
X0078489Y0179090D01*
X0078489Y0179889D02*
X0102111Y0179889D01*
X0102111Y0180687D02*
X0078489Y0180687D01*
X0078489Y0181486D02*
X0102111Y0181486D01*
X0102111Y0182284D02*
X0078489Y0182284D01*
X0078489Y0183083D02*
X0102111Y0183083D01*
X0102111Y0183881D02*
X0078489Y0183881D01*
X0078489Y0184680D02*
X0102111Y0184680D01*
X0102111Y0185478D02*
X0078489Y0185478D01*
X0078489Y0186277D02*
X0102111Y0186277D01*
X0102111Y0187075D02*
X0078489Y0187075D01*
X0078489Y0187874D02*
X0102111Y0187874D01*
X0102111Y0188672D02*
X0078489Y0188672D01*
X0078489Y0189471D02*
X0102111Y0189471D01*
X0102111Y0190270D02*
X0078489Y0190270D01*
X0078489Y0191068D02*
X0102111Y0191068D01*
X0102111Y0191867D02*
X0078489Y0191867D01*
X0078489Y0192665D02*
X0102111Y0192665D01*
X0102111Y0193464D02*
X0078489Y0193464D01*
X0078489Y0194262D02*
X0102111Y0194262D01*
X0102111Y0195061D02*
X0078489Y0195061D01*
X0078489Y0195859D02*
X0102111Y0195859D01*
X0102111Y0196658D02*
X0078489Y0196658D01*
X0078489Y0197456D02*
X0102111Y0197456D01*
X0102111Y0198255D02*
X0078489Y0198255D01*
X0078489Y0199053D02*
X0102111Y0199053D01*
X0095812Y0199852D02*
X0084788Y0199852D01*
X0084788Y0200650D02*
X0095812Y0200650D01*
X0095812Y0201449D02*
X0084788Y0201449D01*
X0084788Y0202247D02*
X0095812Y0202247D01*
X0095812Y0203046D02*
X0084788Y0203046D01*
X0084788Y0203844D02*
X0095812Y0203844D01*
X0095812Y0204643D02*
X0084788Y0204643D01*
X0084788Y0205441D02*
X0095812Y0205441D01*
X0095812Y0206240D02*
X0084788Y0206240D01*
X0084788Y0207038D02*
X0095812Y0207038D01*
X0095812Y0207837D02*
X0084788Y0207837D01*
X0084788Y0208635D02*
X0095812Y0208635D01*
X0095812Y0209434D02*
X0084788Y0209434D01*
X0084788Y0210232D02*
X0095812Y0210232D01*
X0095812Y0211031D02*
X0084788Y0211031D01*
X0084788Y0161523D02*
X0095812Y0161523D01*
X0095812Y0160725D02*
X0084788Y0160725D01*
X0084788Y0159926D02*
X0095812Y0159926D01*
X0095812Y0159128D02*
X0084788Y0159128D01*
X0084788Y0158329D02*
X0095812Y0158329D01*
X0095812Y0157531D02*
X0084788Y0157531D01*
X0084788Y0156732D02*
X0095812Y0156732D01*
X0095812Y0155934D02*
X0084788Y0155934D01*
X0084788Y0155135D02*
X0095812Y0155135D01*
X0095812Y0154337D02*
X0084788Y0154337D01*
X0084788Y0153538D02*
X0095812Y0153538D01*
X0095812Y0152739D02*
X0084788Y0152739D01*
X0084788Y0151941D02*
X0095812Y0151941D01*
X0095812Y0151142D02*
X0084788Y0151142D01*
X0084788Y0150344D02*
X0095812Y0150344D01*
X0095812Y0149545D02*
X0084788Y0149545D01*
X0204489Y0105398D02*
X0204489Y0067602D01*
X0210788Y0067602D01*
X0210788Y0055398D01*
X0221812Y0055398D01*
X0221812Y0067209D01*
X0221812Y0067602D01*
X0228111Y0067602D01*
X0228111Y0105398D01*
X0221812Y0105398D01*
X0221812Y0117602D01*
X0210788Y0117602D01*
X0210788Y0105398D01*
X0204489Y0105398D01*
X0204489Y0104829D02*
X0228111Y0104829D01*
X0228111Y0104030D02*
X0204489Y0104030D01*
X0204489Y0103232D02*
X0228111Y0103232D01*
X0228111Y0102433D02*
X0204489Y0102433D01*
X0204489Y0101635D02*
X0228111Y0101635D01*
X0228111Y0100836D02*
X0204489Y0100836D01*
X0204489Y0100038D02*
X0228111Y0100038D01*
X0228111Y0099239D02*
X0204489Y0099239D01*
X0204489Y0098441D02*
X0228111Y0098441D01*
X0228111Y0097642D02*
X0204489Y0097642D01*
X0204489Y0096844D02*
X0228111Y0096844D01*
X0228111Y0096045D02*
X0204489Y0096045D01*
X0204489Y0095247D02*
X0228111Y0095247D01*
X0228111Y0094448D02*
X0204489Y0094448D01*
X0204489Y0093650D02*
X0228111Y0093650D01*
X0228111Y0092851D02*
X0204489Y0092851D01*
X0204489Y0092053D02*
X0228111Y0092053D01*
X0228111Y0091254D02*
X0204489Y0091254D01*
X0204489Y0090456D02*
X0228111Y0090456D01*
X0228111Y0089657D02*
X0204489Y0089657D01*
X0204489Y0088859D02*
X0228111Y0088859D01*
X0228111Y0088060D02*
X0204489Y0088060D01*
X0204489Y0087262D02*
X0228111Y0087262D01*
X0228111Y0086463D02*
X0204489Y0086463D01*
X0204489Y0085665D02*
X0228111Y0085665D01*
X0228111Y0084866D02*
X0204489Y0084866D01*
X0204489Y0084068D02*
X0228111Y0084068D01*
X0228111Y0083269D02*
X0204489Y0083269D01*
X0204489Y0082470D02*
X0228111Y0082470D01*
X0228111Y0081672D02*
X0204489Y0081672D01*
X0204489Y0080873D02*
X0228111Y0080873D01*
X0228111Y0080075D02*
X0204489Y0080075D01*
X0204489Y0079276D02*
X0228111Y0079276D01*
X0228111Y0078478D02*
X0204489Y0078478D01*
X0204489Y0077679D02*
X0228111Y0077679D01*
X0228111Y0076881D02*
X0204489Y0076881D01*
X0204489Y0076082D02*
X0228111Y0076082D01*
X0228111Y0075284D02*
X0204489Y0075284D01*
X0204489Y0074485D02*
X0228111Y0074485D01*
X0228111Y0073687D02*
X0204489Y0073687D01*
X0204489Y0072888D02*
X0228111Y0072888D01*
X0228111Y0072090D02*
X0204489Y0072090D01*
X0204489Y0071291D02*
X0228111Y0071291D01*
X0228111Y0070493D02*
X0204489Y0070493D01*
X0204489Y0069694D02*
X0228111Y0069694D01*
X0228111Y0068896D02*
X0204489Y0068896D01*
X0204489Y0068097D02*
X0228111Y0068097D01*
X0221812Y0067299D02*
X0210788Y0067299D01*
X0210788Y0066500D02*
X0221812Y0066500D01*
X0221812Y0065702D02*
X0210788Y0065702D01*
X0210788Y0064903D02*
X0221812Y0064903D01*
X0221812Y0064105D02*
X0210788Y0064105D01*
X0210788Y0063306D02*
X0221812Y0063306D01*
X0221812Y0062508D02*
X0210788Y0062508D01*
X0210788Y0061709D02*
X0221812Y0061709D01*
X0221812Y0060911D02*
X0210788Y0060911D01*
X0210788Y0060112D02*
X0221812Y0060112D01*
X0221812Y0059314D02*
X0210788Y0059314D01*
X0210788Y0058515D02*
X0221812Y0058515D01*
X0221812Y0057717D02*
X0210788Y0057717D01*
X0210788Y0056918D02*
X0221812Y0056918D01*
X0221812Y0056120D02*
X0210788Y0056120D01*
X0210788Y0105627D02*
X0221812Y0105627D01*
X0221812Y0106426D02*
X0210788Y0106426D01*
X0210788Y0107224D02*
X0221812Y0107224D01*
X0221812Y0108023D02*
X0210788Y0108023D01*
X0210788Y0108821D02*
X0221812Y0108821D01*
X0221812Y0109620D02*
X0210788Y0109620D01*
X0210788Y0110418D02*
X0221812Y0110418D01*
X0221812Y0111217D02*
X0210788Y0111217D01*
X0210788Y0112015D02*
X0221812Y0112015D01*
X0221812Y0112814D02*
X0210788Y0112814D01*
X0210788Y0113612D02*
X0221812Y0113612D01*
X0221812Y0114411D02*
X0210788Y0114411D01*
X0210788Y0115209D02*
X0221812Y0115209D01*
X0221812Y0116008D02*
X0210788Y0116008D01*
X0210788Y0116806D02*
X0221812Y0116806D01*
M02*
