G75*
%MOIN*%
%OFA0B0*%
%FSLAX25Y25*%
%IPPOS*%
%LPD*%
%AMOC8*
5,1,8,0,0,1.08239X$1,22.5*
%
%ADD10C,0.14200*%
%ADD11C,0.06737*%
%ADD12C,0.05950*%
%ADD13R,0.05950X0.05950*%
%ADD14R,0.06824X0.06824*%
%ADD15C,0.06824*%
%ADD16C,0.06737*%
%ADD17C,0.04762*%
D10*
X0117500Y0016800D03*
X0387500Y0016800D03*
X0387500Y0286800D03*
X0117500Y0286800D03*
D11*
X0035000Y0106643D03*
X0035000Y0086957D03*
D12*
X0159626Y0267863D03*
X0159626Y0275737D03*
X0167500Y0275737D03*
X0167500Y0267863D03*
X0175374Y0267863D03*
X0175374Y0275737D03*
X0183248Y0275737D03*
X0183248Y0267863D03*
X0151752Y0275737D03*
D13*
X0151752Y0267863D03*
D14*
X0307500Y0266800D03*
X0357500Y0236800D03*
X0082500Y0081800D03*
D15*
X0082500Y0071800D03*
X0072500Y0071800D03*
X0062500Y0071800D03*
X0062500Y0081800D03*
X0072500Y0081800D03*
X0317500Y0266800D03*
X0327500Y0266800D03*
X0337500Y0266800D03*
X0347500Y0266800D03*
X0357500Y0266800D03*
X0357500Y0276800D03*
X0347500Y0276800D03*
X0337500Y0276800D03*
X0327500Y0276800D03*
X0317500Y0276800D03*
X0307500Y0276800D03*
X0367500Y0236800D03*
X0367500Y0226800D03*
X0357500Y0226800D03*
X0357500Y0216800D03*
X0367500Y0216800D03*
D16*
X0060000Y0044769D02*
X0060000Y0038831D01*
X0070000Y0038831D02*
X0070000Y0044769D01*
X0080000Y0044769D02*
X0080000Y0038831D01*
X0090000Y0038831D02*
X0090000Y0044769D01*
D17*
X0092500Y0061800D03*
X0095250Y0095550D03*
X0084750Y0095550D03*
X0102500Y0126800D03*
X0097500Y0134300D03*
X0107500Y0139300D03*
X0092500Y0161800D03*
X0090000Y0169300D03*
X0092500Y0176800D03*
X0090000Y0184300D03*
X0092500Y0191800D03*
X0090000Y0199300D03*
X0092500Y0206800D03*
X0100000Y0206800D03*
X0107500Y0206800D03*
X0115000Y0206800D03*
X0122500Y0206800D03*
X0130000Y0206800D03*
X0127500Y0214300D03*
X0120000Y0214300D03*
X0112500Y0214300D03*
X0105000Y0214300D03*
X0097500Y0214300D03*
X0090000Y0214300D03*
X0074000Y0215800D03*
X0068500Y0216300D03*
X0061500Y0216300D03*
X0055500Y0216300D03*
X0049000Y0216800D03*
X0041500Y0216300D03*
X0034500Y0216300D03*
X0028500Y0215800D03*
X0022500Y0218300D03*
X0017000Y0218800D03*
X0012500Y0223800D03*
X0029000Y0202800D03*
X0034500Y0202800D03*
X0029000Y0195800D03*
X0027500Y0188300D03*
X0020000Y0186300D03*
X0014000Y0183800D03*
X0050500Y0202800D03*
X0058000Y0202300D03*
X0064000Y0202300D03*
X0072500Y0200550D03*
X0112500Y0231800D03*
X0113750Y0240550D03*
X0122500Y0240550D03*
X0127500Y0231800D03*
X0135000Y0214300D03*
X0160000Y0164300D03*
X0152500Y0159300D03*
X0137500Y0136800D03*
X0172500Y0095550D03*
X0167500Y0071800D03*
X0160000Y0055550D03*
X0165000Y0039300D03*
X0212500Y0041800D03*
X0327500Y0110550D03*
X0345000Y0114300D03*
X0275000Y0154300D03*
X0270000Y0161800D03*
X0260000Y0161800D03*
X0265000Y0154300D03*
X0282500Y0189300D03*
X0317500Y0169300D03*
X0327500Y0174300D03*
X0337500Y0184300D03*
X0347500Y0179300D03*
X0347500Y0249300D03*
X0337500Y0249300D03*
X0327500Y0249300D03*
X0317500Y0249300D03*
X0203750Y0209300D03*
X0125000Y0264300D03*
X0045000Y0153300D03*
M02*
