G75*
%MOIN*%
%OFA0B0*%
%FSLAX25Y25*%
%IPPOS*%
%LPD*%
%AMOC8*
5,1,8,0,0,1.08239X$1,22.5*
%
%ADD10C,0.00000*%
%ADD11C,0.01600*%
%ADD12C,0.01500*%
D10*
X0110800Y0016800D02*
X0110802Y0016964D01*
X0110808Y0017129D01*
X0110818Y0017293D01*
X0110832Y0017457D01*
X0110850Y0017620D01*
X0110873Y0017783D01*
X0110899Y0017945D01*
X0110929Y0018107D01*
X0110963Y0018268D01*
X0111001Y0018428D01*
X0111043Y0018587D01*
X0111088Y0018745D01*
X0111138Y0018902D01*
X0111192Y0019057D01*
X0111249Y0019211D01*
X0111310Y0019364D01*
X0111375Y0019515D01*
X0111443Y0019665D01*
X0111515Y0019812D01*
X0111591Y0019958D01*
X0111670Y0020102D01*
X0111753Y0020244D01*
X0111839Y0020384D01*
X0111929Y0020522D01*
X0112022Y0020658D01*
X0112119Y0020791D01*
X0112218Y0020922D01*
X0112321Y0021050D01*
X0112427Y0021176D01*
X0112536Y0021299D01*
X0112648Y0021420D01*
X0112762Y0021538D01*
X0112880Y0021652D01*
X0113001Y0021764D01*
X0113124Y0021873D01*
X0113250Y0021979D01*
X0113378Y0022082D01*
X0113509Y0022181D01*
X0113642Y0022278D01*
X0113778Y0022371D01*
X0113916Y0022461D01*
X0114056Y0022547D01*
X0114198Y0022630D01*
X0114342Y0022709D01*
X0114488Y0022785D01*
X0114635Y0022857D01*
X0114785Y0022925D01*
X0114936Y0022990D01*
X0115089Y0023051D01*
X0115243Y0023108D01*
X0115398Y0023162D01*
X0115555Y0023212D01*
X0115713Y0023257D01*
X0115872Y0023299D01*
X0116032Y0023337D01*
X0116193Y0023371D01*
X0116355Y0023401D01*
X0116517Y0023427D01*
X0116680Y0023450D01*
X0116843Y0023468D01*
X0117007Y0023482D01*
X0117171Y0023492D01*
X0117336Y0023498D01*
X0117500Y0023500D01*
X0117664Y0023498D01*
X0117829Y0023492D01*
X0117993Y0023482D01*
X0118157Y0023468D01*
X0118320Y0023450D01*
X0118483Y0023427D01*
X0118645Y0023401D01*
X0118807Y0023371D01*
X0118968Y0023337D01*
X0119128Y0023299D01*
X0119287Y0023257D01*
X0119445Y0023212D01*
X0119602Y0023162D01*
X0119757Y0023108D01*
X0119911Y0023051D01*
X0120064Y0022990D01*
X0120215Y0022925D01*
X0120365Y0022857D01*
X0120512Y0022785D01*
X0120658Y0022709D01*
X0120802Y0022630D01*
X0120944Y0022547D01*
X0121084Y0022461D01*
X0121222Y0022371D01*
X0121358Y0022278D01*
X0121491Y0022181D01*
X0121622Y0022082D01*
X0121750Y0021979D01*
X0121876Y0021873D01*
X0121999Y0021764D01*
X0122120Y0021652D01*
X0122238Y0021538D01*
X0122352Y0021420D01*
X0122464Y0021299D01*
X0122573Y0021176D01*
X0122679Y0021050D01*
X0122782Y0020922D01*
X0122881Y0020791D01*
X0122978Y0020658D01*
X0123071Y0020522D01*
X0123161Y0020384D01*
X0123247Y0020244D01*
X0123330Y0020102D01*
X0123409Y0019958D01*
X0123485Y0019812D01*
X0123557Y0019665D01*
X0123625Y0019515D01*
X0123690Y0019364D01*
X0123751Y0019211D01*
X0123808Y0019057D01*
X0123862Y0018902D01*
X0123912Y0018745D01*
X0123957Y0018587D01*
X0123999Y0018428D01*
X0124037Y0018268D01*
X0124071Y0018107D01*
X0124101Y0017945D01*
X0124127Y0017783D01*
X0124150Y0017620D01*
X0124168Y0017457D01*
X0124182Y0017293D01*
X0124192Y0017129D01*
X0124198Y0016964D01*
X0124200Y0016800D01*
X0124198Y0016636D01*
X0124192Y0016471D01*
X0124182Y0016307D01*
X0124168Y0016143D01*
X0124150Y0015980D01*
X0124127Y0015817D01*
X0124101Y0015655D01*
X0124071Y0015493D01*
X0124037Y0015332D01*
X0123999Y0015172D01*
X0123957Y0015013D01*
X0123912Y0014855D01*
X0123862Y0014698D01*
X0123808Y0014543D01*
X0123751Y0014389D01*
X0123690Y0014236D01*
X0123625Y0014085D01*
X0123557Y0013935D01*
X0123485Y0013788D01*
X0123409Y0013642D01*
X0123330Y0013498D01*
X0123247Y0013356D01*
X0123161Y0013216D01*
X0123071Y0013078D01*
X0122978Y0012942D01*
X0122881Y0012809D01*
X0122782Y0012678D01*
X0122679Y0012550D01*
X0122573Y0012424D01*
X0122464Y0012301D01*
X0122352Y0012180D01*
X0122238Y0012062D01*
X0122120Y0011948D01*
X0121999Y0011836D01*
X0121876Y0011727D01*
X0121750Y0011621D01*
X0121622Y0011518D01*
X0121491Y0011419D01*
X0121358Y0011322D01*
X0121222Y0011229D01*
X0121084Y0011139D01*
X0120944Y0011053D01*
X0120802Y0010970D01*
X0120658Y0010891D01*
X0120512Y0010815D01*
X0120365Y0010743D01*
X0120215Y0010675D01*
X0120064Y0010610D01*
X0119911Y0010549D01*
X0119757Y0010492D01*
X0119602Y0010438D01*
X0119445Y0010388D01*
X0119287Y0010343D01*
X0119128Y0010301D01*
X0118968Y0010263D01*
X0118807Y0010229D01*
X0118645Y0010199D01*
X0118483Y0010173D01*
X0118320Y0010150D01*
X0118157Y0010132D01*
X0117993Y0010118D01*
X0117829Y0010108D01*
X0117664Y0010102D01*
X0117500Y0010100D01*
X0117336Y0010102D01*
X0117171Y0010108D01*
X0117007Y0010118D01*
X0116843Y0010132D01*
X0116680Y0010150D01*
X0116517Y0010173D01*
X0116355Y0010199D01*
X0116193Y0010229D01*
X0116032Y0010263D01*
X0115872Y0010301D01*
X0115713Y0010343D01*
X0115555Y0010388D01*
X0115398Y0010438D01*
X0115243Y0010492D01*
X0115089Y0010549D01*
X0114936Y0010610D01*
X0114785Y0010675D01*
X0114635Y0010743D01*
X0114488Y0010815D01*
X0114342Y0010891D01*
X0114198Y0010970D01*
X0114056Y0011053D01*
X0113916Y0011139D01*
X0113778Y0011229D01*
X0113642Y0011322D01*
X0113509Y0011419D01*
X0113378Y0011518D01*
X0113250Y0011621D01*
X0113124Y0011727D01*
X0113001Y0011836D01*
X0112880Y0011948D01*
X0112762Y0012062D01*
X0112648Y0012180D01*
X0112536Y0012301D01*
X0112427Y0012424D01*
X0112321Y0012550D01*
X0112218Y0012678D01*
X0112119Y0012809D01*
X0112022Y0012942D01*
X0111929Y0013078D01*
X0111839Y0013216D01*
X0111753Y0013356D01*
X0111670Y0013498D01*
X0111591Y0013642D01*
X0111515Y0013788D01*
X0111443Y0013935D01*
X0111375Y0014085D01*
X0111310Y0014236D01*
X0111249Y0014389D01*
X0111192Y0014543D01*
X0111138Y0014698D01*
X0111088Y0014855D01*
X0111043Y0015013D01*
X0111001Y0015172D01*
X0110963Y0015332D01*
X0110929Y0015493D01*
X0110899Y0015655D01*
X0110873Y0015817D01*
X0110850Y0015980D01*
X0110832Y0016143D01*
X0110818Y0016307D01*
X0110808Y0016471D01*
X0110802Y0016636D01*
X0110800Y0016800D01*
X0380800Y0016800D02*
X0380802Y0016964D01*
X0380808Y0017129D01*
X0380818Y0017293D01*
X0380832Y0017457D01*
X0380850Y0017620D01*
X0380873Y0017783D01*
X0380899Y0017945D01*
X0380929Y0018107D01*
X0380963Y0018268D01*
X0381001Y0018428D01*
X0381043Y0018587D01*
X0381088Y0018745D01*
X0381138Y0018902D01*
X0381192Y0019057D01*
X0381249Y0019211D01*
X0381310Y0019364D01*
X0381375Y0019515D01*
X0381443Y0019665D01*
X0381515Y0019812D01*
X0381591Y0019958D01*
X0381670Y0020102D01*
X0381753Y0020244D01*
X0381839Y0020384D01*
X0381929Y0020522D01*
X0382022Y0020658D01*
X0382119Y0020791D01*
X0382218Y0020922D01*
X0382321Y0021050D01*
X0382427Y0021176D01*
X0382536Y0021299D01*
X0382648Y0021420D01*
X0382762Y0021538D01*
X0382880Y0021652D01*
X0383001Y0021764D01*
X0383124Y0021873D01*
X0383250Y0021979D01*
X0383378Y0022082D01*
X0383509Y0022181D01*
X0383642Y0022278D01*
X0383778Y0022371D01*
X0383916Y0022461D01*
X0384056Y0022547D01*
X0384198Y0022630D01*
X0384342Y0022709D01*
X0384488Y0022785D01*
X0384635Y0022857D01*
X0384785Y0022925D01*
X0384936Y0022990D01*
X0385089Y0023051D01*
X0385243Y0023108D01*
X0385398Y0023162D01*
X0385555Y0023212D01*
X0385713Y0023257D01*
X0385872Y0023299D01*
X0386032Y0023337D01*
X0386193Y0023371D01*
X0386355Y0023401D01*
X0386517Y0023427D01*
X0386680Y0023450D01*
X0386843Y0023468D01*
X0387007Y0023482D01*
X0387171Y0023492D01*
X0387336Y0023498D01*
X0387500Y0023500D01*
X0387664Y0023498D01*
X0387829Y0023492D01*
X0387993Y0023482D01*
X0388157Y0023468D01*
X0388320Y0023450D01*
X0388483Y0023427D01*
X0388645Y0023401D01*
X0388807Y0023371D01*
X0388968Y0023337D01*
X0389128Y0023299D01*
X0389287Y0023257D01*
X0389445Y0023212D01*
X0389602Y0023162D01*
X0389757Y0023108D01*
X0389911Y0023051D01*
X0390064Y0022990D01*
X0390215Y0022925D01*
X0390365Y0022857D01*
X0390512Y0022785D01*
X0390658Y0022709D01*
X0390802Y0022630D01*
X0390944Y0022547D01*
X0391084Y0022461D01*
X0391222Y0022371D01*
X0391358Y0022278D01*
X0391491Y0022181D01*
X0391622Y0022082D01*
X0391750Y0021979D01*
X0391876Y0021873D01*
X0391999Y0021764D01*
X0392120Y0021652D01*
X0392238Y0021538D01*
X0392352Y0021420D01*
X0392464Y0021299D01*
X0392573Y0021176D01*
X0392679Y0021050D01*
X0392782Y0020922D01*
X0392881Y0020791D01*
X0392978Y0020658D01*
X0393071Y0020522D01*
X0393161Y0020384D01*
X0393247Y0020244D01*
X0393330Y0020102D01*
X0393409Y0019958D01*
X0393485Y0019812D01*
X0393557Y0019665D01*
X0393625Y0019515D01*
X0393690Y0019364D01*
X0393751Y0019211D01*
X0393808Y0019057D01*
X0393862Y0018902D01*
X0393912Y0018745D01*
X0393957Y0018587D01*
X0393999Y0018428D01*
X0394037Y0018268D01*
X0394071Y0018107D01*
X0394101Y0017945D01*
X0394127Y0017783D01*
X0394150Y0017620D01*
X0394168Y0017457D01*
X0394182Y0017293D01*
X0394192Y0017129D01*
X0394198Y0016964D01*
X0394200Y0016800D01*
X0394198Y0016636D01*
X0394192Y0016471D01*
X0394182Y0016307D01*
X0394168Y0016143D01*
X0394150Y0015980D01*
X0394127Y0015817D01*
X0394101Y0015655D01*
X0394071Y0015493D01*
X0394037Y0015332D01*
X0393999Y0015172D01*
X0393957Y0015013D01*
X0393912Y0014855D01*
X0393862Y0014698D01*
X0393808Y0014543D01*
X0393751Y0014389D01*
X0393690Y0014236D01*
X0393625Y0014085D01*
X0393557Y0013935D01*
X0393485Y0013788D01*
X0393409Y0013642D01*
X0393330Y0013498D01*
X0393247Y0013356D01*
X0393161Y0013216D01*
X0393071Y0013078D01*
X0392978Y0012942D01*
X0392881Y0012809D01*
X0392782Y0012678D01*
X0392679Y0012550D01*
X0392573Y0012424D01*
X0392464Y0012301D01*
X0392352Y0012180D01*
X0392238Y0012062D01*
X0392120Y0011948D01*
X0391999Y0011836D01*
X0391876Y0011727D01*
X0391750Y0011621D01*
X0391622Y0011518D01*
X0391491Y0011419D01*
X0391358Y0011322D01*
X0391222Y0011229D01*
X0391084Y0011139D01*
X0390944Y0011053D01*
X0390802Y0010970D01*
X0390658Y0010891D01*
X0390512Y0010815D01*
X0390365Y0010743D01*
X0390215Y0010675D01*
X0390064Y0010610D01*
X0389911Y0010549D01*
X0389757Y0010492D01*
X0389602Y0010438D01*
X0389445Y0010388D01*
X0389287Y0010343D01*
X0389128Y0010301D01*
X0388968Y0010263D01*
X0388807Y0010229D01*
X0388645Y0010199D01*
X0388483Y0010173D01*
X0388320Y0010150D01*
X0388157Y0010132D01*
X0387993Y0010118D01*
X0387829Y0010108D01*
X0387664Y0010102D01*
X0387500Y0010100D01*
X0387336Y0010102D01*
X0387171Y0010108D01*
X0387007Y0010118D01*
X0386843Y0010132D01*
X0386680Y0010150D01*
X0386517Y0010173D01*
X0386355Y0010199D01*
X0386193Y0010229D01*
X0386032Y0010263D01*
X0385872Y0010301D01*
X0385713Y0010343D01*
X0385555Y0010388D01*
X0385398Y0010438D01*
X0385243Y0010492D01*
X0385089Y0010549D01*
X0384936Y0010610D01*
X0384785Y0010675D01*
X0384635Y0010743D01*
X0384488Y0010815D01*
X0384342Y0010891D01*
X0384198Y0010970D01*
X0384056Y0011053D01*
X0383916Y0011139D01*
X0383778Y0011229D01*
X0383642Y0011322D01*
X0383509Y0011419D01*
X0383378Y0011518D01*
X0383250Y0011621D01*
X0383124Y0011727D01*
X0383001Y0011836D01*
X0382880Y0011948D01*
X0382762Y0012062D01*
X0382648Y0012180D01*
X0382536Y0012301D01*
X0382427Y0012424D01*
X0382321Y0012550D01*
X0382218Y0012678D01*
X0382119Y0012809D01*
X0382022Y0012942D01*
X0381929Y0013078D01*
X0381839Y0013216D01*
X0381753Y0013356D01*
X0381670Y0013498D01*
X0381591Y0013642D01*
X0381515Y0013788D01*
X0381443Y0013935D01*
X0381375Y0014085D01*
X0381310Y0014236D01*
X0381249Y0014389D01*
X0381192Y0014543D01*
X0381138Y0014698D01*
X0381088Y0014855D01*
X0381043Y0015013D01*
X0381001Y0015172D01*
X0380963Y0015332D01*
X0380929Y0015493D01*
X0380899Y0015655D01*
X0380873Y0015817D01*
X0380850Y0015980D01*
X0380832Y0016143D01*
X0380818Y0016307D01*
X0380808Y0016471D01*
X0380802Y0016636D01*
X0380800Y0016800D01*
X0380800Y0286800D02*
X0380802Y0286964D01*
X0380808Y0287129D01*
X0380818Y0287293D01*
X0380832Y0287457D01*
X0380850Y0287620D01*
X0380873Y0287783D01*
X0380899Y0287945D01*
X0380929Y0288107D01*
X0380963Y0288268D01*
X0381001Y0288428D01*
X0381043Y0288587D01*
X0381088Y0288745D01*
X0381138Y0288902D01*
X0381192Y0289057D01*
X0381249Y0289211D01*
X0381310Y0289364D01*
X0381375Y0289515D01*
X0381443Y0289665D01*
X0381515Y0289812D01*
X0381591Y0289958D01*
X0381670Y0290102D01*
X0381753Y0290244D01*
X0381839Y0290384D01*
X0381929Y0290522D01*
X0382022Y0290658D01*
X0382119Y0290791D01*
X0382218Y0290922D01*
X0382321Y0291050D01*
X0382427Y0291176D01*
X0382536Y0291299D01*
X0382648Y0291420D01*
X0382762Y0291538D01*
X0382880Y0291652D01*
X0383001Y0291764D01*
X0383124Y0291873D01*
X0383250Y0291979D01*
X0383378Y0292082D01*
X0383509Y0292181D01*
X0383642Y0292278D01*
X0383778Y0292371D01*
X0383916Y0292461D01*
X0384056Y0292547D01*
X0384198Y0292630D01*
X0384342Y0292709D01*
X0384488Y0292785D01*
X0384635Y0292857D01*
X0384785Y0292925D01*
X0384936Y0292990D01*
X0385089Y0293051D01*
X0385243Y0293108D01*
X0385398Y0293162D01*
X0385555Y0293212D01*
X0385713Y0293257D01*
X0385872Y0293299D01*
X0386032Y0293337D01*
X0386193Y0293371D01*
X0386355Y0293401D01*
X0386517Y0293427D01*
X0386680Y0293450D01*
X0386843Y0293468D01*
X0387007Y0293482D01*
X0387171Y0293492D01*
X0387336Y0293498D01*
X0387500Y0293500D01*
X0387664Y0293498D01*
X0387829Y0293492D01*
X0387993Y0293482D01*
X0388157Y0293468D01*
X0388320Y0293450D01*
X0388483Y0293427D01*
X0388645Y0293401D01*
X0388807Y0293371D01*
X0388968Y0293337D01*
X0389128Y0293299D01*
X0389287Y0293257D01*
X0389445Y0293212D01*
X0389602Y0293162D01*
X0389757Y0293108D01*
X0389911Y0293051D01*
X0390064Y0292990D01*
X0390215Y0292925D01*
X0390365Y0292857D01*
X0390512Y0292785D01*
X0390658Y0292709D01*
X0390802Y0292630D01*
X0390944Y0292547D01*
X0391084Y0292461D01*
X0391222Y0292371D01*
X0391358Y0292278D01*
X0391491Y0292181D01*
X0391622Y0292082D01*
X0391750Y0291979D01*
X0391876Y0291873D01*
X0391999Y0291764D01*
X0392120Y0291652D01*
X0392238Y0291538D01*
X0392352Y0291420D01*
X0392464Y0291299D01*
X0392573Y0291176D01*
X0392679Y0291050D01*
X0392782Y0290922D01*
X0392881Y0290791D01*
X0392978Y0290658D01*
X0393071Y0290522D01*
X0393161Y0290384D01*
X0393247Y0290244D01*
X0393330Y0290102D01*
X0393409Y0289958D01*
X0393485Y0289812D01*
X0393557Y0289665D01*
X0393625Y0289515D01*
X0393690Y0289364D01*
X0393751Y0289211D01*
X0393808Y0289057D01*
X0393862Y0288902D01*
X0393912Y0288745D01*
X0393957Y0288587D01*
X0393999Y0288428D01*
X0394037Y0288268D01*
X0394071Y0288107D01*
X0394101Y0287945D01*
X0394127Y0287783D01*
X0394150Y0287620D01*
X0394168Y0287457D01*
X0394182Y0287293D01*
X0394192Y0287129D01*
X0394198Y0286964D01*
X0394200Y0286800D01*
X0394198Y0286636D01*
X0394192Y0286471D01*
X0394182Y0286307D01*
X0394168Y0286143D01*
X0394150Y0285980D01*
X0394127Y0285817D01*
X0394101Y0285655D01*
X0394071Y0285493D01*
X0394037Y0285332D01*
X0393999Y0285172D01*
X0393957Y0285013D01*
X0393912Y0284855D01*
X0393862Y0284698D01*
X0393808Y0284543D01*
X0393751Y0284389D01*
X0393690Y0284236D01*
X0393625Y0284085D01*
X0393557Y0283935D01*
X0393485Y0283788D01*
X0393409Y0283642D01*
X0393330Y0283498D01*
X0393247Y0283356D01*
X0393161Y0283216D01*
X0393071Y0283078D01*
X0392978Y0282942D01*
X0392881Y0282809D01*
X0392782Y0282678D01*
X0392679Y0282550D01*
X0392573Y0282424D01*
X0392464Y0282301D01*
X0392352Y0282180D01*
X0392238Y0282062D01*
X0392120Y0281948D01*
X0391999Y0281836D01*
X0391876Y0281727D01*
X0391750Y0281621D01*
X0391622Y0281518D01*
X0391491Y0281419D01*
X0391358Y0281322D01*
X0391222Y0281229D01*
X0391084Y0281139D01*
X0390944Y0281053D01*
X0390802Y0280970D01*
X0390658Y0280891D01*
X0390512Y0280815D01*
X0390365Y0280743D01*
X0390215Y0280675D01*
X0390064Y0280610D01*
X0389911Y0280549D01*
X0389757Y0280492D01*
X0389602Y0280438D01*
X0389445Y0280388D01*
X0389287Y0280343D01*
X0389128Y0280301D01*
X0388968Y0280263D01*
X0388807Y0280229D01*
X0388645Y0280199D01*
X0388483Y0280173D01*
X0388320Y0280150D01*
X0388157Y0280132D01*
X0387993Y0280118D01*
X0387829Y0280108D01*
X0387664Y0280102D01*
X0387500Y0280100D01*
X0387336Y0280102D01*
X0387171Y0280108D01*
X0387007Y0280118D01*
X0386843Y0280132D01*
X0386680Y0280150D01*
X0386517Y0280173D01*
X0386355Y0280199D01*
X0386193Y0280229D01*
X0386032Y0280263D01*
X0385872Y0280301D01*
X0385713Y0280343D01*
X0385555Y0280388D01*
X0385398Y0280438D01*
X0385243Y0280492D01*
X0385089Y0280549D01*
X0384936Y0280610D01*
X0384785Y0280675D01*
X0384635Y0280743D01*
X0384488Y0280815D01*
X0384342Y0280891D01*
X0384198Y0280970D01*
X0384056Y0281053D01*
X0383916Y0281139D01*
X0383778Y0281229D01*
X0383642Y0281322D01*
X0383509Y0281419D01*
X0383378Y0281518D01*
X0383250Y0281621D01*
X0383124Y0281727D01*
X0383001Y0281836D01*
X0382880Y0281948D01*
X0382762Y0282062D01*
X0382648Y0282180D01*
X0382536Y0282301D01*
X0382427Y0282424D01*
X0382321Y0282550D01*
X0382218Y0282678D01*
X0382119Y0282809D01*
X0382022Y0282942D01*
X0381929Y0283078D01*
X0381839Y0283216D01*
X0381753Y0283356D01*
X0381670Y0283498D01*
X0381591Y0283642D01*
X0381515Y0283788D01*
X0381443Y0283935D01*
X0381375Y0284085D01*
X0381310Y0284236D01*
X0381249Y0284389D01*
X0381192Y0284543D01*
X0381138Y0284698D01*
X0381088Y0284855D01*
X0381043Y0285013D01*
X0381001Y0285172D01*
X0380963Y0285332D01*
X0380929Y0285493D01*
X0380899Y0285655D01*
X0380873Y0285817D01*
X0380850Y0285980D01*
X0380832Y0286143D01*
X0380818Y0286307D01*
X0380808Y0286471D01*
X0380802Y0286636D01*
X0380800Y0286800D01*
X0110800Y0286800D02*
X0110802Y0286964D01*
X0110808Y0287129D01*
X0110818Y0287293D01*
X0110832Y0287457D01*
X0110850Y0287620D01*
X0110873Y0287783D01*
X0110899Y0287945D01*
X0110929Y0288107D01*
X0110963Y0288268D01*
X0111001Y0288428D01*
X0111043Y0288587D01*
X0111088Y0288745D01*
X0111138Y0288902D01*
X0111192Y0289057D01*
X0111249Y0289211D01*
X0111310Y0289364D01*
X0111375Y0289515D01*
X0111443Y0289665D01*
X0111515Y0289812D01*
X0111591Y0289958D01*
X0111670Y0290102D01*
X0111753Y0290244D01*
X0111839Y0290384D01*
X0111929Y0290522D01*
X0112022Y0290658D01*
X0112119Y0290791D01*
X0112218Y0290922D01*
X0112321Y0291050D01*
X0112427Y0291176D01*
X0112536Y0291299D01*
X0112648Y0291420D01*
X0112762Y0291538D01*
X0112880Y0291652D01*
X0113001Y0291764D01*
X0113124Y0291873D01*
X0113250Y0291979D01*
X0113378Y0292082D01*
X0113509Y0292181D01*
X0113642Y0292278D01*
X0113778Y0292371D01*
X0113916Y0292461D01*
X0114056Y0292547D01*
X0114198Y0292630D01*
X0114342Y0292709D01*
X0114488Y0292785D01*
X0114635Y0292857D01*
X0114785Y0292925D01*
X0114936Y0292990D01*
X0115089Y0293051D01*
X0115243Y0293108D01*
X0115398Y0293162D01*
X0115555Y0293212D01*
X0115713Y0293257D01*
X0115872Y0293299D01*
X0116032Y0293337D01*
X0116193Y0293371D01*
X0116355Y0293401D01*
X0116517Y0293427D01*
X0116680Y0293450D01*
X0116843Y0293468D01*
X0117007Y0293482D01*
X0117171Y0293492D01*
X0117336Y0293498D01*
X0117500Y0293500D01*
X0117664Y0293498D01*
X0117829Y0293492D01*
X0117993Y0293482D01*
X0118157Y0293468D01*
X0118320Y0293450D01*
X0118483Y0293427D01*
X0118645Y0293401D01*
X0118807Y0293371D01*
X0118968Y0293337D01*
X0119128Y0293299D01*
X0119287Y0293257D01*
X0119445Y0293212D01*
X0119602Y0293162D01*
X0119757Y0293108D01*
X0119911Y0293051D01*
X0120064Y0292990D01*
X0120215Y0292925D01*
X0120365Y0292857D01*
X0120512Y0292785D01*
X0120658Y0292709D01*
X0120802Y0292630D01*
X0120944Y0292547D01*
X0121084Y0292461D01*
X0121222Y0292371D01*
X0121358Y0292278D01*
X0121491Y0292181D01*
X0121622Y0292082D01*
X0121750Y0291979D01*
X0121876Y0291873D01*
X0121999Y0291764D01*
X0122120Y0291652D01*
X0122238Y0291538D01*
X0122352Y0291420D01*
X0122464Y0291299D01*
X0122573Y0291176D01*
X0122679Y0291050D01*
X0122782Y0290922D01*
X0122881Y0290791D01*
X0122978Y0290658D01*
X0123071Y0290522D01*
X0123161Y0290384D01*
X0123247Y0290244D01*
X0123330Y0290102D01*
X0123409Y0289958D01*
X0123485Y0289812D01*
X0123557Y0289665D01*
X0123625Y0289515D01*
X0123690Y0289364D01*
X0123751Y0289211D01*
X0123808Y0289057D01*
X0123862Y0288902D01*
X0123912Y0288745D01*
X0123957Y0288587D01*
X0123999Y0288428D01*
X0124037Y0288268D01*
X0124071Y0288107D01*
X0124101Y0287945D01*
X0124127Y0287783D01*
X0124150Y0287620D01*
X0124168Y0287457D01*
X0124182Y0287293D01*
X0124192Y0287129D01*
X0124198Y0286964D01*
X0124200Y0286800D01*
X0124198Y0286636D01*
X0124192Y0286471D01*
X0124182Y0286307D01*
X0124168Y0286143D01*
X0124150Y0285980D01*
X0124127Y0285817D01*
X0124101Y0285655D01*
X0124071Y0285493D01*
X0124037Y0285332D01*
X0123999Y0285172D01*
X0123957Y0285013D01*
X0123912Y0284855D01*
X0123862Y0284698D01*
X0123808Y0284543D01*
X0123751Y0284389D01*
X0123690Y0284236D01*
X0123625Y0284085D01*
X0123557Y0283935D01*
X0123485Y0283788D01*
X0123409Y0283642D01*
X0123330Y0283498D01*
X0123247Y0283356D01*
X0123161Y0283216D01*
X0123071Y0283078D01*
X0122978Y0282942D01*
X0122881Y0282809D01*
X0122782Y0282678D01*
X0122679Y0282550D01*
X0122573Y0282424D01*
X0122464Y0282301D01*
X0122352Y0282180D01*
X0122238Y0282062D01*
X0122120Y0281948D01*
X0121999Y0281836D01*
X0121876Y0281727D01*
X0121750Y0281621D01*
X0121622Y0281518D01*
X0121491Y0281419D01*
X0121358Y0281322D01*
X0121222Y0281229D01*
X0121084Y0281139D01*
X0120944Y0281053D01*
X0120802Y0280970D01*
X0120658Y0280891D01*
X0120512Y0280815D01*
X0120365Y0280743D01*
X0120215Y0280675D01*
X0120064Y0280610D01*
X0119911Y0280549D01*
X0119757Y0280492D01*
X0119602Y0280438D01*
X0119445Y0280388D01*
X0119287Y0280343D01*
X0119128Y0280301D01*
X0118968Y0280263D01*
X0118807Y0280229D01*
X0118645Y0280199D01*
X0118483Y0280173D01*
X0118320Y0280150D01*
X0118157Y0280132D01*
X0117993Y0280118D01*
X0117829Y0280108D01*
X0117664Y0280102D01*
X0117500Y0280100D01*
X0117336Y0280102D01*
X0117171Y0280108D01*
X0117007Y0280118D01*
X0116843Y0280132D01*
X0116680Y0280150D01*
X0116517Y0280173D01*
X0116355Y0280199D01*
X0116193Y0280229D01*
X0116032Y0280263D01*
X0115872Y0280301D01*
X0115713Y0280343D01*
X0115555Y0280388D01*
X0115398Y0280438D01*
X0115243Y0280492D01*
X0115089Y0280549D01*
X0114936Y0280610D01*
X0114785Y0280675D01*
X0114635Y0280743D01*
X0114488Y0280815D01*
X0114342Y0280891D01*
X0114198Y0280970D01*
X0114056Y0281053D01*
X0113916Y0281139D01*
X0113778Y0281229D01*
X0113642Y0281322D01*
X0113509Y0281419D01*
X0113378Y0281518D01*
X0113250Y0281621D01*
X0113124Y0281727D01*
X0113001Y0281836D01*
X0112880Y0281948D01*
X0112762Y0282062D01*
X0112648Y0282180D01*
X0112536Y0282301D01*
X0112427Y0282424D01*
X0112321Y0282550D01*
X0112218Y0282678D01*
X0112119Y0282809D01*
X0112022Y0282942D01*
X0111929Y0283078D01*
X0111839Y0283216D01*
X0111753Y0283356D01*
X0111670Y0283498D01*
X0111591Y0283642D01*
X0111515Y0283788D01*
X0111443Y0283935D01*
X0111375Y0284085D01*
X0111310Y0284236D01*
X0111249Y0284389D01*
X0111192Y0284543D01*
X0111138Y0284698D01*
X0111088Y0284855D01*
X0111043Y0285013D01*
X0111001Y0285172D01*
X0110963Y0285332D01*
X0110929Y0285493D01*
X0110899Y0285655D01*
X0110873Y0285817D01*
X0110850Y0285980D01*
X0110832Y0286143D01*
X0110818Y0286307D01*
X0110808Y0286471D01*
X0110802Y0286636D01*
X0110800Y0286800D01*
D11*
X0002500Y0001800D02*
X0402500Y0001800D01*
D12*
X0002500Y0001800D02*
X0002500Y0301800D01*
X0402500Y0301800D01*
X0402500Y0001800D01*
M02*
