G75*
%MOIN*%
%OFA0B0*%
%FSLAX25Y25*%
%IPPOS*%
%LPD*%
%AMOC8*
5,1,8,0,0,1.08239X$1,22.5*
%
%ADD10C,0.00400*%
%ADD11C,0.00100*%
%ADD12C,0.00300*%
%ADD13C,0.00500*%
%ADD14C,0.00197*%
%ADD15C,0.01181*%
%ADD16C,0.01000*%
D10*
X0047200Y0042500D02*
X0049602Y0046103D01*
X0050883Y0044902D02*
X0052084Y0046103D01*
X0052084Y0042500D01*
X0050883Y0042500D02*
X0053285Y0042500D01*
X0049602Y0042500D02*
X0047200Y0046103D01*
X0029800Y0062000D02*
X0025196Y0062000D01*
X0025196Y0064302D01*
X0025963Y0065069D01*
X0027498Y0065069D01*
X0028265Y0064302D01*
X0028265Y0062000D01*
X0028265Y0063535D02*
X0029800Y0065069D01*
X0029033Y0066604D02*
X0029800Y0067371D01*
X0029800Y0068906D01*
X0029033Y0069673D01*
X0028265Y0069673D01*
X0027498Y0068906D01*
X0027498Y0066604D01*
X0029033Y0066604D01*
X0027498Y0066604D02*
X0025963Y0068139D01*
X0025196Y0069673D01*
X0038259Y0161500D02*
X0039794Y0161500D01*
X0040561Y0162267D01*
X0042096Y0161500D02*
X0045165Y0161500D01*
X0043631Y0161500D02*
X0043631Y0166104D01*
X0042096Y0164569D01*
X0040561Y0165337D02*
X0039794Y0166104D01*
X0038259Y0166104D01*
X0037492Y0165337D01*
X0037492Y0162267D01*
X0038259Y0161500D01*
X0044492Y0182000D02*
X0044492Y0186604D01*
X0046794Y0186604D01*
X0047561Y0185837D01*
X0047561Y0184302D01*
X0046794Y0183535D01*
X0044492Y0183535D01*
X0046027Y0183535D02*
X0047561Y0182000D01*
X0049096Y0182767D02*
X0049863Y0182000D01*
X0051398Y0182000D01*
X0052165Y0182767D01*
X0052165Y0184302D01*
X0051398Y0185069D01*
X0050631Y0185069D01*
X0049096Y0184302D01*
X0049096Y0186604D01*
X0052165Y0186604D01*
X0051398Y0191000D02*
X0051398Y0195604D01*
X0049096Y0193302D01*
X0052165Y0193302D01*
X0047561Y0193302D02*
X0047561Y0194837D01*
X0046794Y0195604D01*
X0044492Y0195604D01*
X0044492Y0191000D01*
X0044492Y0192535D02*
X0046794Y0192535D01*
X0047561Y0193302D01*
X0046027Y0192535D02*
X0047561Y0191000D01*
X0041300Y0192146D02*
X0038231Y0195215D01*
X0037463Y0195215D01*
X0036696Y0194448D01*
X0036696Y0192913D01*
X0037463Y0192146D01*
X0037463Y0190611D02*
X0036696Y0189844D01*
X0036696Y0188309D01*
X0037463Y0187542D01*
X0040533Y0187542D01*
X0041300Y0188309D01*
X0041300Y0189844D01*
X0040533Y0190611D01*
X0041300Y0192146D02*
X0041300Y0195215D01*
X0094696Y0238792D02*
X0094696Y0241094D01*
X0095463Y0241861D01*
X0096998Y0241861D01*
X0097765Y0241094D01*
X0097765Y0238792D01*
X0097765Y0240327D02*
X0099300Y0241861D01*
X0099300Y0243396D02*
X0099300Y0246465D01*
X0099300Y0244931D02*
X0094696Y0244931D01*
X0096231Y0243396D01*
X0094696Y0238792D02*
X0099300Y0238792D01*
X0121696Y0251500D02*
X0121696Y0253802D01*
X0122463Y0254569D01*
X0123998Y0254569D01*
X0124765Y0253802D01*
X0124765Y0251500D01*
X0124765Y0253035D02*
X0126300Y0254569D01*
X0125533Y0256104D02*
X0126300Y0256871D01*
X0126300Y0258406D01*
X0125533Y0259173D01*
X0124765Y0259173D01*
X0123998Y0258406D01*
X0123998Y0257639D01*
X0123998Y0258406D02*
X0123231Y0259173D01*
X0122463Y0259173D01*
X0121696Y0258406D01*
X0121696Y0256871D01*
X0122463Y0256104D01*
X0121696Y0251500D02*
X0126300Y0251500D01*
X0096300Y0265292D02*
X0091696Y0265292D01*
X0091696Y0267594D01*
X0092463Y0268361D01*
X0093998Y0268361D01*
X0094765Y0267594D01*
X0094765Y0265292D01*
X0094765Y0266827D02*
X0096300Y0268361D01*
X0096300Y0269896D02*
X0093231Y0272965D01*
X0092463Y0272965D01*
X0091696Y0272198D01*
X0091696Y0270663D01*
X0092463Y0269896D01*
X0096300Y0269896D02*
X0096300Y0272965D01*
X0157300Y0195465D02*
X0157300Y0192396D01*
X0157300Y0193931D02*
X0152696Y0193931D01*
X0154231Y0192396D01*
X0153463Y0190861D02*
X0152696Y0190094D01*
X0152696Y0188559D01*
X0153463Y0187792D01*
X0154231Y0187792D01*
X0154998Y0188559D01*
X0154998Y0190094D01*
X0155765Y0190861D01*
X0156533Y0190861D01*
X0157300Y0190094D01*
X0157300Y0188559D01*
X0156533Y0187792D01*
X0156533Y0186257D02*
X0152696Y0186257D01*
X0152696Y0183188D02*
X0156533Y0183188D01*
X0157300Y0183956D01*
X0157300Y0185490D01*
X0156533Y0186257D01*
X0158067Y0189327D02*
X0151929Y0189327D01*
X0279700Y0266267D02*
X0280467Y0265500D01*
X0282002Y0265500D01*
X0282769Y0266267D01*
X0284304Y0266267D02*
X0285071Y0265500D01*
X0286606Y0265500D01*
X0287373Y0266267D01*
X0287373Y0267035D01*
X0286606Y0267802D01*
X0285839Y0267802D01*
X0286606Y0267802D02*
X0287373Y0268569D01*
X0287373Y0269337D01*
X0286606Y0270104D01*
X0285071Y0270104D01*
X0284304Y0269337D01*
X0282769Y0269337D02*
X0282002Y0270104D01*
X0280467Y0270104D01*
X0279700Y0269337D01*
X0279700Y0266267D01*
X0380242Y0250337D02*
X0380242Y0247267D01*
X0381009Y0246500D01*
X0382544Y0246500D01*
X0383311Y0247267D01*
X0384846Y0248802D02*
X0387148Y0251104D01*
X0387148Y0246500D01*
X0387915Y0248802D02*
X0384846Y0248802D01*
X0383311Y0250337D02*
X0382544Y0251104D01*
X0381009Y0251104D01*
X0380242Y0250337D01*
D11*
X0068078Y0205000D02*
X0067077Y0205000D01*
X0066604Y0205000D02*
X0065603Y0205000D01*
X0065603Y0206501D01*
X0067077Y0206001D02*
X0067577Y0206501D01*
X0067577Y0205000D01*
D12*
X0070264Y0218584D02*
X0069647Y0219201D01*
X0069647Y0220435D01*
X0070264Y0221052D01*
X0070881Y0221052D01*
X0073350Y0218584D01*
X0073350Y0221052D01*
X0072733Y0222267D02*
X0072116Y0222267D01*
X0071498Y0222884D01*
X0071498Y0224118D01*
X0072116Y0224736D01*
X0072733Y0224736D01*
X0073350Y0224118D01*
X0073350Y0222884D01*
X0072733Y0222267D01*
X0071498Y0222884D02*
X0070881Y0222267D01*
X0070264Y0222267D01*
X0069647Y0222884D01*
X0069647Y0224118D01*
X0070264Y0224736D01*
X0070881Y0224736D01*
X0071498Y0224118D01*
X0086056Y0229728D02*
X0086673Y0229111D01*
X0086056Y0229728D02*
X0086056Y0230963D01*
X0086673Y0231580D01*
X0087291Y0231580D01*
X0089759Y0229111D01*
X0089759Y0231580D01*
X0089759Y0232794D02*
X0089142Y0232794D01*
X0086673Y0235263D01*
X0086056Y0235263D01*
X0086056Y0232794D01*
X0136450Y0232204D02*
X0136450Y0234673D01*
X0137067Y0234673D01*
X0139536Y0232204D01*
X0140153Y0232204D01*
X0140153Y0230989D02*
X0140153Y0228521D01*
X0140153Y0229755D02*
X0136450Y0229755D01*
X0137684Y0228521D01*
X0151584Y0225736D02*
X0152201Y0224501D01*
X0153435Y0223267D01*
X0153435Y0225118D01*
X0154053Y0225736D01*
X0154670Y0225736D01*
X0155287Y0225118D01*
X0155287Y0223884D01*
X0154670Y0223267D01*
X0153435Y0223267D01*
X0155287Y0222052D02*
X0155287Y0219584D01*
X0155287Y0220818D02*
X0151584Y0220818D01*
X0152818Y0219584D01*
X0074594Y0149118D02*
X0074594Y0147884D01*
X0073977Y0147267D01*
X0072743Y0146052D02*
X0072743Y0143584D01*
X0070891Y0145435D01*
X0074594Y0145435D01*
X0072743Y0148501D02*
X0072743Y0149118D01*
X0073360Y0149736D01*
X0073977Y0149736D01*
X0074594Y0149118D01*
X0072743Y0149118D02*
X0072125Y0149736D01*
X0071508Y0149736D01*
X0070891Y0149118D01*
X0070891Y0147884D01*
X0071508Y0147267D01*
X0086253Y0140363D02*
X0088105Y0138511D01*
X0088105Y0140980D01*
X0089956Y0140363D02*
X0086253Y0140363D01*
X0088105Y0137297D02*
X0088105Y0134828D01*
X0086253Y0136679D01*
X0089956Y0136679D01*
X0136647Y0137297D02*
X0136647Y0134828D01*
X0138498Y0134828D01*
X0137881Y0136062D01*
X0137881Y0136679D01*
X0138498Y0137297D01*
X0139733Y0137297D01*
X0140350Y0136679D01*
X0140350Y0135445D01*
X0139733Y0134828D01*
X0138498Y0138511D02*
X0138498Y0140980D01*
X0136647Y0140363D02*
X0140350Y0140363D01*
X0138498Y0138511D02*
X0136647Y0140363D01*
X0151584Y0146501D02*
X0152818Y0145267D01*
X0151584Y0146501D02*
X0155287Y0146501D01*
X0155287Y0145267D02*
X0155287Y0147736D01*
D13*
X0147933Y0145461D02*
X0147933Y0228139D01*
X0077067Y0228139D01*
X0077067Y0145461D01*
X0147933Y0145461D01*
X0011693Y0187528D02*
X0005394Y0187528D01*
X0005394Y0194812D01*
X0005394Y0198749D02*
X0005394Y0206032D01*
X0011693Y0206032D01*
X0011693Y0198749D01*
X0007559Y0199733D02*
X0007561Y0199795D01*
X0007567Y0199858D01*
X0007577Y0199919D01*
X0007591Y0199980D01*
X0007608Y0200040D01*
X0007629Y0200099D01*
X0007655Y0200156D01*
X0007683Y0200211D01*
X0007715Y0200265D01*
X0007751Y0200316D01*
X0007789Y0200366D01*
X0007831Y0200412D01*
X0007875Y0200456D01*
X0007923Y0200497D01*
X0007972Y0200535D01*
X0008024Y0200569D01*
X0008078Y0200600D01*
X0008134Y0200628D01*
X0008192Y0200652D01*
X0008251Y0200673D01*
X0008311Y0200689D01*
X0008372Y0200702D01*
X0008434Y0200711D01*
X0008496Y0200716D01*
X0008559Y0200717D01*
X0008621Y0200714D01*
X0008683Y0200707D01*
X0008745Y0200696D01*
X0008805Y0200681D01*
X0008865Y0200663D01*
X0008923Y0200641D01*
X0008980Y0200615D01*
X0009035Y0200585D01*
X0009088Y0200552D01*
X0009139Y0200516D01*
X0009187Y0200477D01*
X0009233Y0200434D01*
X0009276Y0200389D01*
X0009316Y0200341D01*
X0009353Y0200291D01*
X0009387Y0200238D01*
X0009418Y0200184D01*
X0009444Y0200128D01*
X0009468Y0200070D01*
X0009487Y0200010D01*
X0009503Y0199950D01*
X0009515Y0199888D01*
X0009523Y0199827D01*
X0009527Y0199764D01*
X0009527Y0199702D01*
X0009523Y0199639D01*
X0009515Y0199578D01*
X0009503Y0199516D01*
X0009487Y0199456D01*
X0009468Y0199396D01*
X0009444Y0199338D01*
X0009418Y0199282D01*
X0009387Y0199228D01*
X0009353Y0199175D01*
X0009316Y0199125D01*
X0009276Y0199077D01*
X0009233Y0199032D01*
X0009187Y0198989D01*
X0009139Y0198950D01*
X0009088Y0198914D01*
X0009035Y0198881D01*
X0008980Y0198851D01*
X0008923Y0198825D01*
X0008865Y0198803D01*
X0008805Y0198785D01*
X0008745Y0198770D01*
X0008683Y0198759D01*
X0008621Y0198752D01*
X0008559Y0198749D01*
X0008496Y0198750D01*
X0008434Y0198755D01*
X0008372Y0198764D01*
X0008311Y0198777D01*
X0008251Y0198793D01*
X0008192Y0198814D01*
X0008134Y0198838D01*
X0008078Y0198866D01*
X0008024Y0198897D01*
X0007972Y0198931D01*
X0007923Y0198969D01*
X0007875Y0199010D01*
X0007831Y0199054D01*
X0007789Y0199100D01*
X0007751Y0199150D01*
X0007715Y0199201D01*
X0007683Y0199255D01*
X0007655Y0199310D01*
X0007629Y0199367D01*
X0007608Y0199426D01*
X0007591Y0199486D01*
X0007577Y0199547D01*
X0007567Y0199608D01*
X0007561Y0199671D01*
X0007559Y0199733D01*
X0011693Y0194812D02*
X0011693Y0187528D01*
X0147815Y0263926D02*
X0187185Y0263926D01*
X0187185Y0279674D01*
X0147815Y0279674D01*
X0147815Y0263926D01*
X0302500Y0261800D02*
X0362500Y0261800D01*
X0362500Y0281800D01*
X0302500Y0281800D01*
X0302500Y0261800D01*
D14*
X0024685Y0214300D02*
X0024685Y0190678D01*
X0005000Y0190678D01*
X0005000Y0214300D01*
X0024685Y0214300D01*
D15*
X0057500Y0086800D02*
X0057500Y0066800D01*
X0087500Y0066800D01*
X0087500Y0086800D01*
X0057500Y0086800D01*
X0352500Y0211800D02*
X0372500Y0211800D01*
X0372500Y0241800D01*
X0352500Y0241800D01*
X0352500Y0211800D01*
D16*
X0055000Y0046800D02*
X0055000Y0029300D01*
X0095000Y0029300D01*
X0095000Y0046800D01*
X0055000Y0046800D01*
X0055000Y0054300D01*
X0095000Y0054300D01*
X0095000Y0046800D01*
M02*
