%
M48
M72
T01C0.0236
T02C0.0315
T03C0.0394
T04C0.0402
T05C0.1340
%
T01
X9250Y6180
X9525Y9555
X8475Y9555
X10250Y12680
X9750Y13430
X10750Y13930
X9250Y16180
X9000Y16930
X9250Y17680
X9000Y18430
X9250Y19180
X9000Y19930
X9250Y20680
X10000Y20680
X10750Y20680
X11500Y20680
X12250Y20680
X13000Y20680
X12750Y21430
X12000Y21430
X11250Y21430
X10500Y21430
X9750Y21430
X9000Y21430
X7400Y21580
X6850Y21630
X6150Y21630
X5550Y21630
X4900Y21680
X4150Y21630
X3450Y21630
X2850Y21580
X2250Y21830
X1700Y21880
X1250Y22380
X2900Y20280
X3450Y20280
X2900Y19580
X2750Y18830
X2000Y18630
X1400Y18380
X5050Y20280
X5800Y20230
X6400Y20230
X7250Y20055
X11250Y23180
X11375Y24055
X12250Y24055
X12750Y23180
X13500Y21430
X16000Y16430
X15250Y15930
X13750Y13680
X17250Y9555
X16750Y7180
X16000Y5555
X16500Y3930
X21250Y4180
X32750Y11055
X34500Y11430
X27500Y15430
X27000Y16180
X26000Y16180
X26500Y15430
X28250Y18930
X31750Y16930
X32750Y17430
X33750Y18430
X34750Y17930
X34750Y24930
X33750Y24930
X32750Y24930
X31750Y24930
X20375Y20930
X12500Y26430
X4500Y15330
T02
X15175Y26786
X15963Y26786
X16750Y26786
X17537Y26786
X17537Y27574
X16750Y27574
X15963Y27574
X15175Y27574
X18325Y27574
X18325Y26786
T03
X6000Y4180
X7000Y4180
X8000Y4180
X9000Y4180
X3500Y8696
X3500Y10664
T04
X6250Y8180
X7250Y8180
X7250Y7180
X6250Y7180
X8250Y7180
X8250Y8180
X30750Y26680
X31750Y26680
X32750Y26680
X33750Y26680
X34750Y26680
X35750Y26680
X35750Y27680
X34750Y27680
X33750Y27680
X32750Y27680
X31750Y27680
X30750Y27680
X35750Y23680
X36750Y23680
X36750Y22680
X35750Y22680
X35750Y21680
X36750Y21680
T05
X38750Y28680
X11750Y28680
X11750Y1680
X38750Y1680
M30
