G75*
%MOIN*%
%OFA0B0*%
%FSLAX25Y25*%
%IPPOS*%
%LPD*%
%AMOC8*
5,1,8,0,0,1.08239X$1,22.5*
%
%ADD10C,0.14200*%
%ADD11R,0.05918X0.06706*%
%ADD12R,0.06706X0.05918*%
%ADD13R,0.03556X0.04343*%
%ADD14R,0.03950X0.03950*%
%ADD15R,0.08674X0.08674*%
%ADD16R,0.06706X0.06706*%
%ADD17R,0.05524X0.04737*%
%ADD18R,0.05524X0.01981*%
%ADD19R,0.02769X0.02769*%
%ADD20C,0.06737*%
%ADD21C,0.05950*%
%ADD22R,0.05950X0.05950*%
%ADD23R,0.06824X0.06824*%
%ADD24C,0.06824*%
%ADD25R,0.03950X0.06312*%
%ADD26R,0.06115X0.07887*%
%ADD27R,0.05367X0.06706*%
%ADD28R,0.03162X0.05328*%
%ADD29R,0.03359X0.05918*%
%ADD30R,0.03359X0.09225*%
%ADD31R,0.03359X0.07099*%
%ADD32R,0.05131X0.02572*%
%ADD33R,0.05328X0.02572*%
%ADD34C,0.06737*%
%ADD35C,0.04762*%
D10*
X0117500Y0016800D03*
X0387500Y0016800D03*
X0387500Y0286800D03*
X0117500Y0286800D03*
D11*
X0068740Y0194300D03*
X0061260Y0194300D03*
X0058760Y0179300D03*
X0066240Y0179300D03*
X0058740Y0164300D03*
X0051260Y0164300D03*
X0283760Y0276800D03*
X0291240Y0276800D03*
X0367510Y0251800D03*
X0374990Y0251800D03*
D12*
X0117500Y0263060D03*
X0117500Y0270540D03*
X0102500Y0270540D03*
X0102500Y0263060D03*
X0107500Y0248040D03*
X0107500Y0240560D03*
X0042500Y0209290D03*
X0042500Y0201810D03*
X0035000Y0068040D03*
X0035000Y0060560D03*
D13*
X0062441Y0209300D03*
X0067559Y0209300D03*
D14*
X0080925Y0209300D03*
X0080925Y0204300D03*
X0080925Y0199300D03*
X0080925Y0194300D03*
X0080925Y0189300D03*
X0080925Y0184300D03*
X0080925Y0179300D03*
X0080925Y0174300D03*
X0080925Y0169300D03*
X0080925Y0164300D03*
X0080925Y0159300D03*
X0080925Y0154300D03*
X0080925Y0149300D03*
X0087500Y0149300D03*
X0092500Y0149300D03*
X0097500Y0149300D03*
X0102500Y0149300D03*
X0107500Y0149300D03*
X0112500Y0149300D03*
X0117500Y0149300D03*
X0122500Y0149300D03*
X0127500Y0149300D03*
X0132500Y0149300D03*
X0137500Y0149300D03*
X0144094Y0149320D03*
X0144094Y0154320D03*
X0144094Y0159320D03*
X0144094Y0164320D03*
X0144094Y0169320D03*
X0144094Y0174320D03*
X0144094Y0179320D03*
X0144094Y0184320D03*
X0144094Y0189320D03*
X0144094Y0194320D03*
X0144094Y0199320D03*
X0144094Y0204320D03*
X0144094Y0209320D03*
X0144094Y0214320D03*
X0144094Y0219320D03*
X0144094Y0224320D03*
X0137500Y0224300D03*
X0132500Y0224300D03*
X0127500Y0224300D03*
X0122500Y0224300D03*
X0117500Y0224300D03*
X0112500Y0224300D03*
X0107500Y0224300D03*
X0102500Y0224300D03*
X0097500Y0224300D03*
X0092500Y0224300D03*
X0087500Y0224300D03*
X0080925Y0224300D03*
X0080925Y0219300D03*
X0080925Y0214300D03*
D15*
X0106594Y0192706D03*
X0118406Y0192706D03*
X0130217Y0192706D03*
X0130217Y0180894D03*
X0118406Y0180894D03*
X0106594Y0180894D03*
X0106594Y0169083D03*
X0118406Y0169083D03*
D16*
X0129232Y0170068D03*
D17*
X0008543Y0190678D03*
X0008543Y0203276D03*
D18*
X0008543Y0214891D03*
D19*
X0030394Y0209379D03*
D20*
X0035000Y0106643D03*
X0035000Y0086957D03*
D21*
X0159626Y0267863D03*
X0159626Y0275737D03*
X0167500Y0275737D03*
X0167500Y0267863D03*
X0175374Y0267863D03*
X0175374Y0275737D03*
X0183248Y0275737D03*
X0183248Y0267863D03*
X0151752Y0275737D03*
D22*
X0151752Y0267863D03*
D23*
X0307500Y0266800D03*
X0357500Y0236800D03*
X0082500Y0081800D03*
D24*
X0082500Y0071800D03*
X0072500Y0071800D03*
X0062500Y0071800D03*
X0062500Y0081800D03*
X0072500Y0081800D03*
X0317500Y0266800D03*
X0327500Y0266800D03*
X0337500Y0266800D03*
X0347500Y0266800D03*
X0357500Y0266800D03*
X0357500Y0276800D03*
X0347500Y0276800D03*
X0337500Y0276800D03*
X0327500Y0276800D03*
X0317500Y0276800D03*
X0307500Y0276800D03*
X0367500Y0236800D03*
X0367500Y0226800D03*
X0357500Y0226800D03*
X0357500Y0216800D03*
X0367500Y0216800D03*
D25*
X0230157Y0034044D03*
X0225827Y0034044D03*
X0221496Y0034044D03*
X0217165Y0034044D03*
X0212835Y0034044D03*
X0208504Y0034044D03*
X0204173Y0034044D03*
X0199843Y0034044D03*
D26*
X0196339Y0025973D03*
D27*
X0248701Y0024989D03*
D28*
X0249882Y0056387D03*
D29*
X0249882Y0079713D03*
D30*
X0195059Y0052076D03*
D31*
X0195059Y0072076D03*
D32*
X0195945Y0078001D03*
D33*
X0196043Y0080599D03*
D34*
X0060000Y0044769D02*
X0060000Y0038831D01*
X0070000Y0038831D02*
X0070000Y0044769D01*
X0080000Y0044769D02*
X0080000Y0038831D01*
X0090000Y0038831D02*
X0090000Y0044769D01*
D35*
X0092500Y0061800D03*
X0095250Y0095550D03*
X0084750Y0095550D03*
X0102500Y0126800D03*
X0097500Y0134300D03*
X0107500Y0139300D03*
X0092500Y0161800D03*
X0090000Y0169300D03*
X0092500Y0176800D03*
X0090000Y0184300D03*
X0092500Y0191800D03*
X0090000Y0199300D03*
X0092500Y0206800D03*
X0100000Y0206800D03*
X0107500Y0206800D03*
X0115000Y0206800D03*
X0122500Y0206800D03*
X0130000Y0206800D03*
X0127500Y0214300D03*
X0120000Y0214300D03*
X0112500Y0214300D03*
X0105000Y0214300D03*
X0097500Y0214300D03*
X0090000Y0214300D03*
X0074000Y0215800D03*
X0068500Y0216300D03*
X0061500Y0216300D03*
X0055500Y0216300D03*
X0049000Y0216800D03*
X0041500Y0216300D03*
X0034500Y0216300D03*
X0028500Y0215800D03*
X0022500Y0218300D03*
X0017000Y0218800D03*
X0012500Y0223800D03*
X0029000Y0202800D03*
X0034500Y0202800D03*
X0029000Y0195800D03*
X0027500Y0188300D03*
X0020000Y0186300D03*
X0014000Y0183800D03*
X0050500Y0202800D03*
X0058000Y0202300D03*
X0064000Y0202300D03*
X0072500Y0200550D03*
X0112500Y0231800D03*
X0113750Y0240550D03*
X0122500Y0240550D03*
X0127500Y0231800D03*
X0135000Y0214300D03*
X0160000Y0164300D03*
X0152500Y0159300D03*
X0137500Y0136800D03*
X0172500Y0095550D03*
X0167500Y0071800D03*
X0160000Y0055550D03*
X0165000Y0039300D03*
X0212500Y0041800D03*
X0327500Y0110550D03*
X0345000Y0114300D03*
X0275000Y0154300D03*
X0270000Y0161800D03*
X0260000Y0161800D03*
X0265000Y0154300D03*
X0282500Y0189300D03*
X0317500Y0169300D03*
X0327500Y0174300D03*
X0337500Y0184300D03*
X0347500Y0179300D03*
X0347500Y0249300D03*
X0337500Y0249300D03*
X0327500Y0249300D03*
X0317500Y0249300D03*
X0203750Y0209300D03*
X0125000Y0264300D03*
X0045000Y0153300D03*
M02*
