G75*
%MOIN*%
%OFA0B0*%
%FSLAX25Y25*%
%IPPOS*%
%LPD*%
%AMOC8*
5,1,8,0,0,1.08239X$1,22.5*
%
%ADD10C,0.00000*%
%ADD11C,0.01600*%
%ADD12C,0.01500*%
%ADD13R,0.06299X0.10630*%
%ADD14R,0.05906X0.05118*%
%ADD15R,0.05118X0.05906*%
%ADD16R,0.02756X0.03543*%
%ADD17R,0.03150X0.03150*%
%ADD18R,0.07874X0.07874*%
%ADD19R,0.05906X0.05906*%
%ADD20R,0.04724X0.12992*%
%ADD21R,0.18898X0.01969*%
%ADD22R,0.04724X0.03937*%
%ADD23R,0.04724X0.01181*%
%ADD24R,0.01969X0.01969*%
%ADD25C,0.05937*%
%ADD26C,0.05150*%
%ADD27R,0.05150X0.05150*%
%ADD28R,0.06024X0.06024*%
%ADD29C,0.06024*%
%ADD30R,0.03150X0.05512*%
%ADD31R,0.05315X0.07087*%
%ADD32R,0.04567X0.05906*%
%ADD33R,0.02362X0.04528*%
%ADD34R,0.02559X0.05118*%
%ADD35R,0.02559X0.08425*%
%ADD36R,0.02559X0.06299*%
%ADD37R,0.04331X0.01772*%
%ADD38R,0.04528X0.01772*%
%ADD39C,0.05937*%
%ADD40C,0.03000*%
%ADD41C,0.01000*%
%ADD42C,0.04000*%
%ADD43C,0.03962*%
%ADD44C,0.03400*%
D10*
X0110800Y0016800D02*
X0110802Y0016964D01*
X0110808Y0017129D01*
X0110818Y0017293D01*
X0110832Y0017457D01*
X0110850Y0017620D01*
X0110873Y0017783D01*
X0110899Y0017945D01*
X0110929Y0018107D01*
X0110963Y0018268D01*
X0111001Y0018428D01*
X0111043Y0018587D01*
X0111088Y0018745D01*
X0111138Y0018902D01*
X0111192Y0019057D01*
X0111249Y0019211D01*
X0111310Y0019364D01*
X0111375Y0019515D01*
X0111443Y0019665D01*
X0111515Y0019812D01*
X0111591Y0019958D01*
X0111670Y0020102D01*
X0111753Y0020244D01*
X0111839Y0020384D01*
X0111929Y0020522D01*
X0112022Y0020658D01*
X0112119Y0020791D01*
X0112218Y0020922D01*
X0112321Y0021050D01*
X0112427Y0021176D01*
X0112536Y0021299D01*
X0112648Y0021420D01*
X0112762Y0021538D01*
X0112880Y0021652D01*
X0113001Y0021764D01*
X0113124Y0021873D01*
X0113250Y0021979D01*
X0113378Y0022082D01*
X0113509Y0022181D01*
X0113642Y0022278D01*
X0113778Y0022371D01*
X0113916Y0022461D01*
X0114056Y0022547D01*
X0114198Y0022630D01*
X0114342Y0022709D01*
X0114488Y0022785D01*
X0114635Y0022857D01*
X0114785Y0022925D01*
X0114936Y0022990D01*
X0115089Y0023051D01*
X0115243Y0023108D01*
X0115398Y0023162D01*
X0115555Y0023212D01*
X0115713Y0023257D01*
X0115872Y0023299D01*
X0116032Y0023337D01*
X0116193Y0023371D01*
X0116355Y0023401D01*
X0116517Y0023427D01*
X0116680Y0023450D01*
X0116843Y0023468D01*
X0117007Y0023482D01*
X0117171Y0023492D01*
X0117336Y0023498D01*
X0117500Y0023500D01*
X0117664Y0023498D01*
X0117829Y0023492D01*
X0117993Y0023482D01*
X0118157Y0023468D01*
X0118320Y0023450D01*
X0118483Y0023427D01*
X0118645Y0023401D01*
X0118807Y0023371D01*
X0118968Y0023337D01*
X0119128Y0023299D01*
X0119287Y0023257D01*
X0119445Y0023212D01*
X0119602Y0023162D01*
X0119757Y0023108D01*
X0119911Y0023051D01*
X0120064Y0022990D01*
X0120215Y0022925D01*
X0120365Y0022857D01*
X0120512Y0022785D01*
X0120658Y0022709D01*
X0120802Y0022630D01*
X0120944Y0022547D01*
X0121084Y0022461D01*
X0121222Y0022371D01*
X0121358Y0022278D01*
X0121491Y0022181D01*
X0121622Y0022082D01*
X0121750Y0021979D01*
X0121876Y0021873D01*
X0121999Y0021764D01*
X0122120Y0021652D01*
X0122238Y0021538D01*
X0122352Y0021420D01*
X0122464Y0021299D01*
X0122573Y0021176D01*
X0122679Y0021050D01*
X0122782Y0020922D01*
X0122881Y0020791D01*
X0122978Y0020658D01*
X0123071Y0020522D01*
X0123161Y0020384D01*
X0123247Y0020244D01*
X0123330Y0020102D01*
X0123409Y0019958D01*
X0123485Y0019812D01*
X0123557Y0019665D01*
X0123625Y0019515D01*
X0123690Y0019364D01*
X0123751Y0019211D01*
X0123808Y0019057D01*
X0123862Y0018902D01*
X0123912Y0018745D01*
X0123957Y0018587D01*
X0123999Y0018428D01*
X0124037Y0018268D01*
X0124071Y0018107D01*
X0124101Y0017945D01*
X0124127Y0017783D01*
X0124150Y0017620D01*
X0124168Y0017457D01*
X0124182Y0017293D01*
X0124192Y0017129D01*
X0124198Y0016964D01*
X0124200Y0016800D01*
X0124198Y0016636D01*
X0124192Y0016471D01*
X0124182Y0016307D01*
X0124168Y0016143D01*
X0124150Y0015980D01*
X0124127Y0015817D01*
X0124101Y0015655D01*
X0124071Y0015493D01*
X0124037Y0015332D01*
X0123999Y0015172D01*
X0123957Y0015013D01*
X0123912Y0014855D01*
X0123862Y0014698D01*
X0123808Y0014543D01*
X0123751Y0014389D01*
X0123690Y0014236D01*
X0123625Y0014085D01*
X0123557Y0013935D01*
X0123485Y0013788D01*
X0123409Y0013642D01*
X0123330Y0013498D01*
X0123247Y0013356D01*
X0123161Y0013216D01*
X0123071Y0013078D01*
X0122978Y0012942D01*
X0122881Y0012809D01*
X0122782Y0012678D01*
X0122679Y0012550D01*
X0122573Y0012424D01*
X0122464Y0012301D01*
X0122352Y0012180D01*
X0122238Y0012062D01*
X0122120Y0011948D01*
X0121999Y0011836D01*
X0121876Y0011727D01*
X0121750Y0011621D01*
X0121622Y0011518D01*
X0121491Y0011419D01*
X0121358Y0011322D01*
X0121222Y0011229D01*
X0121084Y0011139D01*
X0120944Y0011053D01*
X0120802Y0010970D01*
X0120658Y0010891D01*
X0120512Y0010815D01*
X0120365Y0010743D01*
X0120215Y0010675D01*
X0120064Y0010610D01*
X0119911Y0010549D01*
X0119757Y0010492D01*
X0119602Y0010438D01*
X0119445Y0010388D01*
X0119287Y0010343D01*
X0119128Y0010301D01*
X0118968Y0010263D01*
X0118807Y0010229D01*
X0118645Y0010199D01*
X0118483Y0010173D01*
X0118320Y0010150D01*
X0118157Y0010132D01*
X0117993Y0010118D01*
X0117829Y0010108D01*
X0117664Y0010102D01*
X0117500Y0010100D01*
X0117336Y0010102D01*
X0117171Y0010108D01*
X0117007Y0010118D01*
X0116843Y0010132D01*
X0116680Y0010150D01*
X0116517Y0010173D01*
X0116355Y0010199D01*
X0116193Y0010229D01*
X0116032Y0010263D01*
X0115872Y0010301D01*
X0115713Y0010343D01*
X0115555Y0010388D01*
X0115398Y0010438D01*
X0115243Y0010492D01*
X0115089Y0010549D01*
X0114936Y0010610D01*
X0114785Y0010675D01*
X0114635Y0010743D01*
X0114488Y0010815D01*
X0114342Y0010891D01*
X0114198Y0010970D01*
X0114056Y0011053D01*
X0113916Y0011139D01*
X0113778Y0011229D01*
X0113642Y0011322D01*
X0113509Y0011419D01*
X0113378Y0011518D01*
X0113250Y0011621D01*
X0113124Y0011727D01*
X0113001Y0011836D01*
X0112880Y0011948D01*
X0112762Y0012062D01*
X0112648Y0012180D01*
X0112536Y0012301D01*
X0112427Y0012424D01*
X0112321Y0012550D01*
X0112218Y0012678D01*
X0112119Y0012809D01*
X0112022Y0012942D01*
X0111929Y0013078D01*
X0111839Y0013216D01*
X0111753Y0013356D01*
X0111670Y0013498D01*
X0111591Y0013642D01*
X0111515Y0013788D01*
X0111443Y0013935D01*
X0111375Y0014085D01*
X0111310Y0014236D01*
X0111249Y0014389D01*
X0111192Y0014543D01*
X0111138Y0014698D01*
X0111088Y0014855D01*
X0111043Y0015013D01*
X0111001Y0015172D01*
X0110963Y0015332D01*
X0110929Y0015493D01*
X0110899Y0015655D01*
X0110873Y0015817D01*
X0110850Y0015980D01*
X0110832Y0016143D01*
X0110818Y0016307D01*
X0110808Y0016471D01*
X0110802Y0016636D01*
X0110800Y0016800D01*
X0380800Y0016800D02*
X0380802Y0016964D01*
X0380808Y0017129D01*
X0380818Y0017293D01*
X0380832Y0017457D01*
X0380850Y0017620D01*
X0380873Y0017783D01*
X0380899Y0017945D01*
X0380929Y0018107D01*
X0380963Y0018268D01*
X0381001Y0018428D01*
X0381043Y0018587D01*
X0381088Y0018745D01*
X0381138Y0018902D01*
X0381192Y0019057D01*
X0381249Y0019211D01*
X0381310Y0019364D01*
X0381375Y0019515D01*
X0381443Y0019665D01*
X0381515Y0019812D01*
X0381591Y0019958D01*
X0381670Y0020102D01*
X0381753Y0020244D01*
X0381839Y0020384D01*
X0381929Y0020522D01*
X0382022Y0020658D01*
X0382119Y0020791D01*
X0382218Y0020922D01*
X0382321Y0021050D01*
X0382427Y0021176D01*
X0382536Y0021299D01*
X0382648Y0021420D01*
X0382762Y0021538D01*
X0382880Y0021652D01*
X0383001Y0021764D01*
X0383124Y0021873D01*
X0383250Y0021979D01*
X0383378Y0022082D01*
X0383509Y0022181D01*
X0383642Y0022278D01*
X0383778Y0022371D01*
X0383916Y0022461D01*
X0384056Y0022547D01*
X0384198Y0022630D01*
X0384342Y0022709D01*
X0384488Y0022785D01*
X0384635Y0022857D01*
X0384785Y0022925D01*
X0384936Y0022990D01*
X0385089Y0023051D01*
X0385243Y0023108D01*
X0385398Y0023162D01*
X0385555Y0023212D01*
X0385713Y0023257D01*
X0385872Y0023299D01*
X0386032Y0023337D01*
X0386193Y0023371D01*
X0386355Y0023401D01*
X0386517Y0023427D01*
X0386680Y0023450D01*
X0386843Y0023468D01*
X0387007Y0023482D01*
X0387171Y0023492D01*
X0387336Y0023498D01*
X0387500Y0023500D01*
X0387664Y0023498D01*
X0387829Y0023492D01*
X0387993Y0023482D01*
X0388157Y0023468D01*
X0388320Y0023450D01*
X0388483Y0023427D01*
X0388645Y0023401D01*
X0388807Y0023371D01*
X0388968Y0023337D01*
X0389128Y0023299D01*
X0389287Y0023257D01*
X0389445Y0023212D01*
X0389602Y0023162D01*
X0389757Y0023108D01*
X0389911Y0023051D01*
X0390064Y0022990D01*
X0390215Y0022925D01*
X0390365Y0022857D01*
X0390512Y0022785D01*
X0390658Y0022709D01*
X0390802Y0022630D01*
X0390944Y0022547D01*
X0391084Y0022461D01*
X0391222Y0022371D01*
X0391358Y0022278D01*
X0391491Y0022181D01*
X0391622Y0022082D01*
X0391750Y0021979D01*
X0391876Y0021873D01*
X0391999Y0021764D01*
X0392120Y0021652D01*
X0392238Y0021538D01*
X0392352Y0021420D01*
X0392464Y0021299D01*
X0392573Y0021176D01*
X0392679Y0021050D01*
X0392782Y0020922D01*
X0392881Y0020791D01*
X0392978Y0020658D01*
X0393071Y0020522D01*
X0393161Y0020384D01*
X0393247Y0020244D01*
X0393330Y0020102D01*
X0393409Y0019958D01*
X0393485Y0019812D01*
X0393557Y0019665D01*
X0393625Y0019515D01*
X0393690Y0019364D01*
X0393751Y0019211D01*
X0393808Y0019057D01*
X0393862Y0018902D01*
X0393912Y0018745D01*
X0393957Y0018587D01*
X0393999Y0018428D01*
X0394037Y0018268D01*
X0394071Y0018107D01*
X0394101Y0017945D01*
X0394127Y0017783D01*
X0394150Y0017620D01*
X0394168Y0017457D01*
X0394182Y0017293D01*
X0394192Y0017129D01*
X0394198Y0016964D01*
X0394200Y0016800D01*
X0394198Y0016636D01*
X0394192Y0016471D01*
X0394182Y0016307D01*
X0394168Y0016143D01*
X0394150Y0015980D01*
X0394127Y0015817D01*
X0394101Y0015655D01*
X0394071Y0015493D01*
X0394037Y0015332D01*
X0393999Y0015172D01*
X0393957Y0015013D01*
X0393912Y0014855D01*
X0393862Y0014698D01*
X0393808Y0014543D01*
X0393751Y0014389D01*
X0393690Y0014236D01*
X0393625Y0014085D01*
X0393557Y0013935D01*
X0393485Y0013788D01*
X0393409Y0013642D01*
X0393330Y0013498D01*
X0393247Y0013356D01*
X0393161Y0013216D01*
X0393071Y0013078D01*
X0392978Y0012942D01*
X0392881Y0012809D01*
X0392782Y0012678D01*
X0392679Y0012550D01*
X0392573Y0012424D01*
X0392464Y0012301D01*
X0392352Y0012180D01*
X0392238Y0012062D01*
X0392120Y0011948D01*
X0391999Y0011836D01*
X0391876Y0011727D01*
X0391750Y0011621D01*
X0391622Y0011518D01*
X0391491Y0011419D01*
X0391358Y0011322D01*
X0391222Y0011229D01*
X0391084Y0011139D01*
X0390944Y0011053D01*
X0390802Y0010970D01*
X0390658Y0010891D01*
X0390512Y0010815D01*
X0390365Y0010743D01*
X0390215Y0010675D01*
X0390064Y0010610D01*
X0389911Y0010549D01*
X0389757Y0010492D01*
X0389602Y0010438D01*
X0389445Y0010388D01*
X0389287Y0010343D01*
X0389128Y0010301D01*
X0388968Y0010263D01*
X0388807Y0010229D01*
X0388645Y0010199D01*
X0388483Y0010173D01*
X0388320Y0010150D01*
X0388157Y0010132D01*
X0387993Y0010118D01*
X0387829Y0010108D01*
X0387664Y0010102D01*
X0387500Y0010100D01*
X0387336Y0010102D01*
X0387171Y0010108D01*
X0387007Y0010118D01*
X0386843Y0010132D01*
X0386680Y0010150D01*
X0386517Y0010173D01*
X0386355Y0010199D01*
X0386193Y0010229D01*
X0386032Y0010263D01*
X0385872Y0010301D01*
X0385713Y0010343D01*
X0385555Y0010388D01*
X0385398Y0010438D01*
X0385243Y0010492D01*
X0385089Y0010549D01*
X0384936Y0010610D01*
X0384785Y0010675D01*
X0384635Y0010743D01*
X0384488Y0010815D01*
X0384342Y0010891D01*
X0384198Y0010970D01*
X0384056Y0011053D01*
X0383916Y0011139D01*
X0383778Y0011229D01*
X0383642Y0011322D01*
X0383509Y0011419D01*
X0383378Y0011518D01*
X0383250Y0011621D01*
X0383124Y0011727D01*
X0383001Y0011836D01*
X0382880Y0011948D01*
X0382762Y0012062D01*
X0382648Y0012180D01*
X0382536Y0012301D01*
X0382427Y0012424D01*
X0382321Y0012550D01*
X0382218Y0012678D01*
X0382119Y0012809D01*
X0382022Y0012942D01*
X0381929Y0013078D01*
X0381839Y0013216D01*
X0381753Y0013356D01*
X0381670Y0013498D01*
X0381591Y0013642D01*
X0381515Y0013788D01*
X0381443Y0013935D01*
X0381375Y0014085D01*
X0381310Y0014236D01*
X0381249Y0014389D01*
X0381192Y0014543D01*
X0381138Y0014698D01*
X0381088Y0014855D01*
X0381043Y0015013D01*
X0381001Y0015172D01*
X0380963Y0015332D01*
X0380929Y0015493D01*
X0380899Y0015655D01*
X0380873Y0015817D01*
X0380850Y0015980D01*
X0380832Y0016143D01*
X0380818Y0016307D01*
X0380808Y0016471D01*
X0380802Y0016636D01*
X0380800Y0016800D01*
X0380800Y0286800D02*
X0380802Y0286964D01*
X0380808Y0287129D01*
X0380818Y0287293D01*
X0380832Y0287457D01*
X0380850Y0287620D01*
X0380873Y0287783D01*
X0380899Y0287945D01*
X0380929Y0288107D01*
X0380963Y0288268D01*
X0381001Y0288428D01*
X0381043Y0288587D01*
X0381088Y0288745D01*
X0381138Y0288902D01*
X0381192Y0289057D01*
X0381249Y0289211D01*
X0381310Y0289364D01*
X0381375Y0289515D01*
X0381443Y0289665D01*
X0381515Y0289812D01*
X0381591Y0289958D01*
X0381670Y0290102D01*
X0381753Y0290244D01*
X0381839Y0290384D01*
X0381929Y0290522D01*
X0382022Y0290658D01*
X0382119Y0290791D01*
X0382218Y0290922D01*
X0382321Y0291050D01*
X0382427Y0291176D01*
X0382536Y0291299D01*
X0382648Y0291420D01*
X0382762Y0291538D01*
X0382880Y0291652D01*
X0383001Y0291764D01*
X0383124Y0291873D01*
X0383250Y0291979D01*
X0383378Y0292082D01*
X0383509Y0292181D01*
X0383642Y0292278D01*
X0383778Y0292371D01*
X0383916Y0292461D01*
X0384056Y0292547D01*
X0384198Y0292630D01*
X0384342Y0292709D01*
X0384488Y0292785D01*
X0384635Y0292857D01*
X0384785Y0292925D01*
X0384936Y0292990D01*
X0385089Y0293051D01*
X0385243Y0293108D01*
X0385398Y0293162D01*
X0385555Y0293212D01*
X0385713Y0293257D01*
X0385872Y0293299D01*
X0386032Y0293337D01*
X0386193Y0293371D01*
X0386355Y0293401D01*
X0386517Y0293427D01*
X0386680Y0293450D01*
X0386843Y0293468D01*
X0387007Y0293482D01*
X0387171Y0293492D01*
X0387336Y0293498D01*
X0387500Y0293500D01*
X0387664Y0293498D01*
X0387829Y0293492D01*
X0387993Y0293482D01*
X0388157Y0293468D01*
X0388320Y0293450D01*
X0388483Y0293427D01*
X0388645Y0293401D01*
X0388807Y0293371D01*
X0388968Y0293337D01*
X0389128Y0293299D01*
X0389287Y0293257D01*
X0389445Y0293212D01*
X0389602Y0293162D01*
X0389757Y0293108D01*
X0389911Y0293051D01*
X0390064Y0292990D01*
X0390215Y0292925D01*
X0390365Y0292857D01*
X0390512Y0292785D01*
X0390658Y0292709D01*
X0390802Y0292630D01*
X0390944Y0292547D01*
X0391084Y0292461D01*
X0391222Y0292371D01*
X0391358Y0292278D01*
X0391491Y0292181D01*
X0391622Y0292082D01*
X0391750Y0291979D01*
X0391876Y0291873D01*
X0391999Y0291764D01*
X0392120Y0291652D01*
X0392238Y0291538D01*
X0392352Y0291420D01*
X0392464Y0291299D01*
X0392573Y0291176D01*
X0392679Y0291050D01*
X0392782Y0290922D01*
X0392881Y0290791D01*
X0392978Y0290658D01*
X0393071Y0290522D01*
X0393161Y0290384D01*
X0393247Y0290244D01*
X0393330Y0290102D01*
X0393409Y0289958D01*
X0393485Y0289812D01*
X0393557Y0289665D01*
X0393625Y0289515D01*
X0393690Y0289364D01*
X0393751Y0289211D01*
X0393808Y0289057D01*
X0393862Y0288902D01*
X0393912Y0288745D01*
X0393957Y0288587D01*
X0393999Y0288428D01*
X0394037Y0288268D01*
X0394071Y0288107D01*
X0394101Y0287945D01*
X0394127Y0287783D01*
X0394150Y0287620D01*
X0394168Y0287457D01*
X0394182Y0287293D01*
X0394192Y0287129D01*
X0394198Y0286964D01*
X0394200Y0286800D01*
X0394198Y0286636D01*
X0394192Y0286471D01*
X0394182Y0286307D01*
X0394168Y0286143D01*
X0394150Y0285980D01*
X0394127Y0285817D01*
X0394101Y0285655D01*
X0394071Y0285493D01*
X0394037Y0285332D01*
X0393999Y0285172D01*
X0393957Y0285013D01*
X0393912Y0284855D01*
X0393862Y0284698D01*
X0393808Y0284543D01*
X0393751Y0284389D01*
X0393690Y0284236D01*
X0393625Y0284085D01*
X0393557Y0283935D01*
X0393485Y0283788D01*
X0393409Y0283642D01*
X0393330Y0283498D01*
X0393247Y0283356D01*
X0393161Y0283216D01*
X0393071Y0283078D01*
X0392978Y0282942D01*
X0392881Y0282809D01*
X0392782Y0282678D01*
X0392679Y0282550D01*
X0392573Y0282424D01*
X0392464Y0282301D01*
X0392352Y0282180D01*
X0392238Y0282062D01*
X0392120Y0281948D01*
X0391999Y0281836D01*
X0391876Y0281727D01*
X0391750Y0281621D01*
X0391622Y0281518D01*
X0391491Y0281419D01*
X0391358Y0281322D01*
X0391222Y0281229D01*
X0391084Y0281139D01*
X0390944Y0281053D01*
X0390802Y0280970D01*
X0390658Y0280891D01*
X0390512Y0280815D01*
X0390365Y0280743D01*
X0390215Y0280675D01*
X0390064Y0280610D01*
X0389911Y0280549D01*
X0389757Y0280492D01*
X0389602Y0280438D01*
X0389445Y0280388D01*
X0389287Y0280343D01*
X0389128Y0280301D01*
X0388968Y0280263D01*
X0388807Y0280229D01*
X0388645Y0280199D01*
X0388483Y0280173D01*
X0388320Y0280150D01*
X0388157Y0280132D01*
X0387993Y0280118D01*
X0387829Y0280108D01*
X0387664Y0280102D01*
X0387500Y0280100D01*
X0387336Y0280102D01*
X0387171Y0280108D01*
X0387007Y0280118D01*
X0386843Y0280132D01*
X0386680Y0280150D01*
X0386517Y0280173D01*
X0386355Y0280199D01*
X0386193Y0280229D01*
X0386032Y0280263D01*
X0385872Y0280301D01*
X0385713Y0280343D01*
X0385555Y0280388D01*
X0385398Y0280438D01*
X0385243Y0280492D01*
X0385089Y0280549D01*
X0384936Y0280610D01*
X0384785Y0280675D01*
X0384635Y0280743D01*
X0384488Y0280815D01*
X0384342Y0280891D01*
X0384198Y0280970D01*
X0384056Y0281053D01*
X0383916Y0281139D01*
X0383778Y0281229D01*
X0383642Y0281322D01*
X0383509Y0281419D01*
X0383378Y0281518D01*
X0383250Y0281621D01*
X0383124Y0281727D01*
X0383001Y0281836D01*
X0382880Y0281948D01*
X0382762Y0282062D01*
X0382648Y0282180D01*
X0382536Y0282301D01*
X0382427Y0282424D01*
X0382321Y0282550D01*
X0382218Y0282678D01*
X0382119Y0282809D01*
X0382022Y0282942D01*
X0381929Y0283078D01*
X0381839Y0283216D01*
X0381753Y0283356D01*
X0381670Y0283498D01*
X0381591Y0283642D01*
X0381515Y0283788D01*
X0381443Y0283935D01*
X0381375Y0284085D01*
X0381310Y0284236D01*
X0381249Y0284389D01*
X0381192Y0284543D01*
X0381138Y0284698D01*
X0381088Y0284855D01*
X0381043Y0285013D01*
X0381001Y0285172D01*
X0380963Y0285332D01*
X0380929Y0285493D01*
X0380899Y0285655D01*
X0380873Y0285817D01*
X0380850Y0285980D01*
X0380832Y0286143D01*
X0380818Y0286307D01*
X0380808Y0286471D01*
X0380802Y0286636D01*
X0380800Y0286800D01*
X0110800Y0286800D02*
X0110802Y0286964D01*
X0110808Y0287129D01*
X0110818Y0287293D01*
X0110832Y0287457D01*
X0110850Y0287620D01*
X0110873Y0287783D01*
X0110899Y0287945D01*
X0110929Y0288107D01*
X0110963Y0288268D01*
X0111001Y0288428D01*
X0111043Y0288587D01*
X0111088Y0288745D01*
X0111138Y0288902D01*
X0111192Y0289057D01*
X0111249Y0289211D01*
X0111310Y0289364D01*
X0111375Y0289515D01*
X0111443Y0289665D01*
X0111515Y0289812D01*
X0111591Y0289958D01*
X0111670Y0290102D01*
X0111753Y0290244D01*
X0111839Y0290384D01*
X0111929Y0290522D01*
X0112022Y0290658D01*
X0112119Y0290791D01*
X0112218Y0290922D01*
X0112321Y0291050D01*
X0112427Y0291176D01*
X0112536Y0291299D01*
X0112648Y0291420D01*
X0112762Y0291538D01*
X0112880Y0291652D01*
X0113001Y0291764D01*
X0113124Y0291873D01*
X0113250Y0291979D01*
X0113378Y0292082D01*
X0113509Y0292181D01*
X0113642Y0292278D01*
X0113778Y0292371D01*
X0113916Y0292461D01*
X0114056Y0292547D01*
X0114198Y0292630D01*
X0114342Y0292709D01*
X0114488Y0292785D01*
X0114635Y0292857D01*
X0114785Y0292925D01*
X0114936Y0292990D01*
X0115089Y0293051D01*
X0115243Y0293108D01*
X0115398Y0293162D01*
X0115555Y0293212D01*
X0115713Y0293257D01*
X0115872Y0293299D01*
X0116032Y0293337D01*
X0116193Y0293371D01*
X0116355Y0293401D01*
X0116517Y0293427D01*
X0116680Y0293450D01*
X0116843Y0293468D01*
X0117007Y0293482D01*
X0117171Y0293492D01*
X0117336Y0293498D01*
X0117500Y0293500D01*
X0117664Y0293498D01*
X0117829Y0293492D01*
X0117993Y0293482D01*
X0118157Y0293468D01*
X0118320Y0293450D01*
X0118483Y0293427D01*
X0118645Y0293401D01*
X0118807Y0293371D01*
X0118968Y0293337D01*
X0119128Y0293299D01*
X0119287Y0293257D01*
X0119445Y0293212D01*
X0119602Y0293162D01*
X0119757Y0293108D01*
X0119911Y0293051D01*
X0120064Y0292990D01*
X0120215Y0292925D01*
X0120365Y0292857D01*
X0120512Y0292785D01*
X0120658Y0292709D01*
X0120802Y0292630D01*
X0120944Y0292547D01*
X0121084Y0292461D01*
X0121222Y0292371D01*
X0121358Y0292278D01*
X0121491Y0292181D01*
X0121622Y0292082D01*
X0121750Y0291979D01*
X0121876Y0291873D01*
X0121999Y0291764D01*
X0122120Y0291652D01*
X0122238Y0291538D01*
X0122352Y0291420D01*
X0122464Y0291299D01*
X0122573Y0291176D01*
X0122679Y0291050D01*
X0122782Y0290922D01*
X0122881Y0290791D01*
X0122978Y0290658D01*
X0123071Y0290522D01*
X0123161Y0290384D01*
X0123247Y0290244D01*
X0123330Y0290102D01*
X0123409Y0289958D01*
X0123485Y0289812D01*
X0123557Y0289665D01*
X0123625Y0289515D01*
X0123690Y0289364D01*
X0123751Y0289211D01*
X0123808Y0289057D01*
X0123862Y0288902D01*
X0123912Y0288745D01*
X0123957Y0288587D01*
X0123999Y0288428D01*
X0124037Y0288268D01*
X0124071Y0288107D01*
X0124101Y0287945D01*
X0124127Y0287783D01*
X0124150Y0287620D01*
X0124168Y0287457D01*
X0124182Y0287293D01*
X0124192Y0287129D01*
X0124198Y0286964D01*
X0124200Y0286800D01*
X0124198Y0286636D01*
X0124192Y0286471D01*
X0124182Y0286307D01*
X0124168Y0286143D01*
X0124150Y0285980D01*
X0124127Y0285817D01*
X0124101Y0285655D01*
X0124071Y0285493D01*
X0124037Y0285332D01*
X0123999Y0285172D01*
X0123957Y0285013D01*
X0123912Y0284855D01*
X0123862Y0284698D01*
X0123808Y0284543D01*
X0123751Y0284389D01*
X0123690Y0284236D01*
X0123625Y0284085D01*
X0123557Y0283935D01*
X0123485Y0283788D01*
X0123409Y0283642D01*
X0123330Y0283498D01*
X0123247Y0283356D01*
X0123161Y0283216D01*
X0123071Y0283078D01*
X0122978Y0282942D01*
X0122881Y0282809D01*
X0122782Y0282678D01*
X0122679Y0282550D01*
X0122573Y0282424D01*
X0122464Y0282301D01*
X0122352Y0282180D01*
X0122238Y0282062D01*
X0122120Y0281948D01*
X0121999Y0281836D01*
X0121876Y0281727D01*
X0121750Y0281621D01*
X0121622Y0281518D01*
X0121491Y0281419D01*
X0121358Y0281322D01*
X0121222Y0281229D01*
X0121084Y0281139D01*
X0120944Y0281053D01*
X0120802Y0280970D01*
X0120658Y0280891D01*
X0120512Y0280815D01*
X0120365Y0280743D01*
X0120215Y0280675D01*
X0120064Y0280610D01*
X0119911Y0280549D01*
X0119757Y0280492D01*
X0119602Y0280438D01*
X0119445Y0280388D01*
X0119287Y0280343D01*
X0119128Y0280301D01*
X0118968Y0280263D01*
X0118807Y0280229D01*
X0118645Y0280199D01*
X0118483Y0280173D01*
X0118320Y0280150D01*
X0118157Y0280132D01*
X0117993Y0280118D01*
X0117829Y0280108D01*
X0117664Y0280102D01*
X0117500Y0280100D01*
X0117336Y0280102D01*
X0117171Y0280108D01*
X0117007Y0280118D01*
X0116843Y0280132D01*
X0116680Y0280150D01*
X0116517Y0280173D01*
X0116355Y0280199D01*
X0116193Y0280229D01*
X0116032Y0280263D01*
X0115872Y0280301D01*
X0115713Y0280343D01*
X0115555Y0280388D01*
X0115398Y0280438D01*
X0115243Y0280492D01*
X0115089Y0280549D01*
X0114936Y0280610D01*
X0114785Y0280675D01*
X0114635Y0280743D01*
X0114488Y0280815D01*
X0114342Y0280891D01*
X0114198Y0280970D01*
X0114056Y0281053D01*
X0113916Y0281139D01*
X0113778Y0281229D01*
X0113642Y0281322D01*
X0113509Y0281419D01*
X0113378Y0281518D01*
X0113250Y0281621D01*
X0113124Y0281727D01*
X0113001Y0281836D01*
X0112880Y0281948D01*
X0112762Y0282062D01*
X0112648Y0282180D01*
X0112536Y0282301D01*
X0112427Y0282424D01*
X0112321Y0282550D01*
X0112218Y0282678D01*
X0112119Y0282809D01*
X0112022Y0282942D01*
X0111929Y0283078D01*
X0111839Y0283216D01*
X0111753Y0283356D01*
X0111670Y0283498D01*
X0111591Y0283642D01*
X0111515Y0283788D01*
X0111443Y0283935D01*
X0111375Y0284085D01*
X0111310Y0284236D01*
X0111249Y0284389D01*
X0111192Y0284543D01*
X0111138Y0284698D01*
X0111088Y0284855D01*
X0111043Y0285013D01*
X0111001Y0285172D01*
X0110963Y0285332D01*
X0110929Y0285493D01*
X0110899Y0285655D01*
X0110873Y0285817D01*
X0110850Y0285980D01*
X0110832Y0286143D01*
X0110818Y0286307D01*
X0110808Y0286471D01*
X0110802Y0286636D01*
X0110800Y0286800D01*
D11*
X0002500Y0001800D02*
X0402500Y0001800D01*
D12*
X0002500Y0001800D02*
X0002500Y0301800D01*
X0402500Y0301800D01*
X0402500Y0001800D01*
X0337500Y0106800D02*
X0092500Y0106800D01*
X0087500Y0111800D01*
X0087500Y0149300D01*
X0097500Y0149300D02*
X0097500Y0134300D01*
X0107500Y0139300D02*
X0107500Y0149300D01*
X0102500Y0149300D02*
X0102500Y0126800D01*
X0112500Y0115550D02*
X0117500Y0110550D01*
X0327500Y0110550D01*
X0337500Y0106800D02*
X0345000Y0114300D01*
X0275000Y0117836D02*
X0271464Y0114300D01*
X0120000Y0114300D01*
X0117500Y0116800D01*
X0117500Y0149300D01*
X0122500Y0149300D02*
X0122500Y0122836D01*
X0126036Y0119300D01*
X0266464Y0119300D01*
X0270000Y0122836D01*
X0270000Y0161800D01*
X0260000Y0161800D02*
X0260000Y0132836D01*
X0256464Y0129300D01*
X0136036Y0129300D01*
X0132500Y0132836D01*
X0132500Y0149300D01*
X0127500Y0149300D02*
X0127500Y0127836D01*
X0131036Y0124300D01*
X0261464Y0124300D01*
X0265000Y0127836D01*
X0265000Y0154300D01*
X0275000Y0154300D02*
X0275000Y0117836D01*
X0317500Y0169300D02*
X0144114Y0169300D01*
X0144094Y0169320D01*
X0144094Y0164320D02*
X0144114Y0164300D01*
X0160000Y0164300D01*
X0152500Y0159300D02*
X0144114Y0159300D01*
X0144094Y0159320D01*
X0137500Y0149300D02*
X0137500Y0136800D01*
X0112500Y0149300D02*
X0112500Y0115550D01*
X0095250Y0095550D02*
X0172500Y0095550D01*
X0167500Y0071800D02*
X0157500Y0061800D01*
X0092500Y0061800D01*
X0084750Y0095550D02*
X0053750Y0095550D01*
X0050000Y0099300D01*
X0050000Y0104300D01*
X0047500Y0106800D01*
X0035157Y0106800D01*
X0035000Y0106643D01*
X0035000Y0169300D01*
X0045000Y0179300D01*
X0058760Y0179300D01*
X0058760Y0184310D01*
X0061250Y0186800D01*
X0075000Y0186800D01*
X0077500Y0189300D01*
X0080925Y0189300D01*
X0080925Y0194300D02*
X0068740Y0194300D01*
X0068750Y0194310D01*
X0068750Y0199300D01*
X0070000Y0200550D01*
X0072500Y0200550D01*
X0107510Y0240550D02*
X0107500Y0240560D01*
X0107510Y0240550D02*
X0113750Y0240550D01*
X0122500Y0240550D02*
X0127500Y0235550D01*
X0127500Y0231800D01*
X0144094Y0204320D02*
X0198770Y0204320D01*
X0203750Y0209300D01*
X0144114Y0189300D02*
X0144094Y0189320D01*
X0144114Y0189300D02*
X0282500Y0189300D01*
X0327500Y0174300D02*
X0144114Y0174300D01*
X0144094Y0174320D01*
X0144114Y0179300D02*
X0144094Y0179320D01*
X0144114Y0179300D02*
X0347500Y0179300D01*
X0337500Y0184300D02*
X0144114Y0184300D01*
X0144094Y0184320D01*
X0035000Y0086957D02*
X0035000Y0068040D01*
X0160000Y0055550D02*
X0160000Y0024300D01*
X0166250Y0018050D01*
X0213750Y0018050D01*
X0221496Y0025796D01*
X0221496Y0034044D01*
X0212835Y0034044D02*
X0212835Y0041465D01*
X0212500Y0041800D01*
X0204173Y0037627D02*
X0204173Y0034044D01*
X0204173Y0037627D02*
X0202500Y0039300D01*
X0165000Y0039300D01*
X0317500Y0249300D02*
X0317500Y0266800D01*
X0327500Y0266800D02*
X0327500Y0249300D01*
X0337500Y0249300D02*
X0337500Y0266800D01*
X0347500Y0266800D02*
X0347500Y0249300D01*
D13*
X0060512Y0164300D03*
X0049488Y0164300D03*
D14*
X0042500Y0201810D03*
X0042500Y0209290D03*
X0107500Y0240560D03*
X0107500Y0248040D03*
X0102500Y0263060D03*
X0102500Y0270540D03*
X0117500Y0270540D03*
X0117500Y0263060D03*
X0035000Y0068040D03*
X0035000Y0060560D03*
D15*
X0058760Y0179300D03*
X0066240Y0179300D03*
X0068740Y0194300D03*
X0061260Y0194300D03*
X0283760Y0276800D03*
X0291240Y0276800D03*
X0367510Y0251800D03*
X0374990Y0251800D03*
D16*
X0067559Y0209300D03*
X0062441Y0209300D03*
D17*
X0080925Y0209300D03*
X0080925Y0204300D03*
X0080925Y0199300D03*
X0080925Y0194300D03*
X0080925Y0189300D03*
X0080925Y0184300D03*
X0080925Y0179300D03*
X0080925Y0174300D03*
X0080925Y0169300D03*
X0080925Y0164300D03*
X0080925Y0159300D03*
X0080925Y0154300D03*
X0080925Y0149300D03*
X0087500Y0149300D03*
X0092500Y0149300D03*
X0097500Y0149300D03*
X0102500Y0149300D03*
X0107500Y0149300D03*
X0112500Y0149300D03*
X0117500Y0149300D03*
X0122500Y0149300D03*
X0127500Y0149300D03*
X0132500Y0149300D03*
X0137500Y0149300D03*
X0144094Y0149320D03*
X0144094Y0154320D03*
X0144094Y0159320D03*
X0144094Y0164320D03*
X0144094Y0169320D03*
X0144094Y0174320D03*
X0144094Y0179320D03*
X0144094Y0184320D03*
X0144094Y0189320D03*
X0144094Y0194320D03*
X0144094Y0199320D03*
X0144094Y0204320D03*
X0144094Y0209320D03*
X0144094Y0214320D03*
X0144094Y0219320D03*
X0144094Y0224320D03*
X0137500Y0224300D03*
X0132500Y0224300D03*
X0127500Y0224300D03*
X0122500Y0224300D03*
X0117500Y0224300D03*
X0112500Y0224300D03*
X0107500Y0224300D03*
X0102500Y0224300D03*
X0097500Y0224300D03*
X0092500Y0224300D03*
X0087500Y0224300D03*
X0080925Y0224300D03*
X0080925Y0219300D03*
X0080925Y0214300D03*
D18*
X0106594Y0192706D03*
X0118406Y0192706D03*
X0130217Y0192706D03*
X0130217Y0180894D03*
X0118406Y0180894D03*
X0106594Y0180894D03*
X0106594Y0169083D03*
X0118406Y0169083D03*
D19*
X0129232Y0170068D03*
D20*
X0008543Y0207804D03*
D21*
X0019961Y0209379D03*
D22*
X0008543Y0203276D03*
X0008543Y0190678D03*
D23*
X0008543Y0214891D03*
D24*
X0030394Y0209379D03*
D25*
X0035000Y0106643D03*
X0035000Y0086957D03*
D26*
X0159626Y0267863D03*
X0159626Y0275737D03*
X0167500Y0275737D03*
X0167500Y0267863D03*
X0175374Y0267863D03*
X0175374Y0275737D03*
X0183248Y0275737D03*
X0183248Y0267863D03*
X0151752Y0275737D03*
D27*
X0151752Y0267863D03*
D28*
X0307500Y0266800D03*
X0357500Y0236800D03*
X0082500Y0081800D03*
D29*
X0082500Y0071800D03*
X0072500Y0071800D03*
X0062500Y0071800D03*
X0062500Y0081800D03*
X0072500Y0081800D03*
X0317500Y0266800D03*
X0327500Y0266800D03*
X0337500Y0266800D03*
X0347500Y0266800D03*
X0357500Y0266800D03*
X0357500Y0276800D03*
X0347500Y0276800D03*
X0337500Y0276800D03*
X0327500Y0276800D03*
X0317500Y0276800D03*
X0307500Y0276800D03*
X0367500Y0236800D03*
X0367500Y0226800D03*
X0357500Y0226800D03*
X0357500Y0216800D03*
X0367500Y0216800D03*
D30*
X0230157Y0034044D03*
X0225827Y0034044D03*
X0221496Y0034044D03*
X0217165Y0034044D03*
X0212835Y0034044D03*
X0208504Y0034044D03*
X0204173Y0034044D03*
X0199843Y0034044D03*
D31*
X0196339Y0025973D03*
D32*
X0248701Y0024989D03*
D33*
X0249882Y0056387D03*
D34*
X0249882Y0079713D03*
D35*
X0195059Y0052076D03*
D36*
X0195059Y0072076D03*
D37*
X0195945Y0078001D03*
D38*
X0196043Y0080599D03*
D39*
X0090000Y0044769D02*
X0090000Y0038831D01*
X0080000Y0038831D02*
X0080000Y0044769D01*
X0070000Y0044769D02*
X0070000Y0038831D01*
X0060000Y0038831D02*
X0060000Y0044769D01*
D40*
X0082500Y0056800D02*
X0090000Y0049300D01*
X0090000Y0041800D01*
X0082500Y0056800D02*
X0082500Y0071800D01*
X0087500Y0071800D01*
X0090000Y0074300D01*
X0090000Y0101800D01*
X0080000Y0101800D01*
X0062500Y0119300D01*
X0062500Y0160540D01*
X0060512Y0164300D01*
X0060000Y0164300D01*
X0065000Y0169300D01*
X0070000Y0164300D01*
X0080925Y0164300D01*
X0065000Y0169300D02*
X0065000Y0178060D01*
X0066240Y0179300D01*
X0080925Y0179300D01*
X0080925Y0184300D01*
X0062431Y0209290D02*
X0062441Y0209300D01*
X0042500Y0209290D02*
X0042411Y0209379D01*
X0151752Y0252548D02*
X0155000Y0249300D01*
X0291240Y0249300D01*
X0291240Y0235560D01*
X0300000Y0226800D01*
X0342500Y0226800D01*
X0342500Y0201800D01*
X0360000Y0184300D01*
X0360000Y0116800D01*
X0345000Y0101800D01*
X0255000Y0101800D01*
X0256250Y0100550D01*
X0256250Y0045550D01*
X0251250Y0040550D01*
X0218750Y0040550D01*
X0217165Y0038965D01*
X0217165Y0034044D01*
X0255000Y0101800D02*
X0090000Y0101800D01*
X0151752Y0252548D02*
X0151752Y0267863D01*
X0291240Y0276800D02*
X0291240Y0249300D01*
X0291240Y0276800D02*
X0307500Y0276800D01*
X0342500Y0226800D02*
X0357500Y0226800D01*
D41*
X0361695Y0228462D02*
X0363305Y0228462D01*
X0362988Y0227697D02*
X0362988Y0225903D01*
X0363675Y0224244D01*
X0364944Y0222975D01*
X0366603Y0222288D01*
X0368397Y0222288D01*
X0370056Y0222975D01*
X0371325Y0224244D01*
X0372012Y0225903D01*
X0372012Y0227697D01*
X0371325Y0229356D01*
X0370056Y0230625D01*
X0368397Y0231312D01*
X0366603Y0231312D01*
X0364944Y0230625D01*
X0363675Y0229356D01*
X0362988Y0227697D01*
X0362988Y0227464D02*
X0362012Y0227464D01*
X0362012Y0227697D02*
X0362012Y0225903D01*
X0361325Y0224244D01*
X0360056Y0222975D01*
X0358397Y0222288D01*
X0356603Y0222288D01*
X0354944Y0222975D01*
X0354119Y0223800D01*
X0345500Y0223800D01*
X0345500Y0203043D01*
X0361699Y0186843D01*
X0362543Y0185999D01*
X0363000Y0184897D01*
X0363000Y0116203D01*
X0362543Y0115101D01*
X0347543Y0100101D01*
X0346699Y0099257D01*
X0345597Y0098800D01*
X0259250Y0098800D01*
X0259250Y0044953D01*
X0258793Y0043851D01*
X0257949Y0043007D01*
X0252949Y0038007D01*
X0251847Y0037550D01*
X0233104Y0037550D01*
X0233232Y0037421D01*
X0233232Y0030667D01*
X0232354Y0029788D01*
X0223746Y0029788D01*
X0223746Y0024864D01*
X0216000Y0017118D01*
X0214682Y0015800D01*
X0165318Y0015800D01*
X0164000Y0017118D01*
X0164000Y0017118D01*
X0159068Y0022050D01*
X0159068Y0022050D01*
X0157750Y0023368D01*
X0157750Y0052877D01*
X0157049Y0053578D01*
X0156519Y0054858D01*
X0156519Y0056242D01*
X0157049Y0057522D01*
X0158028Y0058501D01*
X0159308Y0059031D01*
X0160692Y0059031D01*
X0161972Y0058501D01*
X0162951Y0057522D01*
X0163481Y0056242D01*
X0163481Y0054858D01*
X0162951Y0053578D01*
X0162250Y0052877D01*
X0162250Y0041473D01*
X0163028Y0042251D01*
X0164308Y0042781D01*
X0165692Y0042781D01*
X0166972Y0042251D01*
X0167673Y0041550D01*
X0203432Y0041550D01*
X0204750Y0040232D01*
X0206423Y0038559D01*
X0206423Y0038246D01*
X0206446Y0038223D01*
X0206732Y0038300D01*
X0208217Y0038300D01*
X0208217Y0034332D01*
X0208791Y0034332D01*
X0208791Y0038300D01*
X0210276Y0038300D01*
X0210562Y0038223D01*
X0210585Y0038246D01*
X0210585Y0038825D01*
X0210528Y0038849D01*
X0209549Y0039828D01*
X0209019Y0041108D01*
X0209019Y0042492D01*
X0209549Y0043772D01*
X0210305Y0044528D01*
X0196880Y0044528D01*
X0196587Y0044821D01*
X0196587Y0046377D01*
X0196536Y0046363D01*
X0195199Y0046363D01*
X0195199Y0051936D01*
X0194919Y0051936D01*
X0192280Y0051936D01*
X0192280Y0047666D01*
X0192382Y0047284D01*
X0192579Y0046942D01*
X0192859Y0046663D01*
X0193201Y0046465D01*
X0193582Y0046363D01*
X0194919Y0046363D01*
X0194919Y0051936D01*
X0194919Y0052215D01*
X0192280Y0052215D01*
X0192280Y0056486D01*
X0192382Y0056867D01*
X0192579Y0057209D01*
X0192859Y0057488D01*
X0193201Y0057686D01*
X0193582Y0057788D01*
X0194919Y0057788D01*
X0194919Y0052215D01*
X0195199Y0052215D01*
X0195199Y0057788D01*
X0196536Y0057788D01*
X0196587Y0057775D01*
X0196587Y0067007D01*
X0196880Y0067300D01*
X0232727Y0067300D01*
X0233020Y0067007D01*
X0233020Y0044821D01*
X0232727Y0044528D01*
X0214695Y0044528D01*
X0215451Y0043772D01*
X0215981Y0042492D01*
X0215981Y0042024D01*
X0216207Y0042249D01*
X0217051Y0043093D01*
X0218153Y0043550D01*
X0250007Y0043550D01*
X0253250Y0046793D01*
X0253250Y0098800D01*
X0173750Y0098800D01*
X0174472Y0098501D01*
X0175451Y0097522D01*
X0175981Y0096242D01*
X0175981Y0094858D01*
X0175451Y0093578D01*
X0174472Y0092599D01*
X0173192Y0092069D01*
X0171808Y0092069D01*
X0170528Y0092599D01*
X0169827Y0093300D01*
X0097923Y0093300D01*
X0097222Y0092599D01*
X0095942Y0092069D01*
X0094558Y0092069D01*
X0093278Y0092599D01*
X0093000Y0092877D01*
X0093000Y0073703D01*
X0092543Y0072601D01*
X0091699Y0071757D01*
X0091699Y0071757D01*
X0089199Y0069257D01*
X0088097Y0068800D01*
X0085881Y0068800D01*
X0085500Y0068419D01*
X0085500Y0058043D01*
X0091699Y0051843D01*
X0092543Y0050999D01*
X0093000Y0049897D01*
X0093000Y0048088D01*
X0093788Y0047300D01*
X0094468Y0045657D01*
X0094468Y0037943D01*
X0093788Y0036300D01*
X0092531Y0035043D01*
X0090889Y0034363D01*
X0089111Y0034363D01*
X0087469Y0035043D01*
X0086212Y0036300D01*
X0085531Y0037943D01*
X0085531Y0045657D01*
X0086212Y0047300D01*
X0086985Y0048073D01*
X0079957Y0055101D01*
X0079500Y0056203D01*
X0079500Y0068419D01*
X0078675Y0069244D01*
X0077988Y0070903D01*
X0077988Y0072697D01*
X0078675Y0074356D01*
X0079944Y0075625D01*
X0081603Y0076312D01*
X0083397Y0076312D01*
X0085056Y0075625D01*
X0085881Y0074800D01*
X0086257Y0074800D01*
X0087000Y0075543D01*
X0087000Y0078155D01*
X0086133Y0077288D01*
X0078867Y0077288D01*
X0077988Y0078167D01*
X0077988Y0085433D01*
X0078867Y0086312D01*
X0086133Y0086312D01*
X0087000Y0085445D01*
X0087000Y0092877D01*
X0086722Y0092599D01*
X0085442Y0092069D01*
X0084058Y0092069D01*
X0082778Y0092599D01*
X0082077Y0093300D01*
X0052818Y0093300D01*
X0049068Y0097050D01*
X0047750Y0098368D01*
X0047750Y0103368D01*
X0046568Y0104550D01*
X0038970Y0104550D01*
X0038788Y0104111D01*
X0037531Y0102854D01*
X0035889Y0102174D01*
X0034111Y0102174D01*
X0032469Y0102854D01*
X0031212Y0104111D01*
X0030531Y0105754D01*
X0030531Y0107531D01*
X0031212Y0109174D01*
X0032469Y0110431D01*
X0032750Y0110547D01*
X0032750Y0170232D01*
X0042750Y0180232D01*
X0044068Y0181550D01*
X0054701Y0181550D01*
X0054701Y0182874D01*
X0055579Y0183753D01*
X0056510Y0183753D01*
X0056510Y0185242D01*
X0059000Y0187732D01*
X0060318Y0189050D01*
X0074068Y0189050D01*
X0075250Y0190232D01*
X0076568Y0191550D01*
X0077904Y0191550D01*
X0078154Y0191800D01*
X0077904Y0192050D01*
X0072799Y0192050D01*
X0072799Y0190726D01*
X0071921Y0189847D01*
X0065560Y0189847D01*
X0065000Y0190407D01*
X0064740Y0190147D01*
X0064398Y0189949D01*
X0064016Y0189847D01*
X0061760Y0189847D01*
X0061760Y0193800D01*
X0060760Y0193800D01*
X0060760Y0189847D01*
X0058503Y0189847D01*
X0058122Y0189949D01*
X0057780Y0190147D01*
X0057500Y0190426D01*
X0057303Y0190768D01*
X0057201Y0191150D01*
X0057201Y0193800D01*
X0060760Y0193800D01*
X0060760Y0194800D01*
X0060760Y0198753D01*
X0058503Y0198753D01*
X0058122Y0198651D01*
X0057780Y0198453D01*
X0057500Y0198174D01*
X0057303Y0197832D01*
X0057201Y0197450D01*
X0057201Y0194800D01*
X0060760Y0194800D01*
X0061760Y0194800D01*
X0061760Y0198753D01*
X0064016Y0198753D01*
X0064398Y0198651D01*
X0064740Y0198453D01*
X0065000Y0198193D01*
X0065560Y0198753D01*
X0066500Y0198753D01*
X0066500Y0200232D01*
X0067818Y0201550D01*
X0069068Y0202800D01*
X0069827Y0202800D01*
X0070528Y0203501D01*
X0071808Y0204031D01*
X0073192Y0204031D01*
X0074472Y0203501D01*
X0075451Y0202522D01*
X0075981Y0201242D01*
X0075981Y0199858D01*
X0075451Y0198578D01*
X0074472Y0197599D01*
X0073192Y0197069D01*
X0072799Y0197069D01*
X0072799Y0196550D01*
X0077904Y0196550D01*
X0078154Y0196800D01*
X0077850Y0197104D01*
X0077850Y0201496D01*
X0078154Y0201800D01*
X0078150Y0201804D01*
X0077953Y0202146D01*
X0077850Y0202528D01*
X0077850Y0204013D01*
X0080638Y0204013D01*
X0080638Y0204587D01*
X0077850Y0204587D01*
X0077850Y0206072D01*
X0077953Y0206454D01*
X0078037Y0206600D01*
X0070130Y0206600D01*
X0069558Y0206028D01*
X0065560Y0206028D01*
X0065000Y0206588D01*
X0064440Y0206028D01*
X0060442Y0206028D01*
X0059880Y0206590D01*
X0046953Y0206590D01*
X0046953Y0206110D01*
X0046393Y0205550D01*
X0046653Y0205290D01*
X0046851Y0204948D01*
X0046953Y0204566D01*
X0046953Y0202310D01*
X0043000Y0202310D01*
X0043000Y0201310D01*
X0046953Y0201310D01*
X0046953Y0199053D01*
X0046851Y0198672D01*
X0046653Y0198330D01*
X0046374Y0198050D01*
X0046032Y0197853D01*
X0045650Y0197751D01*
X0043000Y0197751D01*
X0043000Y0201310D01*
X0042000Y0201310D01*
X0038047Y0201310D01*
X0038047Y0199053D01*
X0038149Y0198672D01*
X0038347Y0198330D01*
X0038626Y0198050D01*
X0038968Y0197853D01*
X0039350Y0197751D01*
X0042000Y0197751D01*
X0042000Y0201310D01*
X0042000Y0202310D01*
X0038047Y0202310D01*
X0038047Y0204566D01*
X0038149Y0204948D01*
X0038347Y0205290D01*
X0038607Y0205550D01*
X0038047Y0206110D01*
X0038047Y0206679D01*
X0029857Y0206679D01*
X0029336Y0206894D01*
X0025283Y0206894D01*
X0025283Y0190430D01*
X0024933Y0190080D01*
X0012405Y0190080D01*
X0012405Y0188512D01*
X0012303Y0188130D01*
X0012106Y0187788D01*
X0011827Y0187509D01*
X0011484Y0187312D01*
X0011103Y0187209D01*
X0009028Y0187209D01*
X0009028Y0190080D01*
X0008059Y0190080D01*
X0008059Y0187209D01*
X0006250Y0187209D01*
X0006250Y0005600D01*
X0398750Y0005600D01*
X0398750Y0298050D01*
X0006250Y0298050D01*
X0006250Y0216981D01*
X0008543Y0216981D01*
X0008543Y0215800D01*
X0008543Y0215800D01*
X0008543Y0216981D01*
X0011103Y0216981D01*
X0011484Y0216879D01*
X0011827Y0216681D01*
X0012106Y0216402D01*
X0012303Y0216060D01*
X0012405Y0215679D01*
X0012405Y0214898D01*
X0024933Y0214898D01*
X0025283Y0214548D01*
X0025283Y0211863D01*
X0029336Y0211863D01*
X0029857Y0212079D01*
X0038047Y0212079D01*
X0038047Y0212471D01*
X0038926Y0213349D01*
X0046074Y0213349D01*
X0046953Y0212471D01*
X0046953Y0211990D01*
X0059860Y0211990D01*
X0060442Y0212572D01*
X0064440Y0212572D01*
X0065000Y0212012D01*
X0065560Y0212572D01*
X0069558Y0212572D01*
X0070130Y0212000D01*
X0078037Y0212000D01*
X0077953Y0212146D01*
X0077850Y0212528D01*
X0077850Y0214013D01*
X0080638Y0214013D01*
X0080638Y0214587D01*
X0077850Y0214587D01*
X0077850Y0216072D01*
X0077953Y0216454D01*
X0078150Y0216796D01*
X0078154Y0216800D01*
X0077850Y0217104D01*
X0077850Y0221496D01*
X0078154Y0221800D01*
X0078150Y0221804D01*
X0077953Y0222146D01*
X0077850Y0222528D01*
X0077850Y0224013D01*
X0080638Y0224013D01*
X0080638Y0224587D01*
X0077850Y0224587D01*
X0077850Y0226072D01*
X0077953Y0226454D01*
X0078150Y0226796D01*
X0078429Y0227075D01*
X0078771Y0227273D01*
X0079153Y0227375D01*
X0080638Y0227375D01*
X0080638Y0224587D01*
X0081213Y0224587D01*
X0084000Y0224587D01*
X0084000Y0226072D01*
X0083898Y0226454D01*
X0083700Y0226796D01*
X0083421Y0227075D01*
X0083079Y0227273D01*
X0082697Y0227375D01*
X0081213Y0227375D01*
X0081213Y0224587D01*
X0081213Y0224013D01*
X0084000Y0224013D01*
X0084000Y0222528D01*
X0083898Y0222146D01*
X0083700Y0221804D01*
X0083696Y0221800D01*
X0084000Y0221496D01*
X0084000Y0217104D01*
X0083696Y0216800D01*
X0083700Y0216796D01*
X0083898Y0216454D01*
X0084000Y0216072D01*
X0084000Y0214587D01*
X0081213Y0214587D01*
X0081213Y0214013D01*
X0084000Y0214013D01*
X0084000Y0212528D01*
X0083898Y0212146D01*
X0083700Y0211804D01*
X0083696Y0211800D01*
X0084000Y0211496D01*
X0084000Y0207104D01*
X0083696Y0206800D01*
X0083700Y0206796D01*
X0083898Y0206454D01*
X0084000Y0206072D01*
X0084000Y0204587D01*
X0081213Y0204587D01*
X0081213Y0204013D01*
X0084000Y0204013D01*
X0084000Y0202528D01*
X0083898Y0202146D01*
X0083700Y0201804D01*
X0083696Y0201800D01*
X0084000Y0201496D01*
X0084000Y0197104D01*
X0083696Y0196800D01*
X0084000Y0196496D01*
X0084000Y0192104D01*
X0083696Y0191800D01*
X0084000Y0191496D01*
X0084000Y0187104D01*
X0083696Y0186800D01*
X0084000Y0186496D01*
X0084000Y0182104D01*
X0083925Y0182029D01*
X0083925Y0181571D01*
X0084000Y0181496D01*
X0084000Y0177104D01*
X0083696Y0176800D01*
X0083700Y0176796D01*
X0083898Y0176454D01*
X0084000Y0176072D01*
X0084000Y0174587D01*
X0081213Y0174587D01*
X0081213Y0174013D01*
X0084000Y0174013D01*
X0084000Y0172528D01*
X0083898Y0172146D01*
X0083700Y0171804D01*
X0083696Y0171800D01*
X0084000Y0171496D01*
X0084000Y0167104D01*
X0083696Y0166800D01*
X0084000Y0166496D01*
X0084000Y0162104D01*
X0083696Y0161800D01*
X0084000Y0161496D01*
X0084000Y0157104D01*
X0083696Y0156800D01*
X0084000Y0156496D01*
X0084000Y0152104D01*
X0083696Y0151800D01*
X0083700Y0151796D01*
X0083898Y0151454D01*
X0084000Y0151072D01*
X0084000Y0149587D01*
X0081213Y0149587D01*
X0081213Y0149013D01*
X0084000Y0149013D01*
X0084000Y0147528D01*
X0083898Y0147146D01*
X0083700Y0146804D01*
X0083421Y0146525D01*
X0083079Y0146327D01*
X0082697Y0146225D01*
X0081213Y0146225D01*
X0081213Y0149013D01*
X0080638Y0149013D01*
X0077850Y0149013D01*
X0077850Y0147528D01*
X0077953Y0147146D01*
X0078150Y0146804D01*
X0078429Y0146525D01*
X0078771Y0146327D01*
X0079153Y0146225D01*
X0080638Y0146225D01*
X0080638Y0149013D01*
X0080638Y0149587D01*
X0077850Y0149587D01*
X0077850Y0151072D01*
X0077953Y0151454D01*
X0078150Y0151796D01*
X0078154Y0151800D01*
X0077850Y0152104D01*
X0077850Y0156496D01*
X0078154Y0156800D01*
X0077850Y0157104D01*
X0077850Y0161300D01*
X0069403Y0161300D01*
X0068301Y0161757D01*
X0065161Y0164896D01*
X0065161Y0161954D01*
X0065218Y0161818D01*
X0065431Y0161415D01*
X0065445Y0161271D01*
X0065500Y0161137D01*
X0065500Y0160681D01*
X0065543Y0160227D01*
X0065500Y0160088D01*
X0065500Y0120543D01*
X0081243Y0104800D01*
X0091318Y0104800D01*
X0086568Y0109550D01*
X0085250Y0110868D01*
X0085250Y0146279D01*
X0084425Y0147104D01*
X0084425Y0151496D01*
X0085304Y0152375D01*
X0089696Y0152375D01*
X0090000Y0152071D01*
X0090304Y0152375D01*
X0094696Y0152375D01*
X0095000Y0152071D01*
X0095304Y0152375D01*
X0099696Y0152375D01*
X0100000Y0152071D01*
X0100304Y0152375D01*
X0104696Y0152375D01*
X0105000Y0152071D01*
X0105304Y0152375D01*
X0109696Y0152375D01*
X0110000Y0152071D01*
X0110304Y0152375D01*
X0114696Y0152375D01*
X0115000Y0152071D01*
X0115304Y0152375D01*
X0119696Y0152375D01*
X0120000Y0152071D01*
X0120304Y0152375D01*
X0124696Y0152375D01*
X0125000Y0152071D01*
X0125304Y0152375D01*
X0129696Y0152375D01*
X0130000Y0152071D01*
X0130304Y0152375D01*
X0134696Y0152375D01*
X0135000Y0152071D01*
X0135304Y0152375D01*
X0139696Y0152375D01*
X0140575Y0151496D01*
X0140575Y0147104D01*
X0139750Y0146279D01*
X0139750Y0139473D01*
X0140451Y0138772D01*
X0140981Y0137492D01*
X0140981Y0136108D01*
X0140451Y0134828D01*
X0139472Y0133849D01*
X0138192Y0133319D01*
X0136808Y0133319D01*
X0135528Y0133849D01*
X0134750Y0134627D01*
X0134750Y0133768D01*
X0136968Y0131550D01*
X0255532Y0131550D01*
X0257750Y0133768D01*
X0257750Y0159127D01*
X0257049Y0159828D01*
X0256519Y0161108D01*
X0256519Y0162492D01*
X0257049Y0163772D01*
X0258028Y0164751D01*
X0259308Y0165281D01*
X0260692Y0165281D01*
X0261972Y0164751D01*
X0262951Y0163772D01*
X0263481Y0162492D01*
X0263481Y0161108D01*
X0262951Y0159828D01*
X0262250Y0159127D01*
X0262250Y0156473D01*
X0263028Y0157251D01*
X0264308Y0157781D01*
X0265692Y0157781D01*
X0266972Y0157251D01*
X0267750Y0156473D01*
X0267750Y0159127D01*
X0267049Y0159828D01*
X0266519Y0161108D01*
X0266519Y0162492D01*
X0267049Y0163772D01*
X0268028Y0164751D01*
X0269308Y0165281D01*
X0270692Y0165281D01*
X0271972Y0164751D01*
X0272951Y0163772D01*
X0273481Y0162492D01*
X0273481Y0161108D01*
X0272951Y0159828D01*
X0272250Y0159127D01*
X0272250Y0156473D01*
X0273028Y0157251D01*
X0274308Y0157781D01*
X0275692Y0157781D01*
X0276972Y0157251D01*
X0277951Y0156272D01*
X0278481Y0154992D01*
X0278481Y0153608D01*
X0277951Y0152328D01*
X0277250Y0151627D01*
X0277250Y0116904D01*
X0273714Y0113368D01*
X0273146Y0112800D01*
X0324827Y0112800D01*
X0325528Y0113501D01*
X0326808Y0114031D01*
X0328192Y0114031D01*
X0329472Y0113501D01*
X0330451Y0112522D01*
X0330981Y0111242D01*
X0330981Y0109858D01*
X0330647Y0109050D01*
X0336568Y0109050D01*
X0341519Y0114001D01*
X0341519Y0114992D01*
X0342049Y0116272D01*
X0343028Y0117251D01*
X0344308Y0117781D01*
X0345692Y0117781D01*
X0346972Y0117251D01*
X0347951Y0116272D01*
X0348481Y0114992D01*
X0348481Y0113608D01*
X0347951Y0112328D01*
X0346972Y0111349D01*
X0345692Y0110819D01*
X0344701Y0110819D01*
X0339750Y0105868D01*
X0338682Y0104800D01*
X0343757Y0104800D01*
X0357000Y0118043D01*
X0357000Y0183057D01*
X0339957Y0200101D01*
X0339500Y0201203D01*
X0339500Y0223800D01*
X0299403Y0223800D01*
X0298301Y0224257D01*
X0297457Y0225101D01*
X0288697Y0233860D01*
X0288240Y0234963D01*
X0288240Y0246300D01*
X0154403Y0246300D01*
X0153301Y0246757D01*
X0152457Y0247601D01*
X0149209Y0250849D01*
X0148752Y0251951D01*
X0148752Y0263788D01*
X0148556Y0263788D01*
X0147677Y0264667D01*
X0147677Y0271059D01*
X0148556Y0271938D01*
X0150276Y0271938D01*
X0149444Y0272283D01*
X0148298Y0273429D01*
X0147677Y0274926D01*
X0147677Y0276548D01*
X0148298Y0278045D01*
X0149444Y0279191D01*
X0150913Y0279800D01*
X0135828Y0279800D01*
X0134500Y0278472D01*
X0134500Y0227375D01*
X0134696Y0227375D01*
X0135000Y0227071D01*
X0135304Y0227375D01*
X0139696Y0227375D01*
X0140575Y0226496D01*
X0140575Y0222104D01*
X0139696Y0221225D01*
X0135304Y0221225D01*
X0135000Y0221529D01*
X0134696Y0221225D01*
X0130304Y0221225D01*
X0130000Y0221529D01*
X0129696Y0221225D01*
X0125304Y0221225D01*
X0125000Y0221529D01*
X0124696Y0221225D01*
X0120304Y0221225D01*
X0120000Y0221529D01*
X0119696Y0221225D01*
X0115304Y0221225D01*
X0115000Y0221529D01*
X0114696Y0221225D01*
X0110304Y0221225D01*
X0110000Y0221529D01*
X0109696Y0221225D01*
X0105304Y0221225D01*
X0105000Y0221529D01*
X0104696Y0221225D01*
X0100304Y0221225D01*
X0100000Y0221529D01*
X0099696Y0221225D01*
X0095304Y0221225D01*
X0095000Y0221529D01*
X0094696Y0221225D01*
X0090304Y0221225D01*
X0090000Y0221529D01*
X0089996Y0221525D01*
X0089654Y0221327D01*
X0089272Y0221225D01*
X0087787Y0221225D01*
X0087787Y0224013D01*
X0087213Y0224013D01*
X0087213Y0221225D01*
X0085728Y0221225D01*
X0085346Y0221327D01*
X0085004Y0221525D01*
X0084725Y0221804D01*
X0084527Y0222146D01*
X0084425Y0222528D01*
X0084425Y0224013D01*
X0087213Y0224013D01*
X0087213Y0224587D01*
X0084425Y0224587D01*
X0084425Y0226072D01*
X0084527Y0226454D01*
X0084725Y0226796D01*
X0085004Y0227075D01*
X0085346Y0227273D01*
X0085728Y0227375D01*
X0087213Y0227375D01*
X0087213Y0224587D01*
X0087787Y0224587D01*
X0087787Y0227375D01*
X0089272Y0227375D01*
X0089654Y0227273D01*
X0089996Y0227075D01*
X0090000Y0227071D01*
X0090304Y0227375D01*
X0094696Y0227375D01*
X0095000Y0227071D01*
X0095304Y0227375D01*
X0099696Y0227375D01*
X0100000Y0227071D01*
X0100304Y0227375D01*
X0100500Y0227375D01*
X0100500Y0259001D01*
X0098926Y0259001D01*
X0098047Y0259879D01*
X0098047Y0266240D01*
X0098607Y0266800D01*
X0098347Y0267060D01*
X0098149Y0267402D01*
X0098047Y0267784D01*
X0098047Y0270040D01*
X0102000Y0270040D01*
X0102000Y0271040D01*
X0098047Y0271040D01*
X0098047Y0273297D01*
X0098149Y0273678D01*
X0098347Y0274020D01*
X0098626Y0274299D01*
X0098968Y0274497D01*
X0099350Y0274599D01*
X0102000Y0274599D01*
X0102000Y0271040D01*
X0103000Y0271040D01*
X0106953Y0271040D01*
X0106953Y0273297D01*
X0106851Y0273678D01*
X0106653Y0274020D01*
X0106374Y0274299D01*
X0106032Y0274497D01*
X0105650Y0274599D01*
X0103000Y0274599D01*
X0103000Y0271040D01*
X0103000Y0270040D01*
X0106953Y0270040D01*
X0106953Y0267784D01*
X0106851Y0267402D01*
X0106653Y0267060D01*
X0106393Y0266800D01*
X0106953Y0266240D01*
X0106953Y0259879D01*
X0106074Y0259001D01*
X0104500Y0259001D01*
X0104500Y0252099D01*
X0107000Y0252099D01*
X0107000Y0248540D01*
X0108000Y0248540D01*
X0111953Y0248540D01*
X0111953Y0250797D01*
X0111851Y0251178D01*
X0111653Y0251520D01*
X0111374Y0251799D01*
X0111032Y0251997D01*
X0110650Y0252099D01*
X0108000Y0252099D01*
X0108000Y0248540D01*
X0108000Y0247540D01*
X0111953Y0247540D01*
X0111953Y0245284D01*
X0111851Y0244902D01*
X0111653Y0244560D01*
X0111393Y0244300D01*
X0111953Y0243740D01*
X0111953Y0243573D01*
X0113058Y0244031D01*
X0114442Y0244031D01*
X0115500Y0243593D01*
X0115500Y0259001D01*
X0113926Y0259001D01*
X0113047Y0259879D01*
X0113047Y0266240D01*
X0113607Y0266800D01*
X0113347Y0267060D01*
X0113149Y0267402D01*
X0113047Y0267784D01*
X0113047Y0270040D01*
X0117000Y0270040D01*
X0117000Y0271040D01*
X0113047Y0271040D01*
X0113047Y0273297D01*
X0113149Y0273678D01*
X0113347Y0274020D01*
X0113626Y0274299D01*
X0113968Y0274497D01*
X0114350Y0274599D01*
X0117000Y0274599D01*
X0117000Y0271040D01*
X0118000Y0271040D01*
X0121953Y0271040D01*
X0121953Y0273297D01*
X0121851Y0273678D01*
X0121653Y0274020D01*
X0121374Y0274299D01*
X0121032Y0274497D01*
X0120650Y0274599D01*
X0118000Y0274599D01*
X0118000Y0271040D01*
X0118000Y0270040D01*
X0121953Y0270040D01*
X0121953Y0267784D01*
X0121851Y0267402D01*
X0121653Y0267060D01*
X0121393Y0266800D01*
X0121953Y0266240D01*
X0121953Y0266040D01*
X0122049Y0266272D01*
X0123028Y0267251D01*
X0124308Y0267781D01*
X0125692Y0267781D01*
X0126972Y0267251D01*
X0127951Y0266272D01*
X0128481Y0264992D01*
X0128481Y0263608D01*
X0127951Y0262328D01*
X0126972Y0261349D01*
X0125692Y0260819D01*
X0124308Y0260819D01*
X0123726Y0261060D01*
X0121953Y0261060D01*
X0121953Y0259879D01*
X0121074Y0259001D01*
X0119500Y0259001D01*
X0119500Y0242404D01*
X0119549Y0242522D01*
X0120528Y0243501D01*
X0121808Y0244031D01*
X0123192Y0244031D01*
X0124472Y0243501D01*
X0125451Y0242522D01*
X0125981Y0241242D01*
X0125981Y0240251D01*
X0129750Y0236482D01*
X0129750Y0234473D01*
X0130451Y0233772D01*
X0130500Y0233654D01*
X0130500Y0280128D01*
X0133000Y0282628D01*
X0134172Y0283800D01*
X0165828Y0283800D01*
X0168328Y0281300D01*
X0169500Y0280128D01*
X0169500Y0279319D01*
X0169808Y0279191D01*
X0170954Y0278045D01*
X0171437Y0276880D01*
X0171920Y0278045D01*
X0173066Y0279191D01*
X0174563Y0279812D01*
X0176185Y0279812D01*
X0177682Y0279191D01*
X0178828Y0278045D01*
X0179311Y0276880D01*
X0179794Y0278045D01*
X0180940Y0279191D01*
X0182437Y0279812D01*
X0184059Y0279812D01*
X0185556Y0279191D01*
X0186702Y0278045D01*
X0187323Y0276548D01*
X0187323Y0274926D01*
X0186702Y0273429D01*
X0185556Y0272283D01*
X0184359Y0271787D01*
X0184812Y0271639D01*
X0185384Y0271348D01*
X0185903Y0270971D01*
X0186356Y0270518D01*
X0186733Y0269999D01*
X0187024Y0269427D01*
X0187222Y0268817D01*
X0187323Y0268184D01*
X0187323Y0268150D01*
X0183536Y0268150D01*
X0183536Y0267576D01*
X0187323Y0267576D01*
X0187323Y0267542D01*
X0187222Y0266909D01*
X0187024Y0266299D01*
X0186733Y0265727D01*
X0186356Y0265208D01*
X0185903Y0264755D01*
X0185384Y0264378D01*
X0184812Y0264087D01*
X0184202Y0263889D01*
X0183569Y0263788D01*
X0183535Y0263788D01*
X0183535Y0267576D01*
X0182961Y0267576D01*
X0182961Y0263788D01*
X0182927Y0263788D01*
X0182294Y0263889D01*
X0181684Y0264087D01*
X0181112Y0264378D01*
X0180593Y0264755D01*
X0180140Y0265208D01*
X0179763Y0265727D01*
X0179472Y0266299D01*
X0179324Y0266752D01*
X0178828Y0265555D01*
X0177682Y0264409D01*
X0176185Y0263788D01*
X0174563Y0263788D01*
X0173066Y0264409D01*
X0171920Y0265555D01*
X0171424Y0266752D01*
X0171276Y0266299D01*
X0170985Y0265727D01*
X0170608Y0265208D01*
X0170155Y0264755D01*
X0169636Y0264378D01*
X0169064Y0264087D01*
X0168454Y0263889D01*
X0167821Y0263788D01*
X0167787Y0263788D01*
X0167787Y0267576D01*
X0167213Y0267576D01*
X0167213Y0263788D01*
X0167179Y0263788D01*
X0166546Y0263889D01*
X0165936Y0264087D01*
X0165364Y0264378D01*
X0164845Y0264755D01*
X0164392Y0265208D01*
X0164015Y0265727D01*
X0163724Y0266299D01*
X0163563Y0266794D01*
X0163402Y0266299D01*
X0163111Y0265727D01*
X0162734Y0265208D01*
X0162281Y0264755D01*
X0161762Y0264378D01*
X0161190Y0264087D01*
X0160580Y0263889D01*
X0159947Y0263788D01*
X0159913Y0263788D01*
X0159913Y0267576D01*
X0159339Y0267576D01*
X0159339Y0263788D01*
X0159305Y0263788D01*
X0158672Y0263889D01*
X0158062Y0264087D01*
X0157490Y0264378D01*
X0156971Y0264755D01*
X0156518Y0265208D01*
X0156141Y0265727D01*
X0155850Y0266299D01*
X0155827Y0266369D01*
X0155827Y0264667D01*
X0154948Y0263788D01*
X0154752Y0263788D01*
X0154752Y0253791D01*
X0156243Y0252300D01*
X0288240Y0252300D01*
X0288240Y0272347D01*
X0288060Y0272347D01*
X0287500Y0272907D01*
X0287240Y0272647D01*
X0286898Y0272449D01*
X0286516Y0272347D01*
X0284260Y0272347D01*
X0284260Y0276300D01*
X0283260Y0276300D01*
X0283260Y0272347D01*
X0281003Y0272347D01*
X0280622Y0272449D01*
X0280280Y0272647D01*
X0280000Y0272926D01*
X0279803Y0273268D01*
X0279701Y0273650D01*
X0279701Y0276300D01*
X0283260Y0276300D01*
X0283260Y0277300D01*
X0283260Y0281253D01*
X0281003Y0281253D01*
X0280622Y0281151D01*
X0280280Y0280953D01*
X0280000Y0280674D01*
X0279803Y0280332D01*
X0279701Y0279950D01*
X0279701Y0277300D01*
X0283260Y0277300D01*
X0284260Y0277300D01*
X0284260Y0281253D01*
X0286516Y0281253D01*
X0286898Y0281151D01*
X0287240Y0280953D01*
X0287500Y0280693D01*
X0288060Y0281253D01*
X0294421Y0281253D01*
X0295299Y0280374D01*
X0295299Y0279800D01*
X0304119Y0279800D01*
X0304944Y0280625D01*
X0306603Y0281312D01*
X0308397Y0281312D01*
X0310056Y0280625D01*
X0311325Y0279356D01*
X0312012Y0277697D01*
X0312012Y0275903D01*
X0311325Y0274244D01*
X0310056Y0272975D01*
X0308397Y0272288D01*
X0306603Y0272288D01*
X0304944Y0272975D01*
X0304119Y0273800D01*
X0295299Y0273800D01*
X0295299Y0273226D01*
X0294421Y0272347D01*
X0294240Y0272347D01*
X0294240Y0236802D01*
X0301243Y0229800D01*
X0354119Y0229800D01*
X0354944Y0230625D01*
X0356603Y0231312D01*
X0358397Y0231312D01*
X0360056Y0230625D01*
X0361325Y0229356D01*
X0362012Y0227697D01*
X0362012Y0226465D02*
X0362988Y0226465D01*
X0363169Y0225467D02*
X0361831Y0225467D01*
X0361418Y0224468D02*
X0363582Y0224468D01*
X0364450Y0223470D02*
X0360550Y0223470D01*
X0358839Y0222471D02*
X0366161Y0222471D01*
X0366603Y0221312D02*
X0364944Y0220625D01*
X0363675Y0219356D01*
X0362988Y0217697D01*
X0362988Y0215903D01*
X0363675Y0214244D01*
X0364944Y0212975D01*
X0366603Y0212288D01*
X0368397Y0212288D01*
X0370056Y0212975D01*
X0371325Y0214244D01*
X0372012Y0215903D01*
X0372012Y0217697D01*
X0371325Y0219356D01*
X0370056Y0220625D01*
X0368397Y0221312D01*
X0366603Y0221312D01*
X0364793Y0220474D02*
X0360207Y0220474D01*
X0360056Y0220625D02*
X0358397Y0221312D01*
X0356603Y0221312D01*
X0354944Y0220625D01*
X0353675Y0219356D01*
X0352988Y0217697D01*
X0352988Y0215903D01*
X0353675Y0214244D01*
X0354944Y0212975D01*
X0356603Y0212288D01*
X0358397Y0212288D01*
X0360056Y0212975D01*
X0361325Y0214244D01*
X0362012Y0215903D01*
X0362012Y0217697D01*
X0361325Y0219356D01*
X0360056Y0220625D01*
X0361205Y0219475D02*
X0363795Y0219475D01*
X0363311Y0218477D02*
X0361689Y0218477D01*
X0362012Y0217478D02*
X0362988Y0217478D01*
X0362988Y0216480D02*
X0362012Y0216480D01*
X0361837Y0215481D02*
X0363163Y0215481D01*
X0363576Y0214483D02*
X0361424Y0214483D01*
X0360565Y0213484D02*
X0364435Y0213484D01*
X0366125Y0212486D02*
X0358875Y0212486D01*
X0356125Y0212486D02*
X0345500Y0212486D01*
X0345500Y0213484D02*
X0354435Y0213484D01*
X0353576Y0214483D02*
X0345500Y0214483D01*
X0345500Y0215481D02*
X0353163Y0215481D01*
X0352988Y0216480D02*
X0345500Y0216480D01*
X0345500Y0217478D02*
X0352988Y0217478D01*
X0353311Y0218477D02*
X0345500Y0218477D01*
X0345500Y0219475D02*
X0353795Y0219475D01*
X0354793Y0220474D02*
X0345500Y0220474D01*
X0345500Y0221472D02*
X0398750Y0221472D01*
X0398750Y0220474D02*
X0370207Y0220474D01*
X0371205Y0219475D02*
X0398750Y0219475D01*
X0398750Y0218477D02*
X0371689Y0218477D01*
X0372012Y0217478D02*
X0398750Y0217478D01*
X0398750Y0216480D02*
X0372012Y0216480D01*
X0371837Y0215481D02*
X0398750Y0215481D01*
X0398750Y0214483D02*
X0371424Y0214483D01*
X0370565Y0213484D02*
X0398750Y0213484D01*
X0398750Y0212486D02*
X0368875Y0212486D01*
X0368839Y0222471D02*
X0398750Y0222471D01*
X0398750Y0223470D02*
X0370550Y0223470D01*
X0371418Y0224468D02*
X0398750Y0224468D01*
X0398750Y0225467D02*
X0371831Y0225467D01*
X0372012Y0226465D02*
X0398750Y0226465D01*
X0398750Y0227464D02*
X0372012Y0227464D01*
X0371695Y0228462D02*
X0398750Y0228462D01*
X0398750Y0229461D02*
X0371220Y0229461D01*
X0370222Y0230459D02*
X0398750Y0230459D01*
X0398750Y0231458D02*
X0299585Y0231458D01*
X0298587Y0232456D02*
X0353795Y0232456D01*
X0353909Y0232390D02*
X0354291Y0232288D01*
X0357000Y0232288D01*
X0357000Y0236300D01*
X0358000Y0236300D01*
X0358000Y0237300D01*
X0357000Y0237300D01*
X0357000Y0241312D01*
X0354291Y0241312D01*
X0353909Y0241210D01*
X0353567Y0241012D01*
X0353288Y0240733D01*
X0353090Y0240391D01*
X0352988Y0240009D01*
X0352988Y0237300D01*
X0357000Y0237300D01*
X0357000Y0236300D01*
X0352988Y0236300D01*
X0352988Y0233591D01*
X0353090Y0233209D01*
X0353288Y0232867D01*
X0353567Y0232588D01*
X0353909Y0232390D01*
X0353025Y0233455D02*
X0297588Y0233455D01*
X0296589Y0234453D02*
X0352988Y0234453D01*
X0352988Y0235452D02*
X0295591Y0235452D01*
X0294592Y0236450D02*
X0357000Y0236450D01*
X0357000Y0235452D02*
X0358000Y0235452D01*
X0358000Y0236300D02*
X0358000Y0232288D01*
X0360709Y0232288D01*
X0361091Y0232390D01*
X0361433Y0232588D01*
X0361712Y0232867D01*
X0361910Y0233209D01*
X0362012Y0233591D01*
X0362012Y0236300D01*
X0358000Y0236300D01*
X0358000Y0236450D02*
X0362988Y0236450D01*
X0362988Y0235903D02*
X0363675Y0234244D01*
X0364944Y0232975D01*
X0366603Y0232288D01*
X0368397Y0232288D01*
X0370056Y0232975D01*
X0371325Y0234244D01*
X0372012Y0235903D01*
X0372012Y0237697D01*
X0371325Y0239356D01*
X0371010Y0239671D01*
X0371010Y0247667D01*
X0371250Y0247907D01*
X0371510Y0247647D01*
X0371852Y0247449D01*
X0372234Y0247347D01*
X0374490Y0247347D01*
X0374490Y0251300D01*
X0375490Y0251300D01*
X0375490Y0247347D01*
X0377747Y0247347D01*
X0378128Y0247449D01*
X0378470Y0247647D01*
X0378749Y0247926D01*
X0378947Y0248268D01*
X0379049Y0248650D01*
X0379049Y0251300D01*
X0375490Y0251300D01*
X0375490Y0252300D01*
X0374490Y0252300D01*
X0374490Y0256253D01*
X0372234Y0256253D01*
X0371852Y0256151D01*
X0371510Y0255953D01*
X0371250Y0255693D01*
X0371010Y0255933D01*
X0371010Y0267486D01*
X0370477Y0268773D01*
X0362012Y0277238D01*
X0362012Y0277697D01*
X0361325Y0279356D01*
X0360056Y0280625D01*
X0358397Y0281312D01*
X0356603Y0281312D01*
X0354944Y0280625D01*
X0353675Y0279356D01*
X0352988Y0277697D01*
X0352988Y0275903D01*
X0353675Y0274244D01*
X0354944Y0272975D01*
X0356603Y0272288D01*
X0357062Y0272288D01*
X0358038Y0271312D01*
X0356603Y0271312D01*
X0354944Y0270625D01*
X0353675Y0269356D01*
X0352988Y0267697D01*
X0352988Y0265903D01*
X0353675Y0264244D01*
X0354944Y0262975D01*
X0356603Y0262288D01*
X0358397Y0262288D01*
X0360056Y0262975D01*
X0361325Y0264244D01*
X0362012Y0265903D01*
X0362012Y0267338D01*
X0364010Y0265340D01*
X0364010Y0255933D01*
X0363451Y0255374D01*
X0363451Y0248226D01*
X0364010Y0247667D01*
X0364010Y0239691D01*
X0363675Y0239356D01*
X0362988Y0237697D01*
X0362988Y0235903D01*
X0363175Y0235452D02*
X0362012Y0235452D01*
X0362012Y0234453D02*
X0363589Y0234453D01*
X0364465Y0233455D02*
X0361975Y0233455D01*
X0361205Y0232456D02*
X0366197Y0232456D01*
X0364778Y0230459D02*
X0360222Y0230459D01*
X0361220Y0229461D02*
X0363780Y0229461D01*
X0358000Y0232456D02*
X0357000Y0232456D01*
X0357000Y0233455D02*
X0358000Y0233455D01*
X0358000Y0234453D02*
X0357000Y0234453D01*
X0357000Y0237449D02*
X0358000Y0237449D01*
X0358000Y0237300D02*
X0358000Y0241312D01*
X0360709Y0241312D01*
X0361091Y0241210D01*
X0361433Y0241012D01*
X0361712Y0240733D01*
X0361910Y0240391D01*
X0362012Y0240009D01*
X0362012Y0237300D01*
X0358000Y0237300D01*
X0358000Y0238447D02*
X0357000Y0238447D01*
X0357000Y0239446D02*
X0358000Y0239446D01*
X0358000Y0240444D02*
X0357000Y0240444D01*
X0353121Y0240444D02*
X0294240Y0240444D01*
X0294240Y0239446D02*
X0352988Y0239446D01*
X0352988Y0238447D02*
X0294240Y0238447D01*
X0294240Y0237449D02*
X0352988Y0237449D01*
X0362012Y0237449D02*
X0362988Y0237449D01*
X0363299Y0238447D02*
X0362012Y0238447D01*
X0362012Y0239446D02*
X0363765Y0239446D01*
X0364010Y0240444D02*
X0361879Y0240444D01*
X0364010Y0241443D02*
X0294240Y0241443D01*
X0294240Y0242441D02*
X0364010Y0242441D01*
X0364010Y0243440D02*
X0294240Y0243440D01*
X0294240Y0244438D02*
X0364010Y0244438D01*
X0364010Y0245437D02*
X0294240Y0245437D01*
X0294240Y0246435D02*
X0315442Y0246435D01*
X0315528Y0246349D02*
X0316808Y0245819D01*
X0318192Y0245819D01*
X0319472Y0246349D01*
X0320451Y0247328D01*
X0320981Y0248608D01*
X0320981Y0249992D01*
X0320451Y0251272D01*
X0319750Y0251973D01*
X0319750Y0262848D01*
X0320056Y0262975D01*
X0321325Y0264244D01*
X0322012Y0265903D01*
X0322012Y0267697D01*
X0321325Y0269356D01*
X0320056Y0270625D01*
X0318397Y0271312D01*
X0316603Y0271312D01*
X0314944Y0270625D01*
X0313675Y0269356D01*
X0312988Y0267697D01*
X0312988Y0265903D01*
X0313675Y0264244D01*
X0314944Y0262975D01*
X0315250Y0262848D01*
X0315250Y0251973D01*
X0314549Y0251272D01*
X0314019Y0249992D01*
X0314019Y0248608D01*
X0314549Y0247328D01*
X0315528Y0246349D01*
X0314505Y0247434D02*
X0294240Y0247434D01*
X0294240Y0248432D02*
X0314091Y0248432D01*
X0314019Y0249431D02*
X0294240Y0249431D01*
X0294240Y0250429D02*
X0314200Y0250429D01*
X0314705Y0251428D02*
X0294240Y0251428D01*
X0294240Y0252426D02*
X0315250Y0252426D01*
X0315250Y0253425D02*
X0294240Y0253425D01*
X0294240Y0254423D02*
X0315250Y0254423D01*
X0315250Y0255422D02*
X0294240Y0255422D01*
X0294240Y0256420D02*
X0315250Y0256420D01*
X0315250Y0257419D02*
X0294240Y0257419D01*
X0294240Y0258417D02*
X0315250Y0258417D01*
X0315250Y0259416D02*
X0294240Y0259416D01*
X0294240Y0260414D02*
X0315250Y0260414D01*
X0315250Y0261413D02*
X0294240Y0261413D01*
X0294240Y0262411D02*
X0303873Y0262411D01*
X0303909Y0262390D02*
X0304291Y0262288D01*
X0307000Y0262288D01*
X0307000Y0266300D01*
X0308000Y0266300D01*
X0308000Y0267300D01*
X0312012Y0267300D01*
X0312012Y0270009D01*
X0311910Y0270391D01*
X0311712Y0270733D01*
X0311433Y0271012D01*
X0311091Y0271210D01*
X0310709Y0271312D01*
X0308000Y0271312D01*
X0308000Y0267300D01*
X0307000Y0267300D01*
X0307000Y0271312D01*
X0304291Y0271312D01*
X0303909Y0271210D01*
X0303567Y0271012D01*
X0303288Y0270733D01*
X0303090Y0270391D01*
X0302988Y0270009D01*
X0302988Y0267300D01*
X0307000Y0267300D01*
X0307000Y0266300D01*
X0302988Y0266300D01*
X0302988Y0263591D01*
X0303090Y0263209D01*
X0303288Y0262867D01*
X0303567Y0262588D01*
X0303909Y0262390D01*
X0303037Y0263410D02*
X0294240Y0263410D01*
X0294240Y0264408D02*
X0302988Y0264408D01*
X0302988Y0265407D02*
X0294240Y0265407D01*
X0294240Y0266405D02*
X0307000Y0266405D01*
X0307000Y0265407D02*
X0308000Y0265407D01*
X0308000Y0266300D02*
X0308000Y0262288D01*
X0310709Y0262288D01*
X0311091Y0262390D01*
X0311433Y0262588D01*
X0311712Y0262867D01*
X0311910Y0263209D01*
X0312012Y0263591D01*
X0312012Y0266300D01*
X0308000Y0266300D01*
X0308000Y0266405D02*
X0312988Y0266405D01*
X0312988Y0267404D02*
X0312012Y0267404D01*
X0312012Y0268403D02*
X0313280Y0268403D01*
X0313720Y0269401D02*
X0312012Y0269401D01*
X0311905Y0270400D02*
X0314719Y0270400D01*
X0316341Y0272397D02*
X0308659Y0272397D01*
X0310476Y0273395D02*
X0314524Y0273395D01*
X0314944Y0272975D02*
X0313675Y0274244D01*
X0312988Y0275903D01*
X0312988Y0277697D01*
X0313675Y0279356D01*
X0314944Y0280625D01*
X0316603Y0281312D01*
X0318397Y0281312D01*
X0320056Y0280625D01*
X0321325Y0279356D01*
X0322012Y0277697D01*
X0322012Y0275903D01*
X0321325Y0274244D01*
X0320056Y0272975D01*
X0318397Y0272288D01*
X0316603Y0272288D01*
X0314944Y0272975D01*
X0313613Y0274394D02*
X0311387Y0274394D01*
X0311800Y0275392D02*
X0313200Y0275392D01*
X0312988Y0276391D02*
X0312012Y0276391D01*
X0312012Y0277389D02*
X0312988Y0277389D01*
X0313274Y0278388D02*
X0311726Y0278388D01*
X0311295Y0279386D02*
X0313705Y0279386D01*
X0314704Y0280385D02*
X0310296Y0280385D01*
X0304704Y0280385D02*
X0295289Y0280385D01*
X0295299Y0273395D02*
X0304524Y0273395D01*
X0306341Y0272397D02*
X0294470Y0272397D01*
X0294240Y0271398D02*
X0357952Y0271398D01*
X0356341Y0272397D02*
X0348659Y0272397D01*
X0348397Y0272288D02*
X0350056Y0272975D01*
X0351325Y0274244D01*
X0352012Y0275903D01*
X0352012Y0277697D01*
X0351325Y0279356D01*
X0350056Y0280625D01*
X0348397Y0281312D01*
X0346603Y0281312D01*
X0344944Y0280625D01*
X0343675Y0279356D01*
X0342988Y0277697D01*
X0342988Y0275903D01*
X0343675Y0274244D01*
X0344944Y0272975D01*
X0346603Y0272288D01*
X0348397Y0272288D01*
X0348397Y0271312D02*
X0346603Y0271312D01*
X0344944Y0270625D01*
X0343675Y0269356D01*
X0342988Y0267697D01*
X0342988Y0265903D01*
X0343675Y0264244D01*
X0344944Y0262975D01*
X0345250Y0262848D01*
X0345250Y0251973D01*
X0344549Y0251272D01*
X0344019Y0249992D01*
X0344019Y0248608D01*
X0344549Y0247328D01*
X0345528Y0246349D01*
X0346808Y0245819D01*
X0348192Y0245819D01*
X0349472Y0246349D01*
X0350451Y0247328D01*
X0350981Y0248608D01*
X0350981Y0249992D01*
X0350451Y0251272D01*
X0349750Y0251973D01*
X0349750Y0262848D01*
X0350056Y0262975D01*
X0351325Y0264244D01*
X0352012Y0265903D01*
X0352012Y0267697D01*
X0351325Y0269356D01*
X0350056Y0270625D01*
X0348397Y0271312D01*
X0350281Y0270400D02*
X0354719Y0270400D01*
X0353720Y0269401D02*
X0351280Y0269401D01*
X0351720Y0268403D02*
X0353280Y0268403D01*
X0352988Y0267404D02*
X0352012Y0267404D01*
X0352012Y0266405D02*
X0352988Y0266405D01*
X0353193Y0265407D02*
X0351807Y0265407D01*
X0351393Y0264408D02*
X0353607Y0264408D01*
X0354509Y0263410D02*
X0350491Y0263410D01*
X0349750Y0262411D02*
X0356305Y0262411D01*
X0358695Y0262411D02*
X0364010Y0262411D01*
X0364010Y0261413D02*
X0349750Y0261413D01*
X0349750Y0260414D02*
X0364010Y0260414D01*
X0364010Y0259416D02*
X0349750Y0259416D01*
X0349750Y0258417D02*
X0364010Y0258417D01*
X0364010Y0257419D02*
X0349750Y0257419D01*
X0349750Y0256420D02*
X0364010Y0256420D01*
X0363499Y0255422D02*
X0349750Y0255422D01*
X0349750Y0254423D02*
X0363451Y0254423D01*
X0363451Y0253425D02*
X0349750Y0253425D01*
X0349750Y0252426D02*
X0363451Y0252426D01*
X0363451Y0251428D02*
X0350295Y0251428D01*
X0350800Y0250429D02*
X0363451Y0250429D01*
X0363451Y0249431D02*
X0350981Y0249431D01*
X0350908Y0248432D02*
X0363451Y0248432D01*
X0364010Y0247434D02*
X0350495Y0247434D01*
X0349558Y0246435D02*
X0364010Y0246435D01*
X0371010Y0246435D02*
X0398750Y0246435D01*
X0398750Y0245437D02*
X0371010Y0245437D01*
X0371010Y0244438D02*
X0398750Y0244438D01*
X0398750Y0243440D02*
X0371010Y0243440D01*
X0371010Y0242441D02*
X0398750Y0242441D01*
X0398750Y0241443D02*
X0371010Y0241443D01*
X0371010Y0240444D02*
X0398750Y0240444D01*
X0398750Y0239446D02*
X0371235Y0239446D01*
X0371701Y0238447D02*
X0398750Y0238447D01*
X0398750Y0237449D02*
X0372012Y0237449D01*
X0372012Y0236450D02*
X0398750Y0236450D01*
X0398750Y0235452D02*
X0371825Y0235452D01*
X0371411Y0234453D02*
X0398750Y0234453D01*
X0398750Y0233455D02*
X0370535Y0233455D01*
X0368803Y0232456D02*
X0398750Y0232456D01*
X0398750Y0247434D02*
X0378070Y0247434D01*
X0378991Y0248432D02*
X0398750Y0248432D01*
X0398750Y0249431D02*
X0379049Y0249431D01*
X0379049Y0250429D02*
X0398750Y0250429D01*
X0398750Y0251428D02*
X0375490Y0251428D01*
X0375490Y0252300D02*
X0379049Y0252300D01*
X0379049Y0254950D01*
X0378947Y0255332D01*
X0378749Y0255674D01*
X0378470Y0255953D01*
X0378128Y0256151D01*
X0377747Y0256253D01*
X0375490Y0256253D01*
X0375490Y0252300D01*
X0375490Y0252426D02*
X0374490Y0252426D01*
X0374490Y0253425D02*
X0375490Y0253425D01*
X0375490Y0254423D02*
X0374490Y0254423D01*
X0374490Y0255422D02*
X0375490Y0255422D01*
X0378895Y0255422D02*
X0398750Y0255422D01*
X0398750Y0256420D02*
X0371010Y0256420D01*
X0371010Y0257419D02*
X0398750Y0257419D01*
X0398750Y0258417D02*
X0371010Y0258417D01*
X0371010Y0259416D02*
X0398750Y0259416D01*
X0398750Y0260414D02*
X0371010Y0260414D01*
X0371010Y0261413D02*
X0398750Y0261413D01*
X0398750Y0262411D02*
X0371010Y0262411D01*
X0371010Y0263410D02*
X0398750Y0263410D01*
X0398750Y0264408D02*
X0371010Y0264408D01*
X0371010Y0265407D02*
X0398750Y0265407D01*
X0398750Y0266405D02*
X0371010Y0266405D01*
X0371010Y0267404D02*
X0398750Y0267404D01*
X0398750Y0268403D02*
X0370630Y0268403D01*
X0369849Y0269401D02*
X0398750Y0269401D01*
X0398750Y0270400D02*
X0368850Y0270400D01*
X0367852Y0271398D02*
X0398750Y0271398D01*
X0398750Y0272397D02*
X0366853Y0272397D01*
X0365855Y0273395D02*
X0398750Y0273395D01*
X0398750Y0274394D02*
X0364856Y0274394D01*
X0363858Y0275392D02*
X0398750Y0275392D01*
X0398750Y0276391D02*
X0362859Y0276391D01*
X0362012Y0277389D02*
X0384873Y0277389D01*
X0385571Y0277100D02*
X0389429Y0277100D01*
X0392995Y0278577D01*
X0395723Y0281305D01*
X0397200Y0284871D01*
X0397200Y0288729D01*
X0395723Y0292295D01*
X0392995Y0295023D01*
X0389429Y0296500D01*
X0385571Y0296500D01*
X0382005Y0295023D01*
X0379277Y0292295D01*
X0377800Y0288729D01*
X0377800Y0284871D01*
X0379277Y0281305D01*
X0382005Y0278577D01*
X0385571Y0277100D01*
X0382462Y0278388D02*
X0361726Y0278388D01*
X0361295Y0279386D02*
X0381196Y0279386D01*
X0380197Y0280385D02*
X0360296Y0280385D01*
X0354704Y0280385D02*
X0350296Y0280385D01*
X0351295Y0279386D02*
X0353705Y0279386D01*
X0353274Y0278388D02*
X0351726Y0278388D01*
X0352012Y0277389D02*
X0352988Y0277389D01*
X0352988Y0276391D02*
X0352012Y0276391D01*
X0351800Y0275392D02*
X0353200Y0275392D01*
X0353613Y0274394D02*
X0351387Y0274394D01*
X0350476Y0273395D02*
X0354524Y0273395D01*
X0346341Y0272397D02*
X0338659Y0272397D01*
X0338397Y0272288D02*
X0340056Y0272975D01*
X0341325Y0274244D01*
X0342012Y0275903D01*
X0342012Y0277697D01*
X0341325Y0279356D01*
X0340056Y0280625D01*
X0338397Y0281312D01*
X0336603Y0281312D01*
X0334944Y0280625D01*
X0333675Y0279356D01*
X0332988Y0277697D01*
X0332988Y0275903D01*
X0333675Y0274244D01*
X0334944Y0272975D01*
X0336603Y0272288D01*
X0338397Y0272288D01*
X0338397Y0271312D02*
X0336603Y0271312D01*
X0334944Y0270625D01*
X0333675Y0269356D01*
X0332988Y0267697D01*
X0332988Y0265903D01*
X0333675Y0264244D01*
X0334944Y0262975D01*
X0335250Y0262848D01*
X0335250Y0251973D01*
X0334549Y0251272D01*
X0334019Y0249992D01*
X0334019Y0248608D01*
X0334549Y0247328D01*
X0335528Y0246349D01*
X0336808Y0245819D01*
X0338192Y0245819D01*
X0339472Y0246349D01*
X0340451Y0247328D01*
X0340981Y0248608D01*
X0340981Y0249992D01*
X0340451Y0251272D01*
X0339750Y0251973D01*
X0339750Y0262848D01*
X0340056Y0262975D01*
X0341325Y0264244D01*
X0342012Y0265903D01*
X0342012Y0267697D01*
X0341325Y0269356D01*
X0340056Y0270625D01*
X0338397Y0271312D01*
X0340281Y0270400D02*
X0344719Y0270400D01*
X0343720Y0269401D02*
X0341280Y0269401D01*
X0341720Y0268403D02*
X0343280Y0268403D01*
X0342988Y0267404D02*
X0342012Y0267404D01*
X0342012Y0266405D02*
X0342988Y0266405D01*
X0343193Y0265407D02*
X0341807Y0265407D01*
X0341393Y0264408D02*
X0343607Y0264408D01*
X0344509Y0263410D02*
X0340491Y0263410D01*
X0339750Y0262411D02*
X0345250Y0262411D01*
X0345250Y0261413D02*
X0339750Y0261413D01*
X0339750Y0260414D02*
X0345250Y0260414D01*
X0345250Y0259416D02*
X0339750Y0259416D01*
X0339750Y0258417D02*
X0345250Y0258417D01*
X0345250Y0257419D02*
X0339750Y0257419D01*
X0339750Y0256420D02*
X0345250Y0256420D01*
X0345250Y0255422D02*
X0339750Y0255422D01*
X0339750Y0254423D02*
X0345250Y0254423D01*
X0345250Y0253425D02*
X0339750Y0253425D01*
X0339750Y0252426D02*
X0345250Y0252426D01*
X0344705Y0251428D02*
X0340295Y0251428D01*
X0340800Y0250429D02*
X0344200Y0250429D01*
X0344019Y0249431D02*
X0340981Y0249431D01*
X0340908Y0248432D02*
X0344091Y0248432D01*
X0344505Y0247434D02*
X0340495Y0247434D01*
X0339558Y0246435D02*
X0345442Y0246435D01*
X0335442Y0246435D02*
X0329558Y0246435D01*
X0329472Y0246349D02*
X0330451Y0247328D01*
X0330981Y0248608D01*
X0330981Y0249992D01*
X0330451Y0251272D01*
X0329750Y0251973D01*
X0329750Y0262848D01*
X0330056Y0262975D01*
X0331325Y0264244D01*
X0332012Y0265903D01*
X0332012Y0267697D01*
X0331325Y0269356D01*
X0330056Y0270625D01*
X0328397Y0271312D01*
X0326603Y0271312D01*
X0324944Y0270625D01*
X0323675Y0269356D01*
X0322988Y0267697D01*
X0322988Y0265903D01*
X0323675Y0264244D01*
X0324944Y0262975D01*
X0325250Y0262848D01*
X0325250Y0251973D01*
X0324549Y0251272D01*
X0324019Y0249992D01*
X0324019Y0248608D01*
X0324549Y0247328D01*
X0325528Y0246349D01*
X0326808Y0245819D01*
X0328192Y0245819D01*
X0329472Y0246349D01*
X0330495Y0247434D02*
X0334505Y0247434D01*
X0334091Y0248432D02*
X0330908Y0248432D01*
X0330981Y0249431D02*
X0334019Y0249431D01*
X0334200Y0250429D02*
X0330800Y0250429D01*
X0330295Y0251428D02*
X0334705Y0251428D01*
X0335250Y0252426D02*
X0329750Y0252426D01*
X0329750Y0253425D02*
X0335250Y0253425D01*
X0335250Y0254423D02*
X0329750Y0254423D01*
X0329750Y0255422D02*
X0335250Y0255422D01*
X0335250Y0256420D02*
X0329750Y0256420D01*
X0329750Y0257419D02*
X0335250Y0257419D01*
X0335250Y0258417D02*
X0329750Y0258417D01*
X0329750Y0259416D02*
X0335250Y0259416D01*
X0335250Y0260414D02*
X0329750Y0260414D01*
X0329750Y0261413D02*
X0335250Y0261413D01*
X0335250Y0262411D02*
X0329750Y0262411D01*
X0330491Y0263410D02*
X0334509Y0263410D01*
X0333607Y0264408D02*
X0331393Y0264408D01*
X0331807Y0265407D02*
X0333193Y0265407D01*
X0332988Y0266405D02*
X0332012Y0266405D01*
X0332012Y0267404D02*
X0332988Y0267404D01*
X0333280Y0268403D02*
X0331720Y0268403D01*
X0331280Y0269401D02*
X0333720Y0269401D01*
X0334719Y0270400D02*
X0330281Y0270400D01*
X0328659Y0272397D02*
X0336341Y0272397D01*
X0334524Y0273395D02*
X0330476Y0273395D01*
X0330056Y0272975D02*
X0331325Y0274244D01*
X0332012Y0275903D01*
X0332012Y0277697D01*
X0331325Y0279356D01*
X0330056Y0280625D01*
X0328397Y0281312D01*
X0326603Y0281312D01*
X0324944Y0280625D01*
X0323675Y0279356D01*
X0322988Y0277697D01*
X0322988Y0275903D01*
X0323675Y0274244D01*
X0324944Y0272975D01*
X0326603Y0272288D01*
X0328397Y0272288D01*
X0330056Y0272975D01*
X0331387Y0274394D02*
X0333613Y0274394D01*
X0333200Y0275392D02*
X0331800Y0275392D01*
X0332012Y0276391D02*
X0332988Y0276391D01*
X0332988Y0277389D02*
X0332012Y0277389D01*
X0331726Y0278388D02*
X0333274Y0278388D01*
X0333705Y0279386D02*
X0331295Y0279386D01*
X0330296Y0280385D02*
X0334704Y0280385D01*
X0340296Y0280385D02*
X0344704Y0280385D01*
X0343705Y0279386D02*
X0341295Y0279386D01*
X0341726Y0278388D02*
X0343274Y0278388D01*
X0342988Y0277389D02*
X0342012Y0277389D01*
X0342012Y0276391D02*
X0342988Y0276391D01*
X0343200Y0275392D02*
X0341800Y0275392D01*
X0341387Y0274394D02*
X0343613Y0274394D01*
X0344524Y0273395D02*
X0340476Y0273395D01*
X0326341Y0272397D02*
X0318659Y0272397D01*
X0320476Y0273395D02*
X0324524Y0273395D01*
X0323613Y0274394D02*
X0321387Y0274394D01*
X0321800Y0275392D02*
X0323200Y0275392D01*
X0322988Y0276391D02*
X0322012Y0276391D01*
X0322012Y0277389D02*
X0322988Y0277389D01*
X0323274Y0278388D02*
X0321726Y0278388D01*
X0321295Y0279386D02*
X0323705Y0279386D01*
X0324704Y0280385D02*
X0320296Y0280385D01*
X0320281Y0270400D02*
X0324719Y0270400D01*
X0323720Y0269401D02*
X0321280Y0269401D01*
X0321720Y0268403D02*
X0323280Y0268403D01*
X0322988Y0267404D02*
X0322012Y0267404D01*
X0322012Y0266405D02*
X0322988Y0266405D01*
X0323193Y0265407D02*
X0321807Y0265407D01*
X0321393Y0264408D02*
X0323607Y0264408D01*
X0324509Y0263410D02*
X0320491Y0263410D01*
X0319750Y0262411D02*
X0325250Y0262411D01*
X0325250Y0261413D02*
X0319750Y0261413D01*
X0319750Y0260414D02*
X0325250Y0260414D01*
X0325250Y0259416D02*
X0319750Y0259416D01*
X0319750Y0258417D02*
X0325250Y0258417D01*
X0325250Y0257419D02*
X0319750Y0257419D01*
X0319750Y0256420D02*
X0325250Y0256420D01*
X0325250Y0255422D02*
X0319750Y0255422D01*
X0319750Y0254423D02*
X0325250Y0254423D01*
X0325250Y0253425D02*
X0319750Y0253425D01*
X0319750Y0252426D02*
X0325250Y0252426D01*
X0324705Y0251428D02*
X0320295Y0251428D01*
X0320800Y0250429D02*
X0324200Y0250429D01*
X0324019Y0249431D02*
X0320981Y0249431D01*
X0320908Y0248432D02*
X0324091Y0248432D01*
X0324505Y0247434D02*
X0320495Y0247434D01*
X0319558Y0246435D02*
X0325442Y0246435D01*
X0315250Y0262411D02*
X0311127Y0262411D01*
X0311963Y0263410D02*
X0314509Y0263410D01*
X0313607Y0264408D02*
X0312012Y0264408D01*
X0312012Y0265407D02*
X0313193Y0265407D01*
X0308000Y0264408D02*
X0307000Y0264408D01*
X0307000Y0263410D02*
X0308000Y0263410D01*
X0308000Y0262411D02*
X0307000Y0262411D01*
X0307000Y0267404D02*
X0308000Y0267404D01*
X0308000Y0268403D02*
X0307000Y0268403D01*
X0307000Y0269401D02*
X0308000Y0269401D01*
X0308000Y0270400D02*
X0307000Y0270400D01*
X0303095Y0270400D02*
X0294240Y0270400D01*
X0294240Y0269401D02*
X0302988Y0269401D01*
X0302988Y0268403D02*
X0294240Y0268403D01*
X0294240Y0267404D02*
X0302988Y0267404D01*
X0288240Y0267404D02*
X0187301Y0267404D01*
X0187288Y0268403D02*
X0288240Y0268403D01*
X0288240Y0269401D02*
X0187033Y0269401D01*
X0186442Y0270400D02*
X0288240Y0270400D01*
X0288240Y0271398D02*
X0185286Y0271398D01*
X0185670Y0272397D02*
X0280819Y0272397D01*
X0279769Y0273395D02*
X0186669Y0273395D01*
X0187102Y0274394D02*
X0279701Y0274394D01*
X0279701Y0275392D02*
X0187323Y0275392D01*
X0187323Y0276391D02*
X0283260Y0276391D01*
X0283260Y0277389D02*
X0284260Y0277389D01*
X0284260Y0278388D02*
X0283260Y0278388D01*
X0283260Y0279386D02*
X0284260Y0279386D01*
X0284260Y0280385D02*
X0283260Y0280385D01*
X0279834Y0280385D02*
X0169244Y0280385D01*
X0169500Y0279386D02*
X0173536Y0279386D01*
X0172262Y0278388D02*
X0170612Y0278388D01*
X0171226Y0277389D02*
X0171648Y0277389D01*
X0167500Y0275737D02*
X0167500Y0279300D01*
X0165000Y0281800D01*
X0135000Y0281800D01*
X0132500Y0279300D01*
X0132500Y0224300D01*
X0134943Y0221472D02*
X0135057Y0221472D01*
X0139943Y0221472D02*
X0141020Y0221472D01*
X0141020Y0221516D02*
X0141020Y0217124D01*
X0141324Y0216820D01*
X0141020Y0216516D01*
X0141020Y0212124D01*
X0141324Y0211820D01*
X0141020Y0211516D01*
X0141020Y0207124D01*
X0141324Y0206820D01*
X0141020Y0206516D01*
X0141020Y0202124D01*
X0141324Y0201820D01*
X0141020Y0201516D01*
X0141020Y0197124D01*
X0141324Y0196820D01*
X0141020Y0196516D01*
X0141020Y0192124D01*
X0141324Y0191820D01*
X0141020Y0191516D01*
X0141020Y0187124D01*
X0141324Y0186820D01*
X0141020Y0186516D01*
X0141020Y0182124D01*
X0141324Y0181820D01*
X0141020Y0181516D01*
X0141020Y0177124D01*
X0141324Y0176820D01*
X0141020Y0176516D01*
X0141020Y0172124D01*
X0141324Y0171820D01*
X0141020Y0171516D01*
X0141020Y0167124D01*
X0141324Y0166820D01*
X0141020Y0166516D01*
X0141020Y0162124D01*
X0141324Y0161820D01*
X0141020Y0161516D01*
X0141020Y0157124D01*
X0141324Y0156820D01*
X0141319Y0156816D01*
X0141122Y0156473D01*
X0141020Y0156092D01*
X0141020Y0154607D01*
X0143807Y0154607D01*
X0143807Y0154032D01*
X0144382Y0154032D01*
X0144382Y0151245D01*
X0144382Y0149607D01*
X0147169Y0149607D01*
X0147169Y0151092D01*
X0147067Y0151473D01*
X0146870Y0151816D01*
X0146865Y0151820D01*
X0146870Y0151824D01*
X0147067Y0152166D01*
X0147169Y0152547D01*
X0147169Y0154032D01*
X0144382Y0154032D01*
X0144382Y0154607D01*
X0147169Y0154607D01*
X0147169Y0156092D01*
X0147067Y0156473D01*
X0146870Y0156816D01*
X0146865Y0156820D01*
X0147096Y0157050D01*
X0149827Y0157050D01*
X0150528Y0156349D01*
X0151808Y0155819D01*
X0153192Y0155819D01*
X0154472Y0156349D01*
X0155451Y0157328D01*
X0155981Y0158608D01*
X0155981Y0159992D01*
X0155451Y0161272D01*
X0154673Y0162050D01*
X0157327Y0162050D01*
X0158028Y0161349D01*
X0159308Y0160819D01*
X0160692Y0160819D01*
X0161972Y0161349D01*
X0162951Y0162328D01*
X0163481Y0163608D01*
X0163481Y0164992D01*
X0162951Y0166272D01*
X0162173Y0167050D01*
X0314827Y0167050D01*
X0315528Y0166349D01*
X0316808Y0165819D01*
X0318192Y0165819D01*
X0319472Y0166349D01*
X0320451Y0167328D01*
X0320981Y0168608D01*
X0320981Y0169992D01*
X0320451Y0171272D01*
X0319673Y0172050D01*
X0324827Y0172050D01*
X0325528Y0171349D01*
X0326808Y0170819D01*
X0328192Y0170819D01*
X0329472Y0171349D01*
X0330451Y0172328D01*
X0330981Y0173608D01*
X0330981Y0174992D01*
X0330451Y0176272D01*
X0329673Y0177050D01*
X0344827Y0177050D01*
X0345528Y0176349D01*
X0346808Y0175819D01*
X0348192Y0175819D01*
X0349472Y0176349D01*
X0350451Y0177328D01*
X0350981Y0178608D01*
X0350981Y0179992D01*
X0350451Y0181272D01*
X0349472Y0182251D01*
X0348192Y0182781D01*
X0346808Y0182781D01*
X0345528Y0182251D01*
X0344827Y0181550D01*
X0339673Y0181550D01*
X0340451Y0182328D01*
X0340981Y0183608D01*
X0340981Y0184992D01*
X0340451Y0186272D01*
X0339472Y0187251D01*
X0338192Y0187781D01*
X0336808Y0187781D01*
X0335528Y0187251D01*
X0334827Y0186550D01*
X0284673Y0186550D01*
X0285451Y0187328D01*
X0285981Y0188608D01*
X0285981Y0189992D01*
X0285451Y0191272D01*
X0284472Y0192251D01*
X0283192Y0192781D01*
X0281808Y0192781D01*
X0280528Y0192251D01*
X0279827Y0191550D01*
X0147135Y0191550D01*
X0146865Y0191820D01*
X0147169Y0192124D01*
X0147169Y0196516D01*
X0146865Y0196820D01*
X0147169Y0197124D01*
X0147169Y0201516D01*
X0146865Y0201820D01*
X0147115Y0202070D01*
X0199702Y0202070D01*
X0203451Y0205819D01*
X0204442Y0205819D01*
X0205722Y0206349D01*
X0206701Y0207328D01*
X0207231Y0208608D01*
X0207231Y0209992D01*
X0206701Y0211272D01*
X0205722Y0212251D01*
X0204442Y0212781D01*
X0203058Y0212781D01*
X0201778Y0212251D01*
X0200799Y0211272D01*
X0200269Y0209992D01*
X0200269Y0209001D01*
X0197838Y0206570D01*
X0147115Y0206570D01*
X0146865Y0206820D01*
X0147169Y0207124D01*
X0147169Y0211516D01*
X0146865Y0211820D01*
X0147169Y0212124D01*
X0147169Y0216516D01*
X0146865Y0216820D01*
X0147169Y0217124D01*
X0147169Y0221516D01*
X0146865Y0221820D01*
X0146870Y0221824D01*
X0147067Y0222166D01*
X0147169Y0222547D01*
X0147169Y0224032D01*
X0144382Y0224032D01*
X0144382Y0224607D01*
X0147169Y0224607D01*
X0147169Y0226092D01*
X0147067Y0226473D01*
X0146870Y0226816D01*
X0146590Y0227095D01*
X0146248Y0227292D01*
X0145867Y0227394D01*
X0144382Y0227394D01*
X0144382Y0224607D01*
X0143807Y0224607D01*
X0143807Y0224032D01*
X0141020Y0224032D01*
X0141020Y0222547D01*
X0141122Y0222166D01*
X0141319Y0221824D01*
X0141324Y0221820D01*
X0141020Y0221516D01*
X0141040Y0222471D02*
X0140575Y0222471D01*
X0140575Y0223470D02*
X0141020Y0223470D01*
X0140575Y0224468D02*
X0143807Y0224468D01*
X0143807Y0224607D02*
X0141020Y0224607D01*
X0141020Y0226092D01*
X0141122Y0226473D01*
X0141319Y0226816D01*
X0141599Y0227095D01*
X0141941Y0227292D01*
X0142322Y0227394D01*
X0143807Y0227394D01*
X0143807Y0224607D01*
X0144382Y0224468D02*
X0298089Y0224468D01*
X0297091Y0225467D02*
X0147169Y0225467D01*
X0147069Y0226465D02*
X0296092Y0226465D01*
X0295094Y0227464D02*
X0134500Y0227464D01*
X0134500Y0228462D02*
X0294095Y0228462D01*
X0293097Y0229461D02*
X0134500Y0229461D01*
X0134500Y0230459D02*
X0292098Y0230459D01*
X0291100Y0231458D02*
X0134500Y0231458D01*
X0134500Y0232456D02*
X0290101Y0232456D01*
X0289103Y0233455D02*
X0134500Y0233455D01*
X0134500Y0234453D02*
X0288451Y0234453D01*
X0288240Y0235452D02*
X0134500Y0235452D01*
X0134500Y0236450D02*
X0288240Y0236450D01*
X0288240Y0237449D02*
X0134500Y0237449D01*
X0134500Y0238447D02*
X0288240Y0238447D01*
X0288240Y0239446D02*
X0134500Y0239446D01*
X0134500Y0240444D02*
X0288240Y0240444D01*
X0288240Y0241443D02*
X0134500Y0241443D01*
X0134500Y0242441D02*
X0288240Y0242441D01*
X0288240Y0243440D02*
X0134500Y0243440D01*
X0134500Y0244438D02*
X0288240Y0244438D01*
X0288240Y0245437D02*
X0134500Y0245437D01*
X0134500Y0246435D02*
X0154077Y0246435D01*
X0152624Y0247434D02*
X0134500Y0247434D01*
X0134500Y0248432D02*
X0151625Y0248432D01*
X0150627Y0249431D02*
X0134500Y0249431D01*
X0134500Y0250429D02*
X0149628Y0250429D01*
X0148969Y0251428D02*
X0134500Y0251428D01*
X0134500Y0252426D02*
X0148752Y0252426D01*
X0148752Y0253425D02*
X0134500Y0253425D01*
X0134500Y0254423D02*
X0148752Y0254423D01*
X0148752Y0255422D02*
X0134500Y0255422D01*
X0134500Y0256420D02*
X0148752Y0256420D01*
X0148752Y0257419D02*
X0134500Y0257419D01*
X0134500Y0258417D02*
X0148752Y0258417D01*
X0148752Y0259416D02*
X0134500Y0259416D01*
X0134500Y0260414D02*
X0148752Y0260414D01*
X0148752Y0261413D02*
X0134500Y0261413D01*
X0134500Y0262411D02*
X0148752Y0262411D01*
X0148752Y0263410D02*
X0134500Y0263410D01*
X0134500Y0264408D02*
X0147936Y0264408D01*
X0147677Y0265407D02*
X0134500Y0265407D01*
X0134500Y0266405D02*
X0147677Y0266405D01*
X0147677Y0267404D02*
X0134500Y0267404D01*
X0134500Y0268403D02*
X0147677Y0268403D01*
X0147677Y0269401D02*
X0134500Y0269401D01*
X0134500Y0270400D02*
X0147677Y0270400D01*
X0148016Y0271398D02*
X0134500Y0271398D01*
X0134500Y0272397D02*
X0149330Y0272397D01*
X0148331Y0273395D02*
X0134500Y0273395D01*
X0134500Y0274394D02*
X0147898Y0274394D01*
X0147677Y0275392D02*
X0134500Y0275392D01*
X0134500Y0276391D02*
X0147677Y0276391D01*
X0148026Y0277389D02*
X0134500Y0277389D01*
X0134500Y0278388D02*
X0148640Y0278388D01*
X0149914Y0279386D02*
X0135415Y0279386D01*
X0132753Y0282382D02*
X0126169Y0282382D01*
X0126583Y0283380D02*
X0133752Y0283380D01*
X0131755Y0281383D02*
X0125755Y0281383D01*
X0125723Y0281305D02*
X0127200Y0284871D01*
X0127200Y0288729D01*
X0125723Y0292295D01*
X0122995Y0295023D01*
X0119429Y0296500D01*
X0115571Y0296500D01*
X0112005Y0295023D01*
X0109277Y0292295D01*
X0107800Y0288729D01*
X0107800Y0284871D01*
X0109277Y0281305D01*
X0112005Y0278577D01*
X0115571Y0277100D01*
X0119429Y0277100D01*
X0122995Y0278577D01*
X0125723Y0281305D01*
X0124803Y0280385D02*
X0130756Y0280385D01*
X0130500Y0279386D02*
X0123804Y0279386D01*
X0122538Y0278388D02*
X0130500Y0278388D01*
X0130500Y0277389D02*
X0120127Y0277389D01*
X0121211Y0274394D02*
X0130500Y0274394D01*
X0130500Y0275392D02*
X0006250Y0275392D01*
X0006250Y0274394D02*
X0098789Y0274394D01*
X0098074Y0273395D02*
X0006250Y0273395D01*
X0006250Y0272397D02*
X0098047Y0272397D01*
X0098047Y0271398D02*
X0006250Y0271398D01*
X0006250Y0270400D02*
X0102000Y0270400D01*
X0102000Y0271398D02*
X0103000Y0271398D01*
X0103000Y0270400D02*
X0117000Y0270400D01*
X0117000Y0271398D02*
X0118000Y0271398D01*
X0118000Y0270400D02*
X0130500Y0270400D01*
X0130500Y0271398D02*
X0121953Y0271398D01*
X0121953Y0272397D02*
X0130500Y0272397D01*
X0130500Y0273395D02*
X0121926Y0273395D01*
X0118000Y0273395D02*
X0117000Y0273395D01*
X0117000Y0272397D02*
X0118000Y0272397D01*
X0118000Y0274394D02*
X0117000Y0274394D01*
X0113789Y0274394D02*
X0106211Y0274394D01*
X0106926Y0273395D02*
X0113074Y0273395D01*
X0113047Y0272397D02*
X0106953Y0272397D01*
X0106953Y0271398D02*
X0113047Y0271398D01*
X0113047Y0269401D02*
X0106953Y0269401D01*
X0106953Y0268403D02*
X0113047Y0268403D01*
X0113149Y0267404D02*
X0106851Y0267404D01*
X0106787Y0266405D02*
X0113213Y0266405D01*
X0113047Y0265407D02*
X0106953Y0265407D01*
X0106953Y0264408D02*
X0113047Y0264408D01*
X0113047Y0263410D02*
X0106953Y0263410D01*
X0106953Y0262411D02*
X0113047Y0262411D01*
X0113047Y0261413D02*
X0106953Y0261413D01*
X0106953Y0260414D02*
X0113047Y0260414D01*
X0113511Y0259416D02*
X0106489Y0259416D01*
X0104500Y0258417D02*
X0115500Y0258417D01*
X0115500Y0257419D02*
X0104500Y0257419D01*
X0104500Y0256420D02*
X0115500Y0256420D01*
X0115500Y0255422D02*
X0104500Y0255422D01*
X0104500Y0254423D02*
X0115500Y0254423D01*
X0115500Y0253425D02*
X0104500Y0253425D01*
X0104500Y0252426D02*
X0115500Y0252426D01*
X0115500Y0251428D02*
X0111706Y0251428D01*
X0111953Y0250429D02*
X0115500Y0250429D01*
X0115500Y0249431D02*
X0111953Y0249431D01*
X0111953Y0247434D02*
X0115500Y0247434D01*
X0115500Y0248432D02*
X0108000Y0248432D01*
X0108000Y0249431D02*
X0107000Y0249431D01*
X0107000Y0250429D02*
X0108000Y0250429D01*
X0108000Y0251428D02*
X0107000Y0251428D01*
X0111953Y0246435D02*
X0115500Y0246435D01*
X0115500Y0245437D02*
X0111953Y0245437D01*
X0111531Y0244438D02*
X0115500Y0244438D01*
X0119500Y0244438D02*
X0130500Y0244438D01*
X0130500Y0243440D02*
X0124533Y0243440D01*
X0125485Y0242441D02*
X0130500Y0242441D01*
X0130500Y0241443D02*
X0125898Y0241443D01*
X0125981Y0240444D02*
X0130500Y0240444D01*
X0130500Y0239446D02*
X0126786Y0239446D01*
X0127785Y0238447D02*
X0130500Y0238447D01*
X0130500Y0237449D02*
X0128783Y0237449D01*
X0129750Y0236450D02*
X0130500Y0236450D01*
X0130500Y0235452D02*
X0129750Y0235452D01*
X0129770Y0234453D02*
X0130500Y0234453D01*
X0130500Y0245437D02*
X0119500Y0245437D01*
X0119500Y0246435D02*
X0130500Y0246435D01*
X0130500Y0247434D02*
X0119500Y0247434D01*
X0119500Y0248432D02*
X0130500Y0248432D01*
X0130500Y0249431D02*
X0119500Y0249431D01*
X0119500Y0250429D02*
X0130500Y0250429D01*
X0130500Y0251428D02*
X0119500Y0251428D01*
X0119500Y0252426D02*
X0130500Y0252426D01*
X0130500Y0253425D02*
X0119500Y0253425D01*
X0119500Y0254423D02*
X0130500Y0254423D01*
X0130500Y0255422D02*
X0119500Y0255422D01*
X0119500Y0256420D02*
X0130500Y0256420D01*
X0130500Y0257419D02*
X0119500Y0257419D01*
X0119500Y0258417D02*
X0130500Y0258417D01*
X0130500Y0259416D02*
X0121489Y0259416D01*
X0121953Y0260414D02*
X0130500Y0260414D01*
X0130500Y0261413D02*
X0127036Y0261413D01*
X0127986Y0262411D02*
X0130500Y0262411D01*
X0130500Y0263410D02*
X0128399Y0263410D01*
X0128481Y0264408D02*
X0130500Y0264408D01*
X0130500Y0265407D02*
X0128309Y0265407D01*
X0127817Y0266405D02*
X0130500Y0266405D01*
X0130500Y0267404D02*
X0126603Y0267404D01*
X0123397Y0267404D02*
X0121851Y0267404D01*
X0121787Y0266405D02*
X0122182Y0266405D01*
X0121953Y0268403D02*
X0130500Y0268403D01*
X0130500Y0269401D02*
X0121953Y0269401D01*
X0125000Y0264300D02*
X0123760Y0263060D01*
X0117500Y0263060D01*
X0117500Y0224300D01*
X0119943Y0221472D02*
X0120057Y0221472D01*
X0124943Y0221472D02*
X0125057Y0221472D01*
X0129943Y0221472D02*
X0130057Y0221472D01*
X0141020Y0220474D02*
X0084000Y0220474D01*
X0084000Y0221472D02*
X0085095Y0221472D01*
X0084440Y0222471D02*
X0083985Y0222471D01*
X0084000Y0223470D02*
X0084425Y0223470D01*
X0084425Y0225467D02*
X0084000Y0225467D01*
X0083891Y0226465D02*
X0084534Y0226465D01*
X0087213Y0226465D02*
X0087787Y0226465D01*
X0087787Y0225467D02*
X0087213Y0225467D01*
X0087213Y0224468D02*
X0081213Y0224468D01*
X0080638Y0224468D02*
X0006250Y0224468D01*
X0006250Y0223470D02*
X0077850Y0223470D01*
X0077866Y0222471D02*
X0006250Y0222471D01*
X0006250Y0221472D02*
X0077850Y0221472D01*
X0077850Y0220474D02*
X0006250Y0220474D01*
X0006250Y0219475D02*
X0077850Y0219475D01*
X0077850Y0218477D02*
X0006250Y0218477D01*
X0006250Y0217478D02*
X0077850Y0217478D01*
X0077968Y0216480D02*
X0012028Y0216480D01*
X0012405Y0215481D02*
X0077850Y0215481D01*
X0077850Y0213484D02*
X0025283Y0213484D01*
X0025283Y0212486D02*
X0038063Y0212486D01*
X0038047Y0206495D02*
X0025283Y0206495D01*
X0025283Y0205496D02*
X0038553Y0205496D01*
X0038047Y0204498D02*
X0025283Y0204498D01*
X0025283Y0203499D02*
X0038047Y0203499D01*
X0038047Y0202501D02*
X0025283Y0202501D01*
X0025283Y0201502D02*
X0042000Y0201502D01*
X0042000Y0200504D02*
X0043000Y0200504D01*
X0043000Y0201502D02*
X0067770Y0201502D01*
X0066772Y0200504D02*
X0046953Y0200504D01*
X0046953Y0199505D02*
X0066500Y0199505D01*
X0065314Y0198507D02*
X0064647Y0198507D01*
X0061760Y0198507D02*
X0060760Y0198507D01*
X0060760Y0197508D02*
X0061760Y0197508D01*
X0061760Y0196510D02*
X0060760Y0196510D01*
X0060760Y0195511D02*
X0061760Y0195511D01*
X0060760Y0194513D02*
X0025283Y0194513D01*
X0025283Y0195511D02*
X0057201Y0195511D01*
X0057201Y0196510D02*
X0025283Y0196510D01*
X0025283Y0197508D02*
X0057216Y0197508D01*
X0057873Y0198507D02*
X0046755Y0198507D01*
X0043000Y0198507D02*
X0042000Y0198507D01*
X0042000Y0199505D02*
X0043000Y0199505D01*
X0038245Y0198507D02*
X0025283Y0198507D01*
X0025283Y0199505D02*
X0038047Y0199505D01*
X0038047Y0200504D02*
X0025283Y0200504D01*
X0025283Y0193514D02*
X0057201Y0193514D01*
X0057201Y0192516D02*
X0025283Y0192516D01*
X0025283Y0191517D02*
X0057201Y0191517D01*
X0057447Y0190519D02*
X0025283Y0190519D01*
X0012405Y0189520D02*
X0074538Y0189520D01*
X0075537Y0190519D02*
X0072592Y0190519D01*
X0072799Y0191517D02*
X0076535Y0191517D01*
X0077850Y0197508D02*
X0074253Y0197508D01*
X0075380Y0198507D02*
X0077850Y0198507D01*
X0077850Y0199505D02*
X0075835Y0199505D01*
X0075981Y0200504D02*
X0077850Y0200504D01*
X0077857Y0201502D02*
X0075873Y0201502D01*
X0075460Y0202501D02*
X0077858Y0202501D01*
X0077850Y0203499D02*
X0074474Y0203499D01*
X0077850Y0205496D02*
X0046447Y0205496D01*
X0046953Y0204498D02*
X0080638Y0204498D01*
X0081213Y0204498D02*
X0141020Y0204498D01*
X0141020Y0205496D02*
X0084000Y0205496D01*
X0083874Y0206495D02*
X0141020Y0206495D01*
X0141020Y0207493D02*
X0084000Y0207493D01*
X0084000Y0208492D02*
X0141020Y0208492D01*
X0141020Y0209490D02*
X0084000Y0209490D01*
X0084000Y0210489D02*
X0141020Y0210489D01*
X0141020Y0211487D02*
X0084000Y0211487D01*
X0083989Y0212486D02*
X0141020Y0212486D01*
X0141020Y0213484D02*
X0084000Y0213484D01*
X0084000Y0215481D02*
X0141020Y0215481D01*
X0141020Y0214483D02*
X0081213Y0214483D01*
X0080638Y0214483D02*
X0025283Y0214483D01*
X0008543Y0216480D02*
X0008543Y0216480D01*
X0006250Y0225467D02*
X0077850Y0225467D01*
X0077959Y0226465D02*
X0006250Y0226465D01*
X0006250Y0227464D02*
X0100500Y0227464D01*
X0100500Y0228462D02*
X0006250Y0228462D01*
X0006250Y0229461D02*
X0100500Y0229461D01*
X0100500Y0230459D02*
X0006250Y0230459D01*
X0006250Y0231458D02*
X0100500Y0231458D01*
X0100500Y0232456D02*
X0006250Y0232456D01*
X0006250Y0233455D02*
X0100500Y0233455D01*
X0100500Y0234453D02*
X0006250Y0234453D01*
X0006250Y0235452D02*
X0100500Y0235452D01*
X0100500Y0236450D02*
X0006250Y0236450D01*
X0006250Y0237449D02*
X0100500Y0237449D01*
X0100500Y0238447D02*
X0006250Y0238447D01*
X0006250Y0239446D02*
X0100500Y0239446D01*
X0100500Y0240444D02*
X0006250Y0240444D01*
X0006250Y0241443D02*
X0100500Y0241443D01*
X0100500Y0242441D02*
X0006250Y0242441D01*
X0006250Y0243440D02*
X0100500Y0243440D01*
X0100500Y0244438D02*
X0006250Y0244438D01*
X0006250Y0245437D02*
X0100500Y0245437D01*
X0100500Y0246435D02*
X0006250Y0246435D01*
X0006250Y0247434D02*
X0100500Y0247434D01*
X0100500Y0248432D02*
X0006250Y0248432D01*
X0006250Y0249431D02*
X0100500Y0249431D01*
X0100500Y0250429D02*
X0006250Y0250429D01*
X0006250Y0251428D02*
X0100500Y0251428D01*
X0100500Y0252426D02*
X0006250Y0252426D01*
X0006250Y0253425D02*
X0100500Y0253425D01*
X0100500Y0254423D02*
X0006250Y0254423D01*
X0006250Y0255422D02*
X0100500Y0255422D01*
X0100500Y0256420D02*
X0006250Y0256420D01*
X0006250Y0257419D02*
X0100500Y0257419D01*
X0100500Y0258417D02*
X0006250Y0258417D01*
X0006250Y0259416D02*
X0098511Y0259416D01*
X0098047Y0260414D02*
X0006250Y0260414D01*
X0006250Y0261413D02*
X0098047Y0261413D01*
X0098047Y0262411D02*
X0006250Y0262411D01*
X0006250Y0263410D02*
X0098047Y0263410D01*
X0098047Y0264408D02*
X0006250Y0264408D01*
X0006250Y0265407D02*
X0098047Y0265407D01*
X0098213Y0266405D02*
X0006250Y0266405D01*
X0006250Y0267404D02*
X0098149Y0267404D01*
X0098047Y0268403D02*
X0006250Y0268403D01*
X0006250Y0269401D02*
X0098047Y0269401D01*
X0102000Y0272397D02*
X0103000Y0272397D01*
X0103000Y0273395D02*
X0102000Y0273395D01*
X0102000Y0274394D02*
X0103000Y0274394D01*
X0110197Y0280385D02*
X0006250Y0280385D01*
X0006250Y0281383D02*
X0109245Y0281383D01*
X0108831Y0282382D02*
X0006250Y0282382D01*
X0006250Y0283380D02*
X0108417Y0283380D01*
X0108004Y0284379D02*
X0006250Y0284379D01*
X0006250Y0285377D02*
X0107800Y0285377D01*
X0107800Y0286376D02*
X0006250Y0286376D01*
X0006250Y0287374D02*
X0107800Y0287374D01*
X0107800Y0288373D02*
X0006250Y0288373D01*
X0006250Y0289371D02*
X0108066Y0289371D01*
X0108479Y0290370D02*
X0006250Y0290370D01*
X0006250Y0291368D02*
X0108893Y0291368D01*
X0109349Y0292367D02*
X0006250Y0292367D01*
X0006250Y0293365D02*
X0110347Y0293365D01*
X0111346Y0294364D02*
X0006250Y0294364D01*
X0006250Y0295362D02*
X0112824Y0295362D01*
X0115235Y0296361D02*
X0006250Y0296361D01*
X0006250Y0297359D02*
X0398750Y0297359D01*
X0398750Y0296361D02*
X0389765Y0296361D01*
X0392176Y0295362D02*
X0398750Y0295362D01*
X0398750Y0294364D02*
X0393654Y0294364D01*
X0394653Y0293365D02*
X0398750Y0293365D01*
X0398750Y0292367D02*
X0395651Y0292367D01*
X0396107Y0291368D02*
X0398750Y0291368D01*
X0398750Y0290370D02*
X0396521Y0290370D01*
X0396934Y0289371D02*
X0398750Y0289371D01*
X0398750Y0288373D02*
X0397200Y0288373D01*
X0397200Y0287374D02*
X0398750Y0287374D01*
X0398750Y0286376D02*
X0397200Y0286376D01*
X0397200Y0285377D02*
X0398750Y0285377D01*
X0398750Y0284379D02*
X0396996Y0284379D01*
X0396583Y0283380D02*
X0398750Y0283380D01*
X0398750Y0282382D02*
X0396169Y0282382D01*
X0395755Y0281383D02*
X0398750Y0281383D01*
X0398750Y0280385D02*
X0394803Y0280385D01*
X0393804Y0279386D02*
X0398750Y0279386D01*
X0398750Y0278388D02*
X0392538Y0278388D01*
X0390127Y0277389D02*
X0398750Y0277389D01*
X0379245Y0281383D02*
X0168245Y0281383D01*
X0167247Y0282382D02*
X0378831Y0282382D01*
X0378417Y0283380D02*
X0166248Y0283380D01*
X0177212Y0279386D02*
X0181410Y0279386D01*
X0180136Y0278388D02*
X0178486Y0278388D01*
X0179100Y0277389D02*
X0179522Y0277389D01*
X0185086Y0279386D02*
X0279701Y0279386D01*
X0279701Y0278388D02*
X0186360Y0278388D01*
X0186974Y0277389D02*
X0279701Y0277389D01*
X0283260Y0275392D02*
X0284260Y0275392D01*
X0284260Y0274394D02*
X0283260Y0274394D01*
X0283260Y0273395D02*
X0284260Y0273395D01*
X0284260Y0272397D02*
X0283260Y0272397D01*
X0286700Y0272397D02*
X0288010Y0272397D01*
X0288240Y0266405D02*
X0187059Y0266405D01*
X0186500Y0265407D02*
X0288240Y0265407D01*
X0288240Y0264408D02*
X0185426Y0264408D01*
X0183535Y0264408D02*
X0182961Y0264408D01*
X0182961Y0265407D02*
X0183535Y0265407D01*
X0183535Y0266405D02*
X0182961Y0266405D01*
X0182961Y0267404D02*
X0183535Y0267404D01*
X0181070Y0264408D02*
X0177682Y0264408D01*
X0178681Y0265407D02*
X0179996Y0265407D01*
X0179437Y0266405D02*
X0179181Y0266405D01*
X0173066Y0264408D02*
X0169678Y0264408D01*
X0170752Y0265407D02*
X0172067Y0265407D01*
X0171567Y0266405D02*
X0171311Y0266405D01*
X0167787Y0266405D02*
X0167213Y0266405D01*
X0167213Y0265407D02*
X0167787Y0265407D01*
X0167787Y0264408D02*
X0167213Y0264408D01*
X0165322Y0264408D02*
X0161804Y0264408D01*
X0162878Y0265407D02*
X0164248Y0265407D01*
X0163689Y0266405D02*
X0163437Y0266405D01*
X0163701Y0268150D02*
X0159913Y0268150D01*
X0159913Y0267576D01*
X0167213Y0267576D01*
X0167213Y0268150D01*
X0163701Y0268150D01*
X0167213Y0267404D02*
X0167787Y0267404D01*
X0159913Y0267404D02*
X0159339Y0267404D01*
X0159339Y0266405D02*
X0159913Y0266405D01*
X0159913Y0265407D02*
X0159339Y0265407D01*
X0159339Y0264408D02*
X0159913Y0264408D01*
X0157448Y0264408D02*
X0155568Y0264408D01*
X0155827Y0265407D02*
X0156374Y0265407D01*
X0154752Y0263410D02*
X0288240Y0263410D01*
X0288240Y0262411D02*
X0154752Y0262411D01*
X0154752Y0261413D02*
X0288240Y0261413D01*
X0288240Y0260414D02*
X0154752Y0260414D01*
X0154752Y0259416D02*
X0288240Y0259416D01*
X0288240Y0258417D02*
X0154752Y0258417D01*
X0154752Y0257419D02*
X0288240Y0257419D01*
X0288240Y0256420D02*
X0154752Y0256420D01*
X0154752Y0255422D02*
X0288240Y0255422D01*
X0288240Y0254423D02*
X0154752Y0254423D01*
X0155118Y0253425D02*
X0288240Y0253425D01*
X0288240Y0252426D02*
X0156116Y0252426D01*
X0130500Y0276391D02*
X0006250Y0276391D01*
X0006250Y0277389D02*
X0114873Y0277389D01*
X0112462Y0278388D02*
X0006250Y0278388D01*
X0006250Y0279386D02*
X0111196Y0279386D01*
X0126996Y0284379D02*
X0378004Y0284379D01*
X0377800Y0285377D02*
X0127200Y0285377D01*
X0127200Y0286376D02*
X0377800Y0286376D01*
X0377800Y0287374D02*
X0127200Y0287374D01*
X0127200Y0288373D02*
X0377800Y0288373D01*
X0378066Y0289371D02*
X0126934Y0289371D01*
X0126521Y0290370D02*
X0378479Y0290370D01*
X0378893Y0291368D02*
X0126107Y0291368D01*
X0125651Y0292367D02*
X0379349Y0292367D01*
X0380347Y0293365D02*
X0124653Y0293365D01*
X0123654Y0294364D02*
X0381346Y0294364D01*
X0382824Y0295362D02*
X0122176Y0295362D01*
X0119765Y0296361D02*
X0385235Y0296361D01*
X0362945Y0266405D02*
X0362012Y0266405D01*
X0361807Y0265407D02*
X0363943Y0265407D01*
X0364010Y0264408D02*
X0361393Y0264408D01*
X0360491Y0263410D02*
X0364010Y0263410D01*
X0379049Y0254423D02*
X0398750Y0254423D01*
X0398750Y0253425D02*
X0379049Y0253425D01*
X0379049Y0252426D02*
X0398750Y0252426D01*
X0375490Y0250429D02*
X0374490Y0250429D01*
X0374490Y0249431D02*
X0375490Y0249431D01*
X0375490Y0248432D02*
X0374490Y0248432D01*
X0374490Y0247434D02*
X0375490Y0247434D01*
X0371911Y0247434D02*
X0371010Y0247434D01*
X0354778Y0230459D02*
X0300584Y0230459D01*
X0339500Y0223470D02*
X0147169Y0223470D01*
X0147149Y0222471D02*
X0339500Y0222471D01*
X0339500Y0221472D02*
X0147169Y0221472D01*
X0147169Y0220474D02*
X0339500Y0220474D01*
X0339500Y0219475D02*
X0147169Y0219475D01*
X0147169Y0218477D02*
X0339500Y0218477D01*
X0339500Y0217478D02*
X0147169Y0217478D01*
X0147169Y0216480D02*
X0339500Y0216480D01*
X0339500Y0215481D02*
X0147169Y0215481D01*
X0147169Y0214483D02*
X0339500Y0214483D01*
X0339500Y0213484D02*
X0147169Y0213484D01*
X0147169Y0212486D02*
X0202345Y0212486D01*
X0201014Y0211487D02*
X0147169Y0211487D01*
X0147169Y0210489D02*
X0200475Y0210489D01*
X0200269Y0209490D02*
X0147169Y0209490D01*
X0147169Y0208492D02*
X0199760Y0208492D01*
X0198761Y0207493D02*
X0147169Y0207493D01*
X0147169Y0201502D02*
X0339500Y0201502D01*
X0339500Y0202501D02*
X0200133Y0202501D01*
X0201131Y0203499D02*
X0339500Y0203499D01*
X0339500Y0204498D02*
X0202130Y0204498D01*
X0203128Y0205496D02*
X0339500Y0205496D01*
X0339500Y0206495D02*
X0205868Y0206495D01*
X0206770Y0207493D02*
X0339500Y0207493D01*
X0339500Y0208492D02*
X0207183Y0208492D01*
X0207231Y0209490D02*
X0339500Y0209490D01*
X0339500Y0210489D02*
X0207025Y0210489D01*
X0206486Y0211487D02*
X0339500Y0211487D01*
X0339500Y0212486D02*
X0205155Y0212486D01*
X0147169Y0200504D02*
X0339790Y0200504D01*
X0340552Y0199505D02*
X0147169Y0199505D01*
X0147169Y0198507D02*
X0341551Y0198507D01*
X0342549Y0197508D02*
X0147169Y0197508D01*
X0147169Y0196510D02*
X0343548Y0196510D01*
X0344546Y0195511D02*
X0147169Y0195511D01*
X0147169Y0194513D02*
X0345545Y0194513D01*
X0346543Y0193514D02*
X0147169Y0193514D01*
X0147169Y0192516D02*
X0281167Y0192516D01*
X0283833Y0192516D02*
X0347542Y0192516D01*
X0348540Y0191517D02*
X0285206Y0191517D01*
X0285763Y0190519D02*
X0349539Y0190519D01*
X0350537Y0189520D02*
X0285981Y0189520D01*
X0285945Y0188522D02*
X0351536Y0188522D01*
X0352534Y0187523D02*
X0338815Y0187523D01*
X0340198Y0186525D02*
X0353533Y0186525D01*
X0354531Y0185526D02*
X0340760Y0185526D01*
X0340981Y0184528D02*
X0355530Y0184528D01*
X0356528Y0183529D02*
X0340949Y0183529D01*
X0340535Y0182531D02*
X0346203Y0182531D01*
X0348797Y0182531D02*
X0357000Y0182531D01*
X0357000Y0181532D02*
X0350191Y0181532D01*
X0350757Y0180534D02*
X0357000Y0180534D01*
X0357000Y0179535D02*
X0350981Y0179535D01*
X0350952Y0178537D02*
X0357000Y0178537D01*
X0357000Y0177538D02*
X0350538Y0177538D01*
X0349662Y0176539D02*
X0357000Y0176539D01*
X0357000Y0175541D02*
X0330754Y0175541D01*
X0330981Y0174542D02*
X0357000Y0174542D01*
X0357000Y0173544D02*
X0330955Y0173544D01*
X0330541Y0172545D02*
X0357000Y0172545D01*
X0357000Y0171547D02*
X0329670Y0171547D01*
X0325330Y0171547D02*
X0320176Y0171547D01*
X0320751Y0170548D02*
X0357000Y0170548D01*
X0357000Y0169550D02*
X0320981Y0169550D01*
X0320958Y0168551D02*
X0357000Y0168551D01*
X0357000Y0167553D02*
X0320544Y0167553D01*
X0319677Y0166554D02*
X0357000Y0166554D01*
X0357000Y0165556D02*
X0163248Y0165556D01*
X0163481Y0164557D02*
X0257834Y0164557D01*
X0256961Y0163559D02*
X0163461Y0163559D01*
X0163047Y0162560D02*
X0256547Y0162560D01*
X0256519Y0161562D02*
X0162185Y0161562D01*
X0157815Y0161562D02*
X0155161Y0161562D01*
X0155745Y0160563D02*
X0256744Y0160563D01*
X0257312Y0159565D02*
X0155981Y0159565D01*
X0155964Y0158566D02*
X0257750Y0158566D01*
X0257750Y0157568D02*
X0155550Y0157568D01*
X0154692Y0156569D02*
X0257750Y0156569D01*
X0257750Y0155571D02*
X0147169Y0155571D01*
X0147012Y0156569D02*
X0150308Y0156569D01*
X0147169Y0153574D02*
X0257750Y0153574D01*
X0257750Y0154572D02*
X0144382Y0154572D01*
X0143807Y0154572D02*
X0084000Y0154572D01*
X0084000Y0153574D02*
X0141020Y0153574D01*
X0141020Y0154032D02*
X0141020Y0152547D01*
X0141122Y0152166D01*
X0141319Y0151824D01*
X0141324Y0151820D01*
X0141319Y0151816D01*
X0141122Y0151473D01*
X0141020Y0151092D01*
X0141020Y0149607D01*
X0143807Y0149607D01*
X0143807Y0149032D01*
X0144382Y0149032D01*
X0144382Y0146245D01*
X0145867Y0146245D01*
X0146248Y0146347D01*
X0146590Y0146545D01*
X0146870Y0146824D01*
X0147067Y0147166D01*
X0147169Y0147547D01*
X0147169Y0149032D01*
X0144382Y0149032D01*
X0144382Y0149607D01*
X0143807Y0149607D01*
X0143807Y0154032D01*
X0141020Y0154032D01*
X0141020Y0152575D02*
X0084000Y0152575D01*
X0083827Y0151577D02*
X0084506Y0151577D01*
X0084425Y0150578D02*
X0084000Y0150578D01*
X0084425Y0149580D02*
X0081213Y0149580D01*
X0080638Y0149580D02*
X0065500Y0149580D01*
X0065500Y0150578D02*
X0077850Y0150578D01*
X0078024Y0151577D02*
X0065500Y0151577D01*
X0065500Y0152575D02*
X0077850Y0152575D01*
X0077850Y0153574D02*
X0065500Y0153574D01*
X0065500Y0154572D02*
X0077850Y0154572D01*
X0077850Y0155571D02*
X0065500Y0155571D01*
X0065500Y0156569D02*
X0077924Y0156569D01*
X0077850Y0157568D02*
X0065500Y0157568D01*
X0065500Y0158566D02*
X0077850Y0158566D01*
X0077850Y0159565D02*
X0065500Y0159565D01*
X0065511Y0160563D02*
X0077850Y0160563D01*
X0084000Y0160563D02*
X0141020Y0160563D01*
X0141020Y0159565D02*
X0084000Y0159565D01*
X0084000Y0158566D02*
X0141020Y0158566D01*
X0141020Y0157568D02*
X0084000Y0157568D01*
X0083927Y0156569D02*
X0141177Y0156569D01*
X0141020Y0155571D02*
X0084000Y0155571D01*
X0083934Y0161562D02*
X0141066Y0161562D01*
X0141020Y0162560D02*
X0084000Y0162560D01*
X0084000Y0163559D02*
X0141020Y0163559D01*
X0141020Y0164557D02*
X0123734Y0164557D01*
X0123740Y0164567D02*
X0123843Y0164949D01*
X0123842Y0168583D01*
X0118906Y0168583D01*
X0118906Y0169583D01*
X0123843Y0169583D01*
X0123843Y0173218D01*
X0123740Y0173599D01*
X0123543Y0173941D01*
X0123264Y0174221D01*
X0122921Y0174418D01*
X0122540Y0174520D01*
X0118905Y0174520D01*
X0118905Y0169584D01*
X0117906Y0169584D01*
X0117906Y0174520D01*
X0114271Y0174520D01*
X0113890Y0174418D01*
X0113547Y0174221D01*
X0113268Y0173941D01*
X0113071Y0173599D01*
X0112969Y0173218D01*
X0112969Y0169583D01*
X0117905Y0169583D01*
X0117905Y0168583D01*
X0117906Y0168583D02*
X0118905Y0168583D01*
X0118905Y0163646D01*
X0122540Y0163646D01*
X0122921Y0163749D01*
X0123264Y0163946D01*
X0123543Y0164225D01*
X0123740Y0164567D01*
X0123843Y0165556D02*
X0141020Y0165556D01*
X0141058Y0166554D02*
X0133588Y0166554D01*
X0133583Y0166536D02*
X0133685Y0166917D01*
X0133685Y0169568D01*
X0129732Y0169568D01*
X0129732Y0165615D01*
X0132383Y0165615D01*
X0132764Y0165717D01*
X0133106Y0165915D01*
X0133385Y0166194D01*
X0133583Y0166536D01*
X0133685Y0167553D02*
X0141020Y0167553D01*
X0141020Y0168551D02*
X0133685Y0168551D01*
X0133685Y0169550D02*
X0141020Y0169550D01*
X0141020Y0170548D02*
X0129732Y0170548D01*
X0129732Y0170568D02*
X0133685Y0170568D01*
X0133685Y0173218D01*
X0133583Y0173599D01*
X0133385Y0173941D01*
X0133106Y0174221D01*
X0132764Y0174418D01*
X0132383Y0174520D01*
X0129732Y0174520D01*
X0129732Y0170568D01*
X0128732Y0170568D01*
X0128732Y0174520D01*
X0126082Y0174520D01*
X0125701Y0174418D01*
X0125359Y0174221D01*
X0125079Y0173941D01*
X0124882Y0173599D01*
X0124780Y0173218D01*
X0124780Y0170568D01*
X0128732Y0170568D01*
X0128732Y0169568D01*
X0124780Y0169568D01*
X0124780Y0166917D01*
X0124882Y0166536D01*
X0125079Y0166194D01*
X0125359Y0165915D01*
X0125701Y0165717D01*
X0126082Y0165615D01*
X0128732Y0165615D01*
X0128732Y0169568D01*
X0129732Y0169568D01*
X0129732Y0170568D01*
X0129732Y0171547D02*
X0128732Y0171547D01*
X0128732Y0172545D02*
X0129732Y0172545D01*
X0129732Y0173544D02*
X0128732Y0173544D01*
X0129717Y0175457D02*
X0126082Y0175457D01*
X0125701Y0175560D01*
X0125359Y0175757D01*
X0125079Y0176036D01*
X0124882Y0176378D01*
X0124780Y0176760D01*
X0124780Y0180395D01*
X0129716Y0180395D01*
X0129716Y0181394D01*
X0124780Y0181394D01*
X0124780Y0185029D01*
X0124882Y0185410D01*
X0125079Y0185753D01*
X0125359Y0186032D01*
X0125701Y0186229D01*
X0126082Y0186331D01*
X0129717Y0186331D01*
X0129717Y0181395D01*
X0130716Y0181395D01*
X0130716Y0186331D01*
X0134351Y0186331D01*
X0134733Y0186229D01*
X0135075Y0186032D01*
X0135354Y0185753D01*
X0135551Y0185410D01*
X0135654Y0185029D01*
X0135654Y0181394D01*
X0130717Y0181394D01*
X0130717Y0180395D01*
X0135654Y0180395D01*
X0135654Y0176760D01*
X0135551Y0176378D01*
X0135354Y0176036D01*
X0135075Y0175757D01*
X0134733Y0175560D01*
X0134351Y0175457D01*
X0130716Y0175457D01*
X0130716Y0180394D01*
X0129717Y0180394D01*
X0129717Y0175457D01*
X0129717Y0175541D02*
X0130716Y0175541D01*
X0130716Y0176539D02*
X0129717Y0176539D01*
X0129717Y0177538D02*
X0130716Y0177538D01*
X0130716Y0178537D02*
X0129717Y0178537D01*
X0129717Y0179535D02*
X0130716Y0179535D01*
X0130717Y0180534D02*
X0141020Y0180534D01*
X0141036Y0181532D02*
X0135654Y0181532D01*
X0135654Y0182531D02*
X0141020Y0182531D01*
X0141020Y0183529D02*
X0135654Y0183529D01*
X0135654Y0184528D02*
X0141020Y0184528D01*
X0141020Y0185526D02*
X0135485Y0185526D01*
X0134733Y0187371D02*
X0135075Y0187568D01*
X0135354Y0187847D01*
X0135551Y0188190D01*
X0135654Y0188571D01*
X0135654Y0192206D01*
X0130717Y0192206D01*
X0130717Y0193205D01*
X0135654Y0193205D01*
X0135654Y0196840D01*
X0135551Y0197221D01*
X0135354Y0197564D01*
X0135075Y0197843D01*
X0134733Y0198040D01*
X0134351Y0198143D01*
X0130716Y0198143D01*
X0130716Y0193206D01*
X0129717Y0193206D01*
X0129717Y0198143D01*
X0126082Y0198143D01*
X0125701Y0198040D01*
X0125359Y0197843D01*
X0125079Y0197564D01*
X0124882Y0197221D01*
X0124780Y0196840D01*
X0124780Y0193205D01*
X0129716Y0193205D01*
X0129716Y0192206D01*
X0124780Y0192206D01*
X0124780Y0188571D01*
X0124882Y0188190D01*
X0125079Y0187847D01*
X0125359Y0187568D01*
X0125701Y0187371D01*
X0126082Y0187269D01*
X0129717Y0187269D01*
X0129717Y0192205D01*
X0130716Y0192205D01*
X0130716Y0187269D01*
X0134351Y0187269D01*
X0134733Y0187371D01*
X0134996Y0187523D02*
X0141020Y0187523D01*
X0141028Y0186525D02*
X0083972Y0186525D01*
X0084000Y0187523D02*
X0101815Y0187523D01*
X0101736Y0187568D02*
X0102078Y0187371D01*
X0102460Y0187269D01*
X0106095Y0187269D01*
X0106095Y0192205D01*
X0107094Y0192205D01*
X0107094Y0187269D01*
X0110729Y0187269D01*
X0111110Y0187371D01*
X0111453Y0187568D01*
X0111732Y0187847D01*
X0111929Y0188190D01*
X0112031Y0188571D01*
X0112031Y0192206D01*
X0107095Y0192206D01*
X0107095Y0193205D01*
X0112031Y0193205D01*
X0112031Y0196840D01*
X0111929Y0197221D01*
X0111732Y0197564D01*
X0111453Y0197843D01*
X0111110Y0198040D01*
X0110729Y0198143D01*
X0107094Y0198143D01*
X0107094Y0193206D01*
X0106095Y0193206D01*
X0106095Y0198143D01*
X0102460Y0198143D01*
X0102078Y0198040D01*
X0101736Y0197843D01*
X0101457Y0197564D01*
X0101260Y0197221D01*
X0101157Y0196840D01*
X0101157Y0193205D01*
X0106094Y0193205D01*
X0106094Y0192206D01*
X0101157Y0192206D01*
X0101157Y0188571D01*
X0101260Y0188190D01*
X0101457Y0187847D01*
X0101736Y0187568D01*
X0101171Y0188522D02*
X0084000Y0188522D01*
X0084000Y0189520D02*
X0101157Y0189520D01*
X0101157Y0190519D02*
X0084000Y0190519D01*
X0083979Y0191517D02*
X0101157Y0191517D01*
X0101157Y0193514D02*
X0084000Y0193514D01*
X0084000Y0192516D02*
X0106094Y0192516D01*
X0106095Y0193514D02*
X0107094Y0193514D01*
X0107095Y0192516D02*
X0117905Y0192516D01*
X0117905Y0192206D02*
X0112969Y0192206D01*
X0112969Y0188571D01*
X0113071Y0188190D01*
X0113268Y0187847D01*
X0113547Y0187568D01*
X0113890Y0187371D01*
X0114271Y0187269D01*
X0117906Y0187269D01*
X0117906Y0192205D01*
X0118905Y0192205D01*
X0118905Y0187269D01*
X0122540Y0187269D01*
X0122921Y0187371D01*
X0123264Y0187568D01*
X0123543Y0187847D01*
X0123740Y0188190D01*
X0123843Y0188571D01*
X0123842Y0192206D01*
X0118906Y0192206D01*
X0118906Y0193205D01*
X0123843Y0193205D01*
X0123843Y0196840D01*
X0123740Y0197221D01*
X0123543Y0197564D01*
X0123264Y0197843D01*
X0122921Y0198040D01*
X0122540Y0198143D01*
X0118905Y0198143D01*
X0118905Y0193206D01*
X0117906Y0193206D01*
X0117906Y0198143D01*
X0114271Y0198143D01*
X0113890Y0198040D01*
X0113547Y0197843D01*
X0113268Y0197564D01*
X0113071Y0197221D01*
X0112969Y0196840D01*
X0112969Y0193205D01*
X0117905Y0193205D01*
X0117905Y0192206D01*
X0117906Y0191517D02*
X0118905Y0191517D01*
X0118905Y0190519D02*
X0117906Y0190519D01*
X0117906Y0189520D02*
X0118905Y0189520D01*
X0118905Y0188522D02*
X0117906Y0188522D01*
X0117906Y0187523D02*
X0118905Y0187523D01*
X0118905Y0186331D02*
X0118905Y0181395D01*
X0117906Y0181395D01*
X0117906Y0186331D01*
X0114271Y0186331D01*
X0113890Y0186229D01*
X0113547Y0186032D01*
X0113268Y0185753D01*
X0113071Y0185410D01*
X0112969Y0185029D01*
X0112969Y0181394D01*
X0117905Y0181394D01*
X0117905Y0180395D01*
X0112969Y0180395D01*
X0112969Y0176760D01*
X0113071Y0176378D01*
X0113268Y0176036D01*
X0113547Y0175757D01*
X0113890Y0175560D01*
X0114271Y0175457D01*
X0117906Y0175457D01*
X0117906Y0180394D01*
X0118905Y0180394D01*
X0118905Y0175457D01*
X0122540Y0175457D01*
X0122921Y0175560D01*
X0123264Y0175757D01*
X0123543Y0176036D01*
X0123740Y0176378D01*
X0123843Y0176760D01*
X0123842Y0180395D01*
X0118906Y0180395D01*
X0118906Y0181394D01*
X0123843Y0181394D01*
X0123843Y0185029D01*
X0123740Y0185410D01*
X0123543Y0185753D01*
X0123264Y0186032D01*
X0122921Y0186229D01*
X0122540Y0186331D01*
X0118905Y0186331D01*
X0118905Y0185526D02*
X0117906Y0185526D01*
X0117906Y0184528D02*
X0118905Y0184528D01*
X0118905Y0183529D02*
X0117906Y0183529D01*
X0117906Y0182531D02*
X0118905Y0182531D01*
X0118905Y0181532D02*
X0117906Y0181532D01*
X0117905Y0180534D02*
X0107095Y0180534D01*
X0107095Y0180395D02*
X0107095Y0181394D01*
X0112031Y0181394D01*
X0112031Y0185029D01*
X0111929Y0185410D01*
X0111732Y0185753D01*
X0111453Y0186032D01*
X0111110Y0186229D01*
X0110729Y0186331D01*
X0107094Y0186331D01*
X0107094Y0181395D01*
X0106095Y0181395D01*
X0106095Y0186331D01*
X0102460Y0186331D01*
X0102078Y0186229D01*
X0101736Y0186032D01*
X0101457Y0185753D01*
X0101260Y0185410D01*
X0101157Y0185029D01*
X0101157Y0181394D01*
X0106094Y0181394D01*
X0106094Y0180395D01*
X0101157Y0180395D01*
X0101157Y0176760D01*
X0101260Y0176378D01*
X0101457Y0176036D01*
X0101736Y0175757D01*
X0102078Y0175560D01*
X0102460Y0175457D01*
X0106095Y0175457D01*
X0106095Y0180394D01*
X0107094Y0180394D01*
X0107094Y0175457D01*
X0110729Y0175457D01*
X0111110Y0175560D01*
X0111453Y0175757D01*
X0111732Y0176036D01*
X0111929Y0176378D01*
X0112031Y0176760D01*
X0112031Y0180395D01*
X0107095Y0180395D01*
X0107094Y0179535D02*
X0106095Y0179535D01*
X0106095Y0178537D02*
X0107094Y0178537D01*
X0107094Y0177538D02*
X0106095Y0177538D01*
X0106095Y0176539D02*
X0107094Y0176539D01*
X0107094Y0175541D02*
X0106095Y0175541D01*
X0106095Y0174520D02*
X0102460Y0174520D01*
X0102078Y0174418D01*
X0101736Y0174221D01*
X0101457Y0173941D01*
X0101260Y0173599D01*
X0101157Y0173218D01*
X0101157Y0169583D01*
X0106094Y0169583D01*
X0106094Y0168583D01*
X0106095Y0168583D02*
X0107094Y0168583D01*
X0107094Y0163646D01*
X0110729Y0163646D01*
X0111110Y0163749D01*
X0111453Y0163946D01*
X0111732Y0164225D01*
X0111929Y0164567D01*
X0112031Y0164949D01*
X0112031Y0168583D01*
X0107095Y0168583D01*
X0107095Y0169583D01*
X0112031Y0169583D01*
X0112031Y0173218D01*
X0111929Y0173599D01*
X0111732Y0173941D01*
X0111453Y0174221D01*
X0111110Y0174418D01*
X0110729Y0174520D01*
X0107094Y0174520D01*
X0107094Y0169584D01*
X0106095Y0169584D01*
X0106095Y0174520D01*
X0106095Y0173544D02*
X0107094Y0173544D01*
X0107094Y0172545D02*
X0106095Y0172545D01*
X0106095Y0171547D02*
X0107094Y0171547D01*
X0107094Y0170548D02*
X0106095Y0170548D01*
X0106094Y0169550D02*
X0084000Y0169550D01*
X0084000Y0170548D02*
X0101157Y0170548D01*
X0101157Y0171547D02*
X0083949Y0171547D01*
X0084000Y0172545D02*
X0101157Y0172545D01*
X0101245Y0173544D02*
X0084000Y0173544D01*
X0084000Y0175541D02*
X0102148Y0175541D01*
X0101217Y0176539D02*
X0083848Y0176539D01*
X0084000Y0177538D02*
X0101157Y0177538D01*
X0101157Y0178537D02*
X0084000Y0178537D01*
X0084000Y0179535D02*
X0101157Y0179535D01*
X0101157Y0181532D02*
X0083964Y0181532D01*
X0084000Y0180534D02*
X0106094Y0180534D01*
X0106095Y0181532D02*
X0107094Y0181532D01*
X0107094Y0182531D02*
X0106095Y0182531D01*
X0106095Y0183529D02*
X0107094Y0183529D01*
X0107094Y0184528D02*
X0106095Y0184528D01*
X0106095Y0185526D02*
X0107094Y0185526D01*
X0107094Y0187523D02*
X0106095Y0187523D01*
X0106095Y0188522D02*
X0107094Y0188522D01*
X0107094Y0189520D02*
X0106095Y0189520D01*
X0106095Y0190519D02*
X0107094Y0190519D01*
X0107094Y0191517D02*
X0106095Y0191517D01*
X0106095Y0194513D02*
X0107094Y0194513D01*
X0107094Y0195511D02*
X0106095Y0195511D01*
X0106095Y0196510D02*
X0107094Y0196510D01*
X0107094Y0197508D02*
X0106095Y0197508D01*
X0101425Y0197508D02*
X0084000Y0197508D01*
X0083986Y0196510D02*
X0101157Y0196510D01*
X0101157Y0195511D02*
X0084000Y0195511D01*
X0084000Y0194513D02*
X0101157Y0194513D01*
X0112031Y0194513D02*
X0112969Y0194513D01*
X0112969Y0195511D02*
X0112031Y0195511D01*
X0112031Y0196510D02*
X0112969Y0196510D01*
X0113236Y0197508D02*
X0111764Y0197508D01*
X0112031Y0193514D02*
X0112969Y0193514D01*
X0112969Y0191517D02*
X0112031Y0191517D01*
X0112031Y0190519D02*
X0112969Y0190519D01*
X0112969Y0189520D02*
X0112031Y0189520D01*
X0112018Y0188522D02*
X0112982Y0188522D01*
X0113626Y0187523D02*
X0111374Y0187523D01*
X0111863Y0185526D02*
X0113137Y0185526D01*
X0112969Y0184528D02*
X0112031Y0184528D01*
X0112031Y0183529D02*
X0112969Y0183529D01*
X0112969Y0182531D02*
X0112031Y0182531D01*
X0112031Y0181532D02*
X0112969Y0181532D01*
X0112969Y0179535D02*
X0112031Y0179535D01*
X0112031Y0178537D02*
X0112969Y0178537D01*
X0112969Y0177538D02*
X0112031Y0177538D01*
X0111972Y0176539D02*
X0113028Y0176539D01*
X0113959Y0175541D02*
X0111041Y0175541D01*
X0111944Y0173544D02*
X0113056Y0173544D01*
X0112969Y0172545D02*
X0112031Y0172545D01*
X0112031Y0171547D02*
X0112969Y0171547D01*
X0112969Y0170548D02*
X0112031Y0170548D01*
X0112031Y0168551D02*
X0112969Y0168551D01*
X0112969Y0168583D02*
X0112969Y0164949D01*
X0113071Y0164567D01*
X0113268Y0164225D01*
X0113547Y0163946D01*
X0113890Y0163749D01*
X0114271Y0163646D01*
X0117906Y0163646D01*
X0117906Y0168583D01*
X0117905Y0168583D02*
X0112969Y0168583D01*
X0112969Y0167553D02*
X0112031Y0167553D01*
X0112031Y0166554D02*
X0112969Y0166554D01*
X0112969Y0165556D02*
X0112031Y0165556D01*
X0111923Y0164557D02*
X0113077Y0164557D01*
X0107094Y0164557D02*
X0106095Y0164557D01*
X0106095Y0163646D02*
X0102460Y0163646D01*
X0102078Y0163749D01*
X0101736Y0163946D01*
X0101457Y0164225D01*
X0101260Y0164567D01*
X0101157Y0164949D01*
X0101157Y0168583D01*
X0106094Y0168583D01*
X0106095Y0168583D02*
X0106095Y0163646D01*
X0106095Y0165556D02*
X0107094Y0165556D01*
X0107094Y0166554D02*
X0106095Y0166554D01*
X0106095Y0167553D02*
X0107094Y0167553D01*
X0107094Y0168551D02*
X0106095Y0168551D01*
X0107095Y0169550D02*
X0117905Y0169550D01*
X0117906Y0170548D02*
X0118905Y0170548D01*
X0118906Y0169550D02*
X0124780Y0169550D01*
X0124780Y0168551D02*
X0123843Y0168551D01*
X0123843Y0167553D02*
X0124780Y0167553D01*
X0124877Y0166554D02*
X0123843Y0166554D01*
X0128732Y0166554D02*
X0129732Y0166554D01*
X0129732Y0167553D02*
X0128732Y0167553D01*
X0128732Y0168551D02*
X0129732Y0168551D01*
X0129732Y0169550D02*
X0128732Y0169550D01*
X0128732Y0170548D02*
X0123843Y0170548D01*
X0123843Y0171547D02*
X0124780Y0171547D01*
X0124780Y0172545D02*
X0123843Y0172545D01*
X0123755Y0173544D02*
X0124867Y0173544D01*
X0125770Y0175541D02*
X0122852Y0175541D01*
X0123783Y0176539D02*
X0124839Y0176539D01*
X0124780Y0177538D02*
X0123843Y0177538D01*
X0123843Y0178537D02*
X0124780Y0178537D01*
X0124780Y0179535D02*
X0123843Y0179535D01*
X0123843Y0181532D02*
X0124780Y0181532D01*
X0124780Y0182531D02*
X0123843Y0182531D01*
X0123843Y0183529D02*
X0124780Y0183529D01*
X0124780Y0184528D02*
X0123843Y0184528D01*
X0123674Y0185526D02*
X0124949Y0185526D01*
X0125437Y0187523D02*
X0123185Y0187523D01*
X0123829Y0188522D02*
X0124793Y0188522D01*
X0124780Y0189520D02*
X0123843Y0189520D01*
X0123843Y0190519D02*
X0124780Y0190519D01*
X0124780Y0191517D02*
X0123843Y0191517D01*
X0123843Y0193514D02*
X0124780Y0193514D01*
X0124780Y0194513D02*
X0123843Y0194513D01*
X0123843Y0195511D02*
X0124780Y0195511D01*
X0124780Y0196510D02*
X0123843Y0196510D01*
X0123575Y0197508D02*
X0125047Y0197508D01*
X0118905Y0197508D02*
X0117906Y0197508D01*
X0117906Y0196510D02*
X0118905Y0196510D01*
X0118905Y0195511D02*
X0117906Y0195511D01*
X0117906Y0194513D02*
X0118905Y0194513D01*
X0118905Y0193514D02*
X0117906Y0193514D01*
X0118906Y0192516D02*
X0129716Y0192516D01*
X0129717Y0193514D02*
X0130716Y0193514D01*
X0130717Y0192516D02*
X0141020Y0192516D01*
X0141020Y0193514D02*
X0135654Y0193514D01*
X0135654Y0194513D02*
X0141020Y0194513D01*
X0141020Y0195511D02*
X0135654Y0195511D01*
X0135654Y0196510D02*
X0141020Y0196510D01*
X0141020Y0197508D02*
X0135386Y0197508D01*
X0130716Y0197508D02*
X0129717Y0197508D01*
X0129717Y0196510D02*
X0130716Y0196510D01*
X0130716Y0195511D02*
X0129717Y0195511D01*
X0129717Y0194513D02*
X0130716Y0194513D01*
X0130716Y0191517D02*
X0129717Y0191517D01*
X0129717Y0190519D02*
X0130716Y0190519D01*
X0130716Y0189520D02*
X0129717Y0189520D01*
X0129717Y0188522D02*
X0130716Y0188522D01*
X0130716Y0187523D02*
X0129717Y0187523D01*
X0129717Y0185526D02*
X0130716Y0185526D01*
X0130716Y0184528D02*
X0129717Y0184528D01*
X0129717Y0183529D02*
X0130716Y0183529D01*
X0130716Y0182531D02*
X0129717Y0182531D01*
X0129717Y0181532D02*
X0130716Y0181532D01*
X0129716Y0180534D02*
X0118906Y0180534D01*
X0118905Y0179535D02*
X0117906Y0179535D01*
X0117906Y0178537D02*
X0118905Y0178537D01*
X0118905Y0177538D02*
X0117906Y0177538D01*
X0117906Y0176539D02*
X0118905Y0176539D01*
X0118905Y0175541D02*
X0117906Y0175541D01*
X0117906Y0173544D02*
X0118905Y0173544D01*
X0118905Y0172545D02*
X0117906Y0172545D01*
X0117906Y0171547D02*
X0118905Y0171547D01*
X0118905Y0168551D02*
X0117906Y0168551D01*
X0117906Y0167553D02*
X0118905Y0167553D01*
X0118905Y0166554D02*
X0117906Y0166554D01*
X0117906Y0165556D02*
X0118905Y0165556D01*
X0118905Y0164557D02*
X0117906Y0164557D01*
X0101266Y0164557D02*
X0084000Y0164557D01*
X0084000Y0165556D02*
X0101157Y0165556D01*
X0101157Y0166554D02*
X0083942Y0166554D01*
X0084000Y0167553D02*
X0101157Y0167553D01*
X0101157Y0168551D02*
X0084000Y0168551D01*
X0077850Y0168551D02*
X0069991Y0168551D01*
X0070990Y0167553D02*
X0077850Y0167553D01*
X0077850Y0167300D02*
X0071243Y0167300D01*
X0068000Y0170543D01*
X0068000Y0174847D01*
X0069421Y0174847D01*
X0070299Y0175726D01*
X0070299Y0176300D01*
X0077911Y0176300D01*
X0077850Y0176072D01*
X0077850Y0174587D01*
X0080638Y0174587D01*
X0080638Y0174013D01*
X0077850Y0174013D01*
X0077850Y0172528D01*
X0077953Y0172146D01*
X0078150Y0171804D01*
X0078154Y0171800D01*
X0077850Y0171496D01*
X0077850Y0167300D01*
X0077850Y0169550D02*
X0068993Y0169550D01*
X0068000Y0170548D02*
X0077850Y0170548D01*
X0077901Y0171547D02*
X0068000Y0171547D01*
X0068000Y0172545D02*
X0077850Y0172545D01*
X0077850Y0173544D02*
X0068000Y0173544D01*
X0068000Y0174542D02*
X0080638Y0174542D01*
X0081213Y0174542D02*
X0141020Y0174542D01*
X0141020Y0173544D02*
X0133598Y0173544D01*
X0133685Y0172545D02*
X0141020Y0172545D01*
X0141051Y0171547D02*
X0133685Y0171547D01*
X0134663Y0175541D02*
X0141020Y0175541D01*
X0141043Y0176539D02*
X0135594Y0176539D01*
X0135654Y0177538D02*
X0141020Y0177538D01*
X0141020Y0178537D02*
X0135654Y0178537D01*
X0135654Y0179535D02*
X0141020Y0179535D01*
X0141020Y0188522D02*
X0135640Y0188522D01*
X0135654Y0189520D02*
X0141020Y0189520D01*
X0141020Y0190519D02*
X0135654Y0190519D01*
X0135654Y0191517D02*
X0141021Y0191517D01*
X0141020Y0198507D02*
X0084000Y0198507D01*
X0084000Y0199505D02*
X0141020Y0199505D01*
X0141020Y0200504D02*
X0084000Y0200504D01*
X0083994Y0201502D02*
X0141020Y0201502D01*
X0141020Y0202501D02*
X0083993Y0202501D01*
X0084000Y0203499D02*
X0141020Y0203499D01*
X0141020Y0216480D02*
X0083883Y0216480D01*
X0084000Y0217478D02*
X0141020Y0217478D01*
X0141020Y0218477D02*
X0084000Y0218477D01*
X0084000Y0219475D02*
X0141020Y0219475D01*
X0141020Y0225467D02*
X0140575Y0225467D01*
X0140575Y0226465D02*
X0141120Y0226465D01*
X0143807Y0226465D02*
X0144382Y0226465D01*
X0144382Y0225467D02*
X0143807Y0225467D01*
X0120467Y0243440D02*
X0119500Y0243440D01*
X0119500Y0242441D02*
X0119515Y0242441D01*
X0107500Y0240560D02*
X0107500Y0224300D01*
X0109943Y0221472D02*
X0110057Y0221472D01*
X0112500Y0224300D02*
X0112500Y0231800D01*
X0102500Y0224300D02*
X0102500Y0263060D01*
X0081213Y0226465D02*
X0080638Y0226465D01*
X0080638Y0225467D02*
X0081213Y0225467D01*
X0087213Y0223470D02*
X0087787Y0223470D01*
X0087787Y0222471D02*
X0087213Y0222471D01*
X0087213Y0221472D02*
X0087787Y0221472D01*
X0089905Y0221472D02*
X0090057Y0221472D01*
X0094943Y0221472D02*
X0095057Y0221472D01*
X0099943Y0221472D02*
X0100057Y0221472D01*
X0104943Y0221472D02*
X0105057Y0221472D01*
X0114943Y0221472D02*
X0115057Y0221472D01*
X0077862Y0212486D02*
X0069644Y0212486D01*
X0065474Y0212486D02*
X0064526Y0212486D01*
X0060356Y0212486D02*
X0046937Y0212486D01*
X0046953Y0206495D02*
X0059975Y0206495D01*
X0064907Y0206495D02*
X0065093Y0206495D01*
X0070025Y0206495D02*
X0077976Y0206495D01*
X0070526Y0203499D02*
X0046953Y0203499D01*
X0046953Y0202501D02*
X0068769Y0202501D01*
X0061760Y0193514D02*
X0060760Y0193514D01*
X0060760Y0192516D02*
X0061760Y0192516D01*
X0061760Y0191517D02*
X0060760Y0191517D01*
X0060760Y0190519D02*
X0061760Y0190519D01*
X0059790Y0188522D02*
X0012405Y0188522D01*
X0011840Y0187523D02*
X0058791Y0187523D01*
X0057793Y0186525D02*
X0006250Y0186525D01*
X0006250Y0185526D02*
X0056794Y0185526D01*
X0056510Y0184528D02*
X0006250Y0184528D01*
X0006250Y0183529D02*
X0055356Y0183529D01*
X0054701Y0182531D02*
X0006250Y0182531D01*
X0006250Y0181532D02*
X0044050Y0181532D01*
X0043052Y0180534D02*
X0006250Y0180534D01*
X0006250Y0179535D02*
X0042053Y0179535D01*
X0041055Y0178537D02*
X0006250Y0178537D01*
X0006250Y0177538D02*
X0040056Y0177538D01*
X0039058Y0176539D02*
X0006250Y0176539D01*
X0006250Y0175541D02*
X0038059Y0175541D01*
X0037060Y0174542D02*
X0006250Y0174542D01*
X0006250Y0173544D02*
X0036062Y0173544D01*
X0035063Y0172545D02*
X0006250Y0172545D01*
X0006250Y0171547D02*
X0034065Y0171547D01*
X0033066Y0170548D02*
X0006250Y0170548D01*
X0006250Y0169550D02*
X0032750Y0169550D01*
X0032750Y0168551D02*
X0006250Y0168551D01*
X0006250Y0167553D02*
X0032750Y0167553D01*
X0032750Y0166554D02*
X0006250Y0166554D01*
X0006250Y0165556D02*
X0032750Y0165556D01*
X0032750Y0164557D02*
X0006250Y0164557D01*
X0006250Y0163559D02*
X0032750Y0163559D01*
X0032750Y0162560D02*
X0006250Y0162560D01*
X0006250Y0161562D02*
X0032750Y0161562D01*
X0032750Y0160563D02*
X0006250Y0160563D01*
X0006250Y0159565D02*
X0032750Y0159565D01*
X0032750Y0158566D02*
X0006250Y0158566D01*
X0006250Y0157568D02*
X0032750Y0157568D01*
X0032750Y0156569D02*
X0006250Y0156569D01*
X0006250Y0155571D02*
X0032750Y0155571D01*
X0032750Y0154572D02*
X0006250Y0154572D01*
X0006250Y0153574D02*
X0032750Y0153574D01*
X0032750Y0152575D02*
X0006250Y0152575D01*
X0006250Y0151577D02*
X0032750Y0151577D01*
X0032750Y0150578D02*
X0006250Y0150578D01*
X0006250Y0149580D02*
X0032750Y0149580D01*
X0032750Y0148581D02*
X0006250Y0148581D01*
X0006250Y0147583D02*
X0032750Y0147583D01*
X0032750Y0146584D02*
X0006250Y0146584D01*
X0006250Y0145586D02*
X0032750Y0145586D01*
X0032750Y0144587D02*
X0006250Y0144587D01*
X0006250Y0143589D02*
X0032750Y0143589D01*
X0032750Y0142590D02*
X0006250Y0142590D01*
X0006250Y0141592D02*
X0032750Y0141592D01*
X0032750Y0140593D02*
X0006250Y0140593D01*
X0006250Y0139595D02*
X0032750Y0139595D01*
X0032750Y0138596D02*
X0006250Y0138596D01*
X0006250Y0137598D02*
X0032750Y0137598D01*
X0032750Y0136599D02*
X0006250Y0136599D01*
X0006250Y0135601D02*
X0032750Y0135601D01*
X0032750Y0134602D02*
X0006250Y0134602D01*
X0006250Y0133603D02*
X0032750Y0133603D01*
X0032750Y0132605D02*
X0006250Y0132605D01*
X0006250Y0131606D02*
X0032750Y0131606D01*
X0032750Y0130608D02*
X0006250Y0130608D01*
X0006250Y0129609D02*
X0032750Y0129609D01*
X0032750Y0128611D02*
X0006250Y0128611D01*
X0006250Y0127612D02*
X0032750Y0127612D01*
X0032750Y0126614D02*
X0006250Y0126614D01*
X0006250Y0125615D02*
X0032750Y0125615D01*
X0032750Y0124617D02*
X0006250Y0124617D01*
X0006250Y0123618D02*
X0032750Y0123618D01*
X0032750Y0122620D02*
X0006250Y0122620D01*
X0006250Y0121621D02*
X0032750Y0121621D01*
X0032750Y0120623D02*
X0006250Y0120623D01*
X0006250Y0119624D02*
X0032750Y0119624D01*
X0032750Y0118626D02*
X0006250Y0118626D01*
X0006250Y0117627D02*
X0032750Y0117627D01*
X0032750Y0116629D02*
X0006250Y0116629D01*
X0006250Y0115630D02*
X0032750Y0115630D01*
X0032750Y0114632D02*
X0006250Y0114632D01*
X0006250Y0113633D02*
X0032750Y0113633D01*
X0032750Y0112635D02*
X0006250Y0112635D01*
X0006250Y0111636D02*
X0032750Y0111636D01*
X0032750Y0110638D02*
X0006250Y0110638D01*
X0006250Y0109639D02*
X0031677Y0109639D01*
X0030991Y0108641D02*
X0006250Y0108641D01*
X0006250Y0107642D02*
X0030577Y0107642D01*
X0030531Y0106644D02*
X0006250Y0106644D01*
X0006250Y0105645D02*
X0030576Y0105645D01*
X0030990Y0104647D02*
X0006250Y0104647D01*
X0006250Y0103648D02*
X0031675Y0103648D01*
X0032963Y0102650D02*
X0006250Y0102650D01*
X0006250Y0101651D02*
X0047750Y0101651D01*
X0047750Y0100653D02*
X0006250Y0100653D01*
X0006250Y0099654D02*
X0047750Y0099654D01*
X0047750Y0098656D02*
X0006250Y0098656D01*
X0006250Y0097657D02*
X0048461Y0097657D01*
X0049459Y0096659D02*
X0006250Y0096659D01*
X0006250Y0095660D02*
X0050458Y0095660D01*
X0051456Y0094662D02*
X0006250Y0094662D01*
X0006250Y0093663D02*
X0052455Y0093663D01*
X0054682Y0097800D02*
X0052250Y0100232D01*
X0052250Y0105232D01*
X0049750Y0107732D01*
X0048432Y0109050D01*
X0038839Y0109050D01*
X0038788Y0109174D01*
X0037531Y0110431D01*
X0037250Y0110547D01*
X0037250Y0168368D01*
X0045932Y0177050D01*
X0054701Y0177050D01*
X0054701Y0175726D01*
X0055579Y0174847D01*
X0061940Y0174847D01*
X0062000Y0174907D01*
X0062000Y0171115D01*
X0056741Y0171115D01*
X0055862Y0170236D01*
X0055862Y0158364D01*
X0056741Y0157485D01*
X0059500Y0157485D01*
X0059500Y0118703D01*
X0059957Y0117601D01*
X0060801Y0116757D01*
X0078301Y0099257D01*
X0079403Y0098800D01*
X0083500Y0098800D01*
X0082778Y0098501D01*
X0082077Y0097800D01*
X0054682Y0097800D01*
X0053826Y0098656D02*
X0083151Y0098656D01*
X0077903Y0099654D02*
X0052828Y0099654D01*
X0052250Y0100653D02*
X0076905Y0100653D01*
X0075906Y0101651D02*
X0052250Y0101651D01*
X0052250Y0102650D02*
X0074908Y0102650D01*
X0073909Y0103648D02*
X0052250Y0103648D01*
X0052250Y0104647D02*
X0072911Y0104647D01*
X0071912Y0105645D02*
X0051837Y0105645D01*
X0050838Y0106644D02*
X0070914Y0106644D01*
X0069915Y0107642D02*
X0049840Y0107642D01*
X0048841Y0108641D02*
X0068917Y0108641D01*
X0067918Y0109639D02*
X0038323Y0109639D01*
X0037250Y0110638D02*
X0066920Y0110638D01*
X0065921Y0111636D02*
X0037250Y0111636D01*
X0037250Y0112635D02*
X0064923Y0112635D01*
X0063924Y0113633D02*
X0037250Y0113633D01*
X0037250Y0114632D02*
X0062926Y0114632D01*
X0061927Y0115630D02*
X0037250Y0115630D01*
X0037250Y0116629D02*
X0060929Y0116629D01*
X0059946Y0117627D02*
X0037250Y0117627D01*
X0037250Y0118626D02*
X0059532Y0118626D01*
X0059500Y0119624D02*
X0037250Y0119624D01*
X0037250Y0120623D02*
X0059500Y0120623D01*
X0059500Y0121621D02*
X0037250Y0121621D01*
X0037250Y0122620D02*
X0059500Y0122620D01*
X0059500Y0123618D02*
X0037250Y0123618D01*
X0037250Y0124617D02*
X0059500Y0124617D01*
X0059500Y0125615D02*
X0037250Y0125615D01*
X0037250Y0126614D02*
X0059500Y0126614D01*
X0059500Y0127612D02*
X0037250Y0127612D01*
X0037250Y0128611D02*
X0059500Y0128611D01*
X0059500Y0129609D02*
X0037250Y0129609D01*
X0037250Y0130608D02*
X0059500Y0130608D01*
X0059500Y0131606D02*
X0037250Y0131606D01*
X0037250Y0132605D02*
X0059500Y0132605D01*
X0059500Y0133603D02*
X0037250Y0133603D01*
X0037250Y0134602D02*
X0059500Y0134602D01*
X0059500Y0135601D02*
X0037250Y0135601D01*
X0037250Y0136599D02*
X0059500Y0136599D01*
X0059500Y0137598D02*
X0037250Y0137598D01*
X0037250Y0138596D02*
X0059500Y0138596D01*
X0059500Y0139595D02*
X0037250Y0139595D01*
X0037250Y0140593D02*
X0059500Y0140593D01*
X0059500Y0141592D02*
X0037250Y0141592D01*
X0037250Y0142590D02*
X0059500Y0142590D01*
X0059500Y0143589D02*
X0037250Y0143589D01*
X0037250Y0144587D02*
X0059500Y0144587D01*
X0059500Y0145586D02*
X0037250Y0145586D01*
X0037250Y0146584D02*
X0059500Y0146584D01*
X0059500Y0147583D02*
X0037250Y0147583D01*
X0037250Y0148581D02*
X0059500Y0148581D01*
X0059500Y0149580D02*
X0037250Y0149580D01*
X0037250Y0150578D02*
X0059500Y0150578D01*
X0059500Y0151577D02*
X0037250Y0151577D01*
X0037250Y0152575D02*
X0059500Y0152575D01*
X0059500Y0153574D02*
X0037250Y0153574D01*
X0037250Y0154572D02*
X0059500Y0154572D01*
X0059500Y0155571D02*
X0037250Y0155571D01*
X0037250Y0156569D02*
X0059500Y0156569D01*
X0056658Y0157568D02*
X0053144Y0157568D01*
X0053217Y0157587D02*
X0053559Y0157785D01*
X0053838Y0158064D01*
X0054036Y0158406D01*
X0054138Y0158788D01*
X0054138Y0163800D01*
X0049988Y0163800D01*
X0049988Y0157485D01*
X0052835Y0157485D01*
X0053217Y0157587D01*
X0054078Y0158566D02*
X0055862Y0158566D01*
X0055862Y0159565D02*
X0054138Y0159565D01*
X0054138Y0160563D02*
X0055862Y0160563D01*
X0055862Y0161562D02*
X0054138Y0161562D01*
X0054138Y0162560D02*
X0055862Y0162560D01*
X0055862Y0163559D02*
X0054138Y0163559D01*
X0054138Y0164800D02*
X0049988Y0164800D01*
X0048988Y0164800D01*
X0048988Y0163800D01*
X0044839Y0163800D01*
X0044839Y0158788D01*
X0044941Y0158406D01*
X0045138Y0158064D01*
X0045418Y0157785D01*
X0045760Y0157587D01*
X0046141Y0157485D01*
X0048988Y0157485D01*
X0048988Y0163800D01*
X0049988Y0163800D01*
X0049988Y0164800D01*
X0049988Y0171115D01*
X0052835Y0171115D01*
X0053217Y0171013D01*
X0053559Y0170815D01*
X0053838Y0170536D01*
X0054036Y0170194D01*
X0054138Y0169812D01*
X0054138Y0164800D01*
X0054138Y0165556D02*
X0055862Y0165556D01*
X0055862Y0166554D02*
X0054138Y0166554D01*
X0054138Y0167553D02*
X0055862Y0167553D01*
X0055862Y0168551D02*
X0054138Y0168551D01*
X0054138Y0169550D02*
X0055862Y0169550D01*
X0056174Y0170548D02*
X0053826Y0170548D01*
X0049988Y0170548D02*
X0048988Y0170548D01*
X0048988Y0171115D02*
X0046141Y0171115D01*
X0045760Y0171013D01*
X0045418Y0170815D01*
X0045138Y0170536D01*
X0044941Y0170194D01*
X0044839Y0169812D01*
X0044839Y0164800D01*
X0048988Y0164800D01*
X0048988Y0171115D01*
X0048988Y0169550D02*
X0049988Y0169550D01*
X0049988Y0168551D02*
X0048988Y0168551D01*
X0048988Y0167553D02*
X0049988Y0167553D01*
X0049988Y0166554D02*
X0048988Y0166554D01*
X0048988Y0165556D02*
X0049988Y0165556D01*
X0049988Y0164557D02*
X0055862Y0164557D01*
X0049988Y0163559D02*
X0048988Y0163559D01*
X0048988Y0164557D02*
X0037250Y0164557D01*
X0037250Y0163559D02*
X0044839Y0163559D01*
X0044839Y0162560D02*
X0037250Y0162560D01*
X0037250Y0161562D02*
X0044839Y0161562D01*
X0044839Y0160563D02*
X0037250Y0160563D01*
X0037250Y0159565D02*
X0044839Y0159565D01*
X0044898Y0158566D02*
X0037250Y0158566D01*
X0037250Y0157568D02*
X0045832Y0157568D01*
X0048988Y0157568D02*
X0049988Y0157568D01*
X0049988Y0158566D02*
X0048988Y0158566D01*
X0048988Y0159565D02*
X0049988Y0159565D01*
X0049988Y0160563D02*
X0048988Y0160563D01*
X0048988Y0161562D02*
X0049988Y0161562D01*
X0049988Y0162560D02*
X0048988Y0162560D01*
X0044839Y0165556D02*
X0037250Y0165556D01*
X0037250Y0166554D02*
X0044839Y0166554D01*
X0044839Y0167553D02*
X0037250Y0167553D01*
X0037433Y0168551D02*
X0044839Y0168551D01*
X0044839Y0169550D02*
X0038432Y0169550D01*
X0039430Y0170548D02*
X0045151Y0170548D01*
X0042426Y0173544D02*
X0062000Y0173544D01*
X0062000Y0174542D02*
X0043424Y0174542D01*
X0044423Y0175541D02*
X0054886Y0175541D01*
X0054701Y0176539D02*
X0045421Y0176539D01*
X0041427Y0172545D02*
X0062000Y0172545D01*
X0062000Y0171547D02*
X0040429Y0171547D01*
X0065161Y0164557D02*
X0065500Y0164557D01*
X0065161Y0163559D02*
X0066499Y0163559D01*
X0067497Y0162560D02*
X0065161Y0162560D01*
X0065353Y0161562D02*
X0068771Y0161562D01*
X0070114Y0175541D02*
X0077850Y0175541D01*
X0084000Y0182531D02*
X0101157Y0182531D01*
X0101157Y0183529D02*
X0084000Y0183529D01*
X0084000Y0184528D02*
X0101157Y0184528D01*
X0101326Y0185526D02*
X0084000Y0185526D01*
X0084000Y0148581D02*
X0084425Y0148581D01*
X0084425Y0147583D02*
X0084000Y0147583D01*
X0083480Y0146584D02*
X0084945Y0146584D01*
X0085250Y0145586D02*
X0065500Y0145586D01*
X0065500Y0146584D02*
X0078370Y0146584D01*
X0077850Y0147583D02*
X0065500Y0147583D01*
X0065500Y0148581D02*
X0077850Y0148581D01*
X0080638Y0148581D02*
X0081213Y0148581D01*
X0081213Y0147583D02*
X0080638Y0147583D01*
X0080638Y0146584D02*
X0081213Y0146584D01*
X0085250Y0144587D02*
X0065500Y0144587D01*
X0065500Y0143589D02*
X0085250Y0143589D01*
X0085250Y0142590D02*
X0065500Y0142590D01*
X0065500Y0141592D02*
X0085250Y0141592D01*
X0085250Y0140593D02*
X0065500Y0140593D01*
X0065500Y0139595D02*
X0085250Y0139595D01*
X0085250Y0138596D02*
X0065500Y0138596D01*
X0065500Y0137598D02*
X0085250Y0137598D01*
X0085250Y0136599D02*
X0065500Y0136599D01*
X0065500Y0135601D02*
X0085250Y0135601D01*
X0085250Y0134602D02*
X0065500Y0134602D01*
X0065500Y0133603D02*
X0085250Y0133603D01*
X0085250Y0132605D02*
X0065500Y0132605D01*
X0065500Y0131606D02*
X0085250Y0131606D01*
X0085250Y0130608D02*
X0065500Y0130608D01*
X0065500Y0129609D02*
X0085250Y0129609D01*
X0085250Y0128611D02*
X0065500Y0128611D01*
X0065500Y0127612D02*
X0085250Y0127612D01*
X0085250Y0126614D02*
X0065500Y0126614D01*
X0065500Y0125615D02*
X0085250Y0125615D01*
X0085250Y0124617D02*
X0065500Y0124617D01*
X0065500Y0123618D02*
X0085250Y0123618D01*
X0085250Y0122620D02*
X0065500Y0122620D01*
X0065500Y0121621D02*
X0085250Y0121621D01*
X0085250Y0120623D02*
X0065500Y0120623D01*
X0066418Y0119624D02*
X0085250Y0119624D01*
X0085250Y0118626D02*
X0067417Y0118626D01*
X0068415Y0117627D02*
X0085250Y0117627D01*
X0085250Y0116629D02*
X0069414Y0116629D01*
X0070412Y0115630D02*
X0085250Y0115630D01*
X0085250Y0114632D02*
X0071411Y0114632D01*
X0072409Y0113633D02*
X0085250Y0113633D01*
X0085250Y0112635D02*
X0073408Y0112635D01*
X0074406Y0111636D02*
X0085250Y0111636D01*
X0085480Y0110638D02*
X0075405Y0110638D01*
X0076403Y0109639D02*
X0086479Y0109639D01*
X0087477Y0108641D02*
X0077402Y0108641D01*
X0078400Y0107642D02*
X0088476Y0107642D01*
X0089474Y0106644D02*
X0079399Y0106644D01*
X0080397Y0105645D02*
X0090473Y0105645D01*
X0093000Y0092665D02*
X0093212Y0092665D01*
X0093000Y0091666D02*
X0253250Y0091666D01*
X0253250Y0090668D02*
X0093000Y0090668D01*
X0093000Y0089669D02*
X0253250Y0089669D01*
X0253250Y0088670D02*
X0093000Y0088670D01*
X0093000Y0087672D02*
X0253250Y0087672D01*
X0253250Y0086673D02*
X0093000Y0086673D01*
X0093000Y0085675D02*
X0253250Y0085675D01*
X0253250Y0084676D02*
X0093000Y0084676D01*
X0093000Y0083678D02*
X0248052Y0083678D01*
X0248023Y0083670D02*
X0247681Y0083473D01*
X0247402Y0083193D01*
X0247205Y0082851D01*
X0247102Y0082470D01*
X0247102Y0079853D01*
X0249742Y0079853D01*
X0249742Y0079574D01*
X0247102Y0079574D01*
X0247102Y0076957D01*
X0247205Y0076575D01*
X0247402Y0076233D01*
X0247681Y0075954D01*
X0248023Y0075757D01*
X0248405Y0075654D01*
X0249742Y0075654D01*
X0249742Y0079574D01*
X0250022Y0079574D01*
X0250022Y0079853D01*
X0252661Y0079853D01*
X0252661Y0082470D01*
X0252559Y0082851D01*
X0252362Y0083193D01*
X0252082Y0083473D01*
X0251740Y0083670D01*
X0251359Y0083772D01*
X0250022Y0083772D01*
X0250022Y0079853D01*
X0249742Y0079853D01*
X0249742Y0083772D01*
X0248405Y0083772D01*
X0248023Y0083670D01*
X0247159Y0082679D02*
X0199234Y0082679D01*
X0198928Y0082985D02*
X0193158Y0082985D01*
X0192280Y0082106D01*
X0192280Y0076494D01*
X0192603Y0076170D01*
X0192579Y0076146D01*
X0192382Y0075804D01*
X0192280Y0075423D01*
X0192280Y0072215D01*
X0194919Y0072215D01*
X0194919Y0071936D01*
X0192280Y0071936D01*
X0192280Y0068728D01*
X0192382Y0068347D01*
X0192579Y0068005D01*
X0192859Y0067726D01*
X0193201Y0067528D01*
X0193582Y0067426D01*
X0194919Y0067426D01*
X0194919Y0071936D01*
X0195199Y0071936D01*
X0195199Y0072215D01*
X0197839Y0072215D01*
X0197839Y0075423D01*
X0197787Y0075615D01*
X0198732Y0075615D01*
X0199610Y0076494D01*
X0199610Y0078895D01*
X0199807Y0079092D01*
X0199807Y0082106D01*
X0198928Y0082985D01*
X0199807Y0081681D02*
X0247102Y0081681D01*
X0247102Y0080682D02*
X0199807Y0080682D01*
X0199807Y0079684D02*
X0249742Y0079684D01*
X0250022Y0079684D02*
X0253250Y0079684D01*
X0252661Y0079574D02*
X0250022Y0079574D01*
X0250022Y0075654D01*
X0251359Y0075654D01*
X0251740Y0075757D01*
X0252082Y0075954D01*
X0252362Y0076233D01*
X0252559Y0076575D01*
X0252661Y0076957D01*
X0252661Y0079574D01*
X0252661Y0078685D02*
X0253250Y0078685D01*
X0253250Y0077687D02*
X0252661Y0077687D01*
X0252589Y0076688D02*
X0253250Y0076688D01*
X0253250Y0075690D02*
X0251491Y0075690D01*
X0250022Y0075690D02*
X0249742Y0075690D01*
X0249742Y0076688D02*
X0250022Y0076688D01*
X0250022Y0077687D02*
X0249742Y0077687D01*
X0249742Y0078685D02*
X0250022Y0078685D01*
X0250022Y0080682D02*
X0249742Y0080682D01*
X0249742Y0081681D02*
X0250022Y0081681D01*
X0250022Y0082679D02*
X0249742Y0082679D01*
X0249742Y0083678D02*
X0250022Y0083678D01*
X0251712Y0083678D02*
X0253250Y0083678D01*
X0253250Y0082679D02*
X0252605Y0082679D01*
X0252661Y0081681D02*
X0253250Y0081681D01*
X0253250Y0080682D02*
X0252661Y0080682D01*
X0247102Y0078685D02*
X0199610Y0078685D01*
X0199610Y0077687D02*
X0247102Y0077687D01*
X0247174Y0076688D02*
X0199610Y0076688D01*
X0198806Y0075690D02*
X0248272Y0075690D01*
X0253250Y0074691D02*
X0197839Y0074691D01*
X0197839Y0073693D02*
X0253250Y0073693D01*
X0253250Y0072694D02*
X0197839Y0072694D01*
X0197839Y0071936D02*
X0195199Y0071936D01*
X0195199Y0067426D01*
X0196536Y0067426D01*
X0196918Y0067528D01*
X0197260Y0067726D01*
X0197539Y0068005D01*
X0197736Y0068347D01*
X0197839Y0068728D01*
X0197839Y0071936D01*
X0197839Y0071696D02*
X0253250Y0071696D01*
X0253250Y0070697D02*
X0197839Y0070697D01*
X0197839Y0069699D02*
X0253250Y0069699D01*
X0253250Y0068700D02*
X0197831Y0068700D01*
X0197218Y0067702D02*
X0253250Y0067702D01*
X0253250Y0066703D02*
X0233020Y0066703D01*
X0233020Y0065705D02*
X0253250Y0065705D01*
X0253250Y0064706D02*
X0233020Y0064706D01*
X0233020Y0063708D02*
X0235406Y0063708D01*
X0235406Y0064369D02*
X0235406Y0050176D01*
X0235698Y0049883D01*
X0241624Y0049883D01*
X0241917Y0050176D01*
X0241917Y0064369D01*
X0241624Y0064662D01*
X0235698Y0064662D01*
X0235406Y0064369D01*
X0235406Y0062709D02*
X0233020Y0062709D01*
X0233020Y0061711D02*
X0235406Y0061711D01*
X0235406Y0060712D02*
X0233020Y0060712D01*
X0233020Y0059714D02*
X0235406Y0059714D01*
X0235406Y0058715D02*
X0233020Y0058715D01*
X0233020Y0057717D02*
X0235406Y0057717D01*
X0235406Y0056718D02*
X0233020Y0056718D01*
X0233020Y0055720D02*
X0235406Y0055720D01*
X0235406Y0054721D02*
X0233020Y0054721D01*
X0233020Y0053723D02*
X0235406Y0053723D01*
X0235406Y0052724D02*
X0233020Y0052724D01*
X0233020Y0051726D02*
X0235406Y0051726D01*
X0235406Y0050727D02*
X0233020Y0050727D01*
X0233020Y0049729D02*
X0253250Y0049729D01*
X0253250Y0050727D02*
X0241917Y0050727D01*
X0241917Y0051726D02*
X0253250Y0051726D01*
X0253250Y0052724D02*
X0251638Y0052724D01*
X0251642Y0052725D02*
X0251984Y0052923D01*
X0252263Y0053202D01*
X0252461Y0053544D01*
X0252563Y0053925D01*
X0252563Y0056296D01*
X0249973Y0056296D01*
X0249973Y0056477D01*
X0252563Y0056477D01*
X0252563Y0058848D01*
X0252461Y0059229D01*
X0252263Y0059571D01*
X0251984Y0059851D01*
X0251642Y0060048D01*
X0251260Y0060150D01*
X0249972Y0060150D01*
X0249972Y0056477D01*
X0249791Y0056477D01*
X0249791Y0056296D01*
X0247201Y0056296D01*
X0247201Y0053925D01*
X0247303Y0053544D01*
X0247500Y0053202D01*
X0247780Y0052923D01*
X0248122Y0052725D01*
X0248503Y0052623D01*
X0249791Y0052623D01*
X0249791Y0056296D01*
X0249972Y0056296D01*
X0249972Y0052623D01*
X0251260Y0052623D01*
X0251642Y0052725D01*
X0252509Y0053723D02*
X0253250Y0053723D01*
X0253250Y0054721D02*
X0252563Y0054721D01*
X0252563Y0055720D02*
X0253250Y0055720D01*
X0253250Y0056718D02*
X0252563Y0056718D01*
X0252563Y0057717D02*
X0253250Y0057717D01*
X0253250Y0058715D02*
X0252563Y0058715D01*
X0252121Y0059714D02*
X0253250Y0059714D01*
X0253250Y0060712D02*
X0241917Y0060712D01*
X0241917Y0059714D02*
X0247643Y0059714D01*
X0247780Y0059851D02*
X0247500Y0059571D01*
X0247303Y0059229D01*
X0247201Y0058848D01*
X0247201Y0056477D01*
X0249791Y0056477D01*
X0249791Y0060150D01*
X0248503Y0060150D01*
X0248122Y0060048D01*
X0247780Y0059851D01*
X0247201Y0058715D02*
X0241917Y0058715D01*
X0241917Y0057717D02*
X0247201Y0057717D01*
X0247201Y0056718D02*
X0241917Y0056718D01*
X0241917Y0055720D02*
X0247201Y0055720D01*
X0247201Y0054721D02*
X0241917Y0054721D01*
X0241917Y0053723D02*
X0247255Y0053723D01*
X0248125Y0052724D02*
X0241917Y0052724D01*
X0249791Y0052724D02*
X0249972Y0052724D01*
X0249972Y0053723D02*
X0249791Y0053723D01*
X0249791Y0054721D02*
X0249972Y0054721D01*
X0249972Y0055720D02*
X0249791Y0055720D01*
X0249791Y0056718D02*
X0249972Y0056718D01*
X0249972Y0057717D02*
X0249791Y0057717D01*
X0249791Y0058715D02*
X0249972Y0058715D01*
X0249972Y0059714D02*
X0249791Y0059714D01*
X0253250Y0061711D02*
X0241917Y0061711D01*
X0241917Y0062709D02*
X0253250Y0062709D01*
X0253250Y0063708D02*
X0241917Y0063708D01*
X0233020Y0048730D02*
X0253250Y0048730D01*
X0253250Y0047732D02*
X0233020Y0047732D01*
X0233020Y0046733D02*
X0253190Y0046733D01*
X0252192Y0045734D02*
X0233020Y0045734D01*
X0232934Y0044736D02*
X0251193Y0044736D01*
X0250195Y0043737D02*
X0215465Y0043737D01*
X0215879Y0042739D02*
X0216696Y0042739D01*
X0209535Y0043737D02*
X0162250Y0043737D01*
X0162250Y0042739D02*
X0164206Y0042739D01*
X0165794Y0042739D02*
X0209121Y0042739D01*
X0209019Y0041740D02*
X0167483Y0041740D01*
X0167673Y0037050D02*
X0196768Y0037050D01*
X0196768Y0030667D01*
X0196839Y0030596D01*
X0196839Y0026473D01*
X0200496Y0026473D01*
X0200496Y0029714D01*
X0200476Y0029788D01*
X0206369Y0029788D01*
X0206446Y0029865D01*
X0206732Y0029788D01*
X0208217Y0029788D01*
X0208217Y0033757D01*
X0208791Y0033757D01*
X0208791Y0029788D01*
X0210276Y0029788D01*
X0210562Y0029865D01*
X0210639Y0029788D01*
X0219246Y0029788D01*
X0219246Y0026728D01*
X0212818Y0020300D01*
X0167182Y0020300D01*
X0162250Y0025232D01*
X0162250Y0037127D01*
X0163028Y0036349D01*
X0164308Y0035819D01*
X0165692Y0035819D01*
X0166972Y0036349D01*
X0167673Y0037050D01*
X0167371Y0036748D02*
X0196768Y0036748D01*
X0196768Y0035749D02*
X0162250Y0035749D01*
X0162250Y0034751D02*
X0196768Y0034751D01*
X0196768Y0033752D02*
X0162250Y0033752D01*
X0162250Y0032754D02*
X0196768Y0032754D01*
X0196768Y0031755D02*
X0162250Y0031755D01*
X0162250Y0030757D02*
X0192829Y0030757D01*
X0192760Y0030717D02*
X0192481Y0030438D01*
X0192283Y0030096D01*
X0192181Y0029714D01*
X0192181Y0026473D01*
X0195839Y0026473D01*
X0195839Y0031017D01*
X0193484Y0031017D01*
X0193102Y0030914D01*
X0192760Y0030717D01*
X0192193Y0029758D02*
X0162250Y0029758D01*
X0162250Y0028760D02*
X0192181Y0028760D01*
X0192181Y0027761D02*
X0162250Y0027761D01*
X0162250Y0026763D02*
X0192181Y0026763D01*
X0192181Y0025473D02*
X0192181Y0022232D01*
X0192283Y0021851D01*
X0192481Y0021509D01*
X0192760Y0021230D01*
X0193102Y0021032D01*
X0193484Y0020930D01*
X0195839Y0020930D01*
X0195839Y0025473D01*
X0196839Y0025473D01*
X0196839Y0026473D01*
X0195839Y0026473D01*
X0195839Y0025473D01*
X0192181Y0025473D01*
X0192181Y0024766D02*
X0162716Y0024766D01*
X0162250Y0025764D02*
X0195839Y0025764D01*
X0195839Y0024766D02*
X0196839Y0024766D01*
X0196839Y0025473D02*
X0196839Y0020930D01*
X0199194Y0020930D01*
X0199575Y0021032D01*
X0199917Y0021230D01*
X0200196Y0021509D01*
X0200394Y0021851D01*
X0200415Y0021930D01*
X0202766Y0021930D01*
X0203059Y0022223D01*
X0203059Y0024999D01*
X0202766Y0025292D01*
X0200496Y0025292D01*
X0200496Y0025473D01*
X0196839Y0025473D01*
X0196839Y0025764D02*
X0218282Y0025764D01*
X0219246Y0026763D02*
X0200496Y0026763D01*
X0200496Y0027761D02*
X0219246Y0027761D01*
X0219246Y0028760D02*
X0200496Y0028760D01*
X0200484Y0029758D02*
X0219246Y0029758D01*
X0223746Y0029758D02*
X0398750Y0029758D01*
X0398750Y0028760D02*
X0252244Y0028760D01*
X0252185Y0028863D02*
X0251905Y0029142D01*
X0251563Y0029339D01*
X0251182Y0029442D01*
X0249201Y0029442D01*
X0249201Y0025489D01*
X0252484Y0025489D01*
X0252484Y0028139D01*
X0252382Y0028521D01*
X0252185Y0028863D01*
X0252484Y0027761D02*
X0398750Y0027761D01*
X0398750Y0026763D02*
X0252484Y0026763D01*
X0252484Y0025764D02*
X0383794Y0025764D01*
X0385571Y0026500D02*
X0382005Y0025023D01*
X0379277Y0022295D01*
X0377800Y0018729D01*
X0377800Y0014871D01*
X0379277Y0011305D01*
X0382005Y0008577D01*
X0385571Y0007100D01*
X0389429Y0007100D01*
X0392995Y0008577D01*
X0395723Y0011305D01*
X0397200Y0014871D01*
X0397200Y0018729D01*
X0395723Y0022295D01*
X0392995Y0025023D01*
X0389429Y0026500D01*
X0385571Y0026500D01*
X0381748Y0024766D02*
X0249201Y0024766D01*
X0249201Y0024489D02*
X0249201Y0025489D01*
X0248201Y0025489D01*
X0248201Y0029442D01*
X0246220Y0029442D01*
X0245838Y0029339D01*
X0245496Y0029142D01*
X0245217Y0028863D01*
X0245020Y0028521D01*
X0244917Y0028139D01*
X0244917Y0025489D01*
X0248201Y0025489D01*
X0248201Y0024489D01*
X0249201Y0024489D01*
X0252484Y0024489D01*
X0252484Y0021839D01*
X0252382Y0021457D01*
X0252185Y0021115D01*
X0251905Y0020836D01*
X0251563Y0020638D01*
X0251182Y0020536D01*
X0249201Y0020536D01*
X0249201Y0024489D01*
X0249201Y0023767D02*
X0248201Y0023767D01*
X0248201Y0024489D02*
X0248201Y0020536D01*
X0246220Y0020536D01*
X0245838Y0020638D01*
X0245496Y0020836D01*
X0245217Y0021115D01*
X0245020Y0021457D01*
X0244917Y0021839D01*
X0244917Y0024489D01*
X0248201Y0024489D01*
X0248201Y0024766D02*
X0223648Y0024766D01*
X0223746Y0025764D02*
X0244917Y0025764D01*
X0244917Y0026763D02*
X0223746Y0026763D01*
X0223746Y0027761D02*
X0244917Y0027761D01*
X0245158Y0028760D02*
X0223746Y0028760D01*
X0222649Y0023767D02*
X0244917Y0023767D01*
X0244917Y0022769D02*
X0221651Y0022769D01*
X0220652Y0021770D02*
X0244936Y0021770D01*
X0245608Y0020772D02*
X0219654Y0020772D01*
X0218655Y0019773D02*
X0378232Y0019773D01*
X0377819Y0018775D02*
X0217657Y0018775D01*
X0216658Y0017776D02*
X0377800Y0017776D01*
X0377800Y0016778D02*
X0215660Y0016778D01*
X0213290Y0020772D02*
X0166710Y0020772D01*
X0165712Y0021770D02*
X0192330Y0021770D01*
X0192181Y0022769D02*
X0164713Y0022769D01*
X0163715Y0023767D02*
X0192181Y0023767D01*
X0195839Y0023767D02*
X0196839Y0023767D01*
X0196839Y0022769D02*
X0195839Y0022769D01*
X0195839Y0021770D02*
X0196839Y0021770D01*
X0200347Y0021770D02*
X0214288Y0021770D01*
X0215287Y0022769D02*
X0203059Y0022769D01*
X0203059Y0023767D02*
X0216285Y0023767D01*
X0217284Y0024766D02*
X0203059Y0024766D01*
X0196839Y0026763D02*
X0195839Y0026763D01*
X0195839Y0027761D02*
X0196839Y0027761D01*
X0196839Y0028760D02*
X0195839Y0028760D01*
X0195839Y0029758D02*
X0196839Y0029758D01*
X0196768Y0030757D02*
X0195839Y0030757D01*
X0208217Y0030757D02*
X0208791Y0030757D01*
X0208791Y0031755D02*
X0208217Y0031755D01*
X0208217Y0032754D02*
X0208791Y0032754D01*
X0208791Y0033752D02*
X0208217Y0033752D01*
X0208217Y0034751D02*
X0208791Y0034751D01*
X0208791Y0035749D02*
X0208217Y0035749D01*
X0208217Y0036748D02*
X0208791Y0036748D01*
X0208791Y0037746D02*
X0208217Y0037746D01*
X0206237Y0038745D02*
X0210585Y0038745D01*
X0209634Y0039743D02*
X0205239Y0039743D01*
X0204240Y0040742D02*
X0209170Y0040742D01*
X0196672Y0044736D02*
X0162250Y0044736D01*
X0162250Y0045734D02*
X0196587Y0045734D01*
X0195199Y0046733D02*
X0194919Y0046733D01*
X0194919Y0047732D02*
X0195199Y0047732D01*
X0195199Y0048730D02*
X0194919Y0048730D01*
X0194919Y0049729D02*
X0195199Y0049729D01*
X0195199Y0050727D02*
X0194919Y0050727D01*
X0194919Y0051726D02*
X0195199Y0051726D01*
X0195199Y0052724D02*
X0194919Y0052724D01*
X0194919Y0053723D02*
X0195199Y0053723D01*
X0195199Y0054721D02*
X0194919Y0054721D01*
X0194919Y0055720D02*
X0195199Y0055720D01*
X0195199Y0056718D02*
X0194919Y0056718D01*
X0194919Y0057717D02*
X0195199Y0057717D01*
X0196587Y0058715D02*
X0161455Y0058715D01*
X0162756Y0057717D02*
X0193315Y0057717D01*
X0192342Y0056718D02*
X0163284Y0056718D01*
X0163481Y0055720D02*
X0192280Y0055720D01*
X0192280Y0054721D02*
X0163425Y0054721D01*
X0163011Y0053723D02*
X0192280Y0053723D01*
X0192280Y0052724D02*
X0162250Y0052724D01*
X0162250Y0051726D02*
X0192280Y0051726D01*
X0192280Y0050727D02*
X0162250Y0050727D01*
X0162250Y0049729D02*
X0192280Y0049729D01*
X0192280Y0048730D02*
X0162250Y0048730D01*
X0162250Y0047732D02*
X0192280Y0047732D01*
X0192788Y0046733D02*
X0162250Y0046733D01*
X0157750Y0046733D02*
X0094023Y0046733D01*
X0094437Y0045734D02*
X0157750Y0045734D01*
X0157750Y0044736D02*
X0094468Y0044736D01*
X0094468Y0043737D02*
X0157750Y0043737D01*
X0157750Y0042739D02*
X0094468Y0042739D01*
X0094468Y0041740D02*
X0157750Y0041740D01*
X0157750Y0040742D02*
X0094468Y0040742D01*
X0094468Y0039743D02*
X0157750Y0039743D01*
X0157750Y0038745D02*
X0094468Y0038745D01*
X0094387Y0037746D02*
X0157750Y0037746D01*
X0157750Y0036748D02*
X0093974Y0036748D01*
X0093237Y0035749D02*
X0157750Y0035749D01*
X0157750Y0034751D02*
X0091825Y0034751D01*
X0088175Y0034751D02*
X0081825Y0034751D01*
X0082531Y0035043D02*
X0083788Y0036300D01*
X0084468Y0037943D01*
X0084468Y0045657D01*
X0083788Y0047300D01*
X0082531Y0048557D01*
X0080889Y0049237D01*
X0079111Y0049237D01*
X0077469Y0048557D01*
X0076212Y0047300D01*
X0075531Y0045657D01*
X0075531Y0037943D01*
X0076212Y0036300D01*
X0077469Y0035043D01*
X0079111Y0034363D01*
X0080889Y0034363D01*
X0082531Y0035043D01*
X0083237Y0035749D02*
X0086763Y0035749D01*
X0086026Y0036748D02*
X0083974Y0036748D01*
X0084387Y0037746D02*
X0085613Y0037746D01*
X0085531Y0038745D02*
X0084468Y0038745D01*
X0084468Y0039743D02*
X0085531Y0039743D01*
X0085531Y0040742D02*
X0084468Y0040742D01*
X0084468Y0041740D02*
X0085531Y0041740D01*
X0085531Y0042739D02*
X0084468Y0042739D01*
X0084468Y0043737D02*
X0085531Y0043737D01*
X0085531Y0044736D02*
X0084468Y0044736D01*
X0084437Y0045734D02*
X0085563Y0045734D01*
X0085977Y0046733D02*
X0084023Y0046733D01*
X0083356Y0047732D02*
X0086644Y0047732D01*
X0086327Y0048730D02*
X0082113Y0048730D01*
X0084330Y0050727D02*
X0006250Y0050727D01*
X0006250Y0049729D02*
X0085329Y0049729D01*
X0083332Y0051726D02*
X0006250Y0051726D01*
X0006250Y0052724D02*
X0082333Y0052724D01*
X0081335Y0053723D02*
X0006250Y0053723D01*
X0006250Y0054721D02*
X0080336Y0054721D01*
X0079700Y0055720D02*
X0006250Y0055720D01*
X0006250Y0056718D02*
X0031269Y0056718D01*
X0031126Y0056800D02*
X0031468Y0056603D01*
X0031850Y0056501D01*
X0034500Y0056501D01*
X0034500Y0060060D01*
X0030547Y0060060D01*
X0030547Y0057803D01*
X0030649Y0057422D01*
X0030847Y0057080D01*
X0031126Y0056800D01*
X0030570Y0057717D02*
X0006250Y0057717D01*
X0006250Y0058715D02*
X0030547Y0058715D01*
X0030547Y0059714D02*
X0006250Y0059714D01*
X0006250Y0060712D02*
X0034500Y0060712D01*
X0034500Y0061060D02*
X0034500Y0060060D01*
X0035500Y0060060D01*
X0035500Y0061060D01*
X0039453Y0061060D01*
X0039453Y0063316D01*
X0039351Y0063698D01*
X0039153Y0064040D01*
X0038893Y0064300D01*
X0039453Y0064860D01*
X0039453Y0071221D01*
X0038574Y0072099D01*
X0037250Y0072099D01*
X0037250Y0083053D01*
X0037531Y0083169D01*
X0038788Y0084426D01*
X0039468Y0086069D01*
X0039468Y0087846D01*
X0038788Y0089489D01*
X0037531Y0090746D01*
X0035889Y0091426D01*
X0034111Y0091426D01*
X0032469Y0090746D01*
X0031212Y0089489D01*
X0030531Y0087846D01*
X0030531Y0086069D01*
X0031212Y0084426D01*
X0032469Y0083169D01*
X0032750Y0083053D01*
X0032750Y0072099D01*
X0031426Y0072099D01*
X0030547Y0071221D01*
X0030547Y0064860D01*
X0031107Y0064300D01*
X0030847Y0064040D01*
X0030649Y0063698D01*
X0030547Y0063316D01*
X0030547Y0061060D01*
X0034500Y0061060D01*
X0035500Y0060712D02*
X0079500Y0060712D01*
X0079500Y0059714D02*
X0039453Y0059714D01*
X0039453Y0060060D02*
X0035500Y0060060D01*
X0035500Y0056501D01*
X0038150Y0056501D01*
X0038532Y0056603D01*
X0038874Y0056800D01*
X0039153Y0057080D01*
X0039351Y0057422D01*
X0039453Y0057803D01*
X0039453Y0060060D01*
X0039453Y0058715D02*
X0079500Y0058715D01*
X0079500Y0057717D02*
X0039430Y0057717D01*
X0038731Y0056718D02*
X0079500Y0056718D01*
X0079500Y0061711D02*
X0039453Y0061711D01*
X0039453Y0062709D02*
X0079500Y0062709D01*
X0079500Y0063708D02*
X0039345Y0063708D01*
X0039299Y0064706D02*
X0079500Y0064706D01*
X0079500Y0065705D02*
X0039453Y0065705D01*
X0039453Y0066703D02*
X0079500Y0066703D01*
X0079500Y0067702D02*
X0074396Y0067702D01*
X0075056Y0067975D02*
X0076325Y0069244D01*
X0077012Y0070903D01*
X0077012Y0072697D01*
X0076325Y0074356D01*
X0075056Y0075625D01*
X0073397Y0076312D01*
X0071603Y0076312D01*
X0069944Y0075625D01*
X0068675Y0074356D01*
X0067988Y0072697D01*
X0067988Y0070903D01*
X0068675Y0069244D01*
X0069944Y0067975D01*
X0071603Y0067288D01*
X0073397Y0067288D01*
X0075056Y0067975D01*
X0075781Y0068700D02*
X0079219Y0068700D01*
X0078487Y0069699D02*
X0076513Y0069699D01*
X0076927Y0070697D02*
X0078073Y0070697D01*
X0077988Y0071696D02*
X0077012Y0071696D01*
X0077012Y0072694D02*
X0077988Y0072694D01*
X0078400Y0073693D02*
X0076600Y0073693D01*
X0075989Y0074691D02*
X0079011Y0074691D01*
X0080101Y0075690D02*
X0074899Y0075690D01*
X0074360Y0077687D02*
X0078468Y0077687D01*
X0077988Y0078685D02*
X0075766Y0078685D01*
X0076325Y0079244D02*
X0075056Y0077975D01*
X0073397Y0077288D01*
X0071603Y0077288D01*
X0069944Y0077975D01*
X0068675Y0079244D01*
X0067988Y0080903D01*
X0067988Y0082697D01*
X0068675Y0084356D01*
X0069944Y0085625D01*
X0071603Y0086312D01*
X0073397Y0086312D01*
X0075056Y0085625D01*
X0076325Y0084356D01*
X0077012Y0082697D01*
X0077012Y0080903D01*
X0076325Y0079244D01*
X0076507Y0079684D02*
X0077988Y0079684D01*
X0077988Y0080682D02*
X0076921Y0080682D01*
X0077012Y0081681D02*
X0077988Y0081681D01*
X0077988Y0082679D02*
X0077012Y0082679D01*
X0076606Y0083678D02*
X0077988Y0083678D01*
X0077988Y0084676D02*
X0076004Y0084676D01*
X0074935Y0085675D02*
X0078230Y0085675D01*
X0070065Y0085675D02*
X0064935Y0085675D01*
X0065056Y0085625D02*
X0063397Y0086312D01*
X0061603Y0086312D01*
X0059944Y0085625D01*
X0058675Y0084356D01*
X0057988Y0082697D01*
X0057988Y0080903D01*
X0058675Y0079244D01*
X0059944Y0077975D01*
X0061603Y0077288D01*
X0063397Y0077288D01*
X0065056Y0077975D01*
X0066325Y0079244D01*
X0067012Y0080903D01*
X0067012Y0082697D01*
X0066325Y0084356D01*
X0065056Y0085625D01*
X0066004Y0084676D02*
X0068996Y0084676D01*
X0068394Y0083678D02*
X0066606Y0083678D01*
X0067012Y0082679D02*
X0067988Y0082679D01*
X0067988Y0081681D02*
X0067012Y0081681D01*
X0066921Y0080682D02*
X0068079Y0080682D01*
X0068493Y0079684D02*
X0066507Y0079684D01*
X0065766Y0078685D02*
X0069234Y0078685D01*
X0070640Y0077687D02*
X0064360Y0077687D01*
X0063557Y0076201D02*
X0063000Y0076289D01*
X0063000Y0072300D01*
X0066989Y0072300D01*
X0066901Y0072857D01*
X0066681Y0073532D01*
X0066359Y0074165D01*
X0065941Y0074739D01*
X0065439Y0075241D01*
X0064865Y0075659D01*
X0064232Y0075981D01*
X0063557Y0076201D01*
X0063000Y0075690D02*
X0062000Y0075690D01*
X0062000Y0076289D02*
X0062000Y0072300D01*
X0063000Y0072300D01*
X0063000Y0071300D01*
X0066989Y0071300D01*
X0066901Y0070743D01*
X0066681Y0070068D01*
X0066359Y0069435D01*
X0065941Y0068861D01*
X0065439Y0068359D01*
X0064865Y0067941D01*
X0064232Y0067619D01*
X0063557Y0067399D01*
X0063000Y0067311D01*
X0063000Y0071300D01*
X0062000Y0071300D01*
X0062000Y0067311D01*
X0061443Y0067399D01*
X0060768Y0067619D01*
X0060135Y0067941D01*
X0059561Y0068359D01*
X0059059Y0068861D01*
X0058641Y0069435D01*
X0058319Y0070068D01*
X0058099Y0070743D01*
X0058011Y0071300D01*
X0062000Y0071300D01*
X0062000Y0072300D01*
X0058011Y0072300D01*
X0058099Y0072857D01*
X0058319Y0073532D01*
X0058641Y0074165D01*
X0059059Y0074739D01*
X0059561Y0075241D01*
X0060135Y0075659D01*
X0060768Y0075981D01*
X0061443Y0076201D01*
X0062000Y0076289D01*
X0062000Y0074691D02*
X0063000Y0074691D01*
X0063000Y0073693D02*
X0062000Y0073693D01*
X0062000Y0072694D02*
X0063000Y0072694D01*
X0063000Y0071696D02*
X0067988Y0071696D01*
X0067988Y0072694D02*
X0066926Y0072694D01*
X0066599Y0073693D02*
X0068400Y0073693D01*
X0069011Y0074691D02*
X0065976Y0074691D01*
X0064804Y0075690D02*
X0070101Y0075690D01*
X0068073Y0070697D02*
X0066886Y0070697D01*
X0066493Y0069699D02*
X0068487Y0069699D01*
X0069219Y0068700D02*
X0065781Y0068700D01*
X0064395Y0067702D02*
X0070604Y0067702D01*
X0063000Y0067702D02*
X0062000Y0067702D01*
X0062000Y0068700D02*
X0063000Y0068700D01*
X0063000Y0069699D02*
X0062000Y0069699D01*
X0062000Y0070697D02*
X0063000Y0070697D01*
X0062000Y0071696D02*
X0038977Y0071696D01*
X0039453Y0070697D02*
X0058114Y0070697D01*
X0058507Y0069699D02*
X0039453Y0069699D01*
X0039453Y0068700D02*
X0059219Y0068700D01*
X0060605Y0067702D02*
X0039453Y0067702D01*
X0037250Y0072694D02*
X0058074Y0072694D01*
X0058401Y0073693D02*
X0037250Y0073693D01*
X0037250Y0074691D02*
X0059024Y0074691D01*
X0060196Y0075690D02*
X0037250Y0075690D01*
X0037250Y0076688D02*
X0087000Y0076688D01*
X0087000Y0075690D02*
X0084899Y0075690D01*
X0086532Y0077687D02*
X0087000Y0077687D01*
X0093000Y0077687D02*
X0192280Y0077687D01*
X0192280Y0078685D02*
X0093000Y0078685D01*
X0093000Y0079684D02*
X0192280Y0079684D01*
X0192280Y0080682D02*
X0093000Y0080682D01*
X0093000Y0081681D02*
X0192280Y0081681D01*
X0192853Y0082679D02*
X0093000Y0082679D01*
X0093000Y0076688D02*
X0192280Y0076688D01*
X0192351Y0075690D02*
X0093000Y0075690D01*
X0093000Y0074691D02*
X0165468Y0074691D01*
X0165528Y0074751D02*
X0164549Y0073772D01*
X0164019Y0072492D01*
X0164019Y0071501D01*
X0156568Y0064050D01*
X0095173Y0064050D01*
X0094472Y0064751D01*
X0093192Y0065281D01*
X0091808Y0065281D01*
X0090528Y0064751D01*
X0089549Y0063772D01*
X0089019Y0062492D01*
X0089019Y0061108D01*
X0089549Y0059828D01*
X0090528Y0058849D01*
X0091808Y0058319D01*
X0093192Y0058319D01*
X0094472Y0058849D01*
X0095173Y0059550D01*
X0158432Y0059550D01*
X0167201Y0068319D01*
X0168192Y0068319D01*
X0169472Y0068849D01*
X0170451Y0069828D01*
X0170981Y0071108D01*
X0170981Y0072492D01*
X0170451Y0073772D01*
X0169472Y0074751D01*
X0168192Y0075281D01*
X0166808Y0075281D01*
X0165528Y0074751D01*
X0164516Y0073693D02*
X0092996Y0073693D01*
X0092582Y0072694D02*
X0164103Y0072694D01*
X0164019Y0071696D02*
X0091638Y0071696D01*
X0090640Y0070697D02*
X0163215Y0070697D01*
X0162217Y0069699D02*
X0089641Y0069699D01*
X0085781Y0068700D02*
X0161218Y0068700D01*
X0160220Y0067702D02*
X0085500Y0067702D01*
X0085500Y0066703D02*
X0159221Y0066703D01*
X0158223Y0065705D02*
X0085500Y0065705D01*
X0085500Y0064706D02*
X0090483Y0064706D01*
X0089522Y0063708D02*
X0085500Y0063708D01*
X0085500Y0062709D02*
X0089109Y0062709D01*
X0089019Y0061711D02*
X0085500Y0061711D01*
X0085500Y0060712D02*
X0089183Y0060712D01*
X0089663Y0059714D02*
X0085500Y0059714D01*
X0085500Y0058715D02*
X0090851Y0058715D01*
X0094149Y0058715D02*
X0158545Y0058715D01*
X0158596Y0059714D02*
X0196587Y0059714D01*
X0196587Y0060712D02*
X0159594Y0060712D01*
X0160593Y0061711D02*
X0196587Y0061711D01*
X0196587Y0062709D02*
X0161591Y0062709D01*
X0162590Y0063708D02*
X0196587Y0063708D01*
X0196587Y0064706D02*
X0163588Y0064706D01*
X0164587Y0065705D02*
X0196587Y0065705D01*
X0196587Y0066703D02*
X0165585Y0066703D01*
X0166584Y0067702D02*
X0192900Y0067702D01*
X0192287Y0068700D02*
X0169113Y0068700D01*
X0170322Y0069699D02*
X0192280Y0069699D01*
X0192280Y0070697D02*
X0170811Y0070697D01*
X0170981Y0071696D02*
X0192280Y0071696D01*
X0192280Y0072694D02*
X0170897Y0072694D01*
X0170484Y0073693D02*
X0192280Y0073693D01*
X0192280Y0074691D02*
X0169532Y0074691D01*
X0157224Y0064706D02*
X0094517Y0064706D01*
X0085826Y0057717D02*
X0157244Y0057717D01*
X0156716Y0056718D02*
X0086825Y0056718D01*
X0087823Y0055720D02*
X0156519Y0055720D01*
X0156575Y0054721D02*
X0088822Y0054721D01*
X0089820Y0053723D02*
X0156989Y0053723D01*
X0157750Y0052724D02*
X0090819Y0052724D01*
X0091817Y0051726D02*
X0157750Y0051726D01*
X0157750Y0050727D02*
X0092656Y0050727D01*
X0093000Y0049729D02*
X0157750Y0049729D01*
X0157750Y0048730D02*
X0093000Y0048730D01*
X0093356Y0047732D02*
X0157750Y0047732D01*
X0162250Y0041740D02*
X0162517Y0041740D01*
X0162629Y0036748D02*
X0162250Y0036748D01*
X0157750Y0033752D02*
X0006250Y0033752D01*
X0006250Y0032754D02*
X0157750Y0032754D01*
X0157750Y0031755D02*
X0006250Y0031755D01*
X0006250Y0030757D02*
X0157750Y0030757D01*
X0157750Y0029758D02*
X0006250Y0029758D01*
X0006250Y0028760D02*
X0157750Y0028760D01*
X0157750Y0027761D02*
X0006250Y0027761D01*
X0006250Y0026763D02*
X0157750Y0026763D01*
X0157750Y0025764D02*
X0121206Y0025764D01*
X0119429Y0026500D02*
X0115571Y0026500D01*
X0112005Y0025023D01*
X0109277Y0022295D01*
X0107800Y0018729D01*
X0107800Y0014871D01*
X0109277Y0011305D01*
X0112005Y0008577D01*
X0115571Y0007100D01*
X0119429Y0007100D01*
X0122995Y0008577D01*
X0125723Y0011305D01*
X0127200Y0014871D01*
X0127200Y0018729D01*
X0125723Y0022295D01*
X0122995Y0025023D01*
X0119429Y0026500D01*
X0123252Y0024766D02*
X0157750Y0024766D01*
X0157750Y0023767D02*
X0124251Y0023767D01*
X0125249Y0022769D02*
X0158349Y0022769D01*
X0159348Y0021770D02*
X0125940Y0021770D01*
X0126354Y0020772D02*
X0160346Y0020772D01*
X0161345Y0019773D02*
X0126768Y0019773D01*
X0127181Y0018775D02*
X0162343Y0018775D01*
X0163342Y0017776D02*
X0127200Y0017776D01*
X0127200Y0016778D02*
X0164340Y0016778D01*
X0127200Y0015779D02*
X0377800Y0015779D01*
X0377837Y0014781D02*
X0127163Y0014781D01*
X0126749Y0013782D02*
X0378251Y0013782D01*
X0378664Y0012784D02*
X0126336Y0012784D01*
X0125922Y0011785D02*
X0379078Y0011785D01*
X0379796Y0010787D02*
X0125204Y0010787D01*
X0124206Y0009788D02*
X0380794Y0009788D01*
X0381793Y0008790D02*
X0123207Y0008790D01*
X0121098Y0007791D02*
X0383902Y0007791D01*
X0391098Y0007791D02*
X0398750Y0007791D01*
X0398750Y0006793D02*
X0006250Y0006793D01*
X0006250Y0007791D02*
X0113902Y0007791D01*
X0111793Y0008790D02*
X0006250Y0008790D01*
X0006250Y0009788D02*
X0110794Y0009788D01*
X0109796Y0010787D02*
X0006250Y0010787D01*
X0006250Y0011785D02*
X0109078Y0011785D01*
X0108664Y0012784D02*
X0006250Y0012784D01*
X0006250Y0013782D02*
X0108251Y0013782D01*
X0107837Y0014781D02*
X0006250Y0014781D01*
X0006250Y0015779D02*
X0107800Y0015779D01*
X0107800Y0016778D02*
X0006250Y0016778D01*
X0006250Y0017776D02*
X0107800Y0017776D01*
X0107819Y0018775D02*
X0006250Y0018775D01*
X0006250Y0019773D02*
X0108232Y0019773D01*
X0108646Y0020772D02*
X0006250Y0020772D01*
X0006250Y0021770D02*
X0109060Y0021770D01*
X0109751Y0022769D02*
X0006250Y0022769D01*
X0006250Y0023767D02*
X0110749Y0023767D01*
X0111748Y0024766D02*
X0006250Y0024766D01*
X0006250Y0025764D02*
X0113794Y0025764D01*
X0078175Y0034751D02*
X0071825Y0034751D01*
X0072531Y0035043D02*
X0073788Y0036300D01*
X0074468Y0037943D01*
X0074468Y0045657D01*
X0073788Y0047300D01*
X0072531Y0048557D01*
X0070889Y0049237D01*
X0069111Y0049237D01*
X0067469Y0048557D01*
X0066212Y0047300D01*
X0065531Y0045657D01*
X0065531Y0037943D01*
X0066212Y0036300D01*
X0067469Y0035043D01*
X0069111Y0034363D01*
X0070889Y0034363D01*
X0072531Y0035043D01*
X0073237Y0035749D02*
X0076763Y0035749D01*
X0076026Y0036748D02*
X0073974Y0036748D01*
X0074387Y0037746D02*
X0075613Y0037746D01*
X0075531Y0038745D02*
X0074468Y0038745D01*
X0074468Y0039743D02*
X0075531Y0039743D01*
X0075531Y0040742D02*
X0074468Y0040742D01*
X0074468Y0041740D02*
X0075531Y0041740D01*
X0075531Y0042739D02*
X0074468Y0042739D01*
X0074468Y0043737D02*
X0075531Y0043737D01*
X0075531Y0044736D02*
X0074468Y0044736D01*
X0074437Y0045734D02*
X0075563Y0045734D01*
X0075977Y0046733D02*
X0074023Y0046733D01*
X0073356Y0047732D02*
X0076644Y0047732D01*
X0077887Y0048730D02*
X0072113Y0048730D01*
X0067887Y0048730D02*
X0062068Y0048730D01*
X0062342Y0048590D02*
X0061715Y0048910D01*
X0061046Y0049127D01*
X0060484Y0049216D01*
X0060484Y0042284D01*
X0064468Y0042284D01*
X0064468Y0045120D01*
X0064358Y0045815D01*
X0064141Y0046484D01*
X0063822Y0047111D01*
X0063408Y0047680D01*
X0062911Y0048177D01*
X0062342Y0048590D01*
X0063356Y0047732D02*
X0066644Y0047732D01*
X0065977Y0046733D02*
X0064014Y0046733D01*
X0064371Y0045734D02*
X0065563Y0045734D01*
X0065531Y0044736D02*
X0064468Y0044736D01*
X0064468Y0043737D02*
X0065531Y0043737D01*
X0065531Y0042739D02*
X0064468Y0042739D01*
X0064468Y0041316D02*
X0060484Y0041316D01*
X0060484Y0034384D01*
X0061046Y0034473D01*
X0061715Y0034690D01*
X0062342Y0035010D01*
X0062911Y0035423D01*
X0063408Y0035920D01*
X0063822Y0036489D01*
X0064141Y0037116D01*
X0064358Y0037785D01*
X0064468Y0038480D01*
X0064468Y0041316D01*
X0064468Y0040742D02*
X0065531Y0040742D01*
X0065531Y0041740D02*
X0060484Y0041740D01*
X0060484Y0041316D02*
X0060484Y0042284D01*
X0059516Y0042284D01*
X0059516Y0041316D01*
X0060484Y0041316D01*
X0060484Y0040742D02*
X0059516Y0040742D01*
X0059516Y0041316D02*
X0059516Y0034384D01*
X0058954Y0034473D01*
X0058285Y0034690D01*
X0057658Y0035010D01*
X0057089Y0035423D01*
X0056592Y0035920D01*
X0056178Y0036489D01*
X0055859Y0037116D01*
X0055642Y0037785D01*
X0055531Y0038480D01*
X0055531Y0041316D01*
X0059516Y0041316D01*
X0059516Y0041740D02*
X0006250Y0041740D01*
X0006250Y0040742D02*
X0055531Y0040742D01*
X0055531Y0039743D02*
X0006250Y0039743D01*
X0006250Y0038745D02*
X0055531Y0038745D01*
X0055654Y0037746D02*
X0006250Y0037746D01*
X0006250Y0036748D02*
X0056047Y0036748D01*
X0056763Y0035749D02*
X0006250Y0035749D01*
X0006250Y0034751D02*
X0058166Y0034751D01*
X0059516Y0034751D02*
X0060484Y0034751D01*
X0060484Y0035749D02*
X0059516Y0035749D01*
X0059516Y0036748D02*
X0060484Y0036748D01*
X0060484Y0037746D02*
X0059516Y0037746D01*
X0059516Y0038745D02*
X0060484Y0038745D01*
X0060484Y0039743D02*
X0059516Y0039743D01*
X0059516Y0042284D02*
X0055531Y0042284D01*
X0055531Y0045120D01*
X0055642Y0045815D01*
X0055859Y0046484D01*
X0056178Y0047111D01*
X0056592Y0047680D01*
X0057089Y0048177D01*
X0057658Y0048590D01*
X0058285Y0048910D01*
X0058954Y0049127D01*
X0059516Y0049216D01*
X0059516Y0042284D01*
X0059516Y0042739D02*
X0060484Y0042739D01*
X0060484Y0043737D02*
X0059516Y0043737D01*
X0059516Y0044736D02*
X0060484Y0044736D01*
X0060484Y0045734D02*
X0059516Y0045734D01*
X0059516Y0046733D02*
X0060484Y0046733D01*
X0060484Y0047732D02*
X0059516Y0047732D01*
X0059516Y0048730D02*
X0060484Y0048730D01*
X0057932Y0048730D02*
X0006250Y0048730D01*
X0006250Y0047732D02*
X0056644Y0047732D01*
X0055986Y0046733D02*
X0006250Y0046733D01*
X0006250Y0045734D02*
X0055629Y0045734D01*
X0055531Y0044736D02*
X0006250Y0044736D01*
X0006250Y0043737D02*
X0055531Y0043737D01*
X0055531Y0042739D02*
X0006250Y0042739D01*
X0006250Y0061711D02*
X0030547Y0061711D01*
X0030547Y0062709D02*
X0006250Y0062709D01*
X0006250Y0063708D02*
X0030655Y0063708D01*
X0030701Y0064706D02*
X0006250Y0064706D01*
X0006250Y0065705D02*
X0030547Y0065705D01*
X0030547Y0066703D02*
X0006250Y0066703D01*
X0006250Y0067702D02*
X0030547Y0067702D01*
X0030547Y0068700D02*
X0006250Y0068700D01*
X0006250Y0069699D02*
X0030547Y0069699D01*
X0030547Y0070697D02*
X0006250Y0070697D01*
X0006250Y0071696D02*
X0031023Y0071696D01*
X0032750Y0072694D02*
X0006250Y0072694D01*
X0006250Y0073693D02*
X0032750Y0073693D01*
X0032750Y0074691D02*
X0006250Y0074691D01*
X0006250Y0075690D02*
X0032750Y0075690D01*
X0032750Y0076688D02*
X0006250Y0076688D01*
X0006250Y0077687D02*
X0032750Y0077687D01*
X0032750Y0078685D02*
X0006250Y0078685D01*
X0006250Y0079684D02*
X0032750Y0079684D01*
X0032750Y0080682D02*
X0006250Y0080682D01*
X0006250Y0081681D02*
X0032750Y0081681D01*
X0032750Y0082679D02*
X0006250Y0082679D01*
X0006250Y0083678D02*
X0031960Y0083678D01*
X0031108Y0084676D02*
X0006250Y0084676D01*
X0006250Y0085675D02*
X0030695Y0085675D01*
X0030531Y0086673D02*
X0006250Y0086673D01*
X0006250Y0087672D02*
X0030531Y0087672D01*
X0030873Y0088670D02*
X0006250Y0088670D01*
X0006250Y0089669D02*
X0031392Y0089669D01*
X0032391Y0090668D02*
X0006250Y0090668D01*
X0006250Y0091666D02*
X0087000Y0091666D01*
X0087000Y0090668D02*
X0037609Y0090668D01*
X0038608Y0089669D02*
X0087000Y0089669D01*
X0087000Y0088670D02*
X0039127Y0088670D01*
X0039468Y0087672D02*
X0087000Y0087672D01*
X0087000Y0086673D02*
X0039468Y0086673D01*
X0039305Y0085675D02*
X0060065Y0085675D01*
X0058996Y0084676D02*
X0038892Y0084676D01*
X0038040Y0083678D02*
X0058394Y0083678D01*
X0057988Y0082679D02*
X0037250Y0082679D01*
X0037250Y0081681D02*
X0057988Y0081681D01*
X0058079Y0080682D02*
X0037250Y0080682D01*
X0037250Y0079684D02*
X0058493Y0079684D01*
X0059234Y0078685D02*
X0037250Y0078685D01*
X0037250Y0077687D02*
X0060640Y0077687D01*
X0082712Y0092665D02*
X0006250Y0092665D01*
X0037037Y0102650D02*
X0047750Y0102650D01*
X0047470Y0103648D02*
X0038325Y0103648D01*
X0086788Y0092665D02*
X0087000Y0092665D01*
X0087000Y0085675D02*
X0086770Y0085675D01*
X0097288Y0092665D02*
X0170462Y0092665D01*
X0174538Y0092665D02*
X0253250Y0092665D01*
X0253250Y0093663D02*
X0175486Y0093663D01*
X0175900Y0094662D02*
X0253250Y0094662D01*
X0253250Y0095660D02*
X0175981Y0095660D01*
X0175809Y0096659D02*
X0253250Y0096659D01*
X0253250Y0097657D02*
X0175316Y0097657D01*
X0174099Y0098656D02*
X0253250Y0098656D01*
X0259250Y0098656D02*
X0398750Y0098656D01*
X0398750Y0099654D02*
X0347097Y0099654D01*
X0348095Y0100653D02*
X0398750Y0100653D01*
X0398750Y0101651D02*
X0349094Y0101651D01*
X0350092Y0102650D02*
X0398750Y0102650D01*
X0398750Y0103648D02*
X0351091Y0103648D01*
X0352089Y0104647D02*
X0398750Y0104647D01*
X0398750Y0105645D02*
X0353088Y0105645D01*
X0354086Y0106644D02*
X0398750Y0106644D01*
X0398750Y0107642D02*
X0355085Y0107642D01*
X0356083Y0108641D02*
X0398750Y0108641D01*
X0398750Y0109639D02*
X0357082Y0109639D01*
X0358080Y0110638D02*
X0398750Y0110638D01*
X0398750Y0111636D02*
X0359079Y0111636D01*
X0360077Y0112635D02*
X0398750Y0112635D01*
X0398750Y0113633D02*
X0361076Y0113633D01*
X0362074Y0114632D02*
X0398750Y0114632D01*
X0398750Y0115630D02*
X0362763Y0115630D01*
X0363000Y0116629D02*
X0398750Y0116629D01*
X0398750Y0117627D02*
X0363000Y0117627D01*
X0363000Y0118626D02*
X0398750Y0118626D01*
X0398750Y0119624D02*
X0363000Y0119624D01*
X0363000Y0120623D02*
X0398750Y0120623D01*
X0398750Y0121621D02*
X0363000Y0121621D01*
X0363000Y0122620D02*
X0398750Y0122620D01*
X0398750Y0123618D02*
X0363000Y0123618D01*
X0363000Y0124617D02*
X0398750Y0124617D01*
X0398750Y0125615D02*
X0363000Y0125615D01*
X0363000Y0126614D02*
X0398750Y0126614D01*
X0398750Y0127612D02*
X0363000Y0127612D01*
X0363000Y0128611D02*
X0398750Y0128611D01*
X0398750Y0129609D02*
X0363000Y0129609D01*
X0363000Y0130608D02*
X0398750Y0130608D01*
X0398750Y0131606D02*
X0363000Y0131606D01*
X0363000Y0132605D02*
X0398750Y0132605D01*
X0398750Y0133603D02*
X0363000Y0133603D01*
X0363000Y0134602D02*
X0398750Y0134602D01*
X0398750Y0135601D02*
X0363000Y0135601D01*
X0363000Y0136599D02*
X0398750Y0136599D01*
X0398750Y0137598D02*
X0363000Y0137598D01*
X0363000Y0138596D02*
X0398750Y0138596D01*
X0398750Y0139595D02*
X0363000Y0139595D01*
X0363000Y0140593D02*
X0398750Y0140593D01*
X0398750Y0141592D02*
X0363000Y0141592D01*
X0363000Y0142590D02*
X0398750Y0142590D01*
X0398750Y0143589D02*
X0363000Y0143589D01*
X0363000Y0144587D02*
X0398750Y0144587D01*
X0398750Y0145586D02*
X0363000Y0145586D01*
X0363000Y0146584D02*
X0398750Y0146584D01*
X0398750Y0147583D02*
X0363000Y0147583D01*
X0363000Y0148581D02*
X0398750Y0148581D01*
X0398750Y0149580D02*
X0363000Y0149580D01*
X0363000Y0150578D02*
X0398750Y0150578D01*
X0398750Y0151577D02*
X0363000Y0151577D01*
X0363000Y0152575D02*
X0398750Y0152575D01*
X0398750Y0153574D02*
X0363000Y0153574D01*
X0363000Y0154572D02*
X0398750Y0154572D01*
X0398750Y0155571D02*
X0363000Y0155571D01*
X0363000Y0156569D02*
X0398750Y0156569D01*
X0398750Y0157568D02*
X0363000Y0157568D01*
X0363000Y0158566D02*
X0398750Y0158566D01*
X0398750Y0159565D02*
X0363000Y0159565D01*
X0363000Y0160563D02*
X0398750Y0160563D01*
X0398750Y0161562D02*
X0363000Y0161562D01*
X0363000Y0162560D02*
X0398750Y0162560D01*
X0398750Y0163559D02*
X0363000Y0163559D01*
X0363000Y0164557D02*
X0398750Y0164557D01*
X0398750Y0165556D02*
X0363000Y0165556D01*
X0363000Y0166554D02*
X0398750Y0166554D01*
X0398750Y0167553D02*
X0363000Y0167553D01*
X0363000Y0168551D02*
X0398750Y0168551D01*
X0398750Y0169550D02*
X0363000Y0169550D01*
X0363000Y0170548D02*
X0398750Y0170548D01*
X0398750Y0171547D02*
X0363000Y0171547D01*
X0363000Y0172545D02*
X0398750Y0172545D01*
X0398750Y0173544D02*
X0363000Y0173544D01*
X0363000Y0174542D02*
X0398750Y0174542D01*
X0398750Y0175541D02*
X0363000Y0175541D01*
X0363000Y0176539D02*
X0398750Y0176539D01*
X0398750Y0177538D02*
X0363000Y0177538D01*
X0363000Y0178537D02*
X0398750Y0178537D01*
X0398750Y0179535D02*
X0363000Y0179535D01*
X0363000Y0180534D02*
X0398750Y0180534D01*
X0398750Y0181532D02*
X0363000Y0181532D01*
X0363000Y0182531D02*
X0398750Y0182531D01*
X0398750Y0183529D02*
X0363000Y0183529D01*
X0363000Y0184528D02*
X0398750Y0184528D01*
X0398750Y0185526D02*
X0362739Y0185526D01*
X0362018Y0186525D02*
X0398750Y0186525D01*
X0398750Y0187523D02*
X0361020Y0187523D01*
X0360021Y0188522D02*
X0398750Y0188522D01*
X0398750Y0189520D02*
X0359023Y0189520D01*
X0358024Y0190519D02*
X0398750Y0190519D01*
X0398750Y0191517D02*
X0357025Y0191517D01*
X0356027Y0192516D02*
X0398750Y0192516D01*
X0398750Y0193514D02*
X0355028Y0193514D01*
X0354030Y0194513D02*
X0398750Y0194513D01*
X0398750Y0195511D02*
X0353031Y0195511D01*
X0352033Y0196510D02*
X0398750Y0196510D01*
X0398750Y0197508D02*
X0351034Y0197508D01*
X0350036Y0198507D02*
X0398750Y0198507D01*
X0398750Y0199505D02*
X0349037Y0199505D01*
X0348039Y0200504D02*
X0398750Y0200504D01*
X0398750Y0201502D02*
X0347040Y0201502D01*
X0346042Y0202501D02*
X0398750Y0202501D01*
X0398750Y0203499D02*
X0345500Y0203499D01*
X0345500Y0204498D02*
X0398750Y0204498D01*
X0398750Y0205496D02*
X0345500Y0205496D01*
X0345500Y0206495D02*
X0398750Y0206495D01*
X0398750Y0207493D02*
X0345500Y0207493D01*
X0345500Y0208492D02*
X0398750Y0208492D01*
X0398750Y0209490D02*
X0345500Y0209490D01*
X0345500Y0210489D02*
X0398750Y0210489D01*
X0398750Y0211487D02*
X0345500Y0211487D01*
X0345500Y0222471D02*
X0356161Y0222471D01*
X0354450Y0223470D02*
X0345500Y0223470D01*
X0336185Y0187523D02*
X0285532Y0187523D01*
X0272166Y0164557D02*
X0357000Y0164557D01*
X0357000Y0163559D02*
X0273039Y0163559D01*
X0273453Y0162560D02*
X0357000Y0162560D01*
X0357000Y0161562D02*
X0273481Y0161562D01*
X0273256Y0160563D02*
X0357000Y0160563D01*
X0357000Y0159565D02*
X0272688Y0159565D01*
X0272250Y0158566D02*
X0357000Y0158566D01*
X0357000Y0157568D02*
X0276207Y0157568D01*
X0277654Y0156569D02*
X0357000Y0156569D01*
X0357000Y0155571D02*
X0278242Y0155571D01*
X0278481Y0154572D02*
X0357000Y0154572D01*
X0357000Y0153574D02*
X0278467Y0153574D01*
X0278053Y0152575D02*
X0357000Y0152575D01*
X0357000Y0151577D02*
X0277250Y0151577D01*
X0277250Y0150578D02*
X0357000Y0150578D01*
X0357000Y0149580D02*
X0277250Y0149580D01*
X0277250Y0148581D02*
X0357000Y0148581D01*
X0357000Y0147583D02*
X0277250Y0147583D01*
X0277250Y0146584D02*
X0357000Y0146584D01*
X0357000Y0145586D02*
X0277250Y0145586D01*
X0277250Y0144587D02*
X0357000Y0144587D01*
X0357000Y0143589D02*
X0277250Y0143589D01*
X0277250Y0142590D02*
X0357000Y0142590D01*
X0357000Y0141592D02*
X0277250Y0141592D01*
X0277250Y0140593D02*
X0357000Y0140593D01*
X0357000Y0139595D02*
X0277250Y0139595D01*
X0277250Y0138596D02*
X0357000Y0138596D01*
X0357000Y0137598D02*
X0277250Y0137598D01*
X0277250Y0136599D02*
X0357000Y0136599D01*
X0357000Y0135601D02*
X0277250Y0135601D01*
X0277250Y0134602D02*
X0357000Y0134602D01*
X0357000Y0133603D02*
X0277250Y0133603D01*
X0277250Y0132605D02*
X0357000Y0132605D01*
X0357000Y0131606D02*
X0277250Y0131606D01*
X0277250Y0130608D02*
X0357000Y0130608D01*
X0357000Y0129609D02*
X0277250Y0129609D01*
X0277250Y0128611D02*
X0357000Y0128611D01*
X0357000Y0127612D02*
X0277250Y0127612D01*
X0277250Y0126614D02*
X0357000Y0126614D01*
X0357000Y0125615D02*
X0277250Y0125615D01*
X0277250Y0124617D02*
X0357000Y0124617D01*
X0357000Y0123618D02*
X0277250Y0123618D01*
X0277250Y0122620D02*
X0357000Y0122620D01*
X0357000Y0121621D02*
X0277250Y0121621D01*
X0277250Y0120623D02*
X0357000Y0120623D01*
X0357000Y0119624D02*
X0277250Y0119624D01*
X0277250Y0118626D02*
X0357000Y0118626D01*
X0356585Y0117627D02*
X0346064Y0117627D01*
X0347594Y0116629D02*
X0355586Y0116629D01*
X0354588Y0115630D02*
X0348217Y0115630D01*
X0348481Y0114632D02*
X0353589Y0114632D01*
X0352591Y0113633D02*
X0348481Y0113633D01*
X0348078Y0112635D02*
X0351592Y0112635D01*
X0350594Y0111636D02*
X0347259Y0111636D01*
X0348597Y0109639D02*
X0343521Y0109639D01*
X0342523Y0108641D02*
X0347598Y0108641D01*
X0346600Y0107642D02*
X0341524Y0107642D01*
X0340526Y0106644D02*
X0345601Y0106644D01*
X0344603Y0105645D02*
X0339527Y0105645D01*
X0337157Y0109639D02*
X0330891Y0109639D01*
X0330981Y0110638D02*
X0338156Y0110638D01*
X0339154Y0111636D02*
X0330818Y0111636D01*
X0330338Y0112635D02*
X0340153Y0112635D01*
X0341151Y0113633D02*
X0329153Y0113633D01*
X0325847Y0113633D02*
X0273980Y0113633D01*
X0274978Y0114632D02*
X0341519Y0114632D01*
X0341783Y0115630D02*
X0275977Y0115630D01*
X0276975Y0116629D02*
X0342406Y0116629D01*
X0343936Y0117627D02*
X0277250Y0117627D01*
X0256587Y0132605D02*
X0135913Y0132605D01*
X0136120Y0133603D02*
X0134914Y0133603D01*
X0134775Y0134602D02*
X0134750Y0134602D01*
X0136911Y0131606D02*
X0255589Y0131606D01*
X0257586Y0133603D02*
X0138879Y0133603D01*
X0140225Y0134602D02*
X0257750Y0134602D01*
X0257750Y0135601D02*
X0140771Y0135601D01*
X0140981Y0136599D02*
X0257750Y0136599D01*
X0257750Y0137598D02*
X0140938Y0137598D01*
X0140524Y0138596D02*
X0257750Y0138596D01*
X0257750Y0139595D02*
X0139750Y0139595D01*
X0139750Y0140593D02*
X0257750Y0140593D01*
X0257750Y0141592D02*
X0139750Y0141592D01*
X0139750Y0142590D02*
X0257750Y0142590D01*
X0257750Y0143589D02*
X0139750Y0143589D01*
X0139750Y0144587D02*
X0257750Y0144587D01*
X0257750Y0145586D02*
X0139750Y0145586D01*
X0140055Y0146584D02*
X0141559Y0146584D01*
X0141599Y0146545D02*
X0141941Y0146347D01*
X0142322Y0146245D01*
X0143807Y0146245D01*
X0143807Y0149032D01*
X0141020Y0149032D01*
X0141020Y0147547D01*
X0141122Y0147166D01*
X0141319Y0146824D01*
X0141599Y0146545D01*
X0141020Y0147583D02*
X0140575Y0147583D01*
X0140575Y0148581D02*
X0141020Y0148581D01*
X0140575Y0149580D02*
X0143807Y0149580D01*
X0144382Y0149580D02*
X0257750Y0149580D01*
X0257750Y0150578D02*
X0147169Y0150578D01*
X0147007Y0151577D02*
X0257750Y0151577D01*
X0257750Y0152575D02*
X0147169Y0152575D01*
X0144382Y0152575D02*
X0143807Y0152575D01*
X0143807Y0151577D02*
X0144382Y0151577D01*
X0144382Y0150578D02*
X0143807Y0150578D01*
X0143807Y0148581D02*
X0144382Y0148581D01*
X0144382Y0147583D02*
X0143807Y0147583D01*
X0143807Y0146584D02*
X0144382Y0146584D01*
X0146630Y0146584D02*
X0257750Y0146584D01*
X0257750Y0147583D02*
X0147169Y0147583D01*
X0147169Y0148581D02*
X0257750Y0148581D01*
X0262250Y0156569D02*
X0262346Y0156569D01*
X0262250Y0157568D02*
X0263793Y0157568D01*
X0262250Y0158566D02*
X0267750Y0158566D01*
X0267750Y0157568D02*
X0266207Y0157568D01*
X0267654Y0156569D02*
X0267750Y0156569D01*
X0267312Y0159565D02*
X0262688Y0159565D01*
X0263256Y0160563D02*
X0266744Y0160563D01*
X0266519Y0161562D02*
X0263481Y0161562D01*
X0263453Y0162560D02*
X0266547Y0162560D01*
X0266961Y0163559D02*
X0263039Y0163559D01*
X0262166Y0164557D02*
X0267834Y0164557D01*
X0272250Y0157568D02*
X0273793Y0157568D01*
X0272346Y0156569D02*
X0272250Y0156569D01*
X0315323Y0166554D02*
X0162669Y0166554D01*
X0144382Y0153574D02*
X0143807Y0153574D01*
X0141182Y0151577D02*
X0140494Y0151577D01*
X0140575Y0150578D02*
X0141020Y0150578D01*
X0194919Y0071696D02*
X0195199Y0071696D01*
X0195199Y0070697D02*
X0194919Y0070697D01*
X0194919Y0069699D02*
X0195199Y0069699D01*
X0195199Y0068700D02*
X0194919Y0068700D01*
X0194919Y0067702D02*
X0195199Y0067702D01*
X0233232Y0036748D02*
X0398750Y0036748D01*
X0398750Y0037746D02*
X0252321Y0037746D01*
X0253688Y0038745D02*
X0398750Y0038745D01*
X0398750Y0039743D02*
X0254686Y0039743D01*
X0255685Y0040742D02*
X0398750Y0040742D01*
X0398750Y0041740D02*
X0256683Y0041740D01*
X0257682Y0042739D02*
X0398750Y0042739D01*
X0398750Y0043737D02*
X0258680Y0043737D01*
X0259160Y0044736D02*
X0398750Y0044736D01*
X0398750Y0045734D02*
X0259250Y0045734D01*
X0259250Y0046733D02*
X0398750Y0046733D01*
X0398750Y0047732D02*
X0259250Y0047732D01*
X0259250Y0048730D02*
X0398750Y0048730D01*
X0398750Y0049729D02*
X0259250Y0049729D01*
X0259250Y0050727D02*
X0398750Y0050727D01*
X0398750Y0051726D02*
X0259250Y0051726D01*
X0259250Y0052724D02*
X0398750Y0052724D01*
X0398750Y0053723D02*
X0259250Y0053723D01*
X0259250Y0054721D02*
X0398750Y0054721D01*
X0398750Y0055720D02*
X0259250Y0055720D01*
X0259250Y0056718D02*
X0398750Y0056718D01*
X0398750Y0057717D02*
X0259250Y0057717D01*
X0259250Y0058715D02*
X0398750Y0058715D01*
X0398750Y0059714D02*
X0259250Y0059714D01*
X0259250Y0060712D02*
X0398750Y0060712D01*
X0398750Y0061711D02*
X0259250Y0061711D01*
X0259250Y0062709D02*
X0398750Y0062709D01*
X0398750Y0063708D02*
X0259250Y0063708D01*
X0259250Y0064706D02*
X0398750Y0064706D01*
X0398750Y0065705D02*
X0259250Y0065705D01*
X0259250Y0066703D02*
X0398750Y0066703D01*
X0398750Y0067702D02*
X0259250Y0067702D01*
X0259250Y0068700D02*
X0398750Y0068700D01*
X0398750Y0069699D02*
X0259250Y0069699D01*
X0259250Y0070697D02*
X0398750Y0070697D01*
X0398750Y0071696D02*
X0259250Y0071696D01*
X0259250Y0072694D02*
X0398750Y0072694D01*
X0398750Y0073693D02*
X0259250Y0073693D01*
X0259250Y0074691D02*
X0398750Y0074691D01*
X0398750Y0075690D02*
X0259250Y0075690D01*
X0259250Y0076688D02*
X0398750Y0076688D01*
X0398750Y0077687D02*
X0259250Y0077687D01*
X0259250Y0078685D02*
X0398750Y0078685D01*
X0398750Y0079684D02*
X0259250Y0079684D01*
X0259250Y0080682D02*
X0398750Y0080682D01*
X0398750Y0081681D02*
X0259250Y0081681D01*
X0259250Y0082679D02*
X0398750Y0082679D01*
X0398750Y0083678D02*
X0259250Y0083678D01*
X0259250Y0084676D02*
X0398750Y0084676D01*
X0398750Y0085675D02*
X0259250Y0085675D01*
X0259250Y0086673D02*
X0398750Y0086673D01*
X0398750Y0087672D02*
X0259250Y0087672D01*
X0259250Y0088670D02*
X0398750Y0088670D01*
X0398750Y0089669D02*
X0259250Y0089669D01*
X0259250Y0090668D02*
X0398750Y0090668D01*
X0398750Y0091666D02*
X0259250Y0091666D01*
X0259250Y0092665D02*
X0398750Y0092665D01*
X0398750Y0093663D02*
X0259250Y0093663D01*
X0259250Y0094662D02*
X0398750Y0094662D01*
X0398750Y0095660D02*
X0259250Y0095660D01*
X0259250Y0096659D02*
X0398750Y0096659D01*
X0398750Y0097657D02*
X0259250Y0097657D01*
X0233232Y0035749D02*
X0398750Y0035749D01*
X0398750Y0034751D02*
X0233232Y0034751D01*
X0233232Y0033752D02*
X0398750Y0033752D01*
X0398750Y0032754D02*
X0233232Y0032754D01*
X0233232Y0031755D02*
X0398750Y0031755D01*
X0398750Y0030757D02*
X0233232Y0030757D01*
X0248201Y0028760D02*
X0249201Y0028760D01*
X0249201Y0027761D02*
X0248201Y0027761D01*
X0248201Y0026763D02*
X0249201Y0026763D01*
X0249201Y0025764D02*
X0248201Y0025764D01*
X0248201Y0022769D02*
X0249201Y0022769D01*
X0249201Y0021770D02*
X0248201Y0021770D01*
X0248201Y0020772D02*
X0249201Y0020772D01*
X0251794Y0020772D02*
X0378646Y0020772D01*
X0379060Y0021770D02*
X0252466Y0021770D01*
X0252484Y0022769D02*
X0379751Y0022769D01*
X0380749Y0023767D02*
X0252484Y0023767D01*
X0344520Y0110638D02*
X0349595Y0110638D01*
X0345337Y0176539D02*
X0330184Y0176539D01*
X0391206Y0025764D02*
X0398750Y0025764D01*
X0398750Y0024766D02*
X0393252Y0024766D01*
X0394251Y0023767D02*
X0398750Y0023767D01*
X0398750Y0022769D02*
X0395249Y0022769D01*
X0395940Y0021770D02*
X0398750Y0021770D01*
X0398750Y0020772D02*
X0396354Y0020772D01*
X0396768Y0019773D02*
X0398750Y0019773D01*
X0398750Y0018775D02*
X0397181Y0018775D01*
X0397200Y0017776D02*
X0398750Y0017776D01*
X0398750Y0016778D02*
X0397200Y0016778D01*
X0397200Y0015779D02*
X0398750Y0015779D01*
X0398750Y0014781D02*
X0397163Y0014781D01*
X0396749Y0013782D02*
X0398750Y0013782D01*
X0398750Y0012784D02*
X0396336Y0012784D01*
X0395922Y0011785D02*
X0398750Y0011785D01*
X0398750Y0010787D02*
X0395204Y0010787D01*
X0394206Y0009788D02*
X0398750Y0009788D01*
X0398750Y0008790D02*
X0393207Y0008790D01*
X0398750Y0005794D02*
X0006250Y0005794D01*
X0061834Y0034751D02*
X0068175Y0034751D01*
X0066763Y0035749D02*
X0063237Y0035749D01*
X0063953Y0036748D02*
X0066026Y0036748D01*
X0065613Y0037746D02*
X0064346Y0037746D01*
X0064468Y0038745D02*
X0065531Y0038745D01*
X0065531Y0039743D02*
X0064468Y0039743D01*
X0035500Y0056718D02*
X0034500Y0056718D01*
X0034500Y0057717D02*
X0035500Y0057717D01*
X0035500Y0058715D02*
X0034500Y0058715D01*
X0034500Y0059714D02*
X0035500Y0059714D01*
X0009028Y0187523D02*
X0008059Y0187523D01*
X0008059Y0188522D02*
X0009028Y0188522D01*
X0009028Y0189520D02*
X0008059Y0189520D01*
D42*
X0008500Y0190678D02*
X0008500Y0186300D01*
X0008543Y0190678D02*
X0008500Y0190678D01*
X0008500Y0214891D02*
X0008500Y0218800D01*
X0008543Y0214891D02*
X0008500Y0214891D01*
X0357500Y0276800D02*
X0367510Y0266790D01*
X0367510Y0251800D01*
X0367510Y0236800D01*
X0367500Y0236800D01*
D43*
X0347500Y0249300D03*
X0337500Y0249300D03*
X0327500Y0249300D03*
X0317500Y0249300D03*
X0282500Y0189300D03*
X0270000Y0161800D03*
X0260000Y0161800D03*
X0265000Y0154300D03*
X0275000Y0154300D03*
X0317500Y0169300D03*
X0327500Y0174300D03*
X0337500Y0184300D03*
X0347500Y0179300D03*
X0345000Y0114300D03*
X0327500Y0110550D03*
X0212500Y0041800D03*
X0167500Y0071800D03*
X0160000Y0055550D03*
X0165000Y0039300D03*
X0092500Y0061800D03*
X0095250Y0095550D03*
X0084750Y0095550D03*
X0102500Y0126800D03*
X0097500Y0134300D03*
X0107500Y0139300D03*
X0092500Y0161800D03*
X0090000Y0169300D03*
X0092500Y0176800D03*
X0090000Y0184300D03*
X0092500Y0191800D03*
X0090000Y0199300D03*
X0092500Y0206800D03*
X0100000Y0206800D03*
X0107500Y0206800D03*
X0115000Y0206800D03*
X0122500Y0206800D03*
X0130000Y0206800D03*
X0127500Y0214300D03*
X0120000Y0214300D03*
X0112500Y0214300D03*
X0105000Y0214300D03*
X0097500Y0214300D03*
X0090000Y0214300D03*
X0074000Y0215800D03*
X0068500Y0216300D03*
X0061500Y0216300D03*
X0055500Y0216300D03*
X0049000Y0216800D03*
X0041500Y0216300D03*
X0034500Y0216300D03*
X0028500Y0215800D03*
X0022500Y0218300D03*
X0017000Y0218800D03*
X0012500Y0223800D03*
X0029000Y0202800D03*
X0034500Y0202800D03*
X0029000Y0195800D03*
X0027500Y0188300D03*
X0020000Y0186300D03*
X0014000Y0183800D03*
X0050500Y0202800D03*
X0058000Y0202300D03*
X0064000Y0202300D03*
X0072500Y0200550D03*
X0112500Y0231800D03*
X0113750Y0240550D03*
X0122500Y0240550D03*
X0127500Y0231800D03*
X0135000Y0214300D03*
X0160000Y0164300D03*
X0152500Y0159300D03*
X0137500Y0136800D03*
X0172500Y0095550D03*
X0045000Y0153300D03*
X0125000Y0264300D03*
X0203750Y0209300D03*
D44*
X0080925Y0209300D02*
X0067559Y0209300D01*
X0062431Y0209290D02*
X0042500Y0209290D01*
X0042411Y0209379D02*
X0030394Y0209379D01*
M02*
