G75*
%MOIN*%
%OFA0B0*%
%FSLAX25Y25*%
%IPPOS*%
%LPD*%
%AMOC8*
5,1,8,0,0,1.08239X$1,22.5*
%
%ADD10R,0.06299X0.10630*%
%ADD11R,0.05906X0.05118*%
%ADD12R,0.05118X0.05906*%
%ADD13R,0.02756X0.03543*%
%ADD14R,0.03150X0.03150*%
%ADD15R,0.07874X0.07874*%
%ADD16R,0.05906X0.05906*%
%ADD17R,0.04724X0.03937*%
%ADD18R,0.04724X0.01181*%
%ADD19R,0.01969X0.01969*%
%ADD20R,0.03150X0.05512*%
%ADD21R,0.05315X0.07087*%
%ADD22R,0.04567X0.05906*%
%ADD23R,0.02362X0.04528*%
%ADD24R,0.02559X0.05118*%
%ADD25R,0.02559X0.08425*%
%ADD26R,0.02559X0.06299*%
%ADD27R,0.04331X0.01772*%
%ADD28R,0.04528X0.01772*%
D10*
X0049488Y0164300D03*
X0060512Y0164300D03*
D11*
X0035000Y0060560D03*
X0035000Y0068040D03*
X0042500Y0201810D03*
X0042500Y0209290D03*
X0107500Y0240560D03*
X0107500Y0248040D03*
X0102500Y0263060D03*
X0102500Y0270540D03*
X0117500Y0270540D03*
X0117500Y0263060D03*
D12*
X0068740Y0194300D03*
X0061260Y0194300D03*
X0058760Y0179300D03*
X0066240Y0179300D03*
X0283760Y0276800D03*
X0291240Y0276800D03*
X0367510Y0251800D03*
X0374990Y0251800D03*
D13*
X0067559Y0209300D03*
X0062441Y0209300D03*
D14*
X0080925Y0209300D03*
X0080925Y0204300D03*
X0080925Y0199300D03*
X0080925Y0194300D03*
X0080925Y0189300D03*
X0080925Y0184300D03*
X0080925Y0179300D03*
X0080925Y0174300D03*
X0080925Y0169300D03*
X0080925Y0164300D03*
X0080925Y0159300D03*
X0080925Y0154300D03*
X0080925Y0149300D03*
X0087500Y0149300D03*
X0092500Y0149300D03*
X0097500Y0149300D03*
X0102500Y0149300D03*
X0107500Y0149300D03*
X0112500Y0149300D03*
X0117500Y0149300D03*
X0122500Y0149300D03*
X0127500Y0149300D03*
X0132500Y0149300D03*
X0137500Y0149300D03*
X0144094Y0149320D03*
X0144094Y0154320D03*
X0144094Y0159320D03*
X0144094Y0164320D03*
X0144094Y0169320D03*
X0144094Y0174320D03*
X0144094Y0179320D03*
X0144094Y0184320D03*
X0144094Y0189320D03*
X0144094Y0194320D03*
X0144094Y0199320D03*
X0144094Y0204320D03*
X0144094Y0209320D03*
X0144094Y0214320D03*
X0144094Y0219320D03*
X0144094Y0224320D03*
X0137500Y0224300D03*
X0132500Y0224300D03*
X0127500Y0224300D03*
X0122500Y0224300D03*
X0117500Y0224300D03*
X0112500Y0224300D03*
X0107500Y0224300D03*
X0102500Y0224300D03*
X0097500Y0224300D03*
X0092500Y0224300D03*
X0087500Y0224300D03*
X0080925Y0224300D03*
X0080925Y0219300D03*
X0080925Y0214300D03*
D15*
X0106594Y0192706D03*
X0118406Y0192706D03*
X0130217Y0192706D03*
X0130217Y0180894D03*
X0118406Y0180894D03*
X0106594Y0180894D03*
X0106594Y0169083D03*
X0118406Y0169083D03*
D16*
X0129232Y0170068D03*
D17*
X0008543Y0190678D03*
X0008543Y0203276D03*
D18*
X0008543Y0214891D03*
D19*
X0030394Y0209379D03*
D20*
X0199843Y0034044D03*
X0204173Y0034044D03*
X0208504Y0034044D03*
X0212835Y0034044D03*
X0217165Y0034044D03*
X0221496Y0034044D03*
X0225827Y0034044D03*
X0230157Y0034044D03*
D21*
X0196339Y0025973D03*
D22*
X0248701Y0024989D03*
D23*
X0249882Y0056387D03*
D24*
X0249882Y0079713D03*
D25*
X0195059Y0052076D03*
D26*
X0195059Y0072076D03*
D27*
X0195945Y0078001D03*
D28*
X0196043Y0080599D03*
M02*
